<?xml version="1.0" standalone="no"?>
<!DOCTYPE svg PUBLIC "-//W3C//DTD SVG 1.1//EN" "http://www.w3.org/Graphics/SVG/1.1/DTD/svg11.dtd" >
<svg xmlns="http://www.w3.org/2000/svg" xmlns:xlink="http://www.w3.org/1999/xlink" version="1.1">
<metadata>
Created by FontForge 20170731 at Thu Apr 16 11:52:51 2015
 By Aleksey,,,
Copyright (c) 2015 by Studio Kmzero. All rights reserved.
</metadata>
<defs>
<font id="CocoGothic-Bold" horiz-adv-x="0" >
  <font-face 
    font-family="Coco Gothic"
    font-weight="700"
    font-stretch="normal"
    units-per-em="2000"
    panose-1="2 0 5 3 2 0 0 2 0 3"
    ascent="1600"
    descent="-400"
    x-height="981"
    cap-height="1485"
    bbox="-1026 -1892 3607 2528"
    underline-thickness="100"
    underline-position="-300"
    unicode-range="U+0020-FB04"
  />
<missing-glyph horiz-adv-x="627" 
d="M844 250q-57 -48 -129 -77t-153 -29t-152 29t-128 77h562zM248 282q-50 57 -77 129t-27 153q0 77 24.5 143.5t69.5 122.5h556zM280 876q57 51 129 79.5t153 28.5t152.5 -29t125.5 -79h-560zM980 564q0 -77 -24.5 -144.5t-69.5 -123.5h-558l546 550q106 -131 106 -282z
M698 76q-66 -18 -136 -18q-108 0 -200.5 41t-160.5 110t-106.5 161t-38.5 194q0 108 41 201t110 161t161 107t194 39q109 0 202 -42t160.5 -112.5t105.5 -162t38 -191.5q0 -92 -29 -170.5t-79 -141.5t-117.5 -108t-144.5 -68zM684 1012q-54 18 -122 18q-101 0 -186 -38
t-146.5 -102t-96.5 -148.5t-35 -177.5q0 -94 35.5 -178.5t98 -149t147.5 -102.5t183 -38q96 0 181 36.5t148 100t100 148.5t37 183q0 85 -27.5 158.5t-74 131.5t-109.5 98t-133 60z" />
    <glyph glyph-name="ff" unicode="ff" horiz-adv-x="1132" 
d="M548 1488q29 0 46.5 -17.5t17.5 -46.5v-136q0 -26 -15 -43t-40 -17q-54 0 -85.5 -25.5t-31.5 -85.5v-118h303v143q0 83 30 147.5t82 108.5t122 67t150 23q29 0 46 -17.5t17 -46.5v-136q0 -26 -14.5 -42.5t-38.5 -17.5q-55 -2 -86.5 -26t-31.5 -85v-118h93q26 0 43 -16
t17 -49v-101q0 -29 -16.5 -48.5t-43.5 -19.5h-93v-706q0 -27 -19 -43t-44 -16h-153q-27 0 -43.5 16.5t-16.5 42.5v706h-303v-706q0 -27 -18.5 -43t-43.5 -16h-153q-27 0 -44.5 16.5t-17.5 42.5v706h-66q-28 0 -45.5 18t-17.5 50v101q0 33 17.5 49t45.5 16h66v143
q0 84 30 148t82 108t122.5 66.5t150.5 23.5z" />
    <glyph glyph-name="fi" unicode="fi" horiz-adv-x="1146" 
d="M576 1488q30 0 46.5 -17.5t16.5 -46.5v-136q0 -26 -13.5 -43t-39.5 -17q-52 0 -85 -26.5t-33 -84.5v-135h93q28 0 45 -16t17 -49v-101q0 -29 -16.5 -48.5t-45.5 -19.5h-93v-689q0 -27 -19 -43t-42 -16h-155q-26 0 -42.5 16.5t-16.5 42.5v689h-67q-29 0 -46.5 18t-17.5 50
v101q0 33 17.5 49t46.5 16h67v160q0 82 30 146t81.5 108t121.5 67.5t150 24.5zM1070 55q0 -26 -15.5 -40.5t-42.5 -14.5h-165q-55 0 -55 55v872q0 23 14.5 39.5t40.5 16.5h165q20 0 39 -16t19 -40v-872zM767 1259q0 33 12.5 62.5t34 51.5t51 35t63.5 13t63.5 -13t51 -35
t33.5 -51.5t12 -62.5t-12 -62t-33.5 -50.5t-51 -34t-63.5 -12.5t-63.5 12.5t-51 34t-34 50.5t-12.5 62z" />
    <glyph glyph-name=".notdef" horiz-adv-x="627" 
d="M844 250q-57 -48 -129 -77t-153 -29t-152 29t-128 77h562zM248 282q-50 57 -77 129t-27 153q0 77 24.5 143.5t69.5 122.5h556zM280 876q57 51 129 79.5t153 28.5t152.5 -29t125.5 -79h-560zM980 564q0 -77 -24.5 -144.5t-69.5 -123.5h-558l546 550q106 -131 106 -282z
M698 76q-66 -18 -136 -18q-108 0 -200.5 41t-160.5 110t-106.5 161t-38.5 194q0 108 41 201t110 161t161 107t194 39q109 0 202 -42t160.5 -112.5t105.5 -162t38 -191.5q0 -92 -29 -170.5t-79 -141.5t-117.5 -108t-144.5 -68zM684 1012q-54 18 -122 18q-101 0 -186 -38
t-146.5 -102t-96.5 -148.5t-35 -177.5q0 -94 35.5 -178.5t98 -149t147.5 -102.5t183 -38q96 0 181 36.5t148 100t100 148.5t37 183q0 85 -27.5 158.5t-74 131.5t-109.5 98t-133 60z" />
    <glyph glyph-name=".null" 
 />
    <glyph glyph-name="nonmarkingreturn" horiz-adv-x="666" 
 />
    <glyph glyph-name="space" unicode=" " horiz-adv-x="626" 
 />
    <glyph glyph-name="exclam" unicode="!" horiz-adv-x="603" 
d="M455 491q0 -25 -14 -39.5t-40 -14.5h-182q-23 0 -40 14t-17 40v942q0 26 14.5 40t42.5 14h182q26 0 40 -14t14 -40v-942zM147 136q0 34 13 63.5t34.5 51.5t51 34.5t62.5 12.5q34 0 64 -12.5t51.5 -34.5t34 -51.5t12.5 -63.5q0 -33 -12.5 -62.5t-34 -51t-51.5 -34.5
t-64 -13q-33 0 -62.5 13t-51 34.5t-34.5 51t-13 62.5z" />
    <glyph glyph-name="quotedbl" unicode="&#x22;" horiz-adv-x="811" 
d="M162 1441q0 44 44 44h97q44 0 44 -44v-387q0 -44 -44 -44h-97q-44 0 -44 44v387zM484 1441q0 44 44 44h97q44 0 44 -44v-387q0 -44 -44 -44h-97q-44 0 -44 44v387z" />
    <glyph glyph-name="numbersign" unicode="#" horiz-adv-x="1034" 
d="M484 609h154v264h-154v-264zM638 1431q0 23 13 38.5t39 15.5h130q20 0 38.5 -15t18.5 -39v-317h119q23 0 38.5 -13.5t15.5 -39.5v-131q0 -19 -14.5 -38t-39.5 -19h-119v-264h119q23 0 38.5 -14t15.5 -40v-129q0 -20 -14.5 -38.5t-39.5 -18.5h-119v-315q0 -54 -57 -54
h-130q-52 0 -52 54v315h-154v-315q0 -54 -57 -54h-130q-26 0 -40 14t-14 40v315h-104q-55 0 -55 57v129q0 54 55 54h104v264h-104q-55 0 -55 57v131q0 53 55 53h104v317q0 23 14 38.5t40 15.5h130q20 0 38.5 -15t18.5 -39v-317h154v317z" />
    <glyph glyph-name="dollar" unicode="$" horiz-adv-x="1282" 
d="M1008 1089q-13 0 -24 6.5t-25 17.5l-2 1q-19 19 -49 42t-67 43t-79.5 34t-86.5 14q-56 0 -99 -12.5t-72 -34t-44 -50.5t-15 -62q0 -36 22.5 -63t61 -48t88.5 -38.5t105 -34.5q63 -19 125 -41t118.5 -49.5t105.5 -61t84.5 -77t56 -97t20.5 -120.5q0 -91 -31.5 -168
t-87 -136t-133 -99.5t-168.5 -58.5v-137q0 -44 -48 -44h-180q-44 0 -44 44v133q-124 22 -233.5 85t-189.5 157v-1l-2 4q-22 25 -22 46q-1 11 5.5 21t18.5 22l33 33q15 13 32 29t34 29t31.5 22t23.5 9q14 0 26 -9t20 -17l4 -4h-1q35 -33 78.5 -63t89.5 -53.5t91.5 -37
t85.5 -13.5q55 0 103 14t83 39.5t55 61.5t20 80t-26 75.5t-68 55t-94.5 40.5t-105.5 32q-122 37 -213.5 80t-152.5 96.5t-91.5 120t-30.5 149.5q0 79 27.5 146.5t79 120t124.5 88t165 50.5v141q0 18 11 31t33 13h180q15 0 31.5 -12t16.5 -32v-147q117 -27 218 -90
q24 -15 49 -34t46 -38.5t34.5 -38t13.5 -31.5q-2 -26 -21 -47l-30 -32v1q-15 -16 -31 -33t-32 -30.5t-29 -22.5t-22 -9z" />
    <glyph glyph-name="percent" unicode="%" horiz-adv-x="1856" 
d="M96 1128q0 81 30 152.5t82.5 124.5t123.5 83.5t153 30.5q81 0 152 -30.5t123.5 -83.5t83 -124.5t30.5 -152.5t-30.5 -152t-83 -123.5t-123.5 -83t-152 -30.5q-82 0 -153 30.5t-123.5 83t-82.5 123.5t-30 152zM1047 369q0 81 26.5 151.5t75 123.5t116 83.5t148.5 30.5
t156 -30.5t132 -83.5t91.5 -123.5t34.5 -151.5t-30.5 -152.5t-83 -124t-123.5 -83t-152 -30.5t-152.5 30.5t-124.5 83t-83.5 124t-30.5 152.5zM1278 369q0 -34 12.5 -63.5t34 -51t50.5 -34t63 -12.5q33 0 62.5 12.5t51 34t34 51t12.5 63.5q0 37 -14 66.5t-36.5 49.5t-51 31
t-58.5 11q-34 0 -63 -12.5t-50.5 -33.5t-34 -50t-12.5 -62zM323 1128q0 -34 12.5 -63.5t34.5 -51t51.5 -34t63.5 -12.5q33 0 62.5 12.5t51.5 34t34.5 51t12.5 63.5t-12.5 63.5t-34.5 51t-51.5 34t-62.5 12.5q-34 0 -63.5 -12.5t-51.5 -34t-34.5 -51t-12.5 -63.5zM1134 1435
q11 23 26.5 36.5t43.5 13.5h152q25 0 40.5 -10t15.5 -28q0 -8 -2 -18q0 -1 -0.5 -2.5t-0.5 -2.5q-88 -186 -174 -369t-172 -369l-134 -285q-43 -91 -84.5 -179.5t-82.5 -176.5q-11 -23 -24.5 -34t-34.5 -11h-170q-48 0 -48 34l4 16v-1q0 5 1 8z" />
    <glyph glyph-name="ampersand" unicode="&#x26;" horiz-adv-x="1736" 
d="M1696 669q-14 -66 -48.5 -120.5t-82.5 -93.5t-107.5 -60.5t-123.5 -21.5q-17 0 -35 2.5t-32 5.5l-82 18q-13 -121 -62.5 -201.5t-122.5 -128.5t-163 -68t-184 -20q-106 0 -201 35t-166.5 97t-113.5 148.5t-42 189.5q0 71 15.5 129.5t43.5 106t67 85.5t86 68
q-53 49 -82 114t-29 150q0 84 34 156t91 124.5t132 82.5t158 30q82 0 156.5 -23t131.5 -72t90.5 -124t33.5 -178q0 -28 -15 -41.5t-39 -13.5h-69q-9 0 -18 -0.5t-18 -0.5h-36q-25 0 -39.5 13t-14.5 38q0 68 -37 109t-115 41q-44 0 -74 -14.5t-49 -37t-27 -50t-8 -54.5
q0 -16 8 -41.5t26 -50.5t46.5 -45.5t69.5 -26.5q47 -7 47 -48v-4q0 -1 -0.5 -3t-0.5 -5l-26 -128q-3 -25 -16.5 -35t-33.5 -10q-55 0 -94 -16t-64 -44.5t-36.5 -67t-11.5 -83.5t16.5 -88t49 -76t79 -53t106.5 -20q46 0 89.5 13.5t78 40.5t56.5 67t26 93l-110 28
q-20 5 -31.5 19t-11.5 32q0 23 8 48.5t12 49.5l13 57q5 20 18 33t33 13q3 0 8 -0.5t7 -1.5h-1l446 -98q12 -3 23 -3q42 0 74 27t45 65q2 19 16.5 31t33.5 12t37 -6t33 -6l85 -19q20 -2 33 -19.5t13 -36.5q0 -5 -0.5 -8t-1.5 -6z" />
    <glyph glyph-name="quotesingle" unicode="'" horiz-adv-x="528" 
d="M162 1441q0 44 44 44h141q44 0 44 -44v-387q0 -44 -44 -44h-141q-44 0 -44 44v387z" />
    <glyph glyph-name="parenleft" unicode="(" horiz-adv-x="643" 
d="M423 -305q-143 229 -221 492.5t-78 551.5t78 551.5t221 491.5q11 18 27.5 21.5t32.5 -9.5l162 -107q18 -13 20 -31t-9 -32q-126 -201 -188.5 -423.5t-62.5 -461.5q0 -121 15 -235.5t47 -226.5q31 -111 78.5 -216t110.5 -206q11 -15 9 -32.5t-20 -31.5l-162 -107
q-16 -12 -32.5 -9t-27.5 20z" />
    <glyph glyph-name="parenright" unicode=")" horiz-adv-x="659" 
d="M246 -305q-11 -17 -27.5 -20t-32.5 9l-162 107q-18 14 -20 31.5t9 32.5q63 101 110.5 206t78.5 216q32 112 47 226.5t15 235.5q0 239 -62.5 461.5t-188.5 423.5q-11 14 -9 32t20 31l162 107q16 13 32.5 9.5t27.5 -21.5q143 -228 221 -491.5t78 -551.5t-78 -551.5
t-221 -492.5z" />
    <glyph glyph-name="asterisk" unicode="*" horiz-adv-x="982" 
d="M683 733l67 9l86 12q20 0 31.5 -7.5t17 -20.5t6.5 -30t1 -36v-69q0 -12 -1.5 -25.5t-7 -25.5t-16.5 -20t-31 -8l-155 18l100 -126q5 -12 5 -24q0 -13 -7 -26t-23 -22l-33 -18q-7 -4 -13.5 -8.5t-13.5 -8.5h1q-22 -15 -43 -27t-38 -11q-15 0 -28.5 7t-20.5 21
q-10 21 -19 42t-18 43l-23 50l-57 -135q-7 -14 -19.5 -21t-26.5 -7q-9 0 -18 2t-17 8h1q-15 7 -39 19.5t-46.5 27.5t-38.5 32t-16 33q0 15 9 27q26 33 47 59.5t48 62.5q-16 -2 -33.5 -4t-33.5 -4q-19 -3 -39 -5.5t-38 -4.5q-32 0 -48 12t-16 44v110q0 16 2 30t8 24.5t17 16
t29 5.5q21 -3 38.5 -6t34.5 -6t36 -5.5t43 -5.5l-91 117q-7 9 -10 19t-3 18q1 28 31 47l97 55l26 13l11 4q18 0 33 -12.5t27.5 -32.5t23.5 -45t20 -50q2 -2 2 -2.5t3 -11.5v1q2 -6 1.5 -4.5t3.5 -5.5q14 33 27.5 65.5t27.5 64.5q8 15 20 24t30 9h13l17 -9q18 -9 42.5 -22
t46 -28.5t37 -32.5t15.5 -33l-4 -22z" />
    <glyph glyph-name="plus" unicode="+" horiz-adv-x="900" 
d="M595 284q0 -23 -14 -38.5t-40 -15.5h-151q-20 0 -39 15t-19 39v203h-194q-54 0 -54 55v141q0 26 14 40t40 14h194v201q0 53 58 53h151q54 0 54 -53v-201h195q23 0 38.5 -14t15.5 -40v-141q0 -20 -15 -37.5t-39 -17.5h-195v-203z" />
    <glyph glyph-name="comma" unicode="," horiz-adv-x="528" 
d="M120 133q0 35 13 65.5t35.5 52.5t52.5 34.5t64 12.5q36 0 66 -13t52.5 -36t35 -56t12.5 -73q0 -84 -17.5 -146.5t-42 -104t-50 -62t-41.5 -20.5q-11 0 -18.5 3t-14.5 8l-49 37q-12 9 -12 27q0 16 11 27l13 19q7 8 14.5 24.5t7.5 37.5q-27 5 -51 20.5t-42 37.5t-28.5 49
t-10.5 56z" />
    <glyph glyph-name="hyphen" unicode="-" horiz-adv-x="1034" 
d="M865 694q23 0 38.5 -14t15.5 -38v-141q0 -20 -15 -38.5t-39 -18.5h-652q-25 0 -39 14t-14 43v141q0 24 14 38t39 14h652z" />
    <glyph glyph-name="period" unicode="." horiz-adv-x="528" 
d="M120 136q0 34 13 63.5t34.5 51.5t51 34.5t62.5 12.5q34 0 64 -12.5t51.5 -34.5t34 -51.5t12.5 -63.5q0 -33 -12.5 -62.5t-34 -51t-51.5 -34.5t-64 -13q-33 0 -62.5 13t-51 34.5t-34.5 51t-13 62.5z" />
    <glyph glyph-name="slash" unicode="/" horiz-adv-x="994" 
d="M108 57l594 1378q11 23 27.5 36.5t45.5 13.5h181q25 0 39.5 -8.5t14.5 -29.5q0 -5 -1.5 -14.5t-2.5 -11.5q-63 -143 -134.5 -309.5t-146.5 -340.5q-40 -93 -81 -189.5t-81.5 -190.5t-79.5 -182t-73 -164q-11 -23 -24 -34t-35 -11h-200q-47 0 -47 33q0 3 0.5 4.5t2.5 6.5
l1 10v3z" />
    <glyph glyph-name="zero" unicode="0" horiz-adv-x="1672" 
d="M822 308q82 0 155 30t130 78h-570q58 -48 130 -78t155 -30zM586 463h564q45 55 70 124t25 147q0 80 -26.5 150t-81.5 139zM822 1251q-105 0 -198 -40t-163.5 -109t-112.5 -163.5t-42 -204.5q0 -103 39.5 -196t108 -163.5t163.5 -112.5t205 -42q35 0 70 5.5t68 15.5
q77 23 146 68t120 108.5t80.5 143.5t29.5 173q0 101 -38.5 194t-107 165t-163.5 115t-205 43zM822 260q-100 0 -186 38t-150 103t-99.5 151.5t-35.5 181.5q0 94 35 179.5t98 151t149.5 103.5t188.5 38q67 0 124 -16q71 -19 134.5 -60t111 -100t75 -134t27.5 -162
q0 -98 -37 -184.5t-101.5 -151t-150.5 -101.5t-183 -37zM492 1004q-45 -55 -70.5 -122.5t-25.5 -147.5q0 -83 28 -155.5t78 -130.5l555 556h-565zM822 1161q-83 0 -155.5 -29t-130.5 -81h566q-55 50 -126.5 80t-153.5 30zM972 191l-90 -16l4 -26l34 6l16 -89l26 5l-16 89
l31 6zM1072 156q-1 7 -8 9l-12 5h-15h-6h-9h-2v1q-3 3 -3 4l-2 1q2 0 2 4v1h3h5v4h1h5h3q3 0 3 1h9q0 3 0.5 4l0.5 1l5 10l-6 4q-9 4 -12 4q-2 0 -4.5 1t-4.5 1q-4 0 -6 -1t-4 -1l-13 -8q-2 -1 -4 -3.5t-3 -6.5q-8 -6 -8 -15v-4t3 -7q2 -9 10 -14q1 0 3.5 -1.5t3.5 -3.5
q4 0 7 -1t6 -1h12h10h2q2 0 3 -3q4 0 4 -1h3v-5q0 -2 -1 -3t-1 -2v-1q-1 0 -2 -2.5t-3 -2.5q-1 -3 -5 -3h-2.5h-2.5h-3.5h-2.5h-6h-8l-5 -1v-2t-1 -2l-5 -7q1 -4 3 -6t3 -4q4 -1 7 -2t7 -1q8 -3 11 -2q4 0 8 1t7 1l7 3.5t8 4.5l5.5 5.5t4.5 6.5q0 5 2.5 7.5t2.5 7.5
t-0.5 8.5t-4.5 6.5q0 8 -5 10zM1122 151q-1 4 -3 4t-3.5 0.5t-3.5 0.5q-1 -1 -6 -1l-7 -4q-2 -1 -2 -3v-2q-1 -2 -1 -5v-1q0 -4 1 -4v-1q0 -6 4 -6q1 -5 6 -5h7q5 0 7 2q1 2 3 2.5t2 2.5v2q0 2 1 2l4 3v2q0 6 -5 6zM846 99q-1 0 -1 4q0 1 -1.5 1t-1.5 1q0 4 -1 4l-41 60
q0 1 -3 2q-1 3 -8 3h-9h-14l3 -119l27 1v79l51 -79h25v118h-30zM599 189l48 -18l8 25l-73 25l-41 -105l26 -11l15 41l38 -15l10 25l-38 15zM747 160l-8 11q-3 3 -6.5 5t-7.5 4q-4 1 -7 2t-8 3q-5 1 -9 1h-7q-10 0 -14 -5q-4 0 -7.5 -1t-7.5 -4l-11 -10q-4 -8 -10 -11
q-2 -5 -3.5 -8.5t-1.5 -6.5v-19l3 -15l5 -12l12 -11q3 -4 7 -5.5t6 -3.5q7 -4 15 -4q5 -1 8.5 -1h6.5q5 0 14 2q4 2 8.5 3t6.5 4q6 2 11 10l9 11q4 7 6 17v15q0 3 -0.5 6.5t-2.5 8.5l-3 7.5t-4 6.5zM730 121q0 -3 -1.5 -6.5t-3.5 -5.5l-4.5 -6t-4.5 -4q-4 -1 -6.5 -2
t-5.5 -1q-7 -3 -12 0q-3 0 -6.5 1t-5.5 2l-8 10q-2 2 -2.5 5.5t-0.5 6.5q-3 5 0 14q0 6 5 11l6 9l12 5h12l12 -5l9 -9q2 -3 3.5 -5t1.5 -6q2 -9 0 -14zM1309 460q-2 -2 -3 -4t-1 -6q0 -2 1 -4t3 -5l40 -57l-69 10h-10l-9 -6l-9 -17l97 -65l16 23l-46 32l60 -12l11 20l-33 50
l47 -30l15 24l-98 63zM1296 333l-14 13l-15 3q-3 2 -15 2h-6.5t-8.5 -2l-12 -3q-4 -3 -8.5 -6.5t-6.5 -6.5q-3 -3 -4.5 -6t-3.5 -6q-3 -3 -4 -6.5t-3 -8.5q0 -3 -1.5 -6.5t-1.5 -8.5v-6t3 -9l4 -13l10 -12l13 -10q5 -1 7.5 -3.5t7.5 -2.5t8.5 -2t6.5 -2t6.5 2t8.5 2
q3 0 6.5 2.5t7.5 3.5q6 3 13 10l10 12q1 2 3 5t2 8q1 5 1 15v15l-6 13q-2 4 -5 9zM1282 280q-3 -9 -7 -10q-8 -7 -10 -9q-3 -1 -6.5 -1h-6.5t-6.5 0.5t-4.5 0.5l-11 9q-4 4 -8 11v10v12q4 8 8 12l11 8q3 0 6 0.5t5 0.5q5 0 13 -3q2 -1 4.5 -3t5.5 -5q2 -2 4 -4.5t3 -5.5
q3 -3 3 -12q0 -2 -1.5 -6.5zM1209 220l-7 -4q-2 0 -3.5 -2.5t-1.5 -4.5l-5 -9l-8 -6q-4 -3 -6 -4t-6 -1q-6 -3 -12 0q-3 2 -5.5 2t-5.5 3q-7 4 -7 11q-5 1 -5 11q-5 3 0 14v3.5t2 7.5q2 2 4 3.5t4 3.5q8 3 10 3q3 2 10 2q2 0 10 3q2 4 5 5l2 7v8q-3 5 -12 5h-13l-14 -5
l-11 -5q-2 -2 -5.5 -4.5t-6.5 -6.5q-2 -2 -4 -5.5t-4 -8.5l-7 -15v-15q0 -5 2 -7.5t2 -7.5l6 -15q3 -3 6 -5t4 -5l15 -10l12 -2q5 -3 16 -3q4 0 7 1.5t7 2.5q5 1 8.5 3.5t6.5 5.5l5 2.5t5 4.5q3 0 5 3.5t5 6.5l3 14q5 4 5 13l-12 2h-6zM519 260l-102 -74l15 -10h2.5h2.5
q3 0 3.5 -0.5t1.5 0.5h5h5l10 10l40 -22l-2 -15v-5q0 -3 1 -3q0 -1 1 -1v-4q0 -1 2 -1l3 -4l17 -10l17 125zM507 218v-2v-3l-1 -22l-19 10l17 15h2h1v2v1h2q1 1 2 1zM477 255l18 20l-69 59l-20 -21l26 -22l-57 -66l20 -19l60 70zM257 411l83 -10h6q1 0 2 1t3 1l11 8l-45 77
l-23 -14l26 -44l-83 9q-1 0 -4.5 -0.5t-7.5 -3.5l-10 -5l45 -79l22 15zM357 303l22 18l-27 30l14 12l31 -39l20 17l-48 60l-90 -75l51 -58l19 18l-32 37l17 11zM191 741l50 4q1 -2 3.5 -4t4.5 -5q2 -1 3.5 -4t1.5 -6q1 -6 3 -11q0 -4 1 -6.5t1 -4.5q0 -8 -1 -14t-3 -11
q-1 -8 -4.5 -13t-6.5 -10q-7 -8 -19 -12q-11 -8 -23 -8h-17q-4 3 -7.5 4t-7.5 4q-4 1 -6.5 3t-6.5 4q-2 3 -5 6t-5 7q-2 2 -3.5 5.5t-3.5 6.5q-1 5 -2 9.5t-1 9.5v6.5v4.5q3 9 3 14q2 3 3.5 5.5t3.5 5.5q2 2 3.5 5t3.5 5l3 -5q3 0 4 -1l1 -1q2 -3 2 -8v-3t-2 -3
q-5 -5 -5 -11v-13t3 -17q2 -4 4.5 -7t5.5 -6q5 -5 14 -7q7 -4 17 -3q6 0 11 3q3 1 5 1.5t4 3.5q1 2 3.5 3t5.5 4q1 2 2.5 3.5t3.5 4.5q0 4 0.5 6.5t2.5 5.5q1 4 1 10q-1 4 -2 7t-2 8q0 3 -5 10l-19 -1v-5v-5q0 -2 -2 -5q-1 -1 -2 -2.5t-2 -1.5q-2 -1 -6 -1h-6zM264 831
l-9 -75l-118 12l8 75l19 -2l-7 -55l30 -5l5 47l20 -2l-5 -45l32 -3l5 57zM164 851l-17 5l22 90l18 -5l-10 -37l98 -23l-4 -18l-97 23zM205 988l-18 8l42 83l16 -8l-15 -32l89 -45l-8 -18l-90 45zM392 1106l-11 -16l-40 30l-35 -47l41 -30l-11 -15l-97 70l11 15l40 -29l35 47
l-40 30l11 15zM456 1166l-54 -51l-83 86l53 53l14 -15l-39 -39l20 -21l33 31l12 -14l-31 -30l21 -23l40 38zM514 1290l10 -17l-39 -24l24 -43l-14 -10l-63 100l63 40l9 -15l-47 -30l18 -26zM562 1290q0 -7 5 -10q2 -4 10 -7q2 -2 5 -2h5q5 0 10 2q8 3 10 7q5 5 7 10
q1 1 1 10q0 6 -1 11l-27 67l17 8l28 -68q2 -5 2.5 -9t0.5 -9q0 -10 -3 -19q-2 -5 -4.5 -8t-7.5 -7q-3 -5 -6 -6.5t-8 -3.5t-9.5 -3.5t-9.5 -1.5q-8 0 -18 5q-5 2 -8.5 3.5t-6.5 6.5q-7 7 -10 15l-30 67l18 8zM662 1276l-30 117l20 5l23 -97l49 10l3 -20zM731 1291l-12 120
l20 2l10 -98l51 5v-20zM864 1296l-19 4l12 118l44 -5q6 0 14 -4q9 -5 11 -10q4 -3 6 -13q4 -7 3 -15q-3 -3 -3 -6.5t-2 -8.5q-6 -8 -9 -11q-4 -4 -14 -7q-3 -2 -13 -2l-25 4zM895 1356h7q3 0 7 5q3 0 3 5q2 2 4 8q0 5 -1 7t-2 3.5l-1 1.5q-2 3 -3.5 4t-2.5 1q-2 2 -3.5 2
t-2.5 1l-25 2l-5 -38zM951 1285l-19 5l30 113l44 -12q6 0 11 -5l10 -10q4 -5 4 -13q1 -5 0.5 -8.5t-0.5 -6.5q-2 -5 -5 -10q-4 -5 -6 -7q-8 -5 -10 -5q-3 -2 -5.5 -2.5t-3.5 -2.5l21 -56l-15 1q-1 2 -3 3.5t-3 1.5q-4 2 -5 9l-19 46l-15 4zM977 1379l-10 -31l25 -7h3h2
q3 0 4 1t4 1q2 0 2 1.5v1.5q5 5 5 7v7v3t-1 3q-1 2 -2.5 2.5t-1.5 2.5q-3 3 -6 3zM1037 1321q0 5 2.5 8.5t6.5 6.5q1 3 4.5 5.5t6.5 4.5q3 3 6.5 4t8.5 3q4 3 14 3h15q9 -1 16 -6q8 -4 15 -9q3 -3 5.5 -6.5t4.5 -4.5l3.5 -7l3.5 -7q1 -5 2 -8t1 -7v-8t-2 -8q-1 -4 -2 -7.5
t-3 -7.5q-3 -4 -4 -7t-4 -7q-3 -3 -6.5 -5t-4.5 -6q-4 -2 -7 -4t-7 -5q-6 0 -16 -1q-12 0 -17 1q-5 0 -15 5q-12 5 -18 15q-9 9 -14 20q-1 7 -1 12v12q0 11 6 21zM1054 1315q-2 -4 -2.5 -6.5t-2.5 -5.5v-10q0 -2 1 -5t2 -5q0 -7 4 -10q1 -2 3 -4.5t3 -2.5q4 -5 10 -6
q7 -4 10 -4h12h12q4 5 8 5q3 2 5 3.5t3 3.5q3 3 4 5.5t3 4.5q2 3 2.5 7.5t0.5 9.5v7.5v7.5q-2 4 -4.5 7.5t-5.5 5.5q-6 7 -13 10q-2 2 -5 2.5t-7 0.5h-10q-6 0 -10 -1q-3 -2 -5 -3t-5 -1q-1 -2 -3 -4t-3 -4zM1222 1290l10 -9q0 -1 1.5 -3t3.5 -3q0 -5 -2 -9l-28 -85l83 38
q1 1 7 1q5 0 7 -4l10 -7l-117 -54l-15 11zM1279 1064l-47 56l90 76l49 -56l-14 -14l-37 44l-23 -19l29 -36l-16 -11l-28 35l-23 -21l35 -42zM1294 1039l-9 16l101 61l23 -37q2 -3 2.5 -6t2.5 -8q2 -7 -2 -12q-2 -9 -5 -13l-4.5 -4.5t-6.5 -5.5q-4 -1 -5.5 -1.5t-4.5 -2.5
q-4 0 -5.5 -0.5t-4.5 0.5q-4 0 -10 3q-4 1 -5.5 1.5t-3.5 3.5l-23 -59l-9 13q-4 2 -4 7q0 6 3 9l20 47l-8 13zM1381 1089l-29 -16l13 -19q2 -5 4 -6q1 0 6 -3h6q1 0 5 3q1 0 6 3q0 3 1 4t1 3q1 1 1 6q-1 1 -1 2.5t-2 3.5zM1436 969q1 1 1 7q0 4 -1 5q-2 3 -2 7q-3 0 -5 3
q-2 2 -5 2q-3 1 -5 0l-2.5 -2.5l-1.5 -1.5l-2 -2l-2 -2v-7v-10v-3v-2v-10q0 -2 -0.5 -4.5t-0.5 -4.5q-4 -14 -19 -21q-4 -2 -7.5 -3t-8.5 1q-6 0 -14 2q-4 3 -7 5t-5 6q-3 2 -5 5.5t-4 6.5q-3 10 -3 15q0 4 3 14q0 3 2 5l3 4q0 4 2 4q4 2 3 2l4 -2q3 -5 5 -7q0 -1 0.5 -2
t0.5 -3q0 -3 -3 -6v-1v-8q0 -5 2 -8q0 -2 1 -3t2 -4q2 0 3.5 -1.5l3.5 -3.5h2t4 -2h4.5t4.5 2q2 0 5 3q2 4 2 5q1 2 1 7v8v4v12q0 8 2 13q1 2 2 4.5t4 5.5q2 2 4.5 3.5t6.5 3.5q8 3 14 1q6 0 12 -3q3 -2 6.5 -3.5t5.5 -5.5q3 -3 6 -11q2 -7 2 -10q0 -7 -1 -10q0 -4 -4 -10
v-4.5t-2 -3.5l-6 4q-3 1 -4 2.5t-3 3.5q-1 3 -1 6v3zM1364 881l-5 18l113 34l5 -19zM1427 881h19q6 0 14 -5q4 0 7.5 -2.5t4.5 -4.5q4 -3 7 -5.5t6 -5.5q4 -8 7 -12q3 -8 5 -18v-15q-2 -10 -5 -15q-1 -5 -3 -8.5t-4 -6.5l-10 -10q-4 -4 -7.5 -5.5t-6.5 -2.5q-7 -4 -15 -4
q-10 -1 -19 0q-8 0 -15 4q-2 1 -6 2.5t-7 3.5q-3 3 -5.5 6.5t-4.5 5.5q-7 5 -8 15q-2 3 -3.5 6.5t-1.5 8.5q-1 13 1 23q5 13 10 20q7 10 18 17q5 3 11 5.5t11 2.5zM1430 861q-8 0 -10 -3q-5 -2 -10 -5q-4 -2 -6 -7q-5 -5 -5 -10q-2 -1 -2.5 -4t-1.5 -6v-10q2 -8 4 -11
q0 -6 5 -9q1 -3 3 -5t3 -5q2 0 4.5 -1.5t5.5 -3.5q2 -1 4.5 -1h5.5q5 -4 11 0q11 0 16 5q5 1 13 11q6 8 6 15q3 7 1 15q0 7 -2 10q-3 4 -3.5 6t-1.5 4q-3 2 -4.5 3.5l-3.5 3.5q-5 3 -10 5q-3 3 -11 3q-4 3 -11 0zM1377 645l2 16l96 60l-91 5l1 20l117 -10v-11q0 -5 -1 -9
q-4 -2 -4 -5l-81 -50l81 -6l-1 -19z" />
    <glyph glyph-name="one" unicode="1" horiz-adv-x="1672" 
d="M822 308q82 0 155 30t130 78h-570q58 -48 130 -78t155 -30zM586 463h564q45 55 70 124t25 147q0 80 -26.5 150t-81.5 139zM822 1251q-105 0 -198 -40t-163.5 -109t-112.5 -163.5t-42 -204.5q0 -103 39.5 -196t108 -163.5t163.5 -112.5t205 -42q35 0 70 5.5t68 15.5
q77 23 146 68t120 108.5t80.5 143.5t29.5 173q0 101 -38.5 194t-107 165t-163.5 115t-205 43zM822 260q-100 0 -186 38t-150 103t-99.5 151.5t-35.5 181.5q0 94 35 179.5t98 151t149.5 103.5t188.5 38q67 0 124 -16q71 -19 134.5 -60t111 -100t75 -134t27.5 -162
q0 -98 -37 -184.5t-101.5 -151t-150.5 -101.5t-183 -37zM492 1004q-45 -55 -70.5 -122.5t-25.5 -147.5q0 -83 28 -155.5t78 -130.5l555 556h-565zM822 1161q-83 0 -155.5 -29t-130.5 -81h566q-55 50 -126.5 80t-153.5 30zM972 191l-90 -16l4 -26l34 6l16 -89l26 5l-16 89
l31 6zM1072 156q-1 7 -8 9l-12 5h-15h-6h-9h-2v1q-3 3 -3 4l-2 1q2 0 2 4v1h3h5v4h1h5h3q3 0 3 1h9q0 3 0.5 4l0.5 1l5 10l-6 4q-9 4 -12 4q-2 0 -4.5 1t-4.5 1q-4 0 -6 -1t-4 -1l-13 -8q-2 -1 -4 -3.5t-3 -6.5q-8 -6 -8 -15v-4t3 -7q2 -9 10 -14q1 0 3.5 -1.5t3.5 -3.5
q4 0 7 -1t6 -1h12h10h2q2 0 3 -3q4 0 4 -1h3v-5q0 -2 -1 -3t-1 -2v-1q-1 0 -2 -2.5t-3 -2.5q-1 -3 -5 -3h-2.5h-2.5h-3.5h-2.5h-6h-8l-5 -1v-2t-1 -2l-5 -7q1 -4 3 -6t3 -4q4 -1 7 -2t7 -1q8 -3 11 -2q4 0 8 1t7 1l7 3.5t8 4.5l5.5 5.5t4.5 6.5q0 5 2.5 7.5t2.5 7.5
t-0.5 8.5t-4.5 6.5q0 8 -5 10zM1122 151q-1 4 -3 4t-3.5 0.5t-3.5 0.5q-1 -1 -6 -1l-7 -4q-2 -1 -2 -3v-2q-1 -2 -1 -5v-1q0 -4 1 -4v-1q0 -6 4 -6q1 -5 6 -5h7q5 0 7 2q1 2 3 2.5t2 2.5v2q0 2 1 2l4 3v2q0 6 -5 6zM846 99q-1 0 -1 4q0 1 -1.5 1t-1.5 1q0 4 -1 4l-41 60
q0 1 -3 2q-1 3 -8 3h-9h-14l3 -119l27 1v79l51 -79h25v118h-30zM599 189l48 -18l8 25l-73 25l-41 -105l26 -11l15 41l38 -15l10 25l-38 15zM747 160l-8 11q-3 3 -6.5 5t-7.5 4q-4 1 -7 2t-8 3q-5 1 -9 1h-7q-10 0 -14 -5q-4 0 -7.5 -1t-7.5 -4l-11 -10q-4 -8 -10 -11
q-2 -5 -3.5 -8.5t-1.5 -6.5v-19l3 -15l5 -12l12 -11q3 -4 7 -5.5t6 -3.5q7 -4 15 -4q5 -1 8.5 -1h6.5q5 0 14 2q4 2 8.5 3t6.5 4q6 2 11 10l9 11q4 7 6 17v15q0 3 -0.5 6.5t-2.5 8.5l-3 7.5t-4 6.5zM730 121q0 -3 -1.5 -6.5t-3.5 -5.5l-4.5 -6t-4.5 -4q-4 -1 -6.5 -2
t-5.5 -1q-7 -3 -12 0q-3 0 -6.5 1t-5.5 2l-8 10q-2 2 -2.5 5.5t-0.5 6.5q-3 5 0 14q0 6 5 11l6 9l12 5h12l12 -5l9 -9q2 -3 3.5 -5t1.5 -6q2 -9 0 -14zM1309 460q-2 -2 -3 -4t-1 -6q0 -2 1 -4t3 -5l40 -57l-69 10h-10l-9 -6l-9 -17l97 -65l16 23l-46 32l60 -12l11 20l-33 50
l47 -30l15 24l-98 63zM1296 333l-14 13l-15 3q-3 2 -15 2h-6.5t-8.5 -2l-12 -3q-4 -3 -8.5 -6.5t-6.5 -6.5q-3 -3 -4.5 -6t-3.5 -6q-3 -3 -4 -6.5t-3 -8.5q0 -3 -1.5 -6.5t-1.5 -8.5v-6t3 -9l4 -13l10 -12l13 -10q5 -1 7.5 -3.5t7.5 -2.5t8.5 -2t6.5 -2t6.5 2t8.5 2
q3 0 6.5 2.5t7.5 3.5q6 3 13 10l10 12q1 2 3 5t2 8q1 5 1 15v15l-6 13q-2 4 -5 9zM1282 280q-3 -9 -7 -10q-8 -7 -10 -9q-3 -1 -6.5 -1h-6.5t-6.5 0.5t-4.5 0.5l-11 9q-4 4 -8 11v10v12q4 8 8 12l11 8q3 0 6 0.5t5 0.5q5 0 13 -3q2 -1 4.5 -3t5.5 -5q2 -2 4 -4.5t3 -5.5
q3 -3 3 -12q0 -2 -1.5 -6.5zM1209 220l-7 -4q-2 0 -3.5 -2.5t-1.5 -4.5l-5 -9l-8 -6q-4 -3 -6 -4t-6 -1q-6 -3 -12 0q-3 2 -5.5 2t-5.5 3q-7 4 -7 11q-5 1 -5 11q-5 3 0 14v3.5t2 7.5q2 2 4 3.5t4 3.5q8 3 10 3q3 2 10 2q2 0 10 3q2 4 5 5l2 7v8q-3 5 -12 5h-13l-14 -5
l-11 -5q-2 -2 -5.5 -4.5t-6.5 -6.5q-2 -2 -4 -5.5t-4 -8.5l-7 -15v-15q0 -5 2 -7.5t2 -7.5l6 -15q3 -3 6 -5t4 -5l15 -10l12 -2q5 -3 16 -3q4 0 7 1.5t7 2.5q5 1 8.5 3.5t6.5 5.5l5 2.5t5 4.5q3 0 5 3.5t5 6.5l3 14q5 4 5 13l-12 2h-6zM519 260l-102 -74l15 -10h2.5h2.5
q3 0 3.5 -0.5t1.5 0.5h5h5l10 10l40 -22l-2 -15v-5q0 -3 1 -3q0 -1 1 -1v-4q0 -1 2 -1l3 -4l17 -10l17 125zM507 218v-2v-3l-1 -22l-19 10l17 15h2h1v2v1h2q1 1 2 1zM477 255l18 20l-69 59l-20 -21l26 -22l-57 -66l20 -19l60 70zM257 411l83 -10h6q1 0 2 1t3 1l11 8l-45 77
l-23 -14l26 -44l-83 9q-1 0 -4.5 -0.5t-7.5 -3.5l-10 -5l45 -79l22 15zM357 303l22 18l-27 30l14 12l31 -39l20 17l-48 60l-90 -75l51 -58l19 18l-32 37l17 11zM191 741l50 4q1 -2 3.5 -4t4.5 -5q2 -1 3.5 -4t1.5 -6q1 -6 3 -11q0 -4 1 -6.5t1 -4.5q0 -8 -1 -14t-3 -11
q-1 -8 -4.5 -13t-6.5 -10q-7 -8 -19 -12q-11 -8 -23 -8h-17q-4 3 -7.5 4t-7.5 4q-4 1 -6.5 3t-6.5 4q-2 3 -5 6t-5 7q-2 2 -3.5 5.5t-3.5 6.5q-1 5 -2 9.5t-1 9.5v6.5v4.5q3 9 3 14q2 3 3.5 5.5t3.5 5.5q2 2 3.5 5t3.5 5l3 -5q3 0 4 -1l1 -1q2 -3 2 -8v-3t-2 -3
q-5 -5 -5 -11v-13t3 -17q2 -4 4.5 -7t5.5 -6q5 -5 14 -7q7 -4 17 -3q6 0 11 3q3 1 5 1.5t4 3.5q1 2 3.5 3t5.5 4q1 2 2.5 3.5t3.5 4.5q0 4 0.5 6.5t2.5 5.5q1 4 1 10q-1 4 -2 7t-2 8q0 3 -5 10l-19 -1v-5v-5q0 -2 -2 -5q-1 -1 -2 -2.5t-2 -1.5q-2 -1 -6 -1h-6zM264 831
l-9 -75l-118 12l8 75l19 -2l-7 -55l30 -5l5 47l20 -2l-5 -45l32 -3l5 57zM164 851l-17 5l22 90l18 -5l-10 -37l98 -23l-4 -18l-97 23zM205 988l-18 8l42 83l16 -8l-15 -32l89 -45l-8 -18l-90 45zM392 1106l-11 -16l-40 30l-35 -47l41 -30l-11 -15l-97 70l11 15l40 -29l35 47
l-40 30l11 15zM456 1166l-54 -51l-83 86l53 53l14 -15l-39 -39l20 -21l33 31l12 -14l-31 -30l21 -23l40 38zM514 1290l10 -17l-39 -24l24 -43l-14 -10l-63 100l63 40l9 -15l-47 -30l18 -26zM562 1290q0 -7 5 -10q2 -4 10 -7q2 -2 5 -2h5q5 0 10 2q8 3 10 7q5 5 7 10
q1 1 1 10q0 6 -1 11l-27 67l17 8l28 -68q2 -5 2.5 -9t0.5 -9q0 -10 -3 -19q-2 -5 -4.5 -8t-7.5 -7q-3 -5 -6 -6.5t-8 -3.5t-9.5 -3.5t-9.5 -1.5q-8 0 -18 5q-5 2 -8.5 3.5t-6.5 6.5q-7 7 -10 15l-30 67l18 8zM662 1276l-30 117l20 5l23 -97l49 10l3 -20zM731 1291l-12 120
l20 2l10 -98l51 5v-20zM864 1296l-19 4l12 118l44 -5q6 0 14 -4q9 -5 11 -10q4 -3 6 -13q4 -7 3 -15q-3 -3 -3 -6.5t-2 -8.5q-6 -8 -9 -11q-4 -4 -14 -7q-3 -2 -13 -2l-25 4zM895 1356h7q3 0 7 5q3 0 3 5q2 2 4 8q0 5 -1 7t-2 3.5l-1 1.5q-2 3 -3.5 4t-2.5 1q-2 2 -3.5 2
t-2.5 1l-25 2l-5 -38zM951 1285l-19 5l30 113l44 -12q6 0 11 -5l10 -10q4 -5 4 -13q1 -5 0.5 -8.5t-0.5 -6.5q-2 -5 -5 -10q-4 -5 -6 -7q-8 -5 -10 -5q-3 -2 -5.5 -2.5t-3.5 -2.5l21 -56l-15 1q-1 2 -3 3.5t-3 1.5q-4 2 -5 9l-19 46l-15 4zM977 1379l-10 -31l25 -7h3h2
q3 0 4 1t4 1q2 0 2 1.5v1.5q5 5 5 7v7v3t-1 3q-1 2 -2.5 2.5t-1.5 2.5q-3 3 -6 3zM1037 1321q0 5 2.5 8.5t6.5 6.5q1 3 4.5 5.5t6.5 4.5q3 3 6.5 4t8.5 3q4 3 14 3h15q9 -1 16 -6q8 -4 15 -9q3 -3 5.5 -6.5t4.5 -4.5l3.5 -7l3.5 -7q1 -5 2 -8t1 -7v-8t-2 -8q-1 -4 -2 -7.5
t-3 -7.5q-3 -4 -4 -7t-4 -7q-3 -3 -6.5 -5t-4.5 -6q-4 -2 -7 -4t-7 -5q-6 0 -16 -1q-12 0 -17 1q-5 0 -15 5q-12 5 -18 15q-9 9 -14 20q-1 7 -1 12v12q0 11 6 21zM1054 1315q-2 -4 -2.5 -6.5t-2.5 -5.5v-10q0 -2 1 -5t2 -5q0 -7 4 -10q1 -2 3 -4.5t3 -2.5q4 -5 10 -6
q7 -4 10 -4h12h12q4 5 8 5q3 2 5 3.5t3 3.5q3 3 4 5.5t3 4.5q2 3 2.5 7.5t0.5 9.5v7.5v7.5q-2 4 -4.5 7.5t-5.5 5.5q-6 7 -13 10q-2 2 -5 2.5t-7 0.5h-10q-6 0 -10 -1q-3 -2 -5 -3t-5 -1q-1 -2 -3 -4t-3 -4zM1222 1290l10 -9q0 -1 1.5 -3t3.5 -3q0 -5 -2 -9l-28 -85l83 38
q1 1 7 1q5 0 7 -4l10 -7l-117 -54l-15 11zM1279 1064l-47 56l90 76l49 -56l-14 -14l-37 44l-23 -19l29 -36l-16 -11l-28 35l-23 -21l35 -42zM1294 1039l-9 16l101 61l23 -37q2 -3 2.5 -6t2.5 -8q2 -7 -2 -12q-2 -9 -5 -13l-4.5 -4.5t-6.5 -5.5q-4 -1 -5.5 -1.5t-4.5 -2.5
q-4 0 -5.5 -0.5t-4.5 0.5q-4 0 -10 3q-4 1 -5.5 1.5t-3.5 3.5l-23 -59l-9 13q-4 2 -4 7q0 6 3 9l20 47l-8 13zM1381 1089l-29 -16l13 -19q2 -5 4 -6q1 0 6 -3h6q1 0 5 3q1 0 6 3q0 3 1 4t1 3q1 1 1 6q-1 1 -1 2.5t-2 3.5zM1436 969q1 1 1 7q0 4 -1 5q-2 3 -2 7q-3 0 -5 3
q-2 2 -5 2q-3 1 -5 0l-2.5 -2.5l-1.5 -1.5l-2 -2l-2 -2v-7v-10v-3v-2v-10q0 -2 -0.5 -4.5t-0.5 -4.5q-4 -14 -19 -21q-4 -2 -7.5 -3t-8.5 1q-6 0 -14 2q-4 3 -7 5t-5 6q-3 2 -5 5.5t-4 6.5q-3 10 -3 15q0 4 3 14q0 3 2 5l3 4q0 4 2 4q4 2 3 2l4 -2q3 -5 5 -7q0 -1 0.5 -2
t0.5 -3q0 -3 -3 -6v-1v-8q0 -5 2 -8q0 -2 1 -3t2 -4q2 0 3.5 -1.5l3.5 -3.5h2t4 -2h4.5t4.5 2q2 0 5 3q2 4 2 5q1 2 1 7v8v4v12q0 8 2 13q1 2 2 4.5t4 5.5q2 2 4.5 3.5t6.5 3.5q8 3 14 1q6 0 12 -3q3 -2 6.5 -3.5t5.5 -5.5q3 -3 6 -11q2 -7 2 -10q0 -7 -1 -10q0 -4 -4 -10
v-4.5t-2 -3.5l-6 4q-3 1 -4 2.5t-3 3.5q-1 3 -1 6v3zM1364 881l-5 18l113 34l5 -19zM1427 881h19q6 0 14 -5q4 0 7.5 -2.5t4.5 -4.5q4 -3 7 -5.5t6 -5.5q4 -8 7 -12q3 -8 5 -18v-15q-2 -10 -5 -15q-1 -5 -3 -8.5t-4 -6.5l-10 -10q-4 -4 -7.5 -5.5t-6.5 -2.5q-7 -4 -15 -4
q-10 -1 -19 0q-8 0 -15 4q-2 1 -6 2.5t-7 3.5q-3 3 -5.5 6.5t-4.5 5.5q-7 5 -8 15q-2 3 -3.5 6.5t-1.5 8.5q-1 13 1 23q5 13 10 20q7 10 18 17q5 3 11 5.5t11 2.5zM1430 861q-8 0 -10 -3q-5 -2 -10 -5q-4 -2 -6 -7q-5 -5 -5 -10q-2 -1 -2.5 -4t-1.5 -6v-10q2 -8 4 -11
q0 -6 5 -9q1 -3 3 -5t3 -5q2 0 4.5 -1.5t5.5 -3.5q2 -1 4.5 -1h5.5q5 -4 11 0q11 0 16 5q5 1 13 11q6 8 6 15q3 7 1 15q0 7 -2 10q-3 4 -3.5 6t-1.5 4q-3 2 -4.5 3.5l-3.5 3.5q-5 3 -10 5q-3 3 -11 3q-4 3 -11 0zM1377 645l2 16l96 60l-91 5l1 20l117 -10v-11q0 -5 -1 -9
q-4 -2 -4 -5l-81 -50l81 -6l-1 -19z" />
    <glyph glyph-name="two" unicode="2" horiz-adv-x="1672" 
d="M822 308q82 0 155 30t130 78h-570q58 -48 130 -78t155 -30zM586 463h564q45 55 70 124t25 147q0 80 -26.5 150t-81.5 139zM822 1251q-105 0 -198 -40t-163.5 -109t-112.5 -163.5t-42 -204.5q0 -103 39.5 -196t108 -163.5t163.5 -112.5t205 -42q35 0 70 5.5t68 15.5
q77 23 146 68t120 108.5t80.5 143.5t29.5 173q0 101 -38.5 194t-107 165t-163.5 115t-205 43zM822 260q-100 0 -186 38t-150 103t-99.5 151.5t-35.5 181.5q0 94 35 179.5t98 151t149.5 103.5t188.5 38q67 0 124 -16q71 -19 134.5 -60t111 -100t75 -134t27.5 -162
q0 -98 -37 -184.5t-101.5 -151t-150.5 -101.5t-183 -37zM492 1004q-45 -55 -70.5 -122.5t-25.5 -147.5q0 -83 28 -155.5t78 -130.5l555 556h-565zM822 1161q-83 0 -155.5 -29t-130.5 -81h566q-55 50 -126.5 80t-153.5 30zM972 191l-90 -16l4 -26l34 6l16 -89l26 5l-16 89
l31 6zM1072 156q-1 7 -8 9l-12 5h-15h-6h-9h-2v1q-3 3 -3 4l-2 1q2 0 2 4v1h3h5v4h1h5h3q3 0 3 1h9q0 3 0.5 4l0.5 1l5 10l-6 4q-9 4 -12 4q-2 0 -4.5 1t-4.5 1q-4 0 -6 -1t-4 -1l-13 -8q-2 -1 -4 -3.5t-3 -6.5q-8 -6 -8 -15v-4t3 -7q2 -9 10 -14q1 0 3.5 -1.5t3.5 -3.5
q4 0 7 -1t6 -1h12h10h2q2 0 3 -3q4 0 4 -1h3v-5q0 -2 -1 -3t-1 -2v-1q-1 0 -2 -2.5t-3 -2.5q-1 -3 -5 -3h-2.5h-2.5h-3.5h-2.5h-6h-8l-5 -1v-2t-1 -2l-5 -7q1 -4 3 -6t3 -4q4 -1 7 -2t7 -1q8 -3 11 -2q4 0 8 1t7 1l7 3.5t8 4.5l5.5 5.5t4.5 6.5q0 5 2.5 7.5t2.5 7.5
t-0.5 8.5t-4.5 6.5q0 8 -5 10zM1122 151q-1 4 -3 4t-3.5 0.5t-3.5 0.5q-1 -1 -6 -1l-7 -4q-2 -1 -2 -3v-2q-1 -2 -1 -5v-1q0 -4 1 -4v-1q0 -6 4 -6q1 -5 6 -5h7q5 0 7 2q1 2 3 2.5t2 2.5v2q0 2 1 2l4 3v2q0 6 -5 6zM846 99q-1 0 -1 4q0 1 -1.5 1t-1.5 1q0 4 -1 4l-41 60
q0 1 -3 2q-1 3 -8 3h-9h-14l3 -119l27 1v79l51 -79h25v118h-30zM599 189l48 -18l8 25l-73 25l-41 -105l26 -11l15 41l38 -15l10 25l-38 15zM747 160l-8 11q-3 3 -6.5 5t-7.5 4q-4 1 -7 2t-8 3q-5 1 -9 1h-7q-10 0 -14 -5q-4 0 -7.5 -1t-7.5 -4l-11 -10q-4 -8 -10 -11
q-2 -5 -3.5 -8.5t-1.5 -6.5v-19l3 -15l5 -12l12 -11q3 -4 7 -5.5t6 -3.5q7 -4 15 -4q5 -1 8.5 -1h6.5q5 0 14 2q4 2 8.5 3t6.5 4q6 2 11 10l9 11q4 7 6 17v15q0 3 -0.5 6.5t-2.5 8.5l-3 7.5t-4 6.5zM730 121q0 -3 -1.5 -6.5t-3.5 -5.5l-4.5 -6t-4.5 -4q-4 -1 -6.5 -2
t-5.5 -1q-7 -3 -12 0q-3 0 -6.5 1t-5.5 2l-8 10q-2 2 -2.5 5.5t-0.5 6.5q-3 5 0 14q0 6 5 11l6 9l12 5h12l12 -5l9 -9q2 -3 3.5 -5t1.5 -6q2 -9 0 -14zM1309 460q-2 -2 -3 -4t-1 -6q0 -2 1 -4t3 -5l40 -57l-69 10h-10l-9 -6l-9 -17l97 -65l16 23l-46 32l60 -12l11 20l-33 50
l47 -30l15 24l-98 63zM1296 333l-14 13l-15 3q-3 2 -15 2h-6.5t-8.5 -2l-12 -3q-4 -3 -8.5 -6.5t-6.5 -6.5q-3 -3 -4.5 -6t-3.5 -6q-3 -3 -4 -6.5t-3 -8.5q0 -3 -1.5 -6.5t-1.5 -8.5v-6t3 -9l4 -13l10 -12l13 -10q5 -1 7.5 -3.5t7.5 -2.5t8.5 -2t6.5 -2t6.5 2t8.5 2
q3 0 6.5 2.5t7.5 3.5q6 3 13 10l10 12q1 2 3 5t2 8q1 5 1 15v15l-6 13q-2 4 -5 9zM1282 280q-3 -9 -7 -10q-8 -7 -10 -9q-3 -1 -6.5 -1h-6.5t-6.5 0.5t-4.5 0.5l-11 9q-4 4 -8 11v10v12q4 8 8 12l11 8q3 0 6 0.5t5 0.5q5 0 13 -3q2 -1 4.5 -3t5.5 -5q2 -2 4 -4.5t3 -5.5
q3 -3 3 -12q0 -2 -1.5 -6.5zM1209 220l-7 -4q-2 0 -3.5 -2.5t-1.5 -4.5l-5 -9l-8 -6q-4 -3 -6 -4t-6 -1q-6 -3 -12 0q-3 2 -5.5 2t-5.5 3q-7 4 -7 11q-5 1 -5 11q-5 3 0 14v3.5t2 7.5q2 2 4 3.5t4 3.5q8 3 10 3q3 2 10 2q2 0 10 3q2 4 5 5l2 7v8q-3 5 -12 5h-13l-14 -5
l-11 -5q-2 -2 -5.5 -4.5t-6.5 -6.5q-2 -2 -4 -5.5t-4 -8.5l-7 -15v-15q0 -5 2 -7.5t2 -7.5l6 -15q3 -3 6 -5t4 -5l15 -10l12 -2q5 -3 16 -3q4 0 7 1.5t7 2.5q5 1 8.5 3.5t6.5 5.5l5 2.5t5 4.5q3 0 5 3.5t5 6.5l3 14q5 4 5 13l-12 2h-6zM519 260l-102 -74l15 -10h2.5h2.5
q3 0 3.5 -0.5t1.5 0.5h5h5l10 10l40 -22l-2 -15v-5q0 -3 1 -3q0 -1 1 -1v-4q0 -1 2 -1l3 -4l17 -10l17 125zM507 218v-2v-3l-1 -22l-19 10l17 15h2h1v2v1h2q1 1 2 1zM477 255l18 20l-69 59l-20 -21l26 -22l-57 -66l20 -19l60 70zM257 411l83 -10h6q1 0 2 1t3 1l11 8l-45 77
l-23 -14l26 -44l-83 9q-1 0 -4.5 -0.5t-7.5 -3.5l-10 -5l45 -79l22 15zM357 303l22 18l-27 30l14 12l31 -39l20 17l-48 60l-90 -75l51 -58l19 18l-32 37l17 11zM191 741l50 4q1 -2 3.5 -4t4.5 -5q2 -1 3.5 -4t1.5 -6q1 -6 3 -11q0 -4 1 -6.5t1 -4.5q0 -8 -1 -14t-3 -11
q-1 -8 -4.5 -13t-6.5 -10q-7 -8 -19 -12q-11 -8 -23 -8h-17q-4 3 -7.5 4t-7.5 4q-4 1 -6.5 3t-6.5 4q-2 3 -5 6t-5 7q-2 2 -3.5 5.5t-3.5 6.5q-1 5 -2 9.5t-1 9.5v6.5v4.5q3 9 3 14q2 3 3.5 5.5t3.5 5.5q2 2 3.5 5t3.5 5l3 -5q3 0 4 -1l1 -1q2 -3 2 -8v-3t-2 -3
q-5 -5 -5 -11v-13t3 -17q2 -4 4.5 -7t5.5 -6q5 -5 14 -7q7 -4 17 -3q6 0 11 3q3 1 5 1.5t4 3.5q1 2 3.5 3t5.5 4q1 2 2.5 3.5t3.5 4.5q0 4 0.5 6.5t2.5 5.5q1 4 1 10q-1 4 -2 7t-2 8q0 3 -5 10l-19 -1v-5v-5q0 -2 -2 -5q-1 -1 -2 -2.5t-2 -1.5q-2 -1 -6 -1h-6zM264 831
l-9 -75l-118 12l8 75l19 -2l-7 -55l30 -5l5 47l20 -2l-5 -45l32 -3l5 57zM164 851l-17 5l22 90l18 -5l-10 -37l98 -23l-4 -18l-97 23zM205 988l-18 8l42 83l16 -8l-15 -32l89 -45l-8 -18l-90 45zM392 1106l-11 -16l-40 30l-35 -47l41 -30l-11 -15l-97 70l11 15l40 -29l35 47
l-40 30l11 15zM456 1166l-54 -51l-83 86l53 53l14 -15l-39 -39l20 -21l33 31l12 -14l-31 -30l21 -23l40 38zM514 1290l10 -17l-39 -24l24 -43l-14 -10l-63 100l63 40l9 -15l-47 -30l18 -26zM562 1290q0 -7 5 -10q2 -4 10 -7q2 -2 5 -2h5q5 0 10 2q8 3 10 7q5 5 7 10
q1 1 1 10q0 6 -1 11l-27 67l17 8l28 -68q2 -5 2.5 -9t0.5 -9q0 -10 -3 -19q-2 -5 -4.5 -8t-7.5 -7q-3 -5 -6 -6.5t-8 -3.5t-9.5 -3.5t-9.5 -1.5q-8 0 -18 5q-5 2 -8.5 3.5t-6.5 6.5q-7 7 -10 15l-30 67l18 8zM662 1276l-30 117l20 5l23 -97l49 10l3 -20zM731 1291l-12 120
l20 2l10 -98l51 5v-20zM864 1296l-19 4l12 118l44 -5q6 0 14 -4q9 -5 11 -10q4 -3 6 -13q4 -7 3 -15q-3 -3 -3 -6.5t-2 -8.5q-6 -8 -9 -11q-4 -4 -14 -7q-3 -2 -13 -2l-25 4zM895 1356h7q3 0 7 5q3 0 3 5q2 2 4 8q0 5 -1 7t-2 3.5l-1 1.5q-2 3 -3.5 4t-2.5 1q-2 2 -3.5 2
t-2.5 1l-25 2l-5 -38zM951 1285l-19 5l30 113l44 -12q6 0 11 -5l10 -10q4 -5 4 -13q1 -5 0.5 -8.5t-0.5 -6.5q-2 -5 -5 -10q-4 -5 -6 -7q-8 -5 -10 -5q-3 -2 -5.5 -2.5t-3.5 -2.5l21 -56l-15 1q-1 2 -3 3.5t-3 1.5q-4 2 -5 9l-19 46l-15 4zM977 1379l-10 -31l25 -7h3h2
q3 0 4 1t4 1q2 0 2 1.5v1.5q5 5 5 7v7v3t-1 3q-1 2 -2.5 2.5t-1.5 2.5q-3 3 -6 3zM1037 1321q0 5 2.5 8.5t6.5 6.5q1 3 4.5 5.5t6.5 4.5q3 3 6.5 4t8.5 3q4 3 14 3h15q9 -1 16 -6q8 -4 15 -9q3 -3 5.5 -6.5t4.5 -4.5l3.5 -7l3.5 -7q1 -5 2 -8t1 -7v-8t-2 -8q-1 -4 -2 -7.5
t-3 -7.5q-3 -4 -4 -7t-4 -7q-3 -3 -6.5 -5t-4.5 -6q-4 -2 -7 -4t-7 -5q-6 0 -16 -1q-12 0 -17 1q-5 0 -15 5q-12 5 -18 15q-9 9 -14 20q-1 7 -1 12v12q0 11 6 21zM1054 1315q-2 -4 -2.5 -6.5t-2.5 -5.5v-10q0 -2 1 -5t2 -5q0 -7 4 -10q1 -2 3 -4.5t3 -2.5q4 -5 10 -6
q7 -4 10 -4h12h12q4 5 8 5q3 2 5 3.5t3 3.5q3 3 4 5.5t3 4.5q2 3 2.5 7.5t0.5 9.5v7.5v7.5q-2 4 -4.5 7.5t-5.5 5.5q-6 7 -13 10q-2 2 -5 2.5t-7 0.5h-10q-6 0 -10 -1q-3 -2 -5 -3t-5 -1q-1 -2 -3 -4t-3 -4zM1222 1290l10 -9q0 -1 1.5 -3t3.5 -3q0 -5 -2 -9l-28 -85l83 38
q1 1 7 1q5 0 7 -4l10 -7l-117 -54l-15 11zM1279 1064l-47 56l90 76l49 -56l-14 -14l-37 44l-23 -19l29 -36l-16 -11l-28 35l-23 -21l35 -42zM1294 1039l-9 16l101 61l23 -37q2 -3 2.5 -6t2.5 -8q2 -7 -2 -12q-2 -9 -5 -13l-4.5 -4.5t-6.5 -5.5q-4 -1 -5.5 -1.5t-4.5 -2.5
q-4 0 -5.5 -0.5t-4.5 0.5q-4 0 -10 3q-4 1 -5.5 1.5t-3.5 3.5l-23 -59l-9 13q-4 2 -4 7q0 6 3 9l20 47l-8 13zM1381 1089l-29 -16l13 -19q2 -5 4 -6q1 0 6 -3h6q1 0 5 3q1 0 6 3q0 3 1 4t1 3q1 1 1 6q-1 1 -1 2.5t-2 3.5zM1436 969q1 1 1 7q0 4 -1 5q-2 3 -2 7q-3 0 -5 3
q-2 2 -5 2q-3 1 -5 0l-2.5 -2.5l-1.5 -1.5l-2 -2l-2 -2v-7v-10v-3v-2v-10q0 -2 -0.5 -4.5t-0.5 -4.5q-4 -14 -19 -21q-4 -2 -7.5 -3t-8.5 1q-6 0 -14 2q-4 3 -7 5t-5 6q-3 2 -5 5.5t-4 6.5q-3 10 -3 15q0 4 3 14q0 3 2 5l3 4q0 4 2 4q4 2 3 2l4 -2q3 -5 5 -7q0 -1 0.5 -2
t0.5 -3q0 -3 -3 -6v-1v-8q0 -5 2 -8q0 -2 1 -3t2 -4q2 0 3.5 -1.5l3.5 -3.5h2t4 -2h4.5t4.5 2q2 0 5 3q2 4 2 5q1 2 1 7v8v4v12q0 8 2 13q1 2 2 4.5t4 5.5q2 2 4.5 3.5t6.5 3.5q8 3 14 1q6 0 12 -3q3 -2 6.5 -3.5t5.5 -5.5q3 -3 6 -11q2 -7 2 -10q0 -7 -1 -10q0 -4 -4 -10
v-4.5t-2 -3.5l-6 4q-3 1 -4 2.5t-3 3.5q-1 3 -1 6v3zM1364 881l-5 18l113 34l5 -19zM1427 881h19q6 0 14 -5q4 0 7.5 -2.5t4.5 -4.5q4 -3 7 -5.5t6 -5.5q4 -8 7 -12q3 -8 5 -18v-15q-2 -10 -5 -15q-1 -5 -3 -8.5t-4 -6.5l-10 -10q-4 -4 -7.5 -5.5t-6.5 -2.5q-7 -4 -15 -4
q-10 -1 -19 0q-8 0 -15 4q-2 1 -6 2.5t-7 3.5q-3 3 -5.5 6.5t-4.5 5.5q-7 5 -8 15q-2 3 -3.5 6.5t-1.5 8.5q-1 13 1 23q5 13 10 20q7 10 18 17q5 3 11 5.5t11 2.5zM1430 861q-8 0 -10 -3q-5 -2 -10 -5q-4 -2 -6 -7q-5 -5 -5 -10q-2 -1 -2.5 -4t-1.5 -6v-10q2 -8 4 -11
q0 -6 5 -9q1 -3 3 -5t3 -5q2 0 4.5 -1.5t5.5 -3.5q2 -1 4.5 -1h5.5q5 -4 11 0q11 0 16 5q5 1 13 11q6 8 6 15q3 7 1 15q0 7 -2 10q-3 4 -3.5 6t-1.5 4q-3 2 -4.5 3.5l-3.5 3.5q-5 3 -10 5q-3 3 -11 3q-4 3 -11 0zM1377 645l2 16l96 60l-91 5l1 20l117 -10v-11q0 -5 -1 -9
q-4 -2 -4 -5l-81 -50l81 -6l-1 -19z" />
    <glyph glyph-name="three" unicode="3" horiz-adv-x="1672" 
d="M822 308q82 0 155 30t130 78h-570q58 -48 130 -78t155 -30zM586 463h564q45 55 70 124t25 147q0 80 -26.5 150t-81.5 139zM822 1251q-105 0 -198 -40t-163.5 -109t-112.5 -163.5t-42 -204.5q0 -103 39.5 -196t108 -163.5t163.5 -112.5t205 -42q35 0 70 5.5t68 15.5
q77 23 146 68t120 108.5t80.5 143.5t29.5 173q0 101 -38.5 194t-107 165t-163.5 115t-205 43zM822 260q-100 0 -186 38t-150 103t-99.5 151.5t-35.5 181.5q0 94 35 179.5t98 151t149.5 103.5t188.5 38q67 0 124 -16q71 -19 134.5 -60t111 -100t75 -134t27.5 -162
q0 -98 -37 -184.5t-101.5 -151t-150.5 -101.5t-183 -37zM492 1004q-45 -55 -70.5 -122.5t-25.5 -147.5q0 -83 28 -155.5t78 -130.5l555 556h-565zM822 1161q-83 0 -155.5 -29t-130.5 -81h566q-55 50 -126.5 80t-153.5 30zM972 191l-90 -16l4 -26l34 6l16 -89l26 5l-16 89
l31 6zM1072 156q-1 7 -8 9l-12 5h-15h-6h-9h-2v1q-3 3 -3 4l-2 1q2 0 2 4v1h3h5v4h1h5h3q3 0 3 1h9q0 3 0.5 4l0.5 1l5 10l-6 4q-9 4 -12 4q-2 0 -4.5 1t-4.5 1q-4 0 -6 -1t-4 -1l-13 -8q-2 -1 -4 -3.5t-3 -6.5q-8 -6 -8 -15v-4t3 -7q2 -9 10 -14q1 0 3.5 -1.5t3.5 -3.5
q4 0 7 -1t6 -1h12h10h2q2 0 3 -3q4 0 4 -1h3v-5q0 -2 -1 -3t-1 -2v-1q-1 0 -2 -2.5t-3 -2.5q-1 -3 -5 -3h-2.5h-2.5h-3.5h-2.5h-6h-8l-5 -1v-2t-1 -2l-5 -7q1 -4 3 -6t3 -4q4 -1 7 -2t7 -1q8 -3 11 -2q4 0 8 1t7 1l7 3.5t8 4.5l5.5 5.5t4.5 6.5q0 5 2.5 7.5t2.5 7.5
t-0.5 8.5t-4.5 6.5q0 8 -5 10zM1122 151q-1 4 -3 4t-3.5 0.5t-3.5 0.5q-1 -1 -6 -1l-7 -4q-2 -1 -2 -3v-2q-1 -2 -1 -5v-1q0 -4 1 -4v-1q0 -6 4 -6q1 -5 6 -5h7q5 0 7 2q1 2 3 2.5t2 2.5v2q0 2 1 2l4 3v2q0 6 -5 6zM846 99q-1 0 -1 4q0 1 -1.5 1t-1.5 1q0 4 -1 4l-41 60
q0 1 -3 2q-1 3 -8 3h-9h-14l3 -119l27 1v79l51 -79h25v118h-30zM599 189l48 -18l8 25l-73 25l-41 -105l26 -11l15 41l38 -15l10 25l-38 15zM747 160l-8 11q-3 3 -6.5 5t-7.5 4q-4 1 -7 2t-8 3q-5 1 -9 1h-7q-10 0 -14 -5q-4 0 -7.5 -1t-7.5 -4l-11 -10q-4 -8 -10 -11
q-2 -5 -3.5 -8.5t-1.5 -6.5v-19l3 -15l5 -12l12 -11q3 -4 7 -5.5t6 -3.5q7 -4 15 -4q5 -1 8.5 -1h6.5q5 0 14 2q4 2 8.5 3t6.5 4q6 2 11 10l9 11q4 7 6 17v15q0 3 -0.5 6.5t-2.5 8.5l-3 7.5t-4 6.5zM730 121q0 -3 -1.5 -6.5t-3.5 -5.5l-4.5 -6t-4.5 -4q-4 -1 -6.5 -2
t-5.5 -1q-7 -3 -12 0q-3 0 -6.5 1t-5.5 2l-8 10q-2 2 -2.5 5.5t-0.5 6.5q-3 5 0 14q0 6 5 11l6 9l12 5h12l12 -5l9 -9q2 -3 3.5 -5t1.5 -6q2 -9 0 -14zM1309 460q-2 -2 -3 -4t-1 -6q0 -2 1 -4t3 -5l40 -57l-69 10h-10l-9 -6l-9 -17l97 -65l16 23l-46 32l60 -12l11 20l-33 50
l47 -30l15 24l-98 63zM1296 333l-14 13l-15 3q-3 2 -15 2h-6.5t-8.5 -2l-12 -3q-4 -3 -8.5 -6.5t-6.5 -6.5q-3 -3 -4.5 -6t-3.5 -6q-3 -3 -4 -6.5t-3 -8.5q0 -3 -1.5 -6.5t-1.5 -8.5v-6t3 -9l4 -13l10 -12l13 -10q5 -1 7.5 -3.5t7.5 -2.5t8.5 -2t6.5 -2t6.5 2t8.5 2
q3 0 6.5 2.5t7.5 3.5q6 3 13 10l10 12q1 2 3 5t2 8q1 5 1 15v15l-6 13q-2 4 -5 9zM1282 280q-3 -9 -7 -10q-8 -7 -10 -9q-3 -1 -6.5 -1h-6.5t-6.5 0.5t-4.5 0.5l-11 9q-4 4 -8 11v10v12q4 8 8 12l11 8q3 0 6 0.5t5 0.5q5 0 13 -3q2 -1 4.5 -3t5.5 -5q2 -2 4 -4.5t3 -5.5
q3 -3 3 -12q0 -2 -1.5 -6.5zM1209 220l-7 -4q-2 0 -3.5 -2.5t-1.5 -4.5l-5 -9l-8 -6q-4 -3 -6 -4t-6 -1q-6 -3 -12 0q-3 2 -5.5 2t-5.5 3q-7 4 -7 11q-5 1 -5 11q-5 3 0 14v3.5t2 7.5q2 2 4 3.5t4 3.5q8 3 10 3q3 2 10 2q2 0 10 3q2 4 5 5l2 7v8q-3 5 -12 5h-13l-14 -5
l-11 -5q-2 -2 -5.5 -4.5t-6.5 -6.5q-2 -2 -4 -5.5t-4 -8.5l-7 -15v-15q0 -5 2 -7.5t2 -7.5l6 -15q3 -3 6 -5t4 -5l15 -10l12 -2q5 -3 16 -3q4 0 7 1.5t7 2.5q5 1 8.5 3.5t6.5 5.5l5 2.5t5 4.5q3 0 5 3.5t5 6.5l3 14q5 4 5 13l-12 2h-6zM519 260l-102 -74l15 -10h2.5h2.5
q3 0 3.5 -0.5t1.5 0.5h5h5l10 10l40 -22l-2 -15v-5q0 -3 1 -3q0 -1 1 -1v-4q0 -1 2 -1l3 -4l17 -10l17 125zM507 218v-2v-3l-1 -22l-19 10l17 15h2h1v2v1h2q1 1 2 1zM477 255l18 20l-69 59l-20 -21l26 -22l-57 -66l20 -19l60 70zM257 411l83 -10h6q1 0 2 1t3 1l11 8l-45 77
l-23 -14l26 -44l-83 9q-1 0 -4.5 -0.5t-7.5 -3.5l-10 -5l45 -79l22 15zM357 303l22 18l-27 30l14 12l31 -39l20 17l-48 60l-90 -75l51 -58l19 18l-32 37l17 11zM191 741l50 4q1 -2 3.5 -4t4.5 -5q2 -1 3.5 -4t1.5 -6q1 -6 3 -11q0 -4 1 -6.5t1 -4.5q0 -8 -1 -14t-3 -11
q-1 -8 -4.5 -13t-6.5 -10q-7 -8 -19 -12q-11 -8 -23 -8h-17q-4 3 -7.5 4t-7.5 4q-4 1 -6.5 3t-6.5 4q-2 3 -5 6t-5 7q-2 2 -3.5 5.5t-3.5 6.5q-1 5 -2 9.5t-1 9.5v6.5v4.5q3 9 3 14q2 3 3.5 5.5t3.5 5.5q2 2 3.5 5t3.5 5l3 -5q3 0 4 -1l1 -1q2 -3 2 -8v-3t-2 -3
q-5 -5 -5 -11v-13t3 -17q2 -4 4.5 -7t5.5 -6q5 -5 14 -7q7 -4 17 -3q6 0 11 3q3 1 5 1.5t4 3.5q1 2 3.5 3t5.5 4q1 2 2.5 3.5t3.5 4.5q0 4 0.5 6.5t2.5 5.5q1 4 1 10q-1 4 -2 7t-2 8q0 3 -5 10l-19 -1v-5v-5q0 -2 -2 -5q-1 -1 -2 -2.5t-2 -1.5q-2 -1 -6 -1h-6zM264 831
l-9 -75l-118 12l8 75l19 -2l-7 -55l30 -5l5 47l20 -2l-5 -45l32 -3l5 57zM164 851l-17 5l22 90l18 -5l-10 -37l98 -23l-4 -18l-97 23zM205 988l-18 8l42 83l16 -8l-15 -32l89 -45l-8 -18l-90 45zM392 1106l-11 -16l-40 30l-35 -47l41 -30l-11 -15l-97 70l11 15l40 -29l35 47
l-40 30l11 15zM456 1166l-54 -51l-83 86l53 53l14 -15l-39 -39l20 -21l33 31l12 -14l-31 -30l21 -23l40 38zM514 1290l10 -17l-39 -24l24 -43l-14 -10l-63 100l63 40l9 -15l-47 -30l18 -26zM562 1290q0 -7 5 -10q2 -4 10 -7q2 -2 5 -2h5q5 0 10 2q8 3 10 7q5 5 7 10
q1 1 1 10q0 6 -1 11l-27 67l17 8l28 -68q2 -5 2.5 -9t0.5 -9q0 -10 -3 -19q-2 -5 -4.5 -8t-7.5 -7q-3 -5 -6 -6.5t-8 -3.5t-9.5 -3.5t-9.5 -1.5q-8 0 -18 5q-5 2 -8.5 3.5t-6.5 6.5q-7 7 -10 15l-30 67l18 8zM662 1276l-30 117l20 5l23 -97l49 10l3 -20zM731 1291l-12 120
l20 2l10 -98l51 5v-20zM864 1296l-19 4l12 118l44 -5q6 0 14 -4q9 -5 11 -10q4 -3 6 -13q4 -7 3 -15q-3 -3 -3 -6.5t-2 -8.5q-6 -8 -9 -11q-4 -4 -14 -7q-3 -2 -13 -2l-25 4zM895 1356h7q3 0 7 5q3 0 3 5q2 2 4 8q0 5 -1 7t-2 3.5l-1 1.5q-2 3 -3.5 4t-2.5 1q-2 2 -3.5 2
t-2.5 1l-25 2l-5 -38zM951 1285l-19 5l30 113l44 -12q6 0 11 -5l10 -10q4 -5 4 -13q1 -5 0.5 -8.5t-0.5 -6.5q-2 -5 -5 -10q-4 -5 -6 -7q-8 -5 -10 -5q-3 -2 -5.5 -2.5t-3.5 -2.5l21 -56l-15 1q-1 2 -3 3.5t-3 1.5q-4 2 -5 9l-19 46l-15 4zM977 1379l-10 -31l25 -7h3h2
q3 0 4 1t4 1q2 0 2 1.5v1.5q5 5 5 7v7v3t-1 3q-1 2 -2.5 2.5t-1.5 2.5q-3 3 -6 3zM1037 1321q0 5 2.5 8.5t6.5 6.5q1 3 4.5 5.5t6.5 4.5q3 3 6.5 4t8.5 3q4 3 14 3h15q9 -1 16 -6q8 -4 15 -9q3 -3 5.5 -6.5t4.5 -4.5l3.5 -7l3.5 -7q1 -5 2 -8t1 -7v-8t-2 -8q-1 -4 -2 -7.5
t-3 -7.5q-3 -4 -4 -7t-4 -7q-3 -3 -6.5 -5t-4.5 -6q-4 -2 -7 -4t-7 -5q-6 0 -16 -1q-12 0 -17 1q-5 0 -15 5q-12 5 -18 15q-9 9 -14 20q-1 7 -1 12v12q0 11 6 21zM1054 1315q-2 -4 -2.5 -6.5t-2.5 -5.5v-10q0 -2 1 -5t2 -5q0 -7 4 -10q1 -2 3 -4.5t3 -2.5q4 -5 10 -6
q7 -4 10 -4h12h12q4 5 8 5q3 2 5 3.5t3 3.5q3 3 4 5.5t3 4.5q2 3 2.5 7.5t0.5 9.5v7.5v7.5q-2 4 -4.5 7.5t-5.5 5.5q-6 7 -13 10q-2 2 -5 2.5t-7 0.5h-10q-6 0 -10 -1q-3 -2 -5 -3t-5 -1q-1 -2 -3 -4t-3 -4zM1222 1290l10 -9q0 -1 1.5 -3t3.5 -3q0 -5 -2 -9l-28 -85l83 38
q1 1 7 1q5 0 7 -4l10 -7l-117 -54l-15 11zM1279 1064l-47 56l90 76l49 -56l-14 -14l-37 44l-23 -19l29 -36l-16 -11l-28 35l-23 -21l35 -42zM1294 1039l-9 16l101 61l23 -37q2 -3 2.5 -6t2.5 -8q2 -7 -2 -12q-2 -9 -5 -13l-4.5 -4.5t-6.5 -5.5q-4 -1 -5.5 -1.5t-4.5 -2.5
q-4 0 -5.5 -0.5t-4.5 0.5q-4 0 -10 3q-4 1 -5.5 1.5t-3.5 3.5l-23 -59l-9 13q-4 2 -4 7q0 6 3 9l20 47l-8 13zM1381 1089l-29 -16l13 -19q2 -5 4 -6q1 0 6 -3h6q1 0 5 3q1 0 6 3q0 3 1 4t1 3q1 1 1 6q-1 1 -1 2.5t-2 3.5zM1436 969q1 1 1 7q0 4 -1 5q-2 3 -2 7q-3 0 -5 3
q-2 2 -5 2q-3 1 -5 0l-2.5 -2.5l-1.5 -1.5l-2 -2l-2 -2v-7v-10v-3v-2v-10q0 -2 -0.5 -4.5t-0.5 -4.5q-4 -14 -19 -21q-4 -2 -7.5 -3t-8.5 1q-6 0 -14 2q-4 3 -7 5t-5 6q-3 2 -5 5.5t-4 6.5q-3 10 -3 15q0 4 3 14q0 3 2 5l3 4q0 4 2 4q4 2 3 2l4 -2q3 -5 5 -7q0 -1 0.5 -2
t0.5 -3q0 -3 -3 -6v-1v-8q0 -5 2 -8q0 -2 1 -3t2 -4q2 0 3.5 -1.5l3.5 -3.5h2t4 -2h4.5t4.5 2q2 0 5 3q2 4 2 5q1 2 1 7v8v4v12q0 8 2 13q1 2 2 4.5t4 5.5q2 2 4.5 3.5t6.5 3.5q8 3 14 1q6 0 12 -3q3 -2 6.5 -3.5t5.5 -5.5q3 -3 6 -11q2 -7 2 -10q0 -7 -1 -10q0 -4 -4 -10
v-4.5t-2 -3.5l-6 4q-3 1 -4 2.5t-3 3.5q-1 3 -1 6v3zM1364 881l-5 18l113 34l5 -19zM1427 881h19q6 0 14 -5q4 0 7.5 -2.5t4.5 -4.5q4 -3 7 -5.5t6 -5.5q4 -8 7 -12q3 -8 5 -18v-15q-2 -10 -5 -15q-1 -5 -3 -8.5t-4 -6.5l-10 -10q-4 -4 -7.5 -5.5t-6.5 -2.5q-7 -4 -15 -4
q-10 -1 -19 0q-8 0 -15 4q-2 1 -6 2.5t-7 3.5q-3 3 -5.5 6.5t-4.5 5.5q-7 5 -8 15q-2 3 -3.5 6.5t-1.5 8.5q-1 13 1 23q5 13 10 20q7 10 18 17q5 3 11 5.5t11 2.5zM1430 861q-8 0 -10 -3q-5 -2 -10 -5q-4 -2 -6 -7q-5 -5 -5 -10q-2 -1 -2.5 -4t-1.5 -6v-10q2 -8 4 -11
q0 -6 5 -9q1 -3 3 -5t3 -5q2 0 4.5 -1.5t5.5 -3.5q2 -1 4.5 -1h5.5q5 -4 11 0q11 0 16 5q5 1 13 11q6 8 6 15q3 7 1 15q0 7 -2 10q-3 4 -3.5 6t-1.5 4q-3 2 -4.5 3.5l-3.5 3.5q-5 3 -10 5q-3 3 -11 3q-4 3 -11 0zM1377 645l2 16l96 60l-91 5l1 20l117 -10v-11q0 -5 -1 -9
q-4 -2 -4 -5l-81 -50l81 -6l-1 -19z" />
    <glyph glyph-name="four" unicode="4" horiz-adv-x="1672" 
d="M822 308q82 0 155 30t130 78h-570q58 -48 130 -78t155 -30zM586 463h564q45 55 70 124t25 147q0 80 -26.5 150t-81.5 139zM822 1251q-105 0 -198 -40t-163.5 -109t-112.5 -163.5t-42 -204.5q0 -103 39.5 -196t108 -163.5t163.5 -112.5t205 -42q35 0 70 5.5t68 15.5
q77 23 146 68t120 108.5t80.5 143.5t29.5 173q0 101 -38.5 194t-107 165t-163.5 115t-205 43zM822 260q-100 0 -186 38t-150 103t-99.5 151.5t-35.5 181.5q0 94 35 179.5t98 151t149.5 103.5t188.5 38q67 0 124 -16q71 -19 134.5 -60t111 -100t75 -134t27.5 -162
q0 -98 -37 -184.5t-101.5 -151t-150.5 -101.5t-183 -37zM492 1004q-45 -55 -70.5 -122.5t-25.5 -147.5q0 -83 28 -155.5t78 -130.5l555 556h-565zM822 1161q-83 0 -155.5 -29t-130.5 -81h566q-55 50 -126.5 80t-153.5 30zM972 191l-90 -16l4 -26l34 6l16 -89l26 5l-16 89
l31 6zM1072 156q-1 7 -8 9l-12 5h-15h-6h-9h-2v1q-3 3 -3 4l-2 1q2 0 2 4v1h3h5v4h1h5h3q3 0 3 1h9q0 3 0.5 4l0.5 1l5 10l-6 4q-9 4 -12 4q-2 0 -4.5 1t-4.5 1q-4 0 -6 -1t-4 -1l-13 -8q-2 -1 -4 -3.5t-3 -6.5q-8 -6 -8 -15v-4t3 -7q2 -9 10 -14q1 0 3.5 -1.5t3.5 -3.5
q4 0 7 -1t6 -1h12h10h2q2 0 3 -3q4 0 4 -1h3v-5q0 -2 -1 -3t-1 -2v-1q-1 0 -2 -2.5t-3 -2.5q-1 -3 -5 -3h-2.5h-2.5h-3.5h-2.5h-6h-8l-5 -1v-2t-1 -2l-5 -7q1 -4 3 -6t3 -4q4 -1 7 -2t7 -1q8 -3 11 -2q4 0 8 1t7 1l7 3.5t8 4.5l5.5 5.5t4.5 6.5q0 5 2.5 7.5t2.5 7.5
t-0.5 8.5t-4.5 6.5q0 8 -5 10zM1122 151q-1 4 -3 4t-3.5 0.5t-3.5 0.5q-1 -1 -6 -1l-7 -4q-2 -1 -2 -3v-2q-1 -2 -1 -5v-1q0 -4 1 -4v-1q0 -6 4 -6q1 -5 6 -5h7q5 0 7 2q1 2 3 2.5t2 2.5v2q0 2 1 2l4 3v2q0 6 -5 6zM846 99q-1 0 -1 4q0 1 -1.5 1t-1.5 1q0 4 -1 4l-41 60
q0 1 -3 2q-1 3 -8 3h-9h-14l3 -119l27 1v79l51 -79h25v118h-30zM599 189l48 -18l8 25l-73 25l-41 -105l26 -11l15 41l38 -15l10 25l-38 15zM747 160l-8 11q-3 3 -6.5 5t-7.5 4q-4 1 -7 2t-8 3q-5 1 -9 1h-7q-10 0 -14 -5q-4 0 -7.5 -1t-7.5 -4l-11 -10q-4 -8 -10 -11
q-2 -5 -3.5 -8.5t-1.5 -6.5v-19l3 -15l5 -12l12 -11q3 -4 7 -5.5t6 -3.5q7 -4 15 -4q5 -1 8.5 -1h6.5q5 0 14 2q4 2 8.5 3t6.5 4q6 2 11 10l9 11q4 7 6 17v15q0 3 -0.5 6.5t-2.5 8.5l-3 7.5t-4 6.5zM730 121q0 -3 -1.5 -6.5t-3.5 -5.5l-4.5 -6t-4.5 -4q-4 -1 -6.5 -2
t-5.5 -1q-7 -3 -12 0q-3 0 -6.5 1t-5.5 2l-8 10q-2 2 -2.5 5.5t-0.5 6.5q-3 5 0 14q0 6 5 11l6 9l12 5h12l12 -5l9 -9q2 -3 3.5 -5t1.5 -6q2 -9 0 -14zM1309 460q-2 -2 -3 -4t-1 -6q0 -2 1 -4t3 -5l40 -57l-69 10h-10l-9 -6l-9 -17l97 -65l16 23l-46 32l60 -12l11 20l-33 50
l47 -30l15 24l-98 63zM1296 333l-14 13l-15 3q-3 2 -15 2h-6.5t-8.5 -2l-12 -3q-4 -3 -8.5 -6.5t-6.5 -6.5q-3 -3 -4.5 -6t-3.5 -6q-3 -3 -4 -6.5t-3 -8.5q0 -3 -1.5 -6.5t-1.5 -8.5v-6t3 -9l4 -13l10 -12l13 -10q5 -1 7.5 -3.5t7.5 -2.5t8.5 -2t6.5 -2t6.5 2t8.5 2
q3 0 6.5 2.5t7.5 3.5q6 3 13 10l10 12q1 2 3 5t2 8q1 5 1 15v15l-6 13q-2 4 -5 9zM1282 280q-3 -9 -7 -10q-8 -7 -10 -9q-3 -1 -6.5 -1h-6.5t-6.5 0.5t-4.5 0.5l-11 9q-4 4 -8 11v10v12q4 8 8 12l11 8q3 0 6 0.5t5 0.5q5 0 13 -3q2 -1 4.5 -3t5.5 -5q2 -2 4 -4.5t3 -5.5
q3 -3 3 -12q0 -2 -1.5 -6.5zM1209 220l-7 -4q-2 0 -3.5 -2.5t-1.5 -4.5l-5 -9l-8 -6q-4 -3 -6 -4t-6 -1q-6 -3 -12 0q-3 2 -5.5 2t-5.5 3q-7 4 -7 11q-5 1 -5 11q-5 3 0 14v3.5t2 7.5q2 2 4 3.5t4 3.5q8 3 10 3q3 2 10 2q2 0 10 3q2 4 5 5l2 7v8q-3 5 -12 5h-13l-14 -5
l-11 -5q-2 -2 -5.5 -4.5t-6.5 -6.5q-2 -2 -4 -5.5t-4 -8.5l-7 -15v-15q0 -5 2 -7.5t2 -7.5l6 -15q3 -3 6 -5t4 -5l15 -10l12 -2q5 -3 16 -3q4 0 7 1.5t7 2.5q5 1 8.5 3.5t6.5 5.5l5 2.5t5 4.5q3 0 5 3.5t5 6.5l3 14q5 4 5 13l-12 2h-6zM519 260l-102 -74l15 -10h2.5h2.5
q3 0 3.5 -0.5t1.5 0.5h5h5l10 10l40 -22l-2 -15v-5q0 -3 1 -3q0 -1 1 -1v-4q0 -1 2 -1l3 -4l17 -10l17 125zM507 218v-2v-3l-1 -22l-19 10l17 15h2h1v2v1h2q1 1 2 1zM477 255l18 20l-69 59l-20 -21l26 -22l-57 -66l20 -19l60 70zM257 411l83 -10h6q1 0 2 1t3 1l11 8l-45 77
l-23 -14l26 -44l-83 9q-1 0 -4.5 -0.5t-7.5 -3.5l-10 -5l45 -79l22 15zM357 303l22 18l-27 30l14 12l31 -39l20 17l-48 60l-90 -75l51 -58l19 18l-32 37l17 11zM191 741l50 4q1 -2 3.5 -4t4.5 -5q2 -1 3.5 -4t1.5 -6q1 -6 3 -11q0 -4 1 -6.5t1 -4.5q0 -8 -1 -14t-3 -11
q-1 -8 -4.5 -13t-6.5 -10q-7 -8 -19 -12q-11 -8 -23 -8h-17q-4 3 -7.5 4t-7.5 4q-4 1 -6.5 3t-6.5 4q-2 3 -5 6t-5 7q-2 2 -3.5 5.5t-3.5 6.5q-1 5 -2 9.5t-1 9.5v6.5v4.5q3 9 3 14q2 3 3.5 5.5t3.5 5.5q2 2 3.5 5t3.5 5l3 -5q3 0 4 -1l1 -1q2 -3 2 -8v-3t-2 -3
q-5 -5 -5 -11v-13t3 -17q2 -4 4.5 -7t5.5 -6q5 -5 14 -7q7 -4 17 -3q6 0 11 3q3 1 5 1.5t4 3.5q1 2 3.5 3t5.5 4q1 2 2.5 3.5t3.5 4.5q0 4 0.5 6.5t2.5 5.5q1 4 1 10q-1 4 -2 7t-2 8q0 3 -5 10l-19 -1v-5v-5q0 -2 -2 -5q-1 -1 -2 -2.5t-2 -1.5q-2 -1 -6 -1h-6zM264 831
l-9 -75l-118 12l8 75l19 -2l-7 -55l30 -5l5 47l20 -2l-5 -45l32 -3l5 57zM164 851l-17 5l22 90l18 -5l-10 -37l98 -23l-4 -18l-97 23zM205 988l-18 8l42 83l16 -8l-15 -32l89 -45l-8 -18l-90 45zM392 1106l-11 -16l-40 30l-35 -47l41 -30l-11 -15l-97 70l11 15l40 -29l35 47
l-40 30l11 15zM456 1166l-54 -51l-83 86l53 53l14 -15l-39 -39l20 -21l33 31l12 -14l-31 -30l21 -23l40 38zM514 1290l10 -17l-39 -24l24 -43l-14 -10l-63 100l63 40l9 -15l-47 -30l18 -26zM562 1290q0 -7 5 -10q2 -4 10 -7q2 -2 5 -2h5q5 0 10 2q8 3 10 7q5 5 7 10
q1 1 1 10q0 6 -1 11l-27 67l17 8l28 -68q2 -5 2.5 -9t0.5 -9q0 -10 -3 -19q-2 -5 -4.5 -8t-7.5 -7q-3 -5 -6 -6.5t-8 -3.5t-9.5 -3.5t-9.5 -1.5q-8 0 -18 5q-5 2 -8.5 3.5t-6.5 6.5q-7 7 -10 15l-30 67l18 8zM662 1276l-30 117l20 5l23 -97l49 10l3 -20zM731 1291l-12 120
l20 2l10 -98l51 5v-20zM864 1296l-19 4l12 118l44 -5q6 0 14 -4q9 -5 11 -10q4 -3 6 -13q4 -7 3 -15q-3 -3 -3 -6.5t-2 -8.5q-6 -8 -9 -11q-4 -4 -14 -7q-3 -2 -13 -2l-25 4zM895 1356h7q3 0 7 5q3 0 3 5q2 2 4 8q0 5 -1 7t-2 3.5l-1 1.5q-2 3 -3.5 4t-2.5 1q-2 2 -3.5 2
t-2.5 1l-25 2l-5 -38zM951 1285l-19 5l30 113l44 -12q6 0 11 -5l10 -10q4 -5 4 -13q1 -5 0.5 -8.5t-0.5 -6.5q-2 -5 -5 -10q-4 -5 -6 -7q-8 -5 -10 -5q-3 -2 -5.5 -2.5t-3.5 -2.5l21 -56l-15 1q-1 2 -3 3.5t-3 1.5q-4 2 -5 9l-19 46l-15 4zM977 1379l-10 -31l25 -7h3h2
q3 0 4 1t4 1q2 0 2 1.5v1.5q5 5 5 7v7v3t-1 3q-1 2 -2.5 2.5t-1.5 2.5q-3 3 -6 3zM1037 1321q0 5 2.5 8.5t6.5 6.5q1 3 4.5 5.5t6.5 4.5q3 3 6.5 4t8.5 3q4 3 14 3h15q9 -1 16 -6q8 -4 15 -9q3 -3 5.5 -6.5t4.5 -4.5l3.5 -7l3.5 -7q1 -5 2 -8t1 -7v-8t-2 -8q-1 -4 -2 -7.5
t-3 -7.5q-3 -4 -4 -7t-4 -7q-3 -3 -6.5 -5t-4.5 -6q-4 -2 -7 -4t-7 -5q-6 0 -16 -1q-12 0 -17 1q-5 0 -15 5q-12 5 -18 15q-9 9 -14 20q-1 7 -1 12v12q0 11 6 21zM1054 1315q-2 -4 -2.5 -6.5t-2.5 -5.5v-10q0 -2 1 -5t2 -5q0 -7 4 -10q1 -2 3 -4.5t3 -2.5q4 -5 10 -6
q7 -4 10 -4h12h12q4 5 8 5q3 2 5 3.5t3 3.5q3 3 4 5.5t3 4.5q2 3 2.5 7.5t0.5 9.5v7.5v7.5q-2 4 -4.5 7.5t-5.5 5.5q-6 7 -13 10q-2 2 -5 2.5t-7 0.5h-10q-6 0 -10 -1q-3 -2 -5 -3t-5 -1q-1 -2 -3 -4t-3 -4zM1222 1290l10 -9q0 -1 1.5 -3t3.5 -3q0 -5 -2 -9l-28 -85l83 38
q1 1 7 1q5 0 7 -4l10 -7l-117 -54l-15 11zM1279 1064l-47 56l90 76l49 -56l-14 -14l-37 44l-23 -19l29 -36l-16 -11l-28 35l-23 -21l35 -42zM1294 1039l-9 16l101 61l23 -37q2 -3 2.5 -6t2.5 -8q2 -7 -2 -12q-2 -9 -5 -13l-4.5 -4.5t-6.5 -5.5q-4 -1 -5.5 -1.5t-4.5 -2.5
q-4 0 -5.5 -0.5t-4.5 0.5q-4 0 -10 3q-4 1 -5.5 1.5t-3.5 3.5l-23 -59l-9 13q-4 2 -4 7q0 6 3 9l20 47l-8 13zM1381 1089l-29 -16l13 -19q2 -5 4 -6q1 0 6 -3h6q1 0 5 3q1 0 6 3q0 3 1 4t1 3q1 1 1 6q-1 1 -1 2.5t-2 3.5zM1436 969q1 1 1 7q0 4 -1 5q-2 3 -2 7q-3 0 -5 3
q-2 2 -5 2q-3 1 -5 0l-2.5 -2.5l-1.5 -1.5l-2 -2l-2 -2v-7v-10v-3v-2v-10q0 -2 -0.5 -4.5t-0.5 -4.5q-4 -14 -19 -21q-4 -2 -7.5 -3t-8.5 1q-6 0 -14 2q-4 3 -7 5t-5 6q-3 2 -5 5.5t-4 6.5q-3 10 -3 15q0 4 3 14q0 3 2 5l3 4q0 4 2 4q4 2 3 2l4 -2q3 -5 5 -7q0 -1 0.5 -2
t0.5 -3q0 -3 -3 -6v-1v-8q0 -5 2 -8q0 -2 1 -3t2 -4q2 0 3.5 -1.5l3.5 -3.5h2t4 -2h4.5t4.5 2q2 0 5 3q2 4 2 5q1 2 1 7v8v4v12q0 8 2 13q1 2 2 4.5t4 5.5q2 2 4.5 3.5t6.5 3.5q8 3 14 1q6 0 12 -3q3 -2 6.5 -3.5t5.5 -5.5q3 -3 6 -11q2 -7 2 -10q0 -7 -1 -10q0 -4 -4 -10
v-4.5t-2 -3.5l-6 4q-3 1 -4 2.5t-3 3.5q-1 3 -1 6v3zM1364 881l-5 18l113 34l5 -19zM1427 881h19q6 0 14 -5q4 0 7.5 -2.5t4.5 -4.5q4 -3 7 -5.5t6 -5.5q4 -8 7 -12q3 -8 5 -18v-15q-2 -10 -5 -15q-1 -5 -3 -8.5t-4 -6.5l-10 -10q-4 -4 -7.5 -5.5t-6.5 -2.5q-7 -4 -15 -4
q-10 -1 -19 0q-8 0 -15 4q-2 1 -6 2.5t-7 3.5q-3 3 -5.5 6.5t-4.5 5.5q-7 5 -8 15q-2 3 -3.5 6.5t-1.5 8.5q-1 13 1 23q5 13 10 20q7 10 18 17q5 3 11 5.5t11 2.5zM1430 861q-8 0 -10 -3q-5 -2 -10 -5q-4 -2 -6 -7q-5 -5 -5 -10q-2 -1 -2.5 -4t-1.5 -6v-10q2 -8 4 -11
q0 -6 5 -9q1 -3 3 -5t3 -5q2 0 4.5 -1.5t5.5 -3.5q2 -1 4.5 -1h5.5q5 -4 11 0q11 0 16 5q5 1 13 11q6 8 6 15q3 7 1 15q0 7 -2 10q-3 4 -3.5 6t-1.5 4q-3 2 -4.5 3.5l-3.5 3.5q-5 3 -10 5q-3 3 -11 3q-4 3 -11 0zM1377 645l2 16l96 60l-91 5l1 20l117 -10v-11q0 -5 -1 -9
q-4 -2 -4 -5l-81 -50l81 -6l-1 -19z" />
    <glyph glyph-name="five" unicode="5" horiz-adv-x="1672" 
d="M822 308q82 0 155 30t130 78h-570q58 -48 130 -78t155 -30zM586 463h564q45 55 70 124t25 147q0 80 -26.5 150t-81.5 139zM822 1251q-105 0 -198 -40t-163.5 -109t-112.5 -163.5t-42 -204.5q0 -103 39.5 -196t108 -163.5t163.5 -112.5t205 -42q35 0 70 5.5t68 15.5
q77 23 146 68t120 108.5t80.5 143.5t29.5 173q0 101 -38.5 194t-107 165t-163.5 115t-205 43zM822 260q-100 0 -186 38t-150 103t-99.5 151.5t-35.5 181.5q0 94 35 179.5t98 151t149.5 103.5t188.5 38q67 0 124 -16q71 -19 134.5 -60t111 -100t75 -134t27.5 -162
q0 -98 -37 -184.5t-101.5 -151t-150.5 -101.5t-183 -37zM492 1004q-45 -55 -70.5 -122.5t-25.5 -147.5q0 -83 28 -155.5t78 -130.5l555 556h-565zM822 1161q-83 0 -155.5 -29t-130.5 -81h566q-55 50 -126.5 80t-153.5 30zM972 191l-90 -16l4 -26l34 6l16 -89l26 5l-16 89
l31 6zM1072 156q-1 7 -8 9l-12 5h-15h-6h-9h-2v1q-3 3 -3 4l-2 1q2 0 2 4v1h3h5v4h1h5h3q3 0 3 1h9q0 3 0.5 4l0.5 1l5 10l-6 4q-9 4 -12 4q-2 0 -4.5 1t-4.5 1q-4 0 -6 -1t-4 -1l-13 -8q-2 -1 -4 -3.5t-3 -6.5q-8 -6 -8 -15v-4t3 -7q2 -9 10 -14q1 0 3.5 -1.5t3.5 -3.5
q4 0 7 -1t6 -1h12h10h2q2 0 3 -3q4 0 4 -1h3v-5q0 -2 -1 -3t-1 -2v-1q-1 0 -2 -2.5t-3 -2.5q-1 -3 -5 -3h-2.5h-2.5h-3.5h-2.5h-6h-8l-5 -1v-2t-1 -2l-5 -7q1 -4 3 -6t3 -4q4 -1 7 -2t7 -1q8 -3 11 -2q4 0 8 1t7 1l7 3.5t8 4.5l5.5 5.5t4.5 6.5q0 5 2.5 7.5t2.5 7.5
t-0.5 8.5t-4.5 6.5q0 8 -5 10zM1122 151q-1 4 -3 4t-3.5 0.5t-3.5 0.5q-1 -1 -6 -1l-7 -4q-2 -1 -2 -3v-2q-1 -2 -1 -5v-1q0 -4 1 -4v-1q0 -6 4 -6q1 -5 6 -5h7q5 0 7 2q1 2 3 2.5t2 2.5v2q0 2 1 2l4 3v2q0 6 -5 6zM846 99q-1 0 -1 4q0 1 -1.5 1t-1.5 1q0 4 -1 4l-41 60
q0 1 -3 2q-1 3 -8 3h-9h-14l3 -119l27 1v79l51 -79h25v118h-30zM599 189l48 -18l8 25l-73 25l-41 -105l26 -11l15 41l38 -15l10 25l-38 15zM747 160l-8 11q-3 3 -6.5 5t-7.5 4q-4 1 -7 2t-8 3q-5 1 -9 1h-7q-10 0 -14 -5q-4 0 -7.5 -1t-7.5 -4l-11 -10q-4 -8 -10 -11
q-2 -5 -3.5 -8.5t-1.5 -6.5v-19l3 -15l5 -12l12 -11q3 -4 7 -5.5t6 -3.5q7 -4 15 -4q5 -1 8.5 -1h6.5q5 0 14 2q4 2 8.5 3t6.5 4q6 2 11 10l9 11q4 7 6 17v15q0 3 -0.5 6.5t-2.5 8.5l-3 7.5t-4 6.5zM730 121q0 -3 -1.5 -6.5t-3.5 -5.5l-4.5 -6t-4.5 -4q-4 -1 -6.5 -2
t-5.5 -1q-7 -3 -12 0q-3 0 -6.5 1t-5.5 2l-8 10q-2 2 -2.5 5.5t-0.5 6.5q-3 5 0 14q0 6 5 11l6 9l12 5h12l12 -5l9 -9q2 -3 3.5 -5t1.5 -6q2 -9 0 -14zM1309 460q-2 -2 -3 -4t-1 -6q0 -2 1 -4t3 -5l40 -57l-69 10h-10l-9 -6l-9 -17l97 -65l16 23l-46 32l60 -12l11 20l-33 50
l47 -30l15 24l-98 63zM1296 333l-14 13l-15 3q-3 2 -15 2h-6.5t-8.5 -2l-12 -3q-4 -3 -8.5 -6.5t-6.5 -6.5q-3 -3 -4.5 -6t-3.5 -6q-3 -3 -4 -6.5t-3 -8.5q0 -3 -1.5 -6.5t-1.5 -8.5v-6t3 -9l4 -13l10 -12l13 -10q5 -1 7.5 -3.5t7.5 -2.5t8.5 -2t6.5 -2t6.5 2t8.5 2
q3 0 6.5 2.5t7.5 3.5q6 3 13 10l10 12q1 2 3 5t2 8q1 5 1 15v15l-6 13q-2 4 -5 9zM1282 280q-3 -9 -7 -10q-8 -7 -10 -9q-3 -1 -6.5 -1h-6.5t-6.5 0.5t-4.5 0.5l-11 9q-4 4 -8 11v10v12q4 8 8 12l11 8q3 0 6 0.5t5 0.5q5 0 13 -3q2 -1 4.5 -3t5.5 -5q2 -2 4 -4.5t3 -5.5
q3 -3 3 -12q0 -2 -1.5 -6.5zM1209 220l-7 -4q-2 0 -3.5 -2.5t-1.5 -4.5l-5 -9l-8 -6q-4 -3 -6 -4t-6 -1q-6 -3 -12 0q-3 2 -5.5 2t-5.5 3q-7 4 -7 11q-5 1 -5 11q-5 3 0 14v3.5t2 7.5q2 2 4 3.5t4 3.5q8 3 10 3q3 2 10 2q2 0 10 3q2 4 5 5l2 7v8q-3 5 -12 5h-13l-14 -5
l-11 -5q-2 -2 -5.5 -4.5t-6.5 -6.5q-2 -2 -4 -5.5t-4 -8.5l-7 -15v-15q0 -5 2 -7.5t2 -7.5l6 -15q3 -3 6 -5t4 -5l15 -10l12 -2q5 -3 16 -3q4 0 7 1.5t7 2.5q5 1 8.5 3.5t6.5 5.5l5 2.5t5 4.5q3 0 5 3.5t5 6.5l3 14q5 4 5 13l-12 2h-6zM519 260l-102 -74l15 -10h2.5h2.5
q3 0 3.5 -0.5t1.5 0.5h5h5l10 10l40 -22l-2 -15v-5q0 -3 1 -3q0 -1 1 -1v-4q0 -1 2 -1l3 -4l17 -10l17 125zM507 218v-2v-3l-1 -22l-19 10l17 15h2h1v2v1h2q1 1 2 1zM477 255l18 20l-69 59l-20 -21l26 -22l-57 -66l20 -19l60 70zM257 411l83 -10h6q1 0 2 1t3 1l11 8l-45 77
l-23 -14l26 -44l-83 9q-1 0 -4.5 -0.5t-7.5 -3.5l-10 -5l45 -79l22 15zM357 303l22 18l-27 30l14 12l31 -39l20 17l-48 60l-90 -75l51 -58l19 18l-32 37l17 11zM191 741l50 4q1 -2 3.5 -4t4.5 -5q2 -1 3.5 -4t1.5 -6q1 -6 3 -11q0 -4 1 -6.5t1 -4.5q0 -8 -1 -14t-3 -11
q-1 -8 -4.5 -13t-6.5 -10q-7 -8 -19 -12q-11 -8 -23 -8h-17q-4 3 -7.5 4t-7.5 4q-4 1 -6.5 3t-6.5 4q-2 3 -5 6t-5 7q-2 2 -3.5 5.5t-3.5 6.5q-1 5 -2 9.5t-1 9.5v6.5v4.5q3 9 3 14q2 3 3.5 5.5t3.5 5.5q2 2 3.5 5t3.5 5l3 -5q3 0 4 -1l1 -1q2 -3 2 -8v-3t-2 -3
q-5 -5 -5 -11v-13t3 -17q2 -4 4.5 -7t5.5 -6q5 -5 14 -7q7 -4 17 -3q6 0 11 3q3 1 5 1.5t4 3.5q1 2 3.5 3t5.5 4q1 2 2.5 3.5t3.5 4.5q0 4 0.5 6.5t2.5 5.5q1 4 1 10q-1 4 -2 7t-2 8q0 3 -5 10l-19 -1v-5v-5q0 -2 -2 -5q-1 -1 -2 -2.5t-2 -1.5q-2 -1 -6 -1h-6zM264 831
l-9 -75l-118 12l8 75l19 -2l-7 -55l30 -5l5 47l20 -2l-5 -45l32 -3l5 57zM164 851l-17 5l22 90l18 -5l-10 -37l98 -23l-4 -18l-97 23zM205 988l-18 8l42 83l16 -8l-15 -32l89 -45l-8 -18l-90 45zM392 1106l-11 -16l-40 30l-35 -47l41 -30l-11 -15l-97 70l11 15l40 -29l35 47
l-40 30l11 15zM456 1166l-54 -51l-83 86l53 53l14 -15l-39 -39l20 -21l33 31l12 -14l-31 -30l21 -23l40 38zM514 1290l10 -17l-39 -24l24 -43l-14 -10l-63 100l63 40l9 -15l-47 -30l18 -26zM562 1290q0 -7 5 -10q2 -4 10 -7q2 -2 5 -2h5q5 0 10 2q8 3 10 7q5 5 7 10
q1 1 1 10q0 6 -1 11l-27 67l17 8l28 -68q2 -5 2.5 -9t0.5 -9q0 -10 -3 -19q-2 -5 -4.5 -8t-7.5 -7q-3 -5 -6 -6.5t-8 -3.5t-9.5 -3.5t-9.5 -1.5q-8 0 -18 5q-5 2 -8.5 3.5t-6.5 6.5q-7 7 -10 15l-30 67l18 8zM662 1276l-30 117l20 5l23 -97l49 10l3 -20zM731 1291l-12 120
l20 2l10 -98l51 5v-20zM864 1296l-19 4l12 118l44 -5q6 0 14 -4q9 -5 11 -10q4 -3 6 -13q4 -7 3 -15q-3 -3 -3 -6.5t-2 -8.5q-6 -8 -9 -11q-4 -4 -14 -7q-3 -2 -13 -2l-25 4zM895 1356h7q3 0 7 5q3 0 3 5q2 2 4 8q0 5 -1 7t-2 3.5l-1 1.5q-2 3 -3.5 4t-2.5 1q-2 2 -3.5 2
t-2.5 1l-25 2l-5 -38zM951 1285l-19 5l30 113l44 -12q6 0 11 -5l10 -10q4 -5 4 -13q1 -5 0.5 -8.5t-0.5 -6.5q-2 -5 -5 -10q-4 -5 -6 -7q-8 -5 -10 -5q-3 -2 -5.5 -2.5t-3.5 -2.5l21 -56l-15 1q-1 2 -3 3.5t-3 1.5q-4 2 -5 9l-19 46l-15 4zM977 1379l-10 -31l25 -7h3h2
q3 0 4 1t4 1q2 0 2 1.5v1.5q5 5 5 7v7v3t-1 3q-1 2 -2.5 2.5t-1.5 2.5q-3 3 -6 3zM1037 1321q0 5 2.5 8.5t6.5 6.5q1 3 4.5 5.5t6.5 4.5q3 3 6.5 4t8.5 3q4 3 14 3h15q9 -1 16 -6q8 -4 15 -9q3 -3 5.5 -6.5t4.5 -4.5l3.5 -7l3.5 -7q1 -5 2 -8t1 -7v-8t-2 -8q-1 -4 -2 -7.5
t-3 -7.5q-3 -4 -4 -7t-4 -7q-3 -3 -6.5 -5t-4.5 -6q-4 -2 -7 -4t-7 -5q-6 0 -16 -1q-12 0 -17 1q-5 0 -15 5q-12 5 -18 15q-9 9 -14 20q-1 7 -1 12v12q0 11 6 21zM1054 1315q-2 -4 -2.5 -6.5t-2.5 -5.5v-10q0 -2 1 -5t2 -5q0 -7 4 -10q1 -2 3 -4.5t3 -2.5q4 -5 10 -6
q7 -4 10 -4h12h12q4 5 8 5q3 2 5 3.5t3 3.5q3 3 4 5.5t3 4.5q2 3 2.5 7.5t0.5 9.5v7.5v7.5q-2 4 -4.5 7.5t-5.5 5.5q-6 7 -13 10q-2 2 -5 2.5t-7 0.5h-10q-6 0 -10 -1q-3 -2 -5 -3t-5 -1q-1 -2 -3 -4t-3 -4zM1222 1290l10 -9q0 -1 1.5 -3t3.5 -3q0 -5 -2 -9l-28 -85l83 38
q1 1 7 1q5 0 7 -4l10 -7l-117 -54l-15 11zM1279 1064l-47 56l90 76l49 -56l-14 -14l-37 44l-23 -19l29 -36l-16 -11l-28 35l-23 -21l35 -42zM1294 1039l-9 16l101 61l23 -37q2 -3 2.5 -6t2.5 -8q2 -7 -2 -12q-2 -9 -5 -13l-4.5 -4.5t-6.5 -5.5q-4 -1 -5.5 -1.5t-4.5 -2.5
q-4 0 -5.5 -0.5t-4.5 0.5q-4 0 -10 3q-4 1 -5.5 1.5t-3.5 3.5l-23 -59l-9 13q-4 2 -4 7q0 6 3 9l20 47l-8 13zM1381 1089l-29 -16l13 -19q2 -5 4 -6q1 0 6 -3h6q1 0 5 3q1 0 6 3q0 3 1 4t1 3q1 1 1 6q-1 1 -1 2.5t-2 3.5zM1436 969q1 1 1 7q0 4 -1 5q-2 3 -2 7q-3 0 -5 3
q-2 2 -5 2q-3 1 -5 0l-2.5 -2.5l-1.5 -1.5l-2 -2l-2 -2v-7v-10v-3v-2v-10q0 -2 -0.5 -4.5t-0.5 -4.5q-4 -14 -19 -21q-4 -2 -7.5 -3t-8.5 1q-6 0 -14 2q-4 3 -7 5t-5 6q-3 2 -5 5.5t-4 6.5q-3 10 -3 15q0 4 3 14q0 3 2 5l3 4q0 4 2 4q4 2 3 2l4 -2q3 -5 5 -7q0 -1 0.5 -2
t0.5 -3q0 -3 -3 -6v-1v-8q0 -5 2 -8q0 -2 1 -3t2 -4q2 0 3.5 -1.5l3.5 -3.5h2t4 -2h4.5t4.5 2q2 0 5 3q2 4 2 5q1 2 1 7v8v4v12q0 8 2 13q1 2 2 4.5t4 5.5q2 2 4.5 3.5t6.5 3.5q8 3 14 1q6 0 12 -3q3 -2 6.5 -3.5t5.5 -5.5q3 -3 6 -11q2 -7 2 -10q0 -7 -1 -10q0 -4 -4 -10
v-4.5t-2 -3.5l-6 4q-3 1 -4 2.5t-3 3.5q-1 3 -1 6v3zM1364 881l-5 18l113 34l5 -19zM1427 881h19q6 0 14 -5q4 0 7.5 -2.5t4.5 -4.5q4 -3 7 -5.5t6 -5.5q4 -8 7 -12q3 -8 5 -18v-15q-2 -10 -5 -15q-1 -5 -3 -8.5t-4 -6.5l-10 -10q-4 -4 -7.5 -5.5t-6.5 -2.5q-7 -4 -15 -4
q-10 -1 -19 0q-8 0 -15 4q-2 1 -6 2.5t-7 3.5q-3 3 -5.5 6.5t-4.5 5.5q-7 5 -8 15q-2 3 -3.5 6.5t-1.5 8.5q-1 13 1 23q5 13 10 20q7 10 18 17q5 3 11 5.5t11 2.5zM1430 861q-8 0 -10 -3q-5 -2 -10 -5q-4 -2 -6 -7q-5 -5 -5 -10q-2 -1 -2.5 -4t-1.5 -6v-10q2 -8 4 -11
q0 -6 5 -9q1 -3 3 -5t3 -5q2 0 4.5 -1.5t5.5 -3.5q2 -1 4.5 -1h5.5q5 -4 11 0q11 0 16 5q5 1 13 11q6 8 6 15q3 7 1 15q0 7 -2 10q-3 4 -3.5 6t-1.5 4q-3 2 -4.5 3.5l-3.5 3.5q-5 3 -10 5q-3 3 -11 3q-4 3 -11 0zM1377 645l2 16l96 60l-91 5l1 20l117 -10v-11q0 -5 -1 -9
q-4 -2 -4 -5l-81 -50l81 -6l-1 -19z" />
    <glyph glyph-name="six" unicode="6" horiz-adv-x="1672" 
d="M822 308q82 0 155 30t130 78h-570q58 -48 130 -78t155 -30zM586 463h564q45 55 70 124t25 147q0 80 -26.5 150t-81.5 139zM822 1251q-105 0 -198 -40t-163.5 -109t-112.5 -163.5t-42 -204.5q0 -103 39.5 -196t108 -163.5t163.5 -112.5t205 -42q35 0 70 5.5t68 15.5
q77 23 146 68t120 108.5t80.5 143.5t29.5 173q0 101 -38.5 194t-107 165t-163.5 115t-205 43zM822 260q-100 0 -186 38t-150 103t-99.5 151.5t-35.5 181.5q0 94 35 179.5t98 151t149.5 103.5t188.5 38q67 0 124 -16q71 -19 134.5 -60t111 -100t75 -134t27.5 -162
q0 -98 -37 -184.5t-101.5 -151t-150.5 -101.5t-183 -37zM492 1004q-45 -55 -70.5 -122.5t-25.5 -147.5q0 -83 28 -155.5t78 -130.5l555 556h-565zM822 1161q-83 0 -155.5 -29t-130.5 -81h566q-55 50 -126.5 80t-153.5 30zM972 191l-90 -16l4 -26l34 6l16 -89l26 5l-16 89
l31 6zM1072 156q-1 7 -8 9l-12 5h-15h-6h-9h-2v1q-3 3 -3 4l-2 1q2 0 2 4v1h3h5v4h1h5h3q3 0 3 1h9q0 3 0.5 4l0.5 1l5 10l-6 4q-9 4 -12 4q-2 0 -4.5 1t-4.5 1q-4 0 -6 -1t-4 -1l-13 -8q-2 -1 -4 -3.5t-3 -6.5q-8 -6 -8 -15v-4t3 -7q2 -9 10 -14q1 0 3.5 -1.5t3.5 -3.5
q4 0 7 -1t6 -1h12h10h2q2 0 3 -3q4 0 4 -1h3v-5q0 -2 -1 -3t-1 -2v-1q-1 0 -2 -2.5t-3 -2.5q-1 -3 -5 -3h-2.5h-2.5h-3.5h-2.5h-6h-8l-5 -1v-2t-1 -2l-5 -7q1 -4 3 -6t3 -4q4 -1 7 -2t7 -1q8 -3 11 -2q4 0 8 1t7 1l7 3.5t8 4.5l5.5 5.5t4.5 6.5q0 5 2.5 7.5t2.5 7.5
t-0.5 8.5t-4.5 6.5q0 8 -5 10zM1122 151q-1 4 -3 4t-3.5 0.5t-3.5 0.5q-1 -1 -6 -1l-7 -4q-2 -1 -2 -3v-2q-1 -2 -1 -5v-1q0 -4 1 -4v-1q0 -6 4 -6q1 -5 6 -5h7q5 0 7 2q1 2 3 2.5t2 2.5v2q0 2 1 2l4 3v2q0 6 -5 6zM846 99q-1 0 -1 4q0 1 -1.5 1t-1.5 1q0 4 -1 4l-41 60
q0 1 -3 2q-1 3 -8 3h-9h-14l3 -119l27 1v79l51 -79h25v118h-30zM599 189l48 -18l8 25l-73 25l-41 -105l26 -11l15 41l38 -15l10 25l-38 15zM747 160l-8 11q-3 3 -6.5 5t-7.5 4q-4 1 -7 2t-8 3q-5 1 -9 1h-7q-10 0 -14 -5q-4 0 -7.5 -1t-7.5 -4l-11 -10q-4 -8 -10 -11
q-2 -5 -3.5 -8.5t-1.5 -6.5v-19l3 -15l5 -12l12 -11q3 -4 7 -5.5t6 -3.5q7 -4 15 -4q5 -1 8.5 -1h6.5q5 0 14 2q4 2 8.5 3t6.5 4q6 2 11 10l9 11q4 7 6 17v15q0 3 -0.5 6.5t-2.5 8.5l-3 7.5t-4 6.5zM730 121q0 -3 -1.5 -6.5t-3.5 -5.5l-4.5 -6t-4.5 -4q-4 -1 -6.5 -2
t-5.5 -1q-7 -3 -12 0q-3 0 -6.5 1t-5.5 2l-8 10q-2 2 -2.5 5.5t-0.5 6.5q-3 5 0 14q0 6 5 11l6 9l12 5h12l12 -5l9 -9q2 -3 3.5 -5t1.5 -6q2 -9 0 -14zM1309 460q-2 -2 -3 -4t-1 -6q0 -2 1 -4t3 -5l40 -57l-69 10h-10l-9 -6l-9 -17l97 -65l16 23l-46 32l60 -12l11 20l-33 50
l47 -30l15 24l-98 63zM1296 333l-14 13l-15 3q-3 2 -15 2h-6.5t-8.5 -2l-12 -3q-4 -3 -8.5 -6.5t-6.5 -6.5q-3 -3 -4.5 -6t-3.5 -6q-3 -3 -4 -6.5t-3 -8.5q0 -3 -1.5 -6.5t-1.5 -8.5v-6t3 -9l4 -13l10 -12l13 -10q5 -1 7.5 -3.5t7.5 -2.5t8.5 -2t6.5 -2t6.5 2t8.5 2
q3 0 6.5 2.5t7.5 3.5q6 3 13 10l10 12q1 2 3 5t2 8q1 5 1 15v15l-6 13q-2 4 -5 9zM1282 280q-3 -9 -7 -10q-8 -7 -10 -9q-3 -1 -6.5 -1h-6.5t-6.5 0.5t-4.5 0.5l-11 9q-4 4 -8 11v10v12q4 8 8 12l11 8q3 0 6 0.5t5 0.5q5 0 13 -3q2 -1 4.5 -3t5.5 -5q2 -2 4 -4.5t3 -5.5
q3 -3 3 -12q0 -2 -1.5 -6.5zM1209 220l-7 -4q-2 0 -3.5 -2.5t-1.5 -4.5l-5 -9l-8 -6q-4 -3 -6 -4t-6 -1q-6 -3 -12 0q-3 2 -5.5 2t-5.5 3q-7 4 -7 11q-5 1 -5 11q-5 3 0 14v3.5t2 7.5q2 2 4 3.5t4 3.5q8 3 10 3q3 2 10 2q2 0 10 3q2 4 5 5l2 7v8q-3 5 -12 5h-13l-14 -5
l-11 -5q-2 -2 -5.5 -4.5t-6.5 -6.5q-2 -2 -4 -5.5t-4 -8.5l-7 -15v-15q0 -5 2 -7.5t2 -7.5l6 -15q3 -3 6 -5t4 -5l15 -10l12 -2q5 -3 16 -3q4 0 7 1.5t7 2.5q5 1 8.5 3.5t6.5 5.5l5 2.5t5 4.5q3 0 5 3.5t5 6.5l3 14q5 4 5 13l-12 2h-6zM519 260l-102 -74l15 -10h2.5h2.5
q3 0 3.5 -0.5t1.5 0.5h5h5l10 10l40 -22l-2 -15v-5q0 -3 1 -3q0 -1 1 -1v-4q0 -1 2 -1l3 -4l17 -10l17 125zM507 218v-2v-3l-1 -22l-19 10l17 15h2h1v2v1h2q1 1 2 1zM477 255l18 20l-69 59l-20 -21l26 -22l-57 -66l20 -19l60 70zM257 411l83 -10h6q1 0 2 1t3 1l11 8l-45 77
l-23 -14l26 -44l-83 9q-1 0 -4.5 -0.5t-7.5 -3.5l-10 -5l45 -79l22 15zM357 303l22 18l-27 30l14 12l31 -39l20 17l-48 60l-90 -75l51 -58l19 18l-32 37l17 11zM191 741l50 4q1 -2 3.5 -4t4.5 -5q2 -1 3.5 -4t1.5 -6q1 -6 3 -11q0 -4 1 -6.5t1 -4.5q0 -8 -1 -14t-3 -11
q-1 -8 -4.5 -13t-6.5 -10q-7 -8 -19 -12q-11 -8 -23 -8h-17q-4 3 -7.5 4t-7.5 4q-4 1 -6.5 3t-6.5 4q-2 3 -5 6t-5 7q-2 2 -3.5 5.5t-3.5 6.5q-1 5 -2 9.5t-1 9.5v6.5v4.5q3 9 3 14q2 3 3.5 5.5t3.5 5.5q2 2 3.5 5t3.5 5l3 -5q3 0 4 -1l1 -1q2 -3 2 -8v-3t-2 -3
q-5 -5 -5 -11v-13t3 -17q2 -4 4.5 -7t5.5 -6q5 -5 14 -7q7 -4 17 -3q6 0 11 3q3 1 5 1.5t4 3.5q1 2 3.5 3t5.5 4q1 2 2.5 3.5t3.5 4.5q0 4 0.5 6.5t2.5 5.5q1 4 1 10q-1 4 -2 7t-2 8q0 3 -5 10l-19 -1v-5v-5q0 -2 -2 -5q-1 -1 -2 -2.5t-2 -1.5q-2 -1 -6 -1h-6zM264 831
l-9 -75l-118 12l8 75l19 -2l-7 -55l30 -5l5 47l20 -2l-5 -45l32 -3l5 57zM164 851l-17 5l22 90l18 -5l-10 -37l98 -23l-4 -18l-97 23zM205 988l-18 8l42 83l16 -8l-15 -32l89 -45l-8 -18l-90 45zM392 1106l-11 -16l-40 30l-35 -47l41 -30l-11 -15l-97 70l11 15l40 -29l35 47
l-40 30l11 15zM456 1166l-54 -51l-83 86l53 53l14 -15l-39 -39l20 -21l33 31l12 -14l-31 -30l21 -23l40 38zM514 1290l10 -17l-39 -24l24 -43l-14 -10l-63 100l63 40l9 -15l-47 -30l18 -26zM562 1290q0 -7 5 -10q2 -4 10 -7q2 -2 5 -2h5q5 0 10 2q8 3 10 7q5 5 7 10
q1 1 1 10q0 6 -1 11l-27 67l17 8l28 -68q2 -5 2.5 -9t0.5 -9q0 -10 -3 -19q-2 -5 -4.5 -8t-7.5 -7q-3 -5 -6 -6.5t-8 -3.5t-9.5 -3.5t-9.5 -1.5q-8 0 -18 5q-5 2 -8.5 3.5t-6.5 6.5q-7 7 -10 15l-30 67l18 8zM662 1276l-30 117l20 5l23 -97l49 10l3 -20zM731 1291l-12 120
l20 2l10 -98l51 5v-20zM864 1296l-19 4l12 118l44 -5q6 0 14 -4q9 -5 11 -10q4 -3 6 -13q4 -7 3 -15q-3 -3 -3 -6.5t-2 -8.5q-6 -8 -9 -11q-4 -4 -14 -7q-3 -2 -13 -2l-25 4zM895 1356h7q3 0 7 5q3 0 3 5q2 2 4 8q0 5 -1 7t-2 3.5l-1 1.5q-2 3 -3.5 4t-2.5 1q-2 2 -3.5 2
t-2.5 1l-25 2l-5 -38zM951 1285l-19 5l30 113l44 -12q6 0 11 -5l10 -10q4 -5 4 -13q1 -5 0.5 -8.5t-0.5 -6.5q-2 -5 -5 -10q-4 -5 -6 -7q-8 -5 -10 -5q-3 -2 -5.5 -2.5t-3.5 -2.5l21 -56l-15 1q-1 2 -3 3.5t-3 1.5q-4 2 -5 9l-19 46l-15 4zM977 1379l-10 -31l25 -7h3h2
q3 0 4 1t4 1q2 0 2 1.5v1.5q5 5 5 7v7v3t-1 3q-1 2 -2.5 2.5t-1.5 2.5q-3 3 -6 3zM1037 1321q0 5 2.5 8.5t6.5 6.5q1 3 4.5 5.5t6.5 4.5q3 3 6.5 4t8.5 3q4 3 14 3h15q9 -1 16 -6q8 -4 15 -9q3 -3 5.5 -6.5t4.5 -4.5l3.5 -7l3.5 -7q1 -5 2 -8t1 -7v-8t-2 -8q-1 -4 -2 -7.5
t-3 -7.5q-3 -4 -4 -7t-4 -7q-3 -3 -6.5 -5t-4.5 -6q-4 -2 -7 -4t-7 -5q-6 0 -16 -1q-12 0 -17 1q-5 0 -15 5q-12 5 -18 15q-9 9 -14 20q-1 7 -1 12v12q0 11 6 21zM1054 1315q-2 -4 -2.5 -6.5t-2.5 -5.5v-10q0 -2 1 -5t2 -5q0 -7 4 -10q1 -2 3 -4.5t3 -2.5q4 -5 10 -6
q7 -4 10 -4h12h12q4 5 8 5q3 2 5 3.5t3 3.5q3 3 4 5.5t3 4.5q2 3 2.5 7.5t0.5 9.5v7.5v7.5q-2 4 -4.5 7.5t-5.5 5.5q-6 7 -13 10q-2 2 -5 2.5t-7 0.5h-10q-6 0 -10 -1q-3 -2 -5 -3t-5 -1q-1 -2 -3 -4t-3 -4zM1222 1290l10 -9q0 -1 1.5 -3t3.5 -3q0 -5 -2 -9l-28 -85l83 38
q1 1 7 1q5 0 7 -4l10 -7l-117 -54l-15 11zM1279 1064l-47 56l90 76l49 -56l-14 -14l-37 44l-23 -19l29 -36l-16 -11l-28 35l-23 -21l35 -42zM1294 1039l-9 16l101 61l23 -37q2 -3 2.5 -6t2.5 -8q2 -7 -2 -12q-2 -9 -5 -13l-4.5 -4.5t-6.5 -5.5q-4 -1 -5.5 -1.5t-4.5 -2.5
q-4 0 -5.5 -0.5t-4.5 0.5q-4 0 -10 3q-4 1 -5.5 1.5t-3.5 3.5l-23 -59l-9 13q-4 2 -4 7q0 6 3 9l20 47l-8 13zM1381 1089l-29 -16l13 -19q2 -5 4 -6q1 0 6 -3h6q1 0 5 3q1 0 6 3q0 3 1 4t1 3q1 1 1 6q-1 1 -1 2.5t-2 3.5zM1436 969q1 1 1 7q0 4 -1 5q-2 3 -2 7q-3 0 -5 3
q-2 2 -5 2q-3 1 -5 0l-2.5 -2.5l-1.5 -1.5l-2 -2l-2 -2v-7v-10v-3v-2v-10q0 -2 -0.5 -4.5t-0.5 -4.5q-4 -14 -19 -21q-4 -2 -7.5 -3t-8.5 1q-6 0 -14 2q-4 3 -7 5t-5 6q-3 2 -5 5.5t-4 6.5q-3 10 -3 15q0 4 3 14q0 3 2 5l3 4q0 4 2 4q4 2 3 2l4 -2q3 -5 5 -7q0 -1 0.5 -2
t0.5 -3q0 -3 -3 -6v-1v-8q0 -5 2 -8q0 -2 1 -3t2 -4q2 0 3.5 -1.5l3.5 -3.5h2t4 -2h4.5t4.5 2q2 0 5 3q2 4 2 5q1 2 1 7v8v4v12q0 8 2 13q1 2 2 4.5t4 5.5q2 2 4.5 3.5t6.5 3.5q8 3 14 1q6 0 12 -3q3 -2 6.5 -3.5t5.5 -5.5q3 -3 6 -11q2 -7 2 -10q0 -7 -1 -10q0 -4 -4 -10
v-4.5t-2 -3.5l-6 4q-3 1 -4 2.5t-3 3.5q-1 3 -1 6v3zM1364 881l-5 18l113 34l5 -19zM1427 881h19q6 0 14 -5q4 0 7.5 -2.5t4.5 -4.5q4 -3 7 -5.5t6 -5.5q4 -8 7 -12q3 -8 5 -18v-15q-2 -10 -5 -15q-1 -5 -3 -8.5t-4 -6.5l-10 -10q-4 -4 -7.5 -5.5t-6.5 -2.5q-7 -4 -15 -4
q-10 -1 -19 0q-8 0 -15 4q-2 1 -6 2.5t-7 3.5q-3 3 -5.5 6.5t-4.5 5.5q-7 5 -8 15q-2 3 -3.5 6.5t-1.5 8.5q-1 13 1 23q5 13 10 20q7 10 18 17q5 3 11 5.5t11 2.5zM1430 861q-8 0 -10 -3q-5 -2 -10 -5q-4 -2 -6 -7q-5 -5 -5 -10q-2 -1 -2.5 -4t-1.5 -6v-10q2 -8 4 -11
q0 -6 5 -9q1 -3 3 -5t3 -5q2 0 4.5 -1.5t5.5 -3.5q2 -1 4.5 -1h5.5q5 -4 11 0q11 0 16 5q5 1 13 11q6 8 6 15q3 7 1 15q0 7 -2 10q-3 4 -3.5 6t-1.5 4q-3 2 -4.5 3.5l-3.5 3.5q-5 3 -10 5q-3 3 -11 3q-4 3 -11 0zM1377 645l2 16l96 60l-91 5l1 20l117 -10v-11q0 -5 -1 -9
q-4 -2 -4 -5l-81 -50l81 -6l-1 -19z" />
    <glyph glyph-name="seven" unicode="7" horiz-adv-x="1672" 
d="M822 308q82 0 155 30t130 78h-570q58 -48 130 -78t155 -30zM586 463h564q45 55 70 124t25 147q0 80 -26.5 150t-81.5 139zM822 1251q-105 0 -198 -40t-163.5 -109t-112.5 -163.5t-42 -204.5q0 -103 39.5 -196t108 -163.5t163.5 -112.5t205 -42q35 0 70 5.5t68 15.5
q77 23 146 68t120 108.5t80.5 143.5t29.5 173q0 101 -38.5 194t-107 165t-163.5 115t-205 43zM822 260q-100 0 -186 38t-150 103t-99.5 151.5t-35.5 181.5q0 94 35 179.5t98 151t149.5 103.5t188.5 38q67 0 124 -16q71 -19 134.5 -60t111 -100t75 -134t27.5 -162
q0 -98 -37 -184.5t-101.5 -151t-150.5 -101.5t-183 -37zM492 1004q-45 -55 -70.5 -122.5t-25.5 -147.5q0 -83 28 -155.5t78 -130.5l555 556h-565zM822 1161q-83 0 -155.5 -29t-130.5 -81h566q-55 50 -126.5 80t-153.5 30zM972 191l-90 -16l4 -26l34 6l16 -89l26 5l-16 89
l31 6zM1072 156q-1 7 -8 9l-12 5h-15h-6h-9h-2v1q-3 3 -3 4l-2 1q2 0 2 4v1h3h5v4h1h5h3q3 0 3 1h9q0 3 0.5 4l0.5 1l5 10l-6 4q-9 4 -12 4q-2 0 -4.5 1t-4.5 1q-4 0 -6 -1t-4 -1l-13 -8q-2 -1 -4 -3.5t-3 -6.5q-8 -6 -8 -15v-4t3 -7q2 -9 10 -14q1 0 3.5 -1.5t3.5 -3.5
q4 0 7 -1t6 -1h12h10h2q2 0 3 -3q4 0 4 -1h3v-5q0 -2 -1 -3t-1 -2v-1q-1 0 -2 -2.5t-3 -2.5q-1 -3 -5 -3h-2.5h-2.5h-3.5h-2.5h-6h-8l-5 -1v-2t-1 -2l-5 -7q1 -4 3 -6t3 -4q4 -1 7 -2t7 -1q8 -3 11 -2q4 0 8 1t7 1l7 3.5t8 4.5l5.5 5.5t4.5 6.5q0 5 2.5 7.5t2.5 7.5
t-0.5 8.5t-4.5 6.5q0 8 -5 10zM1122 151q-1 4 -3 4t-3.5 0.5t-3.5 0.5q-1 -1 -6 -1l-7 -4q-2 -1 -2 -3v-2q-1 -2 -1 -5v-1q0 -4 1 -4v-1q0 -6 4 -6q1 -5 6 -5h7q5 0 7 2q1 2 3 2.5t2 2.5v2q0 2 1 2l4 3v2q0 6 -5 6zM846 99q-1 0 -1 4q0 1 -1.5 1t-1.5 1q0 4 -1 4l-41 60
q0 1 -3 2q-1 3 -8 3h-9h-14l3 -119l27 1v79l51 -79h25v118h-30zM599 189l48 -18l8 25l-73 25l-41 -105l26 -11l15 41l38 -15l10 25l-38 15zM747 160l-8 11q-3 3 -6.5 5t-7.5 4q-4 1 -7 2t-8 3q-5 1 -9 1h-7q-10 0 -14 -5q-4 0 -7.5 -1t-7.5 -4l-11 -10q-4 -8 -10 -11
q-2 -5 -3.5 -8.5t-1.5 -6.5v-19l3 -15l5 -12l12 -11q3 -4 7 -5.5t6 -3.5q7 -4 15 -4q5 -1 8.5 -1h6.5q5 0 14 2q4 2 8.5 3t6.5 4q6 2 11 10l9 11q4 7 6 17v15q0 3 -0.5 6.5t-2.5 8.5l-3 7.5t-4 6.5zM730 121q0 -3 -1.5 -6.5t-3.5 -5.5l-4.5 -6t-4.5 -4q-4 -1 -6.5 -2
t-5.5 -1q-7 -3 -12 0q-3 0 -6.5 1t-5.5 2l-8 10q-2 2 -2.5 5.5t-0.5 6.5q-3 5 0 14q0 6 5 11l6 9l12 5h12l12 -5l9 -9q2 -3 3.5 -5t1.5 -6q2 -9 0 -14zM1309 460q-2 -2 -3 -4t-1 -6q0 -2 1 -4t3 -5l40 -57l-69 10h-10l-9 -6l-9 -17l97 -65l16 23l-46 32l60 -12l11 20l-33 50
l47 -30l15 24l-98 63zM1296 333l-14 13l-15 3q-3 2 -15 2h-6.5t-8.5 -2l-12 -3q-4 -3 -8.5 -6.5t-6.5 -6.5q-3 -3 -4.5 -6t-3.5 -6q-3 -3 -4 -6.5t-3 -8.5q0 -3 -1.5 -6.5t-1.5 -8.5v-6t3 -9l4 -13l10 -12l13 -10q5 -1 7.5 -3.5t7.5 -2.5t8.5 -2t6.5 -2t6.5 2t8.5 2
q3 0 6.5 2.5t7.5 3.5q6 3 13 10l10 12q1 2 3 5t2 8q1 5 1 15v15l-6 13q-2 4 -5 9zM1282 280q-3 -9 -7 -10q-8 -7 -10 -9q-3 -1 -6.5 -1h-6.5t-6.5 0.5t-4.5 0.5l-11 9q-4 4 -8 11v10v12q4 8 8 12l11 8q3 0 6 0.5t5 0.5q5 0 13 -3q2 -1 4.5 -3t5.5 -5q2 -2 4 -4.5t3 -5.5
q3 -3 3 -12q0 -2 -1.5 -6.5zM1209 220l-7 -4q-2 0 -3.5 -2.5t-1.5 -4.5l-5 -9l-8 -6q-4 -3 -6 -4t-6 -1q-6 -3 -12 0q-3 2 -5.5 2t-5.5 3q-7 4 -7 11q-5 1 -5 11q-5 3 0 14v3.5t2 7.5q2 2 4 3.5t4 3.5q8 3 10 3q3 2 10 2q2 0 10 3q2 4 5 5l2 7v8q-3 5 -12 5h-13l-14 -5
l-11 -5q-2 -2 -5.5 -4.5t-6.5 -6.5q-2 -2 -4 -5.5t-4 -8.5l-7 -15v-15q0 -5 2 -7.5t2 -7.5l6 -15q3 -3 6 -5t4 -5l15 -10l12 -2q5 -3 16 -3q4 0 7 1.5t7 2.5q5 1 8.5 3.5t6.5 5.5l5 2.5t5 4.5q3 0 5 3.5t5 6.5l3 14q5 4 5 13l-12 2h-6zM519 260l-102 -74l15 -10h2.5h2.5
q3 0 3.5 -0.5t1.5 0.5h5h5l10 10l40 -22l-2 -15v-5q0 -3 1 -3q0 -1 1 -1v-4q0 -1 2 -1l3 -4l17 -10l17 125zM507 218v-2v-3l-1 -22l-19 10l17 15h2h1v2v1h2q1 1 2 1zM477 255l18 20l-69 59l-20 -21l26 -22l-57 -66l20 -19l60 70zM257 411l83 -10h6q1 0 2 1t3 1l11 8l-45 77
l-23 -14l26 -44l-83 9q-1 0 -4.5 -0.5t-7.5 -3.5l-10 -5l45 -79l22 15zM357 303l22 18l-27 30l14 12l31 -39l20 17l-48 60l-90 -75l51 -58l19 18l-32 37l17 11zM191 741l50 4q1 -2 3.5 -4t4.5 -5q2 -1 3.5 -4t1.5 -6q1 -6 3 -11q0 -4 1 -6.5t1 -4.5q0 -8 -1 -14t-3 -11
q-1 -8 -4.5 -13t-6.5 -10q-7 -8 -19 -12q-11 -8 -23 -8h-17q-4 3 -7.5 4t-7.5 4q-4 1 -6.5 3t-6.5 4q-2 3 -5 6t-5 7q-2 2 -3.5 5.5t-3.5 6.5q-1 5 -2 9.5t-1 9.5v6.5v4.5q3 9 3 14q2 3 3.5 5.5t3.5 5.5q2 2 3.5 5t3.5 5l3 -5q3 0 4 -1l1 -1q2 -3 2 -8v-3t-2 -3
q-5 -5 -5 -11v-13t3 -17q2 -4 4.5 -7t5.5 -6q5 -5 14 -7q7 -4 17 -3q6 0 11 3q3 1 5 1.5t4 3.5q1 2 3.5 3t5.5 4q1 2 2.5 3.5t3.5 4.5q0 4 0.5 6.5t2.5 5.5q1 4 1 10q-1 4 -2 7t-2 8q0 3 -5 10l-19 -1v-5v-5q0 -2 -2 -5q-1 -1 -2 -2.5t-2 -1.5q-2 -1 -6 -1h-6zM264 831
l-9 -75l-118 12l8 75l19 -2l-7 -55l30 -5l5 47l20 -2l-5 -45l32 -3l5 57zM164 851l-17 5l22 90l18 -5l-10 -37l98 -23l-4 -18l-97 23zM205 988l-18 8l42 83l16 -8l-15 -32l89 -45l-8 -18l-90 45zM392 1106l-11 -16l-40 30l-35 -47l41 -30l-11 -15l-97 70l11 15l40 -29l35 47
l-40 30l11 15zM456 1166l-54 -51l-83 86l53 53l14 -15l-39 -39l20 -21l33 31l12 -14l-31 -30l21 -23l40 38zM514 1290l10 -17l-39 -24l24 -43l-14 -10l-63 100l63 40l9 -15l-47 -30l18 -26zM562 1290q0 -7 5 -10q2 -4 10 -7q2 -2 5 -2h5q5 0 10 2q8 3 10 7q5 5 7 10
q1 1 1 10q0 6 -1 11l-27 67l17 8l28 -68q2 -5 2.5 -9t0.5 -9q0 -10 -3 -19q-2 -5 -4.5 -8t-7.5 -7q-3 -5 -6 -6.5t-8 -3.5t-9.5 -3.5t-9.5 -1.5q-8 0 -18 5q-5 2 -8.5 3.5t-6.5 6.5q-7 7 -10 15l-30 67l18 8zM662 1276l-30 117l20 5l23 -97l49 10l3 -20zM731 1291l-12 120
l20 2l10 -98l51 5v-20zM864 1296l-19 4l12 118l44 -5q6 0 14 -4q9 -5 11 -10q4 -3 6 -13q4 -7 3 -15q-3 -3 -3 -6.5t-2 -8.5q-6 -8 -9 -11q-4 -4 -14 -7q-3 -2 -13 -2l-25 4zM895 1356h7q3 0 7 5q3 0 3 5q2 2 4 8q0 5 -1 7t-2 3.5l-1 1.5q-2 3 -3.5 4t-2.5 1q-2 2 -3.5 2
t-2.5 1l-25 2l-5 -38zM951 1285l-19 5l30 113l44 -12q6 0 11 -5l10 -10q4 -5 4 -13q1 -5 0.5 -8.5t-0.5 -6.5q-2 -5 -5 -10q-4 -5 -6 -7q-8 -5 -10 -5q-3 -2 -5.5 -2.5t-3.5 -2.5l21 -56l-15 1q-1 2 -3 3.5t-3 1.5q-4 2 -5 9l-19 46l-15 4zM977 1379l-10 -31l25 -7h3h2
q3 0 4 1t4 1q2 0 2 1.5v1.5q5 5 5 7v7v3t-1 3q-1 2 -2.5 2.5t-1.5 2.5q-3 3 -6 3zM1037 1321q0 5 2.5 8.5t6.5 6.5q1 3 4.5 5.5t6.5 4.5q3 3 6.5 4t8.5 3q4 3 14 3h15q9 -1 16 -6q8 -4 15 -9q3 -3 5.5 -6.5t4.5 -4.5l3.5 -7l3.5 -7q1 -5 2 -8t1 -7v-8t-2 -8q-1 -4 -2 -7.5
t-3 -7.5q-3 -4 -4 -7t-4 -7q-3 -3 -6.5 -5t-4.5 -6q-4 -2 -7 -4t-7 -5q-6 0 -16 -1q-12 0 -17 1q-5 0 -15 5q-12 5 -18 15q-9 9 -14 20q-1 7 -1 12v12q0 11 6 21zM1054 1315q-2 -4 -2.5 -6.5t-2.5 -5.5v-10q0 -2 1 -5t2 -5q0 -7 4 -10q1 -2 3 -4.5t3 -2.5q4 -5 10 -6
q7 -4 10 -4h12h12q4 5 8 5q3 2 5 3.5t3 3.5q3 3 4 5.5t3 4.5q2 3 2.5 7.5t0.5 9.5v7.5v7.5q-2 4 -4.5 7.5t-5.5 5.5q-6 7 -13 10q-2 2 -5 2.5t-7 0.5h-10q-6 0 -10 -1q-3 -2 -5 -3t-5 -1q-1 -2 -3 -4t-3 -4zM1222 1290l10 -9q0 -1 1.5 -3t3.5 -3q0 -5 -2 -9l-28 -85l83 38
q1 1 7 1q5 0 7 -4l10 -7l-117 -54l-15 11zM1279 1064l-47 56l90 76l49 -56l-14 -14l-37 44l-23 -19l29 -36l-16 -11l-28 35l-23 -21l35 -42zM1294 1039l-9 16l101 61l23 -37q2 -3 2.5 -6t2.5 -8q2 -7 -2 -12q-2 -9 -5 -13l-4.5 -4.5t-6.5 -5.5q-4 -1 -5.5 -1.5t-4.5 -2.5
q-4 0 -5.5 -0.5t-4.5 0.5q-4 0 -10 3q-4 1 -5.5 1.5t-3.5 3.5l-23 -59l-9 13q-4 2 -4 7q0 6 3 9l20 47l-8 13zM1381 1089l-29 -16l13 -19q2 -5 4 -6q1 0 6 -3h6q1 0 5 3q1 0 6 3q0 3 1 4t1 3q1 1 1 6q-1 1 -1 2.5t-2 3.5zM1436 969q1 1 1 7q0 4 -1 5q-2 3 -2 7q-3 0 -5 3
q-2 2 -5 2q-3 1 -5 0l-2.5 -2.5l-1.5 -1.5l-2 -2l-2 -2v-7v-10v-3v-2v-10q0 -2 -0.5 -4.5t-0.5 -4.5q-4 -14 -19 -21q-4 -2 -7.5 -3t-8.5 1q-6 0 -14 2q-4 3 -7 5t-5 6q-3 2 -5 5.5t-4 6.5q-3 10 -3 15q0 4 3 14q0 3 2 5l3 4q0 4 2 4q4 2 3 2l4 -2q3 -5 5 -7q0 -1 0.5 -2
t0.5 -3q0 -3 -3 -6v-1v-8q0 -5 2 -8q0 -2 1 -3t2 -4q2 0 3.5 -1.5l3.5 -3.5h2t4 -2h4.5t4.5 2q2 0 5 3q2 4 2 5q1 2 1 7v8v4v12q0 8 2 13q1 2 2 4.5t4 5.5q2 2 4.5 3.5t6.5 3.5q8 3 14 1q6 0 12 -3q3 -2 6.5 -3.5t5.5 -5.5q3 -3 6 -11q2 -7 2 -10q0 -7 -1 -10q0 -4 -4 -10
v-4.5t-2 -3.5l-6 4q-3 1 -4 2.5t-3 3.5q-1 3 -1 6v3zM1364 881l-5 18l113 34l5 -19zM1427 881h19q6 0 14 -5q4 0 7.5 -2.5t4.5 -4.5q4 -3 7 -5.5t6 -5.5q4 -8 7 -12q3 -8 5 -18v-15q-2 -10 -5 -15q-1 -5 -3 -8.5t-4 -6.5l-10 -10q-4 -4 -7.5 -5.5t-6.5 -2.5q-7 -4 -15 -4
q-10 -1 -19 0q-8 0 -15 4q-2 1 -6 2.5t-7 3.5q-3 3 -5.5 6.5t-4.5 5.5q-7 5 -8 15q-2 3 -3.5 6.5t-1.5 8.5q-1 13 1 23q5 13 10 20q7 10 18 17q5 3 11 5.5t11 2.5zM1430 861q-8 0 -10 -3q-5 -2 -10 -5q-4 -2 -6 -7q-5 -5 -5 -10q-2 -1 -2.5 -4t-1.5 -6v-10q2 -8 4 -11
q0 -6 5 -9q1 -3 3 -5t3 -5q2 0 4.5 -1.5t5.5 -3.5q2 -1 4.5 -1h5.5q5 -4 11 0q11 0 16 5q5 1 13 11q6 8 6 15q3 7 1 15q0 7 -2 10q-3 4 -3.5 6t-1.5 4q-3 2 -4.5 3.5l-3.5 3.5q-5 3 -10 5q-3 3 -11 3q-4 3 -11 0zM1377 645l2 16l96 60l-91 5l1 20l117 -10v-11q0 -5 -1 -9
q-4 -2 -4 -5l-81 -50l81 -6l-1 -19z" />
    <glyph glyph-name="eight" unicode="8" horiz-adv-x="1672" 
d="M822 308q82 0 155 30t130 78h-570q58 -48 130 -78t155 -30zM586 463h564q45 55 70 124t25 147q0 80 -26.5 150t-81.5 139zM822 1251q-105 0 -198 -40t-163.5 -109t-112.5 -163.5t-42 -204.5q0 -103 39.5 -196t108 -163.5t163.5 -112.5t205 -42q35 0 70 5.5t68 15.5
q77 23 146 68t120 108.5t80.5 143.5t29.5 173q0 101 -38.5 194t-107 165t-163.5 115t-205 43zM822 260q-100 0 -186 38t-150 103t-99.5 151.5t-35.5 181.5q0 94 35 179.5t98 151t149.5 103.5t188.5 38q67 0 124 -16q71 -19 134.5 -60t111 -100t75 -134t27.5 -162
q0 -98 -37 -184.5t-101.5 -151t-150.5 -101.5t-183 -37zM492 1004q-45 -55 -70.5 -122.5t-25.5 -147.5q0 -83 28 -155.5t78 -130.5l555 556h-565zM822 1161q-83 0 -155.5 -29t-130.5 -81h566q-55 50 -126.5 80t-153.5 30zM972 191l-90 -16l4 -26l34 6l16 -89l26 5l-16 89
l31 6zM1072 156q-1 7 -8 9l-12 5h-15h-6h-9h-2v1q-3 3 -3 4l-2 1q2 0 2 4v1h3h5v4h1h5h3q3 0 3 1h9q0 3 0.5 4l0.5 1l5 10l-6 4q-9 4 -12 4q-2 0 -4.5 1t-4.5 1q-4 0 -6 -1t-4 -1l-13 -8q-2 -1 -4 -3.5t-3 -6.5q-8 -6 -8 -15v-4t3 -7q2 -9 10 -14q1 0 3.5 -1.5t3.5 -3.5
q4 0 7 -1t6 -1h12h10h2q2 0 3 -3q4 0 4 -1h3v-5q0 -2 -1 -3t-1 -2v-1q-1 0 -2 -2.5t-3 -2.5q-1 -3 -5 -3h-2.5h-2.5h-3.5h-2.5h-6h-8l-5 -1v-2t-1 -2l-5 -7q1 -4 3 -6t3 -4q4 -1 7 -2t7 -1q8 -3 11 -2q4 0 8 1t7 1l7 3.5t8 4.5l5.5 5.5t4.5 6.5q0 5 2.5 7.5t2.5 7.5
t-0.5 8.5t-4.5 6.5q0 8 -5 10zM1122 151q-1 4 -3 4t-3.5 0.5t-3.5 0.5q-1 -1 -6 -1l-7 -4q-2 -1 -2 -3v-2q-1 -2 -1 -5v-1q0 -4 1 -4v-1q0 -6 4 -6q1 -5 6 -5h7q5 0 7 2q1 2 3 2.5t2 2.5v2q0 2 1 2l4 3v2q0 6 -5 6zM846 99q-1 0 -1 4q0 1 -1.5 1t-1.5 1q0 4 -1 4l-41 60
q0 1 -3 2q-1 3 -8 3h-9h-14l3 -119l27 1v79l51 -79h25v118h-30zM599 189l48 -18l8 25l-73 25l-41 -105l26 -11l15 41l38 -15l10 25l-38 15zM747 160l-8 11q-3 3 -6.5 5t-7.5 4q-4 1 -7 2t-8 3q-5 1 -9 1h-7q-10 0 -14 -5q-4 0 -7.5 -1t-7.5 -4l-11 -10q-4 -8 -10 -11
q-2 -5 -3.5 -8.5t-1.5 -6.5v-19l3 -15l5 -12l12 -11q3 -4 7 -5.5t6 -3.5q7 -4 15 -4q5 -1 8.5 -1h6.5q5 0 14 2q4 2 8.5 3t6.5 4q6 2 11 10l9 11q4 7 6 17v15q0 3 -0.5 6.5t-2.5 8.5l-3 7.5t-4 6.5zM730 121q0 -3 -1.5 -6.5t-3.5 -5.5l-4.5 -6t-4.5 -4q-4 -1 -6.5 -2
t-5.5 -1q-7 -3 -12 0q-3 0 -6.5 1t-5.5 2l-8 10q-2 2 -2.5 5.5t-0.5 6.5q-3 5 0 14q0 6 5 11l6 9l12 5h12l12 -5l9 -9q2 -3 3.5 -5t1.5 -6q2 -9 0 -14zM1309 460q-2 -2 -3 -4t-1 -6q0 -2 1 -4t3 -5l40 -57l-69 10h-10l-9 -6l-9 -17l97 -65l16 23l-46 32l60 -12l11 20l-33 50
l47 -30l15 24l-98 63zM1296 333l-14 13l-15 3q-3 2 -15 2h-6.5t-8.5 -2l-12 -3q-4 -3 -8.5 -6.5t-6.5 -6.5q-3 -3 -4.5 -6t-3.5 -6q-3 -3 -4 -6.5t-3 -8.5q0 -3 -1.5 -6.5t-1.5 -8.5v-6t3 -9l4 -13l10 -12l13 -10q5 -1 7.5 -3.5t7.5 -2.5t8.5 -2t6.5 -2t6.5 2t8.5 2
q3 0 6.5 2.5t7.5 3.5q6 3 13 10l10 12q1 2 3 5t2 8q1 5 1 15v15l-6 13q-2 4 -5 9zM1282 280q-3 -9 -7 -10q-8 -7 -10 -9q-3 -1 -6.5 -1h-6.5t-6.5 0.5t-4.5 0.5l-11 9q-4 4 -8 11v10v12q4 8 8 12l11 8q3 0 6 0.5t5 0.5q5 0 13 -3q2 -1 4.5 -3t5.5 -5q2 -2 4 -4.5t3 -5.5
q3 -3 3 -12q0 -2 -1.5 -6.5zM1209 220l-7 -4q-2 0 -3.5 -2.5t-1.5 -4.5l-5 -9l-8 -6q-4 -3 -6 -4t-6 -1q-6 -3 -12 0q-3 2 -5.5 2t-5.5 3q-7 4 -7 11q-5 1 -5 11q-5 3 0 14v3.5t2 7.5q2 2 4 3.5t4 3.5q8 3 10 3q3 2 10 2q2 0 10 3q2 4 5 5l2 7v8q-3 5 -12 5h-13l-14 -5
l-11 -5q-2 -2 -5.5 -4.5t-6.5 -6.5q-2 -2 -4 -5.5t-4 -8.5l-7 -15v-15q0 -5 2 -7.5t2 -7.5l6 -15q3 -3 6 -5t4 -5l15 -10l12 -2q5 -3 16 -3q4 0 7 1.5t7 2.5q5 1 8.5 3.5t6.5 5.5l5 2.5t5 4.5q3 0 5 3.5t5 6.5l3 14q5 4 5 13l-12 2h-6zM519 260l-102 -74l15 -10h2.5h2.5
q3 0 3.5 -0.5t1.5 0.5h5h5l10 10l40 -22l-2 -15v-5q0 -3 1 -3q0 -1 1 -1v-4q0 -1 2 -1l3 -4l17 -10l17 125zM507 218v-2v-3l-1 -22l-19 10l17 15h2h1v2v1h2q1 1 2 1zM477 255l18 20l-69 59l-20 -21l26 -22l-57 -66l20 -19l60 70zM257 411l83 -10h6q1 0 2 1t3 1l11 8l-45 77
l-23 -14l26 -44l-83 9q-1 0 -4.5 -0.5t-7.5 -3.5l-10 -5l45 -79l22 15zM357 303l22 18l-27 30l14 12l31 -39l20 17l-48 60l-90 -75l51 -58l19 18l-32 37l17 11zM191 741l50 4q1 -2 3.5 -4t4.5 -5q2 -1 3.5 -4t1.5 -6q1 -6 3 -11q0 -4 1 -6.5t1 -4.5q0 -8 -1 -14t-3 -11
q-1 -8 -4.5 -13t-6.5 -10q-7 -8 -19 -12q-11 -8 -23 -8h-17q-4 3 -7.5 4t-7.5 4q-4 1 -6.5 3t-6.5 4q-2 3 -5 6t-5 7q-2 2 -3.5 5.5t-3.5 6.5q-1 5 -2 9.5t-1 9.5v6.5v4.5q3 9 3 14q2 3 3.5 5.5t3.5 5.5q2 2 3.5 5t3.5 5l3 -5q3 0 4 -1l1 -1q2 -3 2 -8v-3t-2 -3
q-5 -5 -5 -11v-13t3 -17q2 -4 4.5 -7t5.5 -6q5 -5 14 -7q7 -4 17 -3q6 0 11 3q3 1 5 1.5t4 3.5q1 2 3.5 3t5.5 4q1 2 2.5 3.5t3.5 4.5q0 4 0.5 6.5t2.5 5.5q1 4 1 10q-1 4 -2 7t-2 8q0 3 -5 10l-19 -1v-5v-5q0 -2 -2 -5q-1 -1 -2 -2.5t-2 -1.5q-2 -1 -6 -1h-6zM264 831
l-9 -75l-118 12l8 75l19 -2l-7 -55l30 -5l5 47l20 -2l-5 -45l32 -3l5 57zM164 851l-17 5l22 90l18 -5l-10 -37l98 -23l-4 -18l-97 23zM205 988l-18 8l42 83l16 -8l-15 -32l89 -45l-8 -18l-90 45zM392 1106l-11 -16l-40 30l-35 -47l41 -30l-11 -15l-97 70l11 15l40 -29l35 47
l-40 30l11 15zM456 1166l-54 -51l-83 86l53 53l14 -15l-39 -39l20 -21l33 31l12 -14l-31 -30l21 -23l40 38zM514 1290l10 -17l-39 -24l24 -43l-14 -10l-63 100l63 40l9 -15l-47 -30l18 -26zM562 1290q0 -7 5 -10q2 -4 10 -7q2 -2 5 -2h5q5 0 10 2q8 3 10 7q5 5 7 10
q1 1 1 10q0 6 -1 11l-27 67l17 8l28 -68q2 -5 2.5 -9t0.5 -9q0 -10 -3 -19q-2 -5 -4.5 -8t-7.5 -7q-3 -5 -6 -6.5t-8 -3.5t-9.5 -3.5t-9.5 -1.5q-8 0 -18 5q-5 2 -8.5 3.5t-6.5 6.5q-7 7 -10 15l-30 67l18 8zM662 1276l-30 117l20 5l23 -97l49 10l3 -20zM731 1291l-12 120
l20 2l10 -98l51 5v-20zM864 1296l-19 4l12 118l44 -5q6 0 14 -4q9 -5 11 -10q4 -3 6 -13q4 -7 3 -15q-3 -3 -3 -6.5t-2 -8.5q-6 -8 -9 -11q-4 -4 -14 -7q-3 -2 -13 -2l-25 4zM895 1356h7q3 0 7 5q3 0 3 5q2 2 4 8q0 5 -1 7t-2 3.5l-1 1.5q-2 3 -3.5 4t-2.5 1q-2 2 -3.5 2
t-2.5 1l-25 2l-5 -38zM951 1285l-19 5l30 113l44 -12q6 0 11 -5l10 -10q4 -5 4 -13q1 -5 0.5 -8.5t-0.5 -6.5q-2 -5 -5 -10q-4 -5 -6 -7q-8 -5 -10 -5q-3 -2 -5.5 -2.5t-3.5 -2.5l21 -56l-15 1q-1 2 -3 3.5t-3 1.5q-4 2 -5 9l-19 46l-15 4zM977 1379l-10 -31l25 -7h3h2
q3 0 4 1t4 1q2 0 2 1.5v1.5q5 5 5 7v7v3t-1 3q-1 2 -2.5 2.5t-1.5 2.5q-3 3 -6 3zM1037 1321q0 5 2.5 8.5t6.5 6.5q1 3 4.5 5.5t6.5 4.5q3 3 6.5 4t8.5 3q4 3 14 3h15q9 -1 16 -6q8 -4 15 -9q3 -3 5.5 -6.5t4.5 -4.5l3.5 -7l3.5 -7q1 -5 2 -8t1 -7v-8t-2 -8q-1 -4 -2 -7.5
t-3 -7.5q-3 -4 -4 -7t-4 -7q-3 -3 -6.5 -5t-4.5 -6q-4 -2 -7 -4t-7 -5q-6 0 -16 -1q-12 0 -17 1q-5 0 -15 5q-12 5 -18 15q-9 9 -14 20q-1 7 -1 12v12q0 11 6 21zM1054 1315q-2 -4 -2.5 -6.5t-2.5 -5.5v-10q0 -2 1 -5t2 -5q0 -7 4 -10q1 -2 3 -4.5t3 -2.5q4 -5 10 -6
q7 -4 10 -4h12h12q4 5 8 5q3 2 5 3.5t3 3.5q3 3 4 5.5t3 4.5q2 3 2.5 7.5t0.5 9.5v7.5v7.5q-2 4 -4.5 7.5t-5.5 5.5q-6 7 -13 10q-2 2 -5 2.5t-7 0.5h-10q-6 0 -10 -1q-3 -2 -5 -3t-5 -1q-1 -2 -3 -4t-3 -4zM1222 1290l10 -9q0 -1 1.5 -3t3.5 -3q0 -5 -2 -9l-28 -85l83 38
q1 1 7 1q5 0 7 -4l10 -7l-117 -54l-15 11zM1279 1064l-47 56l90 76l49 -56l-14 -14l-37 44l-23 -19l29 -36l-16 -11l-28 35l-23 -21l35 -42zM1294 1039l-9 16l101 61l23 -37q2 -3 2.5 -6t2.5 -8q2 -7 -2 -12q-2 -9 -5 -13l-4.5 -4.5t-6.5 -5.5q-4 -1 -5.5 -1.5t-4.5 -2.5
q-4 0 -5.5 -0.5t-4.5 0.5q-4 0 -10 3q-4 1 -5.5 1.5t-3.5 3.5l-23 -59l-9 13q-4 2 -4 7q0 6 3 9l20 47l-8 13zM1381 1089l-29 -16l13 -19q2 -5 4 -6q1 0 6 -3h6q1 0 5 3q1 0 6 3q0 3 1 4t1 3q1 1 1 6q-1 1 -1 2.5t-2 3.5zM1436 969q1 1 1 7q0 4 -1 5q-2 3 -2 7q-3 0 -5 3
q-2 2 -5 2q-3 1 -5 0l-2.5 -2.5l-1.5 -1.5l-2 -2l-2 -2v-7v-10v-3v-2v-10q0 -2 -0.5 -4.5t-0.5 -4.5q-4 -14 -19 -21q-4 -2 -7.5 -3t-8.5 1q-6 0 -14 2q-4 3 -7 5t-5 6q-3 2 -5 5.5t-4 6.5q-3 10 -3 15q0 4 3 14q0 3 2 5l3 4q0 4 2 4q4 2 3 2l4 -2q3 -5 5 -7q0 -1 0.5 -2
t0.5 -3q0 -3 -3 -6v-1v-8q0 -5 2 -8q0 -2 1 -3t2 -4q2 0 3.5 -1.5l3.5 -3.5h2t4 -2h4.5t4.5 2q2 0 5 3q2 4 2 5q1 2 1 7v8v4v12q0 8 2 13q1 2 2 4.5t4 5.5q2 2 4.5 3.5t6.5 3.5q8 3 14 1q6 0 12 -3q3 -2 6.5 -3.5t5.5 -5.5q3 -3 6 -11q2 -7 2 -10q0 -7 -1 -10q0 -4 -4 -10
v-4.5t-2 -3.5l-6 4q-3 1 -4 2.5t-3 3.5q-1 3 -1 6v3zM1364 881l-5 18l113 34l5 -19zM1427 881h19q6 0 14 -5q4 0 7.5 -2.5t4.5 -4.5q4 -3 7 -5.5t6 -5.5q4 -8 7 -12q3 -8 5 -18v-15q-2 -10 -5 -15q-1 -5 -3 -8.5t-4 -6.5l-10 -10q-4 -4 -7.5 -5.5t-6.5 -2.5q-7 -4 -15 -4
q-10 -1 -19 0q-8 0 -15 4q-2 1 -6 2.5t-7 3.5q-3 3 -5.5 6.5t-4.5 5.5q-7 5 -8 15q-2 3 -3.5 6.5t-1.5 8.5q-1 13 1 23q5 13 10 20q7 10 18 17q5 3 11 5.5t11 2.5zM1430 861q-8 0 -10 -3q-5 -2 -10 -5q-4 -2 -6 -7q-5 -5 -5 -10q-2 -1 -2.5 -4t-1.5 -6v-10q2 -8 4 -11
q0 -6 5 -9q1 -3 3 -5t3 -5q2 0 4.5 -1.5t5.5 -3.5q2 -1 4.5 -1h5.5q5 -4 11 0q11 0 16 5q5 1 13 11q6 8 6 15q3 7 1 15q0 7 -2 10q-3 4 -3.5 6t-1.5 4q-3 2 -4.5 3.5l-3.5 3.5q-5 3 -10 5q-3 3 -11 3q-4 3 -11 0zM1377 645l2 16l96 60l-91 5l1 20l117 -10v-11q0 -5 -1 -9
q-4 -2 -4 -5l-81 -50l81 -6l-1 -19z" />
    <glyph glyph-name="nine" unicode="9" horiz-adv-x="1672" 
d="M822 308q82 0 155 30t130 78h-570q58 -48 130 -78t155 -30zM586 463h564q45 55 70 124t25 147q0 80 -26.5 150t-81.5 139zM822 1251q-105 0 -198 -40t-163.5 -109t-112.5 -163.5t-42 -204.5q0 -103 39.5 -196t108 -163.5t163.5 -112.5t205 -42q35 0 70 5.5t68 15.5
q77 23 146 68t120 108.5t80.5 143.5t29.5 173q0 101 -38.5 194t-107 165t-163.5 115t-205 43zM822 260q-100 0 -186 38t-150 103t-99.5 151.5t-35.5 181.5q0 94 35 179.5t98 151t149.5 103.5t188.5 38q67 0 124 -16q71 -19 134.5 -60t111 -100t75 -134t27.5 -162
q0 -98 -37 -184.5t-101.5 -151t-150.5 -101.5t-183 -37zM492 1004q-45 -55 -70.5 -122.5t-25.5 -147.5q0 -83 28 -155.5t78 -130.5l555 556h-565zM822 1161q-83 0 -155.5 -29t-130.5 -81h566q-55 50 -126.5 80t-153.5 30zM972 191l-90 -16l4 -26l34 6l16 -89l26 5l-16 89
l31 6zM1072 156q-1 7 -8 9l-12 5h-15h-6h-9h-2v1q-3 3 -3 4l-2 1q2 0 2 4v1h3h5v4h1h5h3q3 0 3 1h9q0 3 0.5 4l0.5 1l5 10l-6 4q-9 4 -12 4q-2 0 -4.5 1t-4.5 1q-4 0 -6 -1t-4 -1l-13 -8q-2 -1 -4 -3.5t-3 -6.5q-8 -6 -8 -15v-4t3 -7q2 -9 10 -14q1 0 3.5 -1.5t3.5 -3.5
q4 0 7 -1t6 -1h12h10h2q2 0 3 -3q4 0 4 -1h3v-5q0 -2 -1 -3t-1 -2v-1q-1 0 -2 -2.5t-3 -2.5q-1 -3 -5 -3h-2.5h-2.5h-3.5h-2.5h-6h-8l-5 -1v-2t-1 -2l-5 -7q1 -4 3 -6t3 -4q4 -1 7 -2t7 -1q8 -3 11 -2q4 0 8 1t7 1l7 3.5t8 4.5l5.5 5.5t4.5 6.5q0 5 2.5 7.5t2.5 7.5
t-0.5 8.5t-4.5 6.5q0 8 -5 10zM1122 151q-1 4 -3 4t-3.5 0.5t-3.5 0.5q-1 -1 -6 -1l-7 -4q-2 -1 -2 -3v-2q-1 -2 -1 -5v-1q0 -4 1 -4v-1q0 -6 4 -6q1 -5 6 -5h7q5 0 7 2q1 2 3 2.5t2 2.5v2q0 2 1 2l4 3v2q0 6 -5 6zM846 99q-1 0 -1 4q0 1 -1.5 1t-1.5 1q0 4 -1 4l-41 60
q0 1 -3 2q-1 3 -8 3h-9h-14l3 -119l27 1v79l51 -79h25v118h-30zM599 189l48 -18l8 25l-73 25l-41 -105l26 -11l15 41l38 -15l10 25l-38 15zM747 160l-8 11q-3 3 -6.5 5t-7.5 4q-4 1 -7 2t-8 3q-5 1 -9 1h-7q-10 0 -14 -5q-4 0 -7.5 -1t-7.5 -4l-11 -10q-4 -8 -10 -11
q-2 -5 -3.5 -8.5t-1.5 -6.5v-19l3 -15l5 -12l12 -11q3 -4 7 -5.5t6 -3.5q7 -4 15 -4q5 -1 8.5 -1h6.5q5 0 14 2q4 2 8.5 3t6.5 4q6 2 11 10l9 11q4 7 6 17v15q0 3 -0.5 6.5t-2.5 8.5l-3 7.5t-4 6.5zM730 121q0 -3 -1.5 -6.5t-3.5 -5.5l-4.5 -6t-4.5 -4q-4 -1 -6.5 -2
t-5.5 -1q-7 -3 -12 0q-3 0 -6.5 1t-5.5 2l-8 10q-2 2 -2.5 5.5t-0.5 6.5q-3 5 0 14q0 6 5 11l6 9l12 5h12l12 -5l9 -9q2 -3 3.5 -5t1.5 -6q2 -9 0 -14zM1309 460q-2 -2 -3 -4t-1 -6q0 -2 1 -4t3 -5l40 -57l-69 10h-10l-9 -6l-9 -17l97 -65l16 23l-46 32l60 -12l11 20l-33 50
l47 -30l15 24l-98 63zM1296 333l-14 13l-15 3q-3 2 -15 2h-6.5t-8.5 -2l-12 -3q-4 -3 -8.5 -6.5t-6.5 -6.5q-3 -3 -4.5 -6t-3.5 -6q-3 -3 -4 -6.5t-3 -8.5q0 -3 -1.5 -6.5t-1.5 -8.5v-6t3 -9l4 -13l10 -12l13 -10q5 -1 7.5 -3.5t7.5 -2.5t8.5 -2t6.5 -2t6.5 2t8.5 2
q3 0 6.5 2.5t7.5 3.5q6 3 13 10l10 12q1 2 3 5t2 8q1 5 1 15v15l-6 13q-2 4 -5 9zM1282 280q-3 -9 -7 -10q-8 -7 -10 -9q-3 -1 -6.5 -1h-6.5t-6.5 0.5t-4.5 0.5l-11 9q-4 4 -8 11v10v12q4 8 8 12l11 8q3 0 6 0.5t5 0.5q5 0 13 -3q2 -1 4.5 -3t5.5 -5q2 -2 4 -4.5t3 -5.5
q3 -3 3 -12q0 -2 -1.5 -6.5zM1209 220l-7 -4q-2 0 -3.5 -2.5t-1.5 -4.5l-5 -9l-8 -6q-4 -3 -6 -4t-6 -1q-6 -3 -12 0q-3 2 -5.5 2t-5.5 3q-7 4 -7 11q-5 1 -5 11q-5 3 0 14v3.5t2 7.5q2 2 4 3.5t4 3.5q8 3 10 3q3 2 10 2q2 0 10 3q2 4 5 5l2 7v8q-3 5 -12 5h-13l-14 -5
l-11 -5q-2 -2 -5.5 -4.5t-6.5 -6.5q-2 -2 -4 -5.5t-4 -8.5l-7 -15v-15q0 -5 2 -7.5t2 -7.5l6 -15q3 -3 6 -5t4 -5l15 -10l12 -2q5 -3 16 -3q4 0 7 1.5t7 2.5q5 1 8.5 3.5t6.5 5.5l5 2.5t5 4.5q3 0 5 3.5t5 6.5l3 14q5 4 5 13l-12 2h-6zM519 260l-102 -74l15 -10h2.5h2.5
q3 0 3.5 -0.5t1.5 0.5h5h5l10 10l40 -22l-2 -15v-5q0 -3 1 -3q0 -1 1 -1v-4q0 -1 2 -1l3 -4l17 -10l17 125zM507 218v-2v-3l-1 -22l-19 10l17 15h2h1v2v1h2q1 1 2 1zM477 255l18 20l-69 59l-20 -21l26 -22l-57 -66l20 -19l60 70zM257 411l83 -10h6q1 0 2 1t3 1l11 8l-45 77
l-23 -14l26 -44l-83 9q-1 0 -4.5 -0.5t-7.5 -3.5l-10 -5l45 -79l22 15zM357 303l22 18l-27 30l14 12l31 -39l20 17l-48 60l-90 -75l51 -58l19 18l-32 37l17 11zM191 741l50 4q1 -2 3.5 -4t4.5 -5q2 -1 3.5 -4t1.5 -6q1 -6 3 -11q0 -4 1 -6.5t1 -4.5q0 -8 -1 -14t-3 -11
q-1 -8 -4.5 -13t-6.5 -10q-7 -8 -19 -12q-11 -8 -23 -8h-17q-4 3 -7.5 4t-7.5 4q-4 1 -6.5 3t-6.5 4q-2 3 -5 6t-5 7q-2 2 -3.5 5.5t-3.5 6.5q-1 5 -2 9.5t-1 9.5v6.5v4.5q3 9 3 14q2 3 3.5 5.5t3.5 5.5q2 2 3.5 5t3.5 5l3 -5q3 0 4 -1l1 -1q2 -3 2 -8v-3t-2 -3
q-5 -5 -5 -11v-13t3 -17q2 -4 4.5 -7t5.5 -6q5 -5 14 -7q7 -4 17 -3q6 0 11 3q3 1 5 1.5t4 3.5q1 2 3.5 3t5.5 4q1 2 2.5 3.5t3.5 4.5q0 4 0.5 6.5t2.5 5.5q1 4 1 10q-1 4 -2 7t-2 8q0 3 -5 10l-19 -1v-5v-5q0 -2 -2 -5q-1 -1 -2 -2.5t-2 -1.5q-2 -1 -6 -1h-6zM264 831
l-9 -75l-118 12l8 75l19 -2l-7 -55l30 -5l5 47l20 -2l-5 -45l32 -3l5 57zM164 851l-17 5l22 90l18 -5l-10 -37l98 -23l-4 -18l-97 23zM205 988l-18 8l42 83l16 -8l-15 -32l89 -45l-8 -18l-90 45zM392 1106l-11 -16l-40 30l-35 -47l41 -30l-11 -15l-97 70l11 15l40 -29l35 47
l-40 30l11 15zM456 1166l-54 -51l-83 86l53 53l14 -15l-39 -39l20 -21l33 31l12 -14l-31 -30l21 -23l40 38zM514 1290l10 -17l-39 -24l24 -43l-14 -10l-63 100l63 40l9 -15l-47 -30l18 -26zM562 1290q0 -7 5 -10q2 -4 10 -7q2 -2 5 -2h5q5 0 10 2q8 3 10 7q5 5 7 10
q1 1 1 10q0 6 -1 11l-27 67l17 8l28 -68q2 -5 2.5 -9t0.5 -9q0 -10 -3 -19q-2 -5 -4.5 -8t-7.5 -7q-3 -5 -6 -6.5t-8 -3.5t-9.5 -3.5t-9.5 -1.5q-8 0 -18 5q-5 2 -8.5 3.5t-6.5 6.5q-7 7 -10 15l-30 67l18 8zM662 1276l-30 117l20 5l23 -97l49 10l3 -20zM731 1291l-12 120
l20 2l10 -98l51 5v-20zM864 1296l-19 4l12 118l44 -5q6 0 14 -4q9 -5 11 -10q4 -3 6 -13q4 -7 3 -15q-3 -3 -3 -6.5t-2 -8.5q-6 -8 -9 -11q-4 -4 -14 -7q-3 -2 -13 -2l-25 4zM895 1356h7q3 0 7 5q3 0 3 5q2 2 4 8q0 5 -1 7t-2 3.5l-1 1.5q-2 3 -3.5 4t-2.5 1q-2 2 -3.5 2
t-2.5 1l-25 2l-5 -38zM951 1285l-19 5l30 113l44 -12q6 0 11 -5l10 -10q4 -5 4 -13q1 -5 0.5 -8.5t-0.5 -6.5q-2 -5 -5 -10q-4 -5 -6 -7q-8 -5 -10 -5q-3 -2 -5.5 -2.5t-3.5 -2.5l21 -56l-15 1q-1 2 -3 3.5t-3 1.5q-4 2 -5 9l-19 46l-15 4zM977 1379l-10 -31l25 -7h3h2
q3 0 4 1t4 1q2 0 2 1.5v1.5q5 5 5 7v7v3t-1 3q-1 2 -2.5 2.5t-1.5 2.5q-3 3 -6 3zM1037 1321q0 5 2.5 8.5t6.5 6.5q1 3 4.5 5.5t6.5 4.5q3 3 6.5 4t8.5 3q4 3 14 3h15q9 -1 16 -6q8 -4 15 -9q3 -3 5.5 -6.5t4.5 -4.5l3.5 -7l3.5 -7q1 -5 2 -8t1 -7v-8t-2 -8q-1 -4 -2 -7.5
t-3 -7.5q-3 -4 -4 -7t-4 -7q-3 -3 -6.5 -5t-4.5 -6q-4 -2 -7 -4t-7 -5q-6 0 -16 -1q-12 0 -17 1q-5 0 -15 5q-12 5 -18 15q-9 9 -14 20q-1 7 -1 12v12q0 11 6 21zM1054 1315q-2 -4 -2.5 -6.5t-2.5 -5.5v-10q0 -2 1 -5t2 -5q0 -7 4 -10q1 -2 3 -4.5t3 -2.5q4 -5 10 -6
q7 -4 10 -4h12h12q4 5 8 5q3 2 5 3.5t3 3.5q3 3 4 5.5t3 4.5q2 3 2.5 7.5t0.5 9.5v7.5v7.5q-2 4 -4.5 7.5t-5.5 5.5q-6 7 -13 10q-2 2 -5 2.5t-7 0.5h-10q-6 0 -10 -1q-3 -2 -5 -3t-5 -1q-1 -2 -3 -4t-3 -4zM1222 1290l10 -9q0 -1 1.5 -3t3.5 -3q0 -5 -2 -9l-28 -85l83 38
q1 1 7 1q5 0 7 -4l10 -7l-117 -54l-15 11zM1279 1064l-47 56l90 76l49 -56l-14 -14l-37 44l-23 -19l29 -36l-16 -11l-28 35l-23 -21l35 -42zM1294 1039l-9 16l101 61l23 -37q2 -3 2.5 -6t2.5 -8q2 -7 -2 -12q-2 -9 -5 -13l-4.5 -4.5t-6.5 -5.5q-4 -1 -5.5 -1.5t-4.5 -2.5
q-4 0 -5.5 -0.5t-4.5 0.5q-4 0 -10 3q-4 1 -5.5 1.5t-3.5 3.5l-23 -59l-9 13q-4 2 -4 7q0 6 3 9l20 47l-8 13zM1381 1089l-29 -16l13 -19q2 -5 4 -6q1 0 6 -3h6q1 0 5 3q1 0 6 3q0 3 1 4t1 3q1 1 1 6q-1 1 -1 2.5t-2 3.5zM1436 969q1 1 1 7q0 4 -1 5q-2 3 -2 7q-3 0 -5 3
q-2 2 -5 2q-3 1 -5 0l-2.5 -2.5l-1.5 -1.5l-2 -2l-2 -2v-7v-10v-3v-2v-10q0 -2 -0.5 -4.5t-0.5 -4.5q-4 -14 -19 -21q-4 -2 -7.5 -3t-8.5 1q-6 0 -14 2q-4 3 -7 5t-5 6q-3 2 -5 5.5t-4 6.5q-3 10 -3 15q0 4 3 14q0 3 2 5l3 4q0 4 2 4q4 2 3 2l4 -2q3 -5 5 -7q0 -1 0.5 -2
t0.5 -3q0 -3 -3 -6v-1v-8q0 -5 2 -8q0 -2 1 -3t2 -4q2 0 3.5 -1.5l3.5 -3.5h2t4 -2h4.5t4.5 2q2 0 5 3q2 4 2 5q1 2 1 7v8v4v12q0 8 2 13q1 2 2 4.5t4 5.5q2 2 4.5 3.5t6.5 3.5q8 3 14 1q6 0 12 -3q3 -2 6.5 -3.5t5.5 -5.5q3 -3 6 -11q2 -7 2 -10q0 -7 -1 -10q0 -4 -4 -10
v-4.5t-2 -3.5l-6 4q-3 1 -4 2.5t-3 3.5q-1 3 -1 6v3zM1364 881l-5 18l113 34l5 -19zM1427 881h19q6 0 14 -5q4 0 7.5 -2.5t4.5 -4.5q4 -3 7 -5.5t6 -5.5q4 -8 7 -12q3 -8 5 -18v-15q-2 -10 -5 -15q-1 -5 -3 -8.5t-4 -6.5l-10 -10q-4 -4 -7.5 -5.5t-6.5 -2.5q-7 -4 -15 -4
q-10 -1 -19 0q-8 0 -15 4q-2 1 -6 2.5t-7 3.5q-3 3 -5.5 6.5t-4.5 5.5q-7 5 -8 15q-2 3 -3.5 6.5t-1.5 8.5q-1 13 1 23q5 13 10 20q7 10 18 17q5 3 11 5.5t11 2.5zM1430 861q-8 0 -10 -3q-5 -2 -10 -5q-4 -2 -6 -7q-5 -5 -5 -10q-2 -1 -2.5 -4t-1.5 -6v-10q2 -8 4 -11
q0 -6 5 -9q1 -3 3 -5t3 -5q2 0 4.5 -1.5t5.5 -3.5q2 -1 4.5 -1h5.5q5 -4 11 0q11 0 16 5q5 1 13 11q6 8 6 15q3 7 1 15q0 7 -2 10q-3 4 -3.5 6t-1.5 4q-3 2 -4.5 3.5l-3.5 3.5q-5 3 -10 5q-3 3 -11 3q-4 3 -11 0zM1377 645l2 16l96 60l-91 5l1 20l117 -10v-11q0 -5 -1 -9
q-4 -2 -4 -5l-81 -50l81 -6l-1 -19z" />
    <glyph glyph-name="colon" unicode=":" horiz-adv-x="496" 
d="M120 841q0 34 13 63.5t34.5 51.5t51 34.5t62.5 12.5q34 0 64 -12.5t51.5 -34.5t34 -51.5t12.5 -63.5q0 -33 -12.5 -62.5t-34 -51t-51.5 -34.5t-64 -13q-33 0 -62.5 13t-51 34.5t-34.5 51t-13 62.5zM120 136q0 34 13 63.5t34.5 51.5t51 34.5t62.5 12.5q34 0 64 -12.5
t51.5 -34.5t34 -51.5t12.5 -63.5q0 -33 -12.5 -62.5t-34 -51t-51.5 -34.5t-64 -13q-33 0 -62.5 13t-51 34.5t-34.5 51t-13 62.5z" />
    <glyph glyph-name="semicolon" unicode=";" horiz-adv-x="496" 
d="M116 132q0 36 13 66t35.5 52t52.5 34.5t64 12.5q36 0 66 -12.5t52.5 -36t35 -56.5t12.5 -73q0 -83 -17.5 -145.5t-42 -104t-50 -62t-41.5 -20.5q-12 0 -27.5 8.5t-30 21t-24 26.5t-9.5 25q0 13 6 23.5t14 23.5q8 8 15.5 21t7.5 33v1q-27 5 -51 20.5t-42 37.5t-28.5 49
t-10.5 55zM121 841q0 34 13 63.5t34.5 51.5t51 34.5t62.5 12.5q34 0 64 -12.5t51.5 -34.5t34 -51.5t12.5 -63.5q0 -33 -12.5 -62.5t-34 -51t-51.5 -34.5t-64 -13q-33 0 -62.5 13t-51 34.5t-34.5 51t-13 62.5z" />
    <glyph glyph-name="less" unicode="&#x3c;" horiz-adv-x="876" 
d="M647 1114q11 11 31 11q17 0 33 -13l127 -127q14 -14 14 -31q0 -7 -3 -15t-8 -16l-363 -363l363 -361q5 -8 8 -16t3 -15q0 -19 -16 -35l-130 -127q-12 -14 -28 -14q-17 0 -31 14l-524 525q-15 15 -15 29q0 16 15 31z" />
    <glyph glyph-name="equal" unicode="=" horiz-adv-x="1034" 
d="M146 504q0 44 44 44h682q18 0 31 -11.5t13 -32.5v-181q0 -15 -12 -31.5t-32 -16.5h-682q-44 0 -44 48v181zM146 900q0 44 44 44h682q18 0 31 -11.5t13 -32.5v-181q0 -15 -12 -31.5t-32 -16.5h-682q-44 0 -44 48v181z" />
    <glyph glyph-name="greater" unicode="&#x3e;" horiz-adv-x="838" 
d="M293 1072q13 13 33 13q14 0 31 -11l524 -523q15 -15 15 -31q0 -14 -15 -29l-524 -525q-14 -14 -31 -14q-19 0 -28 14l-130 127q-18 18 -18 35q0 16 13 31l363 361l-363 363q-5 8 -8 16t-3 15q0 17 14 31z" />
    <glyph glyph-name="question" unicode="?" horiz-adv-x="1136" 
d="M710 568v-130q0 -22 -14 -35.5t-32 -13.5h-180q-22 0 -34 15.5t-12 33.5v169q0 49 15.5 87t40.5 68.5t57 55.5t65 48.5t65 47.5t57 53t40.5 64t15.5 80q0 42 -18 81t-48.5 69t-71.5 48t-86 18t-85.5 -18.5t-71.5 -49.5t-49.5 -71.5t-18.5 -83.5v-30q0 -20 -13 -32
t-33 -12h-183q-25 0 -34.5 13.5t-9.5 27.5v33q0 105 40.5 192.5t108.5 150.5t158.5 98t190.5 35q103 0 195.5 -35.5t162 -98.5t110 -151t40.5 -193q0 -72 -16 -126t-41.5 -94.5t-59 -70.5t-68 -53.5t-67.5 -44t-58.5 -41.5t-41.5 -46t-16 -58zM406 133q0 -33 13 -62
t34.5 -51t51 -34.5t62.5 -12.5q35 0 65 12.5t51.5 34.5t33.5 51t12 62q0 34 -12 63.5t-33.5 51.5t-51.5 34.5t-65 12.5q-33 0 -62.5 -12.5t-51 -34.5t-34.5 -51.5t-13 -63.5z" />
    <glyph glyph-name="at" unicode="@" horiz-adv-x="1672" 
d="M822 308q82 0 155 30t130 78h-570q58 -48 130 -78t155 -30zM586 463h564q45 55 70 124t25 147q0 80 -26.5 150t-81.5 139zM822 1251q-105 0 -198 -40t-163.5 -109t-112.5 -163.5t-42 -204.5q0 -103 39.5 -196t108 -163.5t163.5 -112.5t205 -42q35 0 70 5.5t68 15.5
q77 23 146 68t120 108.5t80.5 143.5t29.5 173q0 101 -38.5 194t-107 165t-163.5 115t-205 43zM822 260q-100 0 -186 38t-150 103t-99.5 151.5t-35.5 181.5q0 94 35 179.5t98 151t149.5 103.5t188.5 38q67 0 124 -16q71 -19 134.5 -60t111 -100t75 -134t27.5 -162
q0 -98 -37 -184.5t-101.5 -151t-150.5 -101.5t-183 -37zM492 1004q-45 -55 -70.5 -122.5t-25.5 -147.5q0 -83 28 -155.5t78 -130.5l555 556h-565zM822 1161q-83 0 -155.5 -29t-130.5 -81h566q-55 50 -126.5 80t-153.5 30zM972 191l-90 -16l4 -26l34 6l16 -89l26 5l-16 89
l31 6zM1072 156q-1 7 -8 9l-12 5h-15h-6h-9h-2v1q-3 3 -3 4l-2 1q2 0 2 4v1h3h5v4h1h5h3q3 0 3 1h9q0 3 0.5 4l0.5 1l5 10l-6 4q-9 4 -12 4q-2 0 -4.5 1t-4.5 1q-4 0 -6 -1t-4 -1l-13 -8q-2 -1 -4 -3.5t-3 -6.5q-8 -6 -8 -15v-4t3 -7q2 -9 10 -14q1 0 3.5 -1.5t3.5 -3.5
q4 0 7 -1t6 -1h12h10h2q2 0 3 -3q4 0 4 -1h3v-5q0 -2 -1 -3t-1 -2v-1q-1 0 -2 -2.5t-3 -2.5q-1 -3 -5 -3h-2.5h-2.5h-3.5h-2.5h-6h-8l-5 -1v-2t-1 -2l-5 -7q1 -4 3 -6t3 -4q4 -1 7 -2t7 -1q8 -3 11 -2q4 0 8 1t7 1l7 3.5t8 4.5l5.5 5.5t4.5 6.5q0 5 2.5 7.5t2.5 7.5
t-0.5 8.5t-4.5 6.5q0 8 -5 10zM1122 151q-1 4 -3 4t-3.5 0.5t-3.5 0.5q-1 -1 -6 -1l-7 -4q-2 -1 -2 -3v-2q-1 -2 -1 -5v-1q0 -4 1 -4v-1q0 -6 4 -6q1 -5 6 -5h7q5 0 7 2q1 2 3 2.5t2 2.5v2q0 2 1 2l4 3v2q0 6 -5 6zM846 99q-1 0 -1 4q0 1 -1.5 1t-1.5 1q0 4 -1 4l-41 60
q0 1 -3 2q-1 3 -8 3h-9h-14l3 -119l27 1v79l51 -79h25v118h-30zM599 189l48 -18l8 25l-73 25l-41 -105l26 -11l15 41l38 -15l10 25l-38 15zM747 160l-8 11q-3 3 -6.5 5t-7.5 4q-4 1 -7 2t-8 3q-5 1 -9 1h-7q-10 0 -14 -5q-4 0 -7.5 -1t-7.5 -4l-11 -10q-4 -8 -10 -11
q-2 -5 -3.5 -8.5t-1.5 -6.5v-19l3 -15l5 -12l12 -11q3 -4 7 -5.5t6 -3.5q7 -4 15 -4q5 -1 8.5 -1h6.5q5 0 14 2q4 2 8.5 3t6.5 4q6 2 11 10l9 11q4 7 6 17v15q0 3 -0.5 6.5t-2.5 8.5l-3 7.5t-4 6.5zM730 121q0 -3 -1.5 -6.5t-3.5 -5.5l-4.5 -6t-4.5 -4q-4 -1 -6.5 -2
t-5.5 -1q-7 -3 -12 0q-3 0 -6.5 1t-5.5 2l-8 10q-2 2 -2.5 5.5t-0.5 6.5q-3 5 0 14q0 6 5 11l6 9l12 5h12l12 -5l9 -9q2 -3 3.5 -5t1.5 -6q2 -9 0 -14zM1309 460q-2 -2 -3 -4t-1 -6q0 -2 1 -4t3 -5l40 -57l-69 10h-10l-9 -6l-9 -17l97 -65l16 23l-46 32l60 -12l11 20l-33 50
l47 -30l15 24l-98 63zM1296 333l-14 13l-15 3q-3 2 -15 2h-6.5t-8.5 -2l-12 -3q-4 -3 -8.5 -6.5t-6.5 -6.5q-3 -3 -4.5 -6t-3.5 -6q-3 -3 -4 -6.5t-3 -8.5q0 -3 -1.5 -6.5t-1.5 -8.5v-6t3 -9l4 -13l10 -12l13 -10q5 -1 7.5 -3.5t7.5 -2.5t8.5 -2t6.5 -2t6.5 2t8.5 2
q3 0 6.5 2.5t7.5 3.5q6 3 13 10l10 12q1 2 3 5t2 8q1 5 1 15v15l-6 13q-2 4 -5 9zM1282 280q-3 -9 -7 -10q-8 -7 -10 -9q-3 -1 -6.5 -1h-6.5t-6.5 0.5t-4.5 0.5l-11 9q-4 4 -8 11v10v12q4 8 8 12l11 8q3 0 6 0.5t5 0.5q5 0 13 -3q2 -1 4.5 -3t5.5 -5q2 -2 4 -4.5t3 -5.5
q3 -3 3 -12q0 -2 -1.5 -6.5zM1209 220l-7 -4q-2 0 -3.5 -2.5t-1.5 -4.5l-5 -9l-8 -6q-4 -3 -6 -4t-6 -1q-6 -3 -12 0q-3 2 -5.5 2t-5.5 3q-7 4 -7 11q-5 1 -5 11q-5 3 0 14v3.5t2 7.5q2 2 4 3.5t4 3.5q8 3 10 3q3 2 10 2q2 0 10 3q2 4 5 5l2 7v8q-3 5 -12 5h-13l-14 -5
l-11 -5q-2 -2 -5.5 -4.5t-6.5 -6.5q-2 -2 -4 -5.5t-4 -8.5l-7 -15v-15q0 -5 2 -7.5t2 -7.5l6 -15q3 -3 6 -5t4 -5l15 -10l12 -2q5 -3 16 -3q4 0 7 1.5t7 2.5q5 1 8.5 3.5t6.5 5.5l5 2.5t5 4.5q3 0 5 3.5t5 6.5l3 14q5 4 5 13l-12 2h-6zM519 260l-102 -74l15 -10h2.5h2.5
q3 0 3.5 -0.5t1.5 0.5h5h5l10 10l40 -22l-2 -15v-5q0 -3 1 -3q0 -1 1 -1v-4q0 -1 2 -1l3 -4l17 -10l17 125zM507 218v-2v-3l-1 -22l-19 10l17 15h2h1v2v1h2q1 1 2 1zM477 255l18 20l-69 59l-20 -21l26 -22l-57 -66l20 -19l60 70zM257 411l83 -10h6q1 0 2 1t3 1l11 8l-45 77
l-23 -14l26 -44l-83 9q-1 0 -4.5 -0.5t-7.5 -3.5l-10 -5l45 -79l22 15zM357 303l22 18l-27 30l14 12l31 -39l20 17l-48 60l-90 -75l51 -58l19 18l-32 37l17 11zM191 741l50 4q1 -2 3.5 -4t4.5 -5q2 -1 3.5 -4t1.5 -6q1 -6 3 -11q0 -4 1 -6.5t1 -4.5q0 -8 -1 -14t-3 -11
q-1 -8 -4.5 -13t-6.5 -10q-7 -8 -19 -12q-11 -8 -23 -8h-17q-4 3 -7.5 4t-7.5 4q-4 1 -6.5 3t-6.5 4q-2 3 -5 6t-5 7q-2 2 -3.5 5.5t-3.5 6.5q-1 5 -2 9.5t-1 9.5v6.5v4.5q3 9 3 14q2 3 3.5 5.5t3.5 5.5q2 2 3.5 5t3.5 5l3 -5q3 0 4 -1l1 -1q2 -3 2 -8v-3t-2 -3
q-5 -5 -5 -11v-13t3 -17q2 -4 4.5 -7t5.5 -6q5 -5 14 -7q7 -4 17 -3q6 0 11 3q3 1 5 1.5t4 3.5q1 2 3.5 3t5.5 4q1 2 2.5 3.5t3.5 4.5q0 4 0.5 6.5t2.5 5.5q1 4 1 10q-1 4 -2 7t-2 8q0 3 -5 10l-19 -1v-5v-5q0 -2 -2 -5q-1 -1 -2 -2.5t-2 -1.5q-2 -1 -6 -1h-6zM264 831
l-9 -75l-118 12l8 75l19 -2l-7 -55l30 -5l5 47l20 -2l-5 -45l32 -3l5 57zM164 851l-17 5l22 90l18 -5l-10 -37l98 -23l-4 -18l-97 23zM205 988l-18 8l42 83l16 -8l-15 -32l89 -45l-8 -18l-90 45zM392 1106l-11 -16l-40 30l-35 -47l41 -30l-11 -15l-97 70l11 15l40 -29l35 47
l-40 30l11 15zM456 1166l-54 -51l-83 86l53 53l14 -15l-39 -39l20 -21l33 31l12 -14l-31 -30l21 -23l40 38zM514 1290l10 -17l-39 -24l24 -43l-14 -10l-63 100l63 40l9 -15l-47 -30l18 -26zM562 1290q0 -7 5 -10q2 -4 10 -7q2 -2 5 -2h5q5 0 10 2q8 3 10 7q5 5 7 10
q1 1 1 10q0 6 -1 11l-27 67l17 8l28 -68q2 -5 2.5 -9t0.5 -9q0 -10 -3 -19q-2 -5 -4.5 -8t-7.5 -7q-3 -5 -6 -6.5t-8 -3.5t-9.5 -3.5t-9.5 -1.5q-8 0 -18 5q-5 2 -8.5 3.5t-6.5 6.5q-7 7 -10 15l-30 67l18 8zM662 1276l-30 117l20 5l23 -97l49 10l3 -20zM731 1291l-12 120
l20 2l10 -98l51 5v-20zM864 1296l-19 4l12 118l44 -5q6 0 14 -4q9 -5 11 -10q4 -3 6 -13q4 -7 3 -15q-3 -3 -3 -6.5t-2 -8.5q-6 -8 -9 -11q-4 -4 -14 -7q-3 -2 -13 -2l-25 4zM895 1356h7q3 0 7 5q3 0 3 5q2 2 4 8q0 5 -1 7t-2 3.5l-1 1.5q-2 3 -3.5 4t-2.5 1q-2 2 -3.5 2
t-2.5 1l-25 2l-5 -38zM951 1285l-19 5l30 113l44 -12q6 0 11 -5l10 -10q4 -5 4 -13q1 -5 0.5 -8.5t-0.5 -6.5q-2 -5 -5 -10q-4 -5 -6 -7q-8 -5 -10 -5q-3 -2 -5.5 -2.5t-3.5 -2.5l21 -56l-15 1q-1 2 -3 3.5t-3 1.5q-4 2 -5 9l-19 46l-15 4zM977 1379l-10 -31l25 -7h3h2
q3 0 4 1t4 1q2 0 2 1.5v1.5q5 5 5 7v7v3t-1 3q-1 2 -2.5 2.5t-1.5 2.5q-3 3 -6 3zM1037 1321q0 5 2.5 8.5t6.5 6.5q1 3 4.5 5.5t6.5 4.5q3 3 6.5 4t8.5 3q4 3 14 3h15q9 -1 16 -6q8 -4 15 -9q3 -3 5.5 -6.5t4.5 -4.5l3.5 -7l3.5 -7q1 -5 2 -8t1 -7v-8t-2 -8q-1 -4 -2 -7.5
t-3 -7.5q-3 -4 -4 -7t-4 -7q-3 -3 -6.5 -5t-4.5 -6q-4 -2 -7 -4t-7 -5q-6 0 -16 -1q-12 0 -17 1q-5 0 -15 5q-12 5 -18 15q-9 9 -14 20q-1 7 -1 12v12q0 11 6 21zM1054 1315q-2 -4 -2.5 -6.5t-2.5 -5.5v-10q0 -2 1 -5t2 -5q0 -7 4 -10q1 -2 3 -4.5t3 -2.5q4 -5 10 -6
q7 -4 10 -4h12h12q4 5 8 5q3 2 5 3.5t3 3.5q3 3 4 5.5t3 4.5q2 3 2.5 7.5t0.5 9.5v7.5v7.5q-2 4 -4.5 7.5t-5.5 5.5q-6 7 -13 10q-2 2 -5 2.5t-7 0.5h-10q-6 0 -10 -1q-3 -2 -5 -3t-5 -1q-1 -2 -3 -4t-3 -4zM1222 1290l10 -9q0 -1 1.5 -3t3.5 -3q0 -5 -2 -9l-28 -85l83 38
q1 1 7 1q5 0 7 -4l10 -7l-117 -54l-15 11zM1279 1064l-47 56l90 76l49 -56l-14 -14l-37 44l-23 -19l29 -36l-16 -11l-28 35l-23 -21l35 -42zM1294 1039l-9 16l101 61l23 -37q2 -3 2.5 -6t2.5 -8q2 -7 -2 -12q-2 -9 -5 -13l-4.5 -4.5t-6.5 -5.5q-4 -1 -5.5 -1.5t-4.5 -2.5
q-4 0 -5.5 -0.5t-4.5 0.5q-4 0 -10 3q-4 1 -5.5 1.5t-3.5 3.5l-23 -59l-9 13q-4 2 -4 7q0 6 3 9l20 47l-8 13zM1381 1089l-29 -16l13 -19q2 -5 4 -6q1 0 6 -3h6q1 0 5 3q1 0 6 3q0 3 1 4t1 3q1 1 1 6q-1 1 -1 2.5t-2 3.5zM1436 969q1 1 1 7q0 4 -1 5q-2 3 -2 7q-3 0 -5 3
q-2 2 -5 2q-3 1 -5 0l-2.5 -2.5l-1.5 -1.5l-2 -2l-2 -2v-7v-10v-3v-2v-10q0 -2 -0.5 -4.5t-0.5 -4.5q-4 -14 -19 -21q-4 -2 -7.5 -3t-8.5 1q-6 0 -14 2q-4 3 -7 5t-5 6q-3 2 -5 5.5t-4 6.5q-3 10 -3 15q0 4 3 14q0 3 2 5l3 4q0 4 2 4q4 2 3 2l4 -2q3 -5 5 -7q0 -1 0.5 -2
t0.5 -3q0 -3 -3 -6v-1v-8q0 -5 2 -8q0 -2 1 -3t2 -4q2 0 3.5 -1.5l3.5 -3.5h2t4 -2h4.5t4.5 2q2 0 5 3q2 4 2 5q1 2 1 7v8v4v12q0 8 2 13q1 2 2 4.5t4 5.5q2 2 4.5 3.5t6.5 3.5q8 3 14 1q6 0 12 -3q3 -2 6.5 -3.5t5.5 -5.5q3 -3 6 -11q2 -7 2 -10q0 -7 -1 -10q0 -4 -4 -10
v-4.5t-2 -3.5l-6 4q-3 1 -4 2.5t-3 3.5q-1 3 -1 6v3zM1364 881l-5 18l113 34l5 -19zM1427 881h19q6 0 14 -5q4 0 7.5 -2.5t4.5 -4.5q4 -3 7 -5.5t6 -5.5q4 -8 7 -12q3 -8 5 -18v-15q-2 -10 -5 -15q-1 -5 -3 -8.5t-4 -6.5l-10 -10q-4 -4 -7.5 -5.5t-6.5 -2.5q-7 -4 -15 -4
q-10 -1 -19 0q-8 0 -15 4q-2 1 -6 2.5t-7 3.5q-3 3 -5.5 6.5t-4.5 5.5q-7 5 -8 15q-2 3 -3.5 6.5t-1.5 8.5q-1 13 1 23q5 13 10 20q7 10 18 17q5 3 11 5.5t11 2.5zM1430 861q-8 0 -10 -3q-5 -2 -10 -5q-4 -2 -6 -7q-5 -5 -5 -10q-2 -1 -2.5 -4t-1.5 -6v-10q2 -8 4 -11
q0 -6 5 -9q1 -3 3 -5t3 -5q2 0 4.5 -1.5t5.5 -3.5q2 -1 4.5 -1h5.5q5 -4 11 0q11 0 16 5q5 1 13 11q6 8 6 15q3 7 1 15q0 7 -2 10q-3 4 -3.5 6t-1.5 4q-3 2 -4.5 3.5l-3.5 3.5q-5 3 -10 5q-3 3 -11 3q-4 3 -11 0zM1377 645l2 16l96 60l-91 5l1 20l117 -10v-11q0 -5 -1 -9
q-4 -2 -4 -5l-81 -50l81 -6l-1 -19z" />
    <glyph glyph-name="A" unicode="A" horiz-adv-x="1432" 
d="M638 1452q7 14 19 23.5t39 9.5h116q22 0 34 -9.5t19 -23.5l595 -1406v-6q0 -15 -10 -27.5t-45 -12.5h-192q-19 0 -28.5 6.5t-15.5 24.5l-99 233h-634l-99 -233q-9 -31 -37 -31h-208q-25 0 -34.5 9.5t-9.5 27.5q0 2 150 355t440 1060zM541 537h424l-211 517z" />
    <glyph glyph-name="B" unicode="B" horiz-adv-x="1356" 
d="M1230 1071q0 -81 -27.5 -151.5t-77.5 -122.5q39 -31 72 -70.5t56.5 -85t36.5 -96t13 -102.5q0 -89 -33.5 -169.5t-91.5 -141t-136.5 -96.5t-167.5 -36h-657q-24 0 -39.5 13.5t-15.5 39.5v1375q0 26 14.5 41.5t40.5 15.5h594q87 0 163.5 -32t133.5 -87.5t89.5 -131
t32.5 -163.5zM458 649v-390h358q38 0 71.5 15.5t59 41.5t40 60.5t14.5 73.5q0 37 -14.5 73t-39.5 64t-58.5 45t-72.5 17h-358zM934 1066q0 74 -49 117t-128 43h-299v-341h297q39 0 72 14t57 38.5t37 57.5t13 71z" />
    <glyph glyph-name="C" unicode="C" horiz-adv-x="1410" 
d="M1279 1377q17 -10 25 -26t-3 -38l-97 -165q-15 -20 -30 -23t-36 10q-62 45 -134.5 70t-153.5 25q-102 0 -187 -38.5t-147 -104.5t-96.5 -155t-34.5 -191q0 -101 34.5 -189.5t96.5 -154.5t147 -104t187 -38q81 0 155 25t135 70q22 13 36.5 11t29.5 -22l99 -167
q11 -22 3 -37t-25 -25q-93 -63 -202.5 -97.5t-228.5 -34.5q-106 0 -203.5 27t-182.5 77t-154.5 119.5t-119.5 154t-77 182t-27 203.5t27 203.5t77 183t119.5 155.5t154.5 119.5t182.5 77t203.5 27.5q119 0 226 -33.5t201 -96.5z" />
    <glyph glyph-name="D" unicode="D" horiz-adv-x="1490" 
d="M1433 741q0 -106 -27 -201.5t-77 -178t-119.5 -149.5t-154 -114t-182.5 -72.5t-203 -25.5h-460q-8 0 -16 1t-15.5 5t-12 12t-4.5 22v1397q0 50 48 50h460q105 -1 202.5 -27t182 -74t154.5 -115t119.5 -150t77 -179t27.5 -201zM457 1216v-943h191q100 0 188.5 34.5
t154.5 96.5t104.5 148t38.5 189t-38.5 190t-104.5 150t-154.5 98.5t-188.5 36.5h-191z" />
    <glyph glyph-name="E" unicode="E" horiz-adv-x="1284" 
d="M162 1437q0 48 44 48h964q26 0 37 -14.5t11 -36.5v-176q0 -18 -12.5 -32t-37.5 -14h-711v-304h548q20 2 32 -8.5t12 -35.5v-181q0 -18 -10 -32t-32 -14h-550v-364h737q28 0 37 -12t9 -37v-182q0 -42 -44 -42h-990q-18 0 -31 10t-13 32v1395z" />
    <glyph glyph-name="F" unicode="F" horiz-adv-x="1254" 
d="M162 1437q0 48 44 48h950q26 0 37 -14.5t11 -36.5v-176q0 -18 -12.5 -32t-37.5 -14h-697v-394h532q20 0 33 -9.5t13 -34.5v-180q0 -18 -10 -32t-32 -14h-536v-506q0 -42 -44 -42h-207q-18 0 -31 10t-13 32v1395z" />
    <glyph glyph-name="G" unicode="G" horiz-adv-x="1452" 
d="M1138 1135q-62 45 -134.5 70t-153.5 25q-102 0 -187 -38.5t-147 -104.5t-96.5 -155t-34.5 -191q0 -101 34.5 -189.5t96.5 -154.5t147 -104t187 -38q43 0 92 6t97 16v332q0 19 11 31.5t33 12.5h180q15 0 32 -12t17 -32v-464q0 -28 -29 -44q-93 -63 -202.5 -93t-228.5 -30
q-106 0 -203.5 27t-182.5 77t-154.5 119.5t-119.5 154t-77 182t-27 203.5t27 203.5t77 183t119.5 155.5t154.5 119.5t182.5 77t203.5 27.5q119 0 226 -33.5t201 -96.5q17 -10 25 -26t-3 -38l-97 -165q-15 -20 -30 -23t-36 10z" />
    <glyph glyph-name="H" unicode="H" horiz-adv-x="1546" 
d="M162 1441q0 15 12 29.5t30 14.5h207q15 0 30.5 -13t15.5 -31v-517h662v517q0 18 13 31t33 13h198q18 0 34.5 -12t16.5 -32v-1397q0 -44 -51 -44h-198q-18 0 -32 11t-14 33v607h-662v-607q0 -20 -14.5 -32t-36.5 -12h-202q-42 0 -42 44v1397z" />
    <glyph glyph-name="I" unicode="I" horiz-adv-x="618" 
d="M162 1441q0 18 11 31t33 13h202q15 0 32 -12t17 -32v-1397q0 -44 -49 -44h-202q-44 0 -44 44v1397z" />
    <glyph glyph-name="J" unicode="J" horiz-adv-x="910" 
d="M343 -22q-99 0 -187.5 40.5t-150.5 115.5q-8 8 -8 29q0 11 5 21.5t13 18.5l101 111q21 22 35.5 22t23.5 -7q11 -8 24 -20t31.5 -23t43.5 -19t59 -8q28 0 53.5 11t44.5 29.5t30 43t11 52.5v1038q0 23 13 37.5t38 14.5h188q26 0 41.5 -15t15.5 -43v-989q0 -23 -1 -46.5
t-4 -44.5q-11 -77 -48 -144.5t-93 -117.5t-127.5 -78.5t-151.5 -28.5z" />
    <glyph glyph-name="K" unicode="K" horiz-adv-x="1468" 
d="M162 1441q0 18 11.5 31t32.5 13h203q7 0 15.5 -3t15.5 -9t12 -14t5 -18v-594l561 607q20 31 44 31h286q27 0 27 -12q0 -8 -12 -21l-528 -615l616 -797q15 -20 15 -29q0 -11 -21 -11h-304q-24 0 -44 31l-470 599l-170 -176v-410q0 -44 -48 -44h-203q-44 0 -44 44v1397z
" />
    <glyph glyph-name="L" unicode="L" horiz-adv-x="1148" 
d="M162 1443q0 18 12.5 31t33.5 13h204q41 0 44 -44v-1170h585q18 0 31 -12.5t13 -33.5v-183q0 -41 -44 -44h-835q-44 0 -44 44v1399z" />
    <glyph glyph-name="M" unicode="M" horiz-adv-x="1852" 
d="M858 32q-14 0 -27.5 15t-20.5 28q-81 220 -161.5 437t-160.5 437l-93 -897q-2 -24 -16 -38t-41 -14h-182q-52 0 -52 56l142 1377q2 21 17 36.5t39 15.5h233q20 0 33.5 -12.5t20.5 -32.5q41 -115 84.5 -233.5t85.5 -232.5l184 -503l353 968v-1q7 24 22 35.5t35 11.5h232
q23 0 38.5 -15.5t17.5 -36.5l142 -1380q0 -26 -14 -39.5t-38 -13.5h-182q-26 0 -40 14t-16 38l-94 897l-320 -868q-8 -15 -23 -32t-29 -17h-169z" />
    <glyph glyph-name="N" unicode="N" horiz-adv-x="1582" 
d="M162 1441q0 18 11 31t33 13h235q15 0 32.5 -8t25.5 -23l657 -927v927q7 18 20 24.5t24 6.5h202q15 0 32 -12t17 -32v-1397q0 -44 -49 -44h-213q-11 0 -20.5 9.5t-21.5 23.5l-695 1000v-989q3 -44 -44 -44h-202q-44 0 -44 44v1397z" />
    <glyph glyph-name="O" unicode="O" horiz-adv-x="1706" 
d="M385 741q0 -101 34.5 -189.5t96.5 -154.5t147 -104t187 -38q101 0 186.5 38t147.5 104t97 154.5t35 189.5q0 102 -35 191t-97 155t-147.5 104.5t-186.5 38.5q-102 0 -187 -38.5t-147 -104.5t-96.5 -155t-34.5 -191zM88 741q0 106 27 203.5t77 183t119.5 155.5
t154.5 119.5t182.5 77t203.5 27.5q105 0 203 -27.5t183 -77t155 -119.5t119.5 -155.5t77 -183t27.5 -203.5t-27.5 -203.5t-77 -182t-119.5 -154t-155 -119.5t-183 -77t-203 -27q-106 0 -203.5 27t-182.5 77t-154.5 119.5t-119.5 154t-77 182t-27 203.5z" />
    <glyph glyph-name="P" unicode="P" horiz-adv-x="1258" 
d="M162 1428q0 26 14 41.5t41 15.5h560q101 0 186.5 -39.5t147.5 -105.5t97 -153t35 -181q0 -92 -34 -177.5t-95.5 -151.5t-146 -105.5t-184.5 -39.5h-325v-479q0 -53 -54 -53h-188q-26 0 -40 13.5t-14 39.5v1375zM944 1008q0 41 -15.5 80t-43.5 69.5t-66 49t-84 18.5h-277
v-433h277q45 0 83.5 18t66.5 48t43.5 69t15.5 81z" />
    <glyph glyph-name="Q" unicode="Q" horiz-adv-x="1706" 
d="M88 741q0 106 27 203.5t77 183t119.5 155.5t154.5 119.5t182.5 77t203.5 27.5q105 0 203 -27.5t183 -77t155 -119.5t119.5 -155.5t77 -183t27.5 -203.5q0 -141 -46.5 -267t-129 -225.5t-196 -167t-248.5 -90.5v-257q0 -44 -48 -44h-203q-44 0 -44 44v257
q-134 24 -246.5 91.5t-194 166.5t-127.5 225t-46 267zM385 741q0 -101 34.5 -189.5t96.5 -154.5t147 -104t187 -38q101 0 186.5 38t147.5 104t97 154.5t35 189.5q0 102 -35 191t-97 155t-147.5 104.5t-186.5 38.5q-102 0 -187 -38.5t-147 -104.5t-96.5 -155t-34.5 -191z" />
    <glyph glyph-name="R" unicode="R" horiz-adv-x="1342" 
d="M162 1437q0 48 44 48h603q103 0 191.5 -38.5t153.5 -104.5t102 -154.5t37 -188.5q0 -68 -17.5 -130t-49 -115.5t-76.5 -97.5t-99 -75l255 -535q0 -2 1 -4.5t1 -4.5q0 -18 -9.5 -27.5t-34.5 -9.5h-239q-27 0 -38 31l-222 488h-308v-477q0 -42 -44 -42h-207q-18 0 -31 10
t-13 32v1395zM1008 1001q0 38 -15 75.5t-42.5 67.5t-66 49t-85.5 19h-342v-422h349q48 0 86 17t63.5 46.5t39 67.5t13.5 80z" />
    <glyph glyph-name="S" unicode="S" horiz-adv-x="1282" 
d="M1007 1089q-13 0 -24 6.5t-25 17.5l-2 1q-19 19 -49 42t-67 43t-79.5 34t-86.5 14q-56 0 -99 -12.5t-72 -34t-44 -50.5t-15 -62q0 -36 22.5 -63t61 -48.5t88.5 -39t105 -33.5q94 -29 185.5 -64.5t163.5 -86.5t116.5 -122.5t44.5 -172.5q0 -109 -44 -197t-121.5 -150.5
t-182 -96t-224.5 -33.5q-77 0 -153 18t-146 51t-132.5 79.5t-111.5 104.5v-1l-2 4q-22 25 -22 46q0 20 24 43l14 15l19 18q15 13 32 29t34 29t31.5 22t23.5 9q14 0 26 -9t20 -17l4 -4h-1q35 -33 78.5 -63t89.5 -53.5t91.5 -37t85.5 -13.5q55 0 103 14t83 39.5t55 61.5t20 80
t-26 75.5t-68 55t-94.5 40.5t-105.5 32q-122 37 -213.5 80t-152.5 96.5t-91.5 120t-30.5 149.5q0 93 37.5 169.5t106.5 131t166 85t217 30.5q91 0 185 -28.5t174 -78.5q24 -15 49 -34t46 -38.5t34.5 -38t13.5 -31.5t-6 -24.5t-15 -22.5l-30 -32v1q-15 -16 -31 -33t-32 -30.5
t-29 -22.5t-22 -9z" />
    <glyph glyph-name="T" unicode="T" horiz-adv-x="1222" 
d="M42 1441q0 18 15 31t35 13h1021q18 0 33.5 -11t17.5 -33v-176q0 -22 -13 -37.5t-38 -15.5h-363v-1161q0 -8 -4 -16.5t-10 -16.5t-14.5 -13t-17.5 -5h-200q-7 0 -15.5 4.5t-16 11.5t-12.5 16.5t-5 18.5v1161h-363q-20 0 -35 14t-15 39v176z" />
    <glyph glyph-name="U" unicode="U" horiz-adv-x="1504" 
d="M435 587q0 -70 23 -132t65 -108.5t100.5 -73.5t128.5 -27t128 27t100 73.5t65 108.5t23 132v854q0 18 13.5 31t33.5 13h198q18 0 34 -12t16 -32v-854q0 -126 -48 -237t-131.5 -194.5t-194.5 -131.5t-237 -48q-84 0 -162 22t-146 62t-124 95.5t-96 123.5t-62 146t-22 162
v854q0 15 12 29.5t30 14.5h207q14 0 30 -13t16 -31v-854z" />
    <glyph glyph-name="V" unicode="V" horiz-adv-x="1436" 
d="M734 440q41 110 87.5 235t94 254t95.5 257.5t92 247.5q10 19 28 35t39 16h197q26 0 39.5 -11.5t13.5 -31.5q0 -4 -1.5 -11.5t-1.5 -9.5l-547 -1352q-4 -10 -9.5 -22t-14 -22.5t-20.5 -17.5t-28 -7h-131q-18 0 -30.5 8.5t-22 22t-17 31.5t-14.5 37q-98 247 -173.5 435
t-131.5 328t-94.5 236.5t-64 160t-39.5 99t-20.5 54t-8 24t-1.5 9.5q0 40 50 40h203q47 0 61 -46z" />
    <glyph glyph-name="W" unicode="W" horiz-adv-x="2130" 
d="M1107 1446q13 39 56 39h214q27 0 37.5 -11.5t10.5 -29.5q0 -5 -0.5 -9.5t-2.5 -12.5l-198 -515l182 -474q7 18 15.5 40t24 61.5t41 105t66.5 171.5t100.5 259.5t142.5 369.5q8 20 23.5 32.5t39.5 12.5h197q28 0 40 -11.5t12 -29.5q0 -7 -0.5 -11t-1.5 -8
q-23 -58 -48 -118.5t-56 -137t-71.5 -175t-96 -232.5t-127.5 -309.5t-167 -405.5q-2 -5 -5.5 -13t-10.5 -15.5t-17.5 -13t-24.5 -5.5h-151q-28 0 -42 12.5t-17 27.5q-48 121 -99.5 248.5t-101.5 248.5l-185 -463q-9 -28 -28 -51t-47 -23h-147q-18 0 -30.5 8t-20.5 19.5
t-13 23.5t-7 20q-134 337 -272 678.5t-270 675.5q0 4 -1.5 7.5t-1.5 13.5q0 39 47 39h208q20 0 35.5 -12t24.5 -36l379 -1004z" />
    <glyph glyph-name="X" unicode="X" horiz-adv-x="1334" 
d="M1354 68q8 -12 12.5 -22t5.5 -19q0 -27 -32 -27h-237q-20 0 -36 11.5t-27 29.5q-78 115 -157 231t-156 231q-78 -117 -155 -231t-155 -231q-12 -17 -28.5 -29t-35.5 -12h-237q-34 0 -34 27q0 9 9.5 25t17.5 29l452 669q-47 70 -95.5 142.5t-103 153.5t-117 173
t-138.5 203q-15 23 -15 37q0 15 12.5 20.5t32.5 5.5h224q29 0 44 -15.5t34 -43.5l288 -428l300 442q29 42 73 45h213q23 0 36 -5t13 -22q-1 -6 -4 -15t-9 -19l-455 -674z" />
    <glyph glyph-name="Y" unicode="Y" horiz-adv-x="1318" 
d="M273 1114l-182 308v1q-3 3 -3 6q-5 8 -8.5 15.5t-3.5 12.5q0 12 8.5 20t23.5 8h256q9 -2 14.5 -3t10.5 -5t11 -12t15 -23l26 -41l71 -135q49 -91 99 -183t99 -183l145 266q35 67 75.5 140.5t77.5 139.5q15 26 23 31.5t22 7.5h261q14 0 21 -7.5t7 -19.5q0 -7 -3.5 -15.5
t-8.5 -16.5l-284 -476q-45 -79 -94 -160.5t-94 -159.5v-573q0 -57 -56 -57h-191q-50 0 -50 57v571z" />
    <glyph glyph-name="Z" unicode="Z" horiz-adv-x="1278" 
d="M120 0q-23 0 -39 16t-16 42v150q-2 17 12 35l776 967h-724q-26 0 -40.5 14t-14.5 41v166q0 26 14.5 40t40.5 14h1072q23 0 40 -14.5t17 -40.5v-146q0 -10 -1.5 -17.5t-8.5 -18.5l-777 -974h734q23 0 39 -13.5t16 -40.5v-162q0 -20 -15.5 -39t-39.5 -19h-1085z" />
    <glyph glyph-name="bracketleft" unicode="[" horiz-adv-x="592" 
d="M139 1670q0 26 14 39t40 13h347q25 -1 39 -14t14 -38v-159q0 -27 -15 -41.5t-38 -14.5h-120v-1428h120q22 0 37.5 -15t15.5 -41v-159q-2 -50 -53 -52h-347q-26 0 -40 13t-14 39v1858z" />
    <glyph glyph-name="backslash" unicode="\" horiz-adv-x="1054" 
d="M966 58q2 -6 3.5 -11t1.5 -12q0 -35 -46 -35h-200q-42 0 -61 45q-71 162 -146.5 336t-152.5 353l-297 688q-2 6 -3 8.5t-3 14.5q0 24 19 32t38 8h182q28 0 44 -12.5t27 -37.5z" />
    <glyph glyph-name="bracketright" unicode="]" horiz-adv-x="592" 
d="M593 -188q0 -26 -14 -39t-40 -13h-347q-51 2 -53 52v159q0 26 15.5 41t37.5 15h120v1428h-120q-23 0 -38 14.5t-15 41.5v159q0 25 14 38t39 14h347q26 0 40 -13t14 -39v-1858z" />
    <glyph glyph-name="asciicircum" unicode="^" horiz-adv-x="976" 
d="M507 1727q15 15 30 15q14 0 29 -15l372 -370q13 -13 13 -31q0 -16 -13 -28l-128 -130q-18 -18 -35 -18q-16 0 -31 13l-207 209l-209 -209q-8 -5 -16 -8t-14 -3q-17 0 -31 14l-128 127q-15 12 -15 33q0 18 13 31z" />
    <glyph glyph-name="underscore" unicode="_" horiz-adv-x="902" 
d="M859 -77q23 0 37.5 -14t14.5 -40v-131q0 -19 -14 -38t-38 -19h-806q-53 0 -53 57v131q0 26 13 40t40 14h806z" />
    <glyph glyph-name="grave" unicode="`" horiz-adv-x="516" 
d="M145 1426q-8 17 -10.5 26t-2.5 14q0 12 8.5 15.5t21.5 3.5h150q19 0 30.5 -10t23.5 -32l88 -205q6 -15 7.5 -22t3.5 -14q0 -14 -6.5 -21t-26.5 -7h-143q-34 0 -53 42z" />
    <glyph glyph-name="a" unicode="a" horiz-adv-x="1188" 
d="M824 61q-1 9 -1.5 15t-1.5 10.5t-2 10.5t-2 15q-18 -26 -39.5 -49.5t-50.5 -41.5t-67.5 -29t-90.5 -11h-5q-107 0 -195.5 39t-153 107t-100 161t-35.5 200q0 109 35.5 202t99 161t152.5 107t197 39q52 0 93.5 -12t73.5 -32.5t56.5 -47t43.5 -56.5q2 18 6 36t7 36
q4 18 8 30t11 18.5t18 9.5t28 3h106q26 0 45.5 -17t19.5 -45v-862q0 -27 -19.5 -42.5t-45.5 -15.5h-127q-18 0 -29 4.5t-18 13t-10.5 19.5t-6.5 24zM355 486q0 -52 16 -97t45.5 -78.5t71.5 -52.5t93 -19q52 0 94.5 18.5t72 51.5t45.5 78t16 98q0 51 -15.5 97t-45 80.5
t-71.5 54.5t-96 20q-52 0 -93.5 -20t-71 -54t-45.5 -80t-16 -97z" />
    <glyph glyph-name="b" unicode="b" horiz-adv-x="1186" 
d="M162 1426q0 26 19.5 42.5t45.5 16.5h151q30 0 46 -16.5t16 -42.5v-534q19 21 44 39.5t54.5 32.5t63.5 22t72 8q102 0 188.5 -39.5t149.5 -108t98 -161t35 -198.5q0 -105 -35.5 -197t-98.5 -161t-148.5 -108.5t-184.5 -39.5q-89 0 -151 32t-112 95l-11 -57
q-5 -19 -13.5 -29t-20 -15t-25 -6t-29.5 -1h-98q-27 2 -41.5 17.5t-14.5 41.5v1367zM413 482q0 -51 18.5 -95.5t49.5 -77.5t72 -52.5t87 -19.5t86.5 19.5t71 53t48 79t17.5 96.5q0 52 -17.5 97.5t-48 79.5t-71 54t-86.5 20q-47 0 -88 -20t-72 -54.5t-49 -80.5t-18 -99z" />
    <glyph glyph-name="c" unicode="c" horiz-adv-x="1022" 
d="M745 298q21 15 37 15q25 0 48 -34l81 -125q9 -13 9 -27q0 -16 -10.5 -28t-22.5 -20q-65 -43 -139.5 -70t-157.5 -27q-104 0 -195.5 39.5t-159.5 107.5t-107.5 160.5t-39.5 198.5t39.5 198.5t107.5 160t159.5 106.5t195.5 39q83 0 155 -22.5t133 -65.5q15 -8 25 -21.5
t10 -33.5q0 -7 -2 -14.5t-7 -13.5l-69 -117q-22 -38 -53 -38q-16 0 -39 16q-33 23 -71.5 37t-83.5 14q-49 0 -89.5 -19.5t-69.5 -53.5t-45 -78.5t-16 -93.5q0 -51 16 -95t45 -77t69.5 -51.5t89.5 -18.5q88 0 157 52z" />
    <glyph glyph-name="d" unicode="d" horiz-adv-x="1188" 
d="M1079 59q0 -26 -14.5 -41.5t-41.5 -17.5h-98q-16 0 -29.5 1t-25 6t-20 15t-13.5 29l-11 57q-50 -63 -112 -95t-151 -32q-99 0 -184.5 39.5t-148.5 108.5t-98.5 161t-35.5 197q0 106 35 198.5t98 161t149.5 108t188.5 39.5q76 0 135.5 -30.5t98.5 -71.5v534q0 26 16 42.5
t46 16.5h151q26 0 45.5 -16.5t19.5 -42.5v-1367zM828 482q0 53 -18 99t-49 80.5t-72.5 54.5t-87.5 20t-86.5 -20t-71 -54t-48 -79.5t-17.5 -97.5q0 -51 17.5 -96.5t48 -79t71 -53t86.5 -19.5t87 19.5t72 52.5t49.5 77.5t18.5 95.5z" />
    <glyph glyph-name="e" unicode="e" horiz-adv-x="1064" 
d="M577 215q43 0 90.5 15.5t90.5 47.5l24.5 14t23.5 6q11 0 21 -5t19 -18l74 -101q13 -17 13 -35q0 -16 -10 -30t-25 -25q-31 -24 -69 -43t-80 -32.5t-85 -20.5t-85 -7q-102 0 -191 39.5t-156 108t-105.5 161t-38.5 199.5q0 103 36.5 195.5t101 162t152 110t189.5 40.5
q96 0 180.5 -36.5t148.5 -99.5t101 -149t37 -185v-6q0 -38 -9 -62.5t-27.5 -38.5t-46 -19.5t-64.5 -5.5h-532q10 -42 32.5 -75.5t52.5 -56.5t65.5 -35.5t71.5 -12.5zM778 594q-7 35 -26 66t-47 53.5t-63 35.5t-74 13q-35 0 -68.5 -11.5t-61.5 -33t-48 -52.5t-28 -71h416z
" />
    <glyph glyph-name="f" unicode="f" horiz-adv-x="648" 
d="M576 1488q30 0 46.5 -17.5t16.5 -46.5v-136q0 -26 -13.5 -43t-39.5 -17q-52 0 -85 -26.5t-33 -84.5v-135h93q28 0 45 -16t17 -49v-101q0 -29 -16.5 -48.5t-45.5 -19.5h-93v-689q0 -27 -19 -43t-42 -16h-155q-26 0 -42.5 16.5t-16.5 42.5v689h-67q-29 0 -46.5 18t-17.5 50
v101q0 33 17.5 49t46.5 16h67v160q0 82 30 146t81.5 108t121.5 67.5t150 24.5z" />
    <glyph glyph-name="g" unicode="g" horiz-adv-x="1192" 
d="M790 -20q4 13 7 35.5t4.5 47.5t2 49.5t0.5 41.5q-22 -24 -45 -51t-51 -49.5t-63.5 -37t-82.5 -14.5q-104 0 -192.5 36.5t-153 101.5t-100.5 154.5t-36 196.5q0 105 36 197t100.5 160t153 107t192.5 39q48 0 86 -14.5t69.5 -37.5t57 -52t48.5 -58l29 92q5 13 9 23.5t10 18
t15.5 11.5t24.5 4h115q21 0 41 -14.5t20 -42.5v-845q0 -120 -39 -212.5t-107.5 -155.5t-161.5 -96t-200 -33q-41 0 -89 6t-95.5 19.5t-91.5 35t-78 51.5q-11 8 -19 21t-8 29q0 9 3 19t11 21l81 108q21 23 40 23q16 0 42 -18q19 -18 44.5 -29.5t52 -18t52 -8.5t46.5 -2
q34 0 69.5 9.5t66 27.5t53 44t31.5 60zM357 491q0 -51 16 -95.5t45 -77t70 -51t91 -18.5q49 0 93 19t77 52t52.5 76.5t19.5 91.5t-19.5 93t-52.5 79t-77 54.5t-93 20.5q-50 0 -91 -19.5t-70 -53t-45 -78t-16 -93.5z" />
    <glyph glyph-name="h" unicode="h" horiz-adv-x="1164" 
d="M162 1417q0 25 14 41t43 16h159q26 0 43.5 -12.5t17.5 -44.5v-534q18 19 39 39.5t47.5 37t59.5 27t75 10.5q95 0 174.5 -34t137.5 -93.5t92 -140t37 -172.5v-9t1 -8v-485q0 -26 -16.5 -40.5t-39.5 -14.5h-164q-28 0 -42.5 12.5t-14.5 41.5v500q0 37 -15.5 70t-41.5 57.5
t-59.5 38.5t-69.5 14q-34 0 -69.5 -14.5t-64.5 -38.5t-47.5 -55.5t-18.5 -64.5v-508q0 -17 -7 -27t-17 -16t-22 -8t-24 -2h-148q-31 0 -45 14.5t-14 40.5v1362z" />
    <glyph glyph-name="i" unicode="i" horiz-adv-x="565" 
d="M421 55q0 -26 -15.5 -40.5t-42.5 -14.5h-165q-55 0 -55 55v872q0 23 14.5 39.5t40.5 16.5h165q20 0 39 -16t19 -40v-872zM118 1259q0 33 12.5 62.5t34 51.5t51 35t63.5 13t63.5 -13t51 -35t33.5 -51.5t12 -62.5t-12 -62t-33.5 -50.5t-51 -34t-63.5 -12.5t-63.5 12.5
t-51 34t-34 50.5t-12.5 62z" />
    <glyph glyph-name="j" unicode="j" horiz-adv-x="565" 
d="M120 1259q0 33 12.5 62.5t34 51.5t50.5 35t62 13q34 0 64 -13t51.5 -35t34 -51.5t12.5 -62.5t-12.5 -62t-34 -50.5t-51.5 -34t-64 -12.5q-33 0 -62 12.5t-50.5 34t-34 50.5t-12.5 62zM38 -397q-30 0 -46.5 17.5t-16.5 46.5v136q0 26 13.5 43t39.5 17q52 0 85 26.5
t33 84.5v948q0 27 19 43t42 16h155q26 0 42.5 -16.5t16.5 -42.5v-973q0 -82 -30 -146t-81.5 -108t-121.5 -67.5t-150 -24.5z" />
    <glyph glyph-name="k" unicode="k" horiz-adv-x="1146" 
d="M162 1426q0 13 1 24t6.5 18.5t17.5 12t35 4.5h167q15 0 24.5 -5t15 -13t7.5 -17t2 -16v-787l277 308q19 22 48 22h236q20 0 31 -9t11 -24q-1 -8 -3 -14t-11 -15l-316 -334l398 -511h-2q10 -10 14.5 -20.5t4.5 -18.5q0 -18 -9.5 -24.5t-29.5 -6.5h-260q-13 0 -24.5 10
t-25.5 30l-251 356l-86 -88v-249q0 -6 -2 -16t-7.5 -19.5t-15.5 -16.5t-26 -7h-176q-14 0 -24 7.5t-16 17t-8.5 17.5t-2.5 9v1375z" />
    <glyph glyph-name="l" unicode="l" horiz-adv-x="565" 
d="M422 55q0 -26 -15.5 -40.5t-41.5 -14.5h-160q-55 0 -55 55v1374q0 25 14.5 41t40.5 16h160q19 0 38 -15.5t19 -41.5v-1374z" />
    <glyph glyph-name="m" unicode="m" horiz-adv-x="1760" 
d="M349 982q17 0 29 -13.5t20 -33t13 -42t8 -39.5q21 25 46.5 49.5t57.5 44t71.5 31.5t87.5 12q51 0 98 -12.5t86 -33.5t70 -49t51 -60q24 34 55.5 63.5t69 51.5t79.5 34t87 12q101 0 175 -32.5t122.5 -88.5t73 -132.5t27.5 -163.5q1 -23 1 -44.5v-44.5v-432
q0 -28 -17.5 -43.5t-43.5 -15.5h-151q-64 0 -64 57v498q0 37 -10 70t-29.5 57t-47.5 38t-64 14q-35 0 -68.5 -13.5t-59.5 -37.5t-42 -56.5t-16 -69.5v-499q0 -28 -16.5 -43t-42.5 -15h-165q-29 0 -42 14.5t-13 42.5v507q0 40 -12.5 72t-34 53.5t-51.5 33t-66 11.5
q-34 0 -66.5 -13.5t-57.5 -37t-40.5 -55t-15.5 -68.5v-507q0 -23 -14 -38t-37 -15h-171q-29 0 -43 15.5t-14 39.5v865q0 27 18.5 44.5t36.5 17.5h132z" />
    <glyph glyph-name="n" unicode="n" horiz-adv-x="1164" 
d="M331 982q30 0 45 -10t22.5 -27.5t11 -40.5t10.5 -49q23 26 53 51t66.5 44.5t79.5 31.5t92 12q93 0 165.5 -29.5t122 -82t75.5 -125t26 -158.5v-540q0 -28 -17 -43.5t-41 -15.5h-164q-32 0 -44 14.5t-12 42.5v496q0 40 -13.5 73.5t-38 56.5t-57.5 36t-72 13
q-32 0 -65.5 -13.5t-61.5 -37t-48 -55t-26 -67.5v-504q0 -55 -59 -55h-161q-29 0 -43.5 15.5t-14.5 39.5v867q0 29 15 44.5t46 15.5h108v0z" />
    <glyph glyph-name="o" unicode="o" horiz-adv-x="1220" 
d="M88 488q0 106 39.5 198.5t108 160t160.5 106.5t198 39q105 0 196.5 -39t160 -106.5t108 -160t39.5 -198.5t-39.5 -198.5t-108 -160.5t-160 -107.5t-196.5 -39.5q-106 0 -198 39.5t-160.5 107.5t-108 160.5t-39.5 198.5zM369 488q0 -51 15.5 -95t44.5 -77t70.5 -51.5
t92.5 -18.5q50 0 90.5 18.5t68.5 51.5t43 77t15 95q0 49 -15 93.5t-43 78.5t-68.5 53.5t-90.5 19.5q-51 0 -92.5 -19.5t-70.5 -53.5t-44.5 -78.5t-15.5 -93.5z" />
    <glyph glyph-name="p" unicode="p" horiz-adv-x="1182" 
d="M162 927q0 26 14.5 41.5t41.5 17.5h98q16 0 29.5 -1t25 -6t20 -15t13.5 -29l13 -67q50 63 111 100t150 37q99 0 184.5 -39.5t148.5 -108.5t98.5 -161t35.5 -197q0 -106 -35 -198.5t-98 -161t-149.5 -108t-188.5 -39.5q-38 0 -72 8t-63.5 22t-54.5 32.5t-44 39.5v-419
q0 -26 -16 -42.5t-46 -16.5h-151q-26 0 -45.5 16.5t-19.5 42.5v1252zM413 504q0 -53 18 -99t49 -80.5t72 -54.5t88 -20q46 0 86.5 20t71 54t48 79.5t17.5 97.5q0 51 -17.5 96.5t-48 79t-71 53t-86.5 19.5t-87 -19.5t-72 -52.5t-49.5 -77.5t-18.5 -95.5z" />
    <glyph glyph-name="q" unicode="q" horiz-adv-x="1170" 
d="M1071 -325q0 -26 -19.5 -42.5t-45.5 -16.5h-151q-30 0 -46 16.5t-16 42.5v419q-39 -41 -98.5 -71.5t-135.5 -30.5q-102 0 -188.5 39.5t-149.5 108t-98 161t-35 198.5q0 105 35.5 197t98.5 161t148.5 108.5t184.5 39.5q89 0 150 -37t111 -100l13 67q5 19 13.5 29t20 15
t25 6t29.5 1h98q27 -2 41.5 -17.5t14.5 -41.5v-1252zM820 504q0 51 -18.5 95.5t-49.5 77.5t-72 52.5t-87 19.5t-86.5 -19.5t-71 -53t-48 -79t-17.5 -96.5q0 -52 17.5 -97.5t48 -79.5t71 -54t86.5 -20t87.5 20t72.5 54.5t49 80.5t18 99z" />
    <glyph glyph-name="r" unicode="r" horiz-adv-x="910" 
d="M144 920q0 30 20.5 43.5t41.5 13.5h109q20 0 32 -11.5t21 -30t17.5 -43t20.5 -50.5q16 30 34.5 57t42.5 48t54 33t70 12q42 0 73 -5t58.5 -16t54.5 -28.5t61 -42.5q32 -17 32 -46q0 -18 -12 -39l-70 -110q-14 -25 -39 -33.5t-47 11.5q-18 16 -33.5 26t-31 15.5t-32.5 7
t-38 1.5q-30 0 -52.5 -8.5t-41.5 -24t-35 -37t-32 -47.5v-557q0 -29 -14.5 -44t-47.5 -15h-156q-29 0 -44.5 15t-15.5 44v861z" />
    <glyph glyph-name="s" unicode="s" horiz-adv-x="850" 
d="M100 136q-12 14 -19 26.5t-7 31.5q0 8 2.5 19.5t23.5 26.5l105 87h-1q-4 0 -1 1.5t8.5 3t11.5 3t9 1.5q14 0 25 -9.5t20 -21.5q16 -24 40 -39.5t50 -25t50.5 -13.5t42.5 -4q17 0 37.5 4.5t38.5 13.5t30 22t12 31q0 19 -13 34t-35 27t-51 22.5t-62 19.5q-158 45 -240 124
t-82 194q0 64 27.5 116.5t76 90.5t115.5 59t147 21q205 0 331 -160q6 -8 8.5 -16.5t2.5 -14.5q-2 -13 -8 -20.5t-20 -19.5h1l-3 -3l-2 -2l-9 -11l-27 -23q-26 -22 -44 -38.5t-35 -15.5q-17 0 -26 7.5t-20 19.5q-13 15 -31 28t-37.5 23.5t-39.5 16.5t-38 6q-38 0 -60 -9
t-33.5 -21.5t-15 -26t-3.5 -21.5q0 -20 12 -34t30.5 -24t41.5 -16.5t44 -12.5l17 -5q76 -21 140 -48t110 -64.5t71.5 -88t25.5 -118.5q0 -73 -31 -130.5t-85 -97t-127 -60.5t-157 -21q-48 0 -96.5 9.5t-93 29t-84 48.5t-70.5 68z" />
    <glyph glyph-name="t" unicode="t" horiz-adv-x="656" 
d="M165 1252q0 24 15 39.5t46 19.5l154 22q4 1 7.5 1h6.5q29 0 38.5 -17t9.5 -43v-291h120q25 0 40 -15t15 -44v-110q0 -32 -15 -47t-40 -15h-120v-693q0 -29 -17 -44t-47 -15h-154q-59 0 -59 59v693h-54q-59 0 -59 62v110q0 59 59 59h54v269z" />
    <glyph glyph-name="u" unicode="u" horiz-adv-x="1136" 
d="M869 0q-30 0 -46.5 12t-26 31.5t-14.5 44.5t-12 51q-23 -26 -50 -53t-60 -49t-72.5 -35.5t-88.5 -13.5q-93 0 -164 29.5t-118.5 82t-72 125t-24.5 158.5v540q0 28 17 43.5t41 15.5h164q32 0 44 -14.5t12 -42.5v-496q0 -41 12 -74t34.5 -56t54.5 -36t71 -13q32 0 66 12.5
t61.5 35.5t45 55t17.5 70v504q0 55 59 55h161q29 0 43.5 -15.5t14.5 -39.5v-867q0 -29 -15 -44.5t-46 -15.5h-108v0z" />
    <glyph glyph-name="v" unicode="v" horiz-adv-x="982" 
d="M538 385l197 553q19 45 67 45h179q29 0 41 -12t12 -34q0 -8 -2.5 -16.5t-2.5 -10.5l-347 -848q-10 -24 -27 -43t-43 -19h-147q-18 0 -31 7t-22 19t-15.5 27t-12.5 30l-164 404q-42 103 -85 210t-85 206h1q-2 5 -5.5 16.5t-3.5 19.5q0 43 53 43h182q26 0 41 -12.5
t23 -33.5z" />
    <glyph glyph-name="w" unicode="w" horiz-adv-x="1546" 
d="M431 709q29 -85 55 -159.5t55 -149.5l189 529q9 25 24.5 39t46.5 14h159q29 0 43 -12.5t14 -35.5q0 -5 -1 -12t-2 -9l-62 -174q26 -75 58.5 -163.5t68.5 -177.5l55 155q33 94 66.5 188t65.5 189q9 27 28 39.5t41 12.5h182q25 0 39.5 -10.5t14.5 -31.5q0 -7 -2 -14t-4 -13
l-343 -854l-8 -16t-13 -19.5t-20 -16.5t-29 -7h-144q-24 0 -38 10.5t-22 24t-11.5 27.5t-6.5 20l-85 214q-9 23 -17 41t-18 43l-39 -95q-10 -29 -22 -56.5t-23 -56.5l-44 -109q-1 -1 -1 -4l-3 -6q-3 -8 -8 -17t-12.5 -17t-18 -13.5t-25.5 -5.5h-147q-19 0 -31.5 7t-21 18.5
t-14.5 25t-11 26.5q-79 196 -134.5 334t-92 230.5t-57 146t-31 81t-13.5 35.5t-4 10q-5 12 -5 25q0 43 52 43h182q25 0 41.5 -13t25.5 -34z" />
    <glyph glyph-name="x" unicode="x" horiz-adv-x="1012" 
d="M64 35q2 7 6 15l9 18l306 447l-290 399q-8 10 -13 21.5t-5 21.5q0 11 8 18t30 7h244q13 0 22.5 -11t21.5 -29v2l149 -224q15 21 33.5 50t37.5 60.5t37.5 61.5t32.5 52q13 20 24.5 29t26.5 9h246q13 0 23.5 -7.5t10.5 -20.5q0 -12 -10 -23l-301 -414l286 -416
q19 -26 31.5 -46t12.5 -34q0 -21 -37 -21h-267q-18 0 -31 10.5t-21 29.5l-137 277l-138 -280q-7 -18 -21 -27.5t-26 -9.5h-268q-21 0 -31 24z" />
    <glyph glyph-name="y" unicode="y" horiz-adv-x="1048" 
d="M585 -341q-9 -15 -26.5 -30t-37.5 -15h-162q-23 0 -39 9t-16 33q0 15 4 27l120 327l-364 893h1q-6 11 -7.5 20t-1.5 14q0 44 54 44h175q26 0 42 -13.5t21 -33.5v1l76 -198q37 -104 71.5 -197.5t71.5 -189.5l215 587q16 44 66 44h173q31 0 43.5 -13.5t12.5 -35.5
q0 -5 -2 -13.5t-7 -22.5z" />
    <glyph glyph-name="z" unicode="z" horiz-adv-x="1034" 
d="M122 921q0 27 16.5 43.5t45.5 16.5h710q25 0 43.5 -15t18.5 -45v-134q0 -7 -1 -16t-8 -19l-462 -503h418q28 0 44.5 -15t16.5 -47v-121q0 -12 -4.5 -23.5t-12.5 -21t-19 -15.5t-25 -6h-741q-25 0 -43.5 20.5t-18.5 45.5v106q0 11 2 21t11 21q52 57 114.5 123.5t127.5 135
t127.5 135t114.5 124.5h-413q-29 0 -45.5 15.5t-16.5 48.5v125z" />
    <glyph glyph-name="braceleft" unicode="{" horiz-adv-x="715" 
d="M630 1781q5 0 11 1t11 1q61 -5 61 -57v-189q0 -25 -15 -41.5t-39 -16.5h-4q-27 0 -51.5 -11t-43.5 -30t-30.5 -44.5t-11.5 -53.5v-463q0 -33 -17 -67.5t-44 -63.5q29 -29 45 -61.5t16 -70.5v-470q0 -29 11 -52t28.5 -39.5t39 -27t42.5 -15.5h9q26 -7 45.5 -22t19.5 -42
v-193q0 -26 -14.5 -41t-42.5 -16q-92 6 -170.5 40t-136 92t-90 137.5t-32.5 174.5v365q0 14 -1.5 30.5t-7 30.5t-15 23t-25.5 9h-60q-54 0 -54 56v184q0 26 14 40t40 14h55q20 0 31 9t16 22.5t6 30.5t1 34v5v344q0 90 30.5 168.5t84 138t127.5 95.5t161 42z" />
    <glyph glyph-name="bar" unicode="|" horiz-adv-x="587" 
d="M152 1453q0 23 14 38.5t40 15.5h166q20 0 38.5 -15t18.5 -39v-1801q0 -52 -57 -52h-166q-54 0 -54 52v1801z" />
    <glyph glyph-name="braceright" unicode="}" horiz-adv-x="721" 
d="M84 1781q87 -6 161 -42t127.5 -95.5t84 -138t30.5 -168.5v-344v-5q0 -17 1 -34t6 -30.5t16 -22.5t31 -9h55q26 0 40 -14t14 -40v-184q0 -56 -54 -56h-60q-16 0 -25.5 -9t-15 -23t-7 -30.5t-1.5 -30.5v-365q0 -95 -32.5 -174.5t-90 -137.5t-136 -92t-170.5 -40
q-28 1 -42.5 16t-14.5 41v193q0 27 19.5 42t45.5 22h9q21 5 42.5 15.5t39 27t28.5 39.5t11 52v470q0 38 16 70.5t45 61.5q-27 29 -44 63.5t-17 67.5v463q0 28 -11.5 53.5t-30.5 44.5t-43.5 30t-51.5 11h-4q-24 0 -39 16.5t-15 41.5v189q0 52 61 57q5 0 11 -1t11 -1z" />
    <glyph glyph-name="asciitilde" unicode="~" horiz-adv-x="1318" 
d="M179 601q58 81 138.5 123t173.5 42q57 -1 113 -19t109 -52l82 -53q28 -19 66 -19q58 0 88 44l39 57q11 17 35 17q14 0 31 -11l150 -101q17 -14 17 -33q0 -13 -8 -28l-40 -55q-62 -85 -144 -125t-179 -40q-55 0 -109 19t-103 51l-81 53q-31 20 -66 20q-58 0 -88 -44
l-40 -58q-12 -16 -34 -16q-16 0 -32 10l-149 101q-18 11 -18 33q0 3 1 7.5t6 13.5t14.5 24t27.5 39z" />
    <glyph glyph-name="exclamdown" unicode="&#xa1;" horiz-adv-x="496" 
d="M141.027 471.03q0 24.998 14 39.4971q13.999 14.499 39.9971 14.499h181.989q22.998 0 39.9971 -13.999t16.999 -39.9971v-941.942q0 -25.999 -14.499 -39.998t-42.4971 -13.999h-181.989q-25.998 0 -39.9971 13.999q-14 13.999 -14 39.998v941.942zM449.009 826.008
q0 -33.9971 -12.999 -63.4961q-12.999 -29.498 -34.498 -51.4961q-21.498 -21.999 -50.9971 -34.498q-29.498 -12.499 -62.4961 -12.499q-33.998 0 -63.9961 12.499t-51.4971 34.498q-21.498 21.998 -33.9971 51.4961q-12.5 29.499 -12.5 63.4961q0 32.998 12.5 62.4971
q12.499 29.498 33.9971 50.9961q21.499 21.499 51.4971 34.498t63.9961 12.999q32.998 0 62.4961 -12.999q29.499 -12.999 50.9971 -34.498q21.499 -21.498 34.498 -50.9961q12.999 -29.499 12.999 -62.4971z" />
    <glyph glyph-name="cent" unicode="&#xa2;" horiz-adv-x="976" 
d="M640 260q23 0 48 7.5t42 24.5q11 7 24 13.5t21 7.5q23 0 33 -9t22 -26l7 -10v1l12 -18q7 -12 18.5 -28.5t21.5 -33t17 -31t7 -20.5q0 -22 -25 -44.5t-62.5 -43t-80 -36t-78.5 -23.5v-123q0 -23 -13.5 -37.5t-36.5 -14.5h-157q-52 0 -52 52v142q-73 24 -133.5 70.5
t-104 109.5t-68 140t-24.5 162q0 87 24.5 163.5t68 139t104.5 109.5t133 75v127q0 22 14 36.5t37 14.5h157q21 0 36 -15.5t15 -35.5v-113q31 -6 72 -20t77.5 -33t61.5 -42.5t25 -48.5q0 -6 -3.5 -16.5t-9.5 -17.5v1l-67 -122q-8 -13 -20.5 -20t-25.5 -7q-9 0 -19.5 4
t-21.5 10q-32 28 -74.5 45t-86.5 17q-47 0 -87.5 -20t-70.5 -54.5t-47 -80.5t-17 -97q0 -47 15 -91.5t42 -79t64.5 -55.5t82.5 -21q42 0 79 16h4z" />
    <glyph glyph-name="sterling" unicode="&#xa3;" horiz-adv-x="1200" 
d="M633 821q20 0 34.5 -12t14.5 -35v-142q0 -21 -13 -36t-36 -15h-254v-302h625q20 0 34 -12.5t14 -35.5v-180q0 -17 -13 -34t-35 -17h-866q-48 0 -48 46v909q0 117 43 218.5t118 176.5t176.5 118t217.5 43q121 0 213.5 -35t169.5 -92q15 -11 21 -20t6 -20q0 -4 -3 -14
t-9 -22l-96 -143q-6 -10 -14.5 -15t-14.5 -5q-3 0 -10.5 2.5t-17.5 7.5q-22 16 -46.5 33t-53 30.5t-62 22t-73.5 8.5q-56 0 -106 -19t-88 -53t-60.5 -81.5t-22.5 -105.5v-169h255z" />
    <glyph glyph-name="currency" unicode="&#xa4;" horiz-adv-x="1078" 
d="M369 532q0 -35 13 -66t36 -54t53.5 -36t66.5 -13t66.5 13t53.5 36t36 54t13 66q0 36 -13 67t-36 54t-53.5 36t-66.5 13t-66.5 -13t-53.5 -36t-36 -54t-13 -67zM265 935q15 15 29 15q18 0 33 -15l105 -106q32 8 58 13t48 5q20 0 46 -5t57 -13l108 106q13 13 29 13
q20 0 35 -15l128 -128q15 -15 15 -31t-15 -31l-106 -107q8 -32 13 -58t5 -46q0 -21 -5 -47.5t-13 -57.5l106 -106q15 -15 15 -31q0 -19 -15 -31l-128 -127q-13 -13 -35 -13q-18 0 -29 11l-108 105q-63 -17 -103 -17q-41 0 -106 17l-105 -105q-16 -16 -31 -16q-18 0 -31 16
l-127 127q-14 11 -14 35q0 8 3 16t8 13l106 106q-8 31 -13 57.5t-5 47.5q0 20 5 46t13 58l-106 107q-13 15 -13 29q0 19 16 35z" />
    <glyph glyph-name="yen" unicode="&#xa5;" horiz-adv-x="1300" 
d="M1069 461q20 0 34 -12.5t14 -35.5v-88q0 -17 -13 -34.5t-35 -17.5h-231v-216q0 -57 -55 -57h-191q-50 0 -50 57v216h-208q-48 0 -48 52v88q0 23 12.5 35.5t35.5 12.5h208v87h-208q-48 0 -48 52v86q0 49 48 49h126l-389 687v1q-3 3 -3 6q-5 8 -8.5 15.5t-3.5 12.5
q0 12 9 20t24 8h255q9 -1 16 -3t14.5 -9t16 -20.5t21.5 -38.5l106 -195q22 -41 43.5 -85.5t43 -89.5t43 -89.5t43.5 -84.5l297 576q8 13 13.5 20.5t10.5 11t10 5t12 2.5h261q14 0 21 -7.5t7 -19.5q0 -6 -4 -15t-9 -17l-59 -98l-44 -73l-291 -520h153q20 0 34 -12.5t14 -36.5
v-86q0 -17 -13 -34.5t-35 -17.5h-231v-87h231z" />
    <glyph glyph-name="brokenbar" unicode="&#xa6;" horiz-adv-x="496" 
d="M162 1476q0 18 11 31t33 13h81q18 0 33 -12t15 -32v-746q0 -44 -48 -44h-81q-44 0 -44 44v746zM162 372q0 18 11 31t33 13h81q18 0 33 -12t15 -32v-746q0 -44 -48 -44h-81q-44 0 -44 44v746z" />
    <glyph glyph-name="section" unicode="&#xa7;" horiz-adv-x="1174" 
d="M815 1223q-27 25 -59 45t-63.5 34t-60 21t-47.5 7q-35 0 -71.5 -10t-67 -29.5t-50 -48.5t-19.5 -67q0 -24 14 -41t39 -30.5t57.5 -24.5t70.5 -22q19 -5 39.5 -11t40.5 -13h-1q89 -26 152.5 -56.5t104 -68.5t59.5 -83.5t19 -100.5q0 -72 -31.5 -131t-88.5 -99
q53 -36 86.5 -88t33.5 -126q0 -78 -32.5 -143.5t-89 -112t-133.5 -72.5t-165 -26q-85 0 -162.5 25t-143.5 76q-23 18 -42.5 38.5t-34 39.5t-23 33.5t-8.5 21.5q0 13 15.5 30.5t36.5 33.5t42.5 26.5t33.5 10.5q9 0 15 -1t12.5 -4t14 -9t19.5 -15q1 -2 2 -4.5t1 -4.5
q25 -25 56.5 -44.5t63 -33t59.5 -20.5t47 -7q36 0 73.5 10t67.5 29.5t49.5 48.5t19.5 67q0 26 -15.5 44.5t-43.5 33t-65.5 26.5t-81.5 24l-31 9l-22 6q-88 28 -152 58.5t-105 67.5t-61 81.5t-20 100.5q0 71 31 128.5t86 99.5q-51 36 -84 89t-33 125q0 80 32.5 145.5
t89.5 112.5t134 72.5t165 25.5q81 0 161 -27t145 -74q23 -18 42.5 -39t33.5 -39.5t22 -33.5t8 -21q0 -14 -8.5 -26t-20.5 -22h1q-2 -2 -4 -3t-4 -3q-22 -17 -47 -33t-45 -16t-29.5 6t-24.5 21l-4 3zM552 844q-45 0 -77.5 -10t-54.5 -26.5t-32.5 -37t-10.5 -42.5
q0 -9 6.5 -26.5t27.5 -36.5t61.5 -36t108.5 -25h9q45 0 77 10t52.5 26.5t30.5 37.5t10 42q0 13 -2 24.5t-5 23.5q-14 13 -35 27t-47 24.5t-56 17.5t-63 7z" />
    <glyph glyph-name="dieresis" unicode="&#xa8;" horiz-adv-x="884" 
d="M138 1267q0 30 11 55.5t30.5 45t45 30.5t54.5 11q30 0 56 -11t45 -30.5t30 -45t11 -55.5q0 -29 -11 -54.5t-30 -45t-45 -30.5t-56 -11q-29 0 -54.5 11t-45 30.5t-30.5 45t-11 54.5zM544 1269q0 30 11 56t30 45.5t45 30.5t55 11q30 0 56 -11t45 -30.5t30 -45.5t11 -56
q0 -29 -11 -54.5t-30 -44.5t-45 -30t-56 -11q-29 0 -55 11t-45 30t-30 44.5t-11 54.5z" />
    <glyph glyph-name="copyright" unicode="&#xa9;" horiz-adv-x="1756" 
d="M935 1559q112 0 215.5 -29t194.5 -82t165.5 -127.5t127.5 -165.5t82.5 -196t29.5 -219q0 -112 -29 -215.5t-82 -194t-127.5 -165t-165.5 -127.5t-196 -82.5t-219 -29.5q-112 0 -216 29t-194.5 82t-165.5 127.5t-128.5 165.5t-83 196t-29.5 219q0 111 29 215t82.5 194.5
t128.5 165t166 127.5t196 82.5t219 29.5zM948 1336q-79 0 -158 -20t-154 -60l1 -1q-74 -44 -131 -102t-96 -126t-59.5 -143t-20.5 -152q0 -85 22.5 -162t62.5 -142.5t96 -118.5t122 -90.5t141 -57.5t153 -20q77 0 153.5 20t148.5 65q74 42 131.5 99.5t97 126t60 145
t20.5 154.5q0 89 -23 167t-64 143t-97 116t-121.5 86.5t-138 54t-146.5 18.5zM633 1263l2 -8q1 0 1 1zM1209 1134q7 -5 12 -10t6 -12q3 -5 5.5 -11t2.5 -11q0 -4 -0.5 -5.5t-0.5 -2.5l-27 -46l-14 -26q-8 -15 -16.5 -30.5t-17.5 -28.5t-18.5 -21t-18.5 -8q-8 0 -17 6
q-34 21 -74.5 31.5t-83.5 10.5q-50 0 -92.5 -18t-74.5 -49.5t-50 -74.5t-18 -92q0 -51 18 -93t49.5 -72.5t73.5 -47t91 -16.5q39 0 71 4.5t62 18.5q1 2 3.5 4t7.5 4q2 0 4 2q1 1 4 1q1 0 1.5 0.5t1.5 0.5q8 4 14.5 7t12.5 3q18 0 24 -13q18 -32 41 -68.5t44 -68.5v-6h-1
l-1 2l3.5 -7t1.5 -4q0 -11 -8 -21.5t-17 -17.5q-60 -41 -128 -62t-143 -21q-98 0 -184 37t-150 101t-101 150t-37 185t38 185.5t103 151t151.5 101.5t184.5 37q74 0 138.5 -20.5t123.5 -58.5z" />
    <glyph glyph-name="ordfeminine" unicode="&#xaa;" horiz-adv-x="1022" 
d="M854 795q0 -8 -2 -12q-8 -4 -14 -4h-119q-20 0 -20 16v94q-41 -57 -92 -91t-121 -34q-76 0 -143 28.5t-116.5 78t-78 116.5t-28.5 143t28.5 143t78 116.5t116.5 78t143 28.5q77 0 130 -38t86 -104l27 111q0 20 19 20h90q7 0 15 -4q1 -2 1 -13v-673zM852 783q2 0 3 1
l-4 -4q1 1 1 3zM266 1130q0 -46 17 -85.5t46 -69t69 -46t86 -16.5t85.5 16.5t69 46t46 69t16.5 85.5v9q-2 44 -20 82t-47 66.5t-67.5 45t-82.5 16.5q-46 0 -86 -17t-69 -46t-46 -69.5t-17 -86.5z" />
    <glyph glyph-name="guillemotleft" unicode="&#xab;" horiz-adv-x="1378" 
d="M147 524q-8 8 -11.5 18t-3.5 20q0 20 16 36l511 512q8 5 20.5 9.5t21.5 4.5q12 0 21.5 -4t17.5 -10l98 -100q6 -8 10.5 -16.5t4.5 -19.5q0 -8 -2.5 -19t-10.5 -19l-373 -376l373 -374q6 -7 9.5 -19t3.5 -20q0 -24 -17 -41l-101 -99q-7 -5 -15 -9.5t-19 -4.5q-17 0 -31 10
t-25 21l-198 199l-15.5 15.5l-22.5 22.5t-23 22.5t-15 15.5zM689 524q-8 8 -11.5 18t-3.5 20q0 20 16 36l513 512q8 5 19.5 9.5t20.5 4.5q12 0 21.5 -4t17.5 -10l98 -100q6 -8 10.5 -16.5t4.5 -19.5q0 -8 -2.5 -19t-10.5 -19l-373 -376l373 -374q6 -7 9.5 -19t3.5 -20
q0 -23 -16 -41l-102 -99q-7 -5 -15 -9.5t-19 -4.5q-16 0 -29.5 10t-24.5 21l-200 199l-128 130q-44 43 -86.5 85.5z" />
    <glyph glyph-name="logicalnot" unicode="&#xac;" horiz-adv-x="1162" 
d="M1046 325q0 -20 -12.5 -34t-35.5 -14h-120q-18 0 -35 13.5t-17 34.5v259h-634q-50 0 -50 51v121q0 48 50 48h806q23 0 35.5 -12.5t12.5 -35.5v-431z" />
    <glyph glyph-name="uni00AD" unicode="&#xad;" horiz-adv-x="1056" 
d="M875 694q23 0 38.5 -14t15.5 -38v-141q0 -20 -15 -38.5t-39 -18.5h-652q-25 0 -39 14t-14 43v141q0 24 14 38t39 14h652z" />
    <glyph glyph-name="registered" unicode="&#xae;" horiz-adv-x="1756" 
d="M936 1559q112 0 215.5 -29t194 -82t165 -127.5t127.5 -165.5t82.5 -196t29.5 -219q0 -112 -29 -215.5t-82 -194t-127.5 -165t-165.5 -127.5t-196 -82.5t-218 -29.5q-112 0 -216 29t-195 82t-166 127.5t-128.5 165.5t-83 196t-29.5 219q0 111 29 215t82.5 194.5t128.5 165
t166.5 127.5t196.5 82.5t219 29.5zM949 1336q-80 0 -159.5 -20t-152.5 -60l1 -1q-74 -44 -131 -102t-96 -126t-59.5 -143t-20.5 -152q0 -126 49 -234.5t131.5 -187.5t190 -124t225.5 -45q90 0 170 24.5t148 67.5t122.5 101.5t92.5 126.5t58.5 143.5t20.5 151.5
q0 89 -23.5 166.5t-65 142t-98 115t-122 85t-137.5 53t-144 18.5zM634 1263l2 -8q1 0 1 1zM604 1129q0 39 37 39h371q58 -2 108.5 -25t88 -61t59 -88t21.5 -107q0 -77 -35.5 -140t-95.5 -100l140 -291q2 -3 2 -9q0 -30 -37 -30h-165q-10 0 -18.5 7.5t-13.5 16.5
q-11 24 -22.5 49.5t-23.5 51.5l-75 164h-116v-255q0 -34 -37 -34h-151q-16 0 -26.5 7.5t-10.5 26.5v778zM1066 889q0 16 -6 31.5t-17 27.5t-26.5 19t-34.5 7h-153v-171h153q37 0 60.5 24.5t23.5 61.5z" />
    <glyph glyph-name="macron" unicode="&#xaf;" horiz-adv-x="974" 
d="M100 1337q0 35 35 35h725q36 0 36 -35v-100q0 -12 -9 -26t-27 -14h-725q-35 0 -35 40v100z" />
    <glyph glyph-name="degree" unicode="&#xb0;" horiz-adv-x="650" 
d="M332 1350q47 0 87.5 -17.5t70.5 -47.5t47.5 -71.5t17.5 -89.5t-17.5 -88.5t-48 -70.5t-71 -47t-86.5 -17q-47 0 -88 17t-71.5 47t-48.5 70.5t-18 88.5t17.5 89.5t48 71.5t71.5 47.5t89 17.5zM332 1221q-42 0 -69 -28.5t-27 -68.5t27 -67.5t69 -27.5q19 0 36.5 7.5t30 20
t20 30t7.5 37.5t-7.5 37.5t-20 31t-30 21t-36.5 7.5z" />
    <glyph glyph-name="plusminus" unicode="&#xb1;" horiz-adv-x="994" 
d="M615 365q0 -23 -13.5 -38.5t-39.5 -15.5h-151q-20 0 -39 14.5t-19 39.5v200h-193q-55 0 -55 57v141q0 54 55 54h193v199q0 55 58 55h151q53 0 53 -55v-199h196q23 0 38.5 -14t15.5 -40v-141q0 -20 -15 -38.5t-39 -18.5h-196v-200zM814 234q23 0 38.5 -13t15.5 -39v-126
q0 -22 -15 -39t-39 -17h-644q-54 0 -54 56v126q0 52 54 52h644z" />
    <glyph glyph-name="twosuperior" unicode="&#xb2;" horiz-adv-x="836" 
d="M409 825h250q44 0 44 -45v-89q0 -21 -12 -34t-32 -13h-492q-19 0 -34 13t-15 34v81q0 6 5 13l4 10l350 360q22 22 28 36.5t6 33.5t-8 36t-22 30t-33 20.5t-40 7.5t-38.5 -8t-30.5 -22t-20.5 -32t-7.5 -38v-45q0 -22 -12 -32t-33 -10h-97q-23 0 -33.5 13t-10.5 29v45
q0 60 22.5 110t61 87t90 57.5t109.5 20.5t111.5 -19t94 -53.5t65 -83.5t24.5 -109q0 -61 -25.5 -112t-60.5 -83z" />
    <glyph glyph-name="threesuperior" unicode="&#xb3;" horiz-adv-x="756" 
d="M355 998q-24 0 -34.5 8t-10.5 27v105q0 20 12 31.5t33 11.5q19 0 31 5.5t19 14.5t10 20t3 21q0 11 -1.5 23t-6.5 22t-16.5 16.5t-30.5 6.5q-17 0 -27.5 -6t-16.5 -16t-8 -23.5t-2 -28.5q0 -23 -9.5 -34t-35.5 -11h-92q-20 0 -31.5 11.5t-11.5 30.5q0 67 19 114.5
t51.5 77.5t76 44t92.5 14q48 0 90.5 -18.5t74.5 -50.5t50.5 -75t18.5 -92q0 -38 -10.5 -72.5t-30.5 -60.5q24 -17 42 -36t29.5 -43.5t17 -56t5.5 -73.5q0 -59 -21 -110t-58.5 -88.5t-89.5 -59t-114 -21.5q-59 0 -110.5 12.5t-89.5 46t-60 92.5t-22 152q0 16 10.5 27.5
t27.5 16.5h103q23 0 33.5 -12t10.5 -32q0 -35 7.5 -58t20 -36.5t30.5 -19t39 -5.5q97 0 97 97q0 51 -25 71t-89 20z" />
    <glyph glyph-name="acute" unicode="&#xb4;" horiz-adv-x="496" 
d="M400 1216q-19 -42 -53 -42h-152q-20 0 -26.5 7t-6.5 21q2 7 3 15.5t8 20.5l88 205q12 22 23.5 32t30.5 10h159q26 0 26 -22q0 -8 -1 -17t-8 -20z" />
    <glyph glyph-name="mu" unicode="&#xb5;" horiz-adv-x="1244" 
d="M637 247q15 0 36 8q30 4 57.5 20t49.5 39t37 52t19 59v502q0 55 55 55h165q25 0 40.5 -15t15.5 -41v-411q0 -105 -8.5 -202.5t-29.5 -185.5q-5 -20 -19 -35.5t-31 -23.5q-33 -14 -68.5 -27t-67.5 -13q-20 0 -46 8.5t-54 21.5q-11 -12 -26 -24.5t-32.5 -22.5t-37 -16.5
t-38.5 -6.5q-35 0 -65.5 9t-57.5 23.5t-50 32t-42 35.5v-377q0 -31 -5.5 -49.5t-15.5 -28t-24.5 -12.5t-31.5 -3h-143q-28 0 -42.5 16.5t-14.5 40.5v1250q0 26 15 41t44 15h143q22 0 37 -4t23 -14.5t11.5 -28.5t3.5 -47v-468q5 -35 24 -66t46 -54.5t60 -37.5t68 -14z" />
    <glyph glyph-name="paragraph" unicode="&#xb6;" horiz-adv-x="1396" 
d="M1195 1483q35 0 63.5 -4t54.5 -9q11 -7 18 -20t7 -28v-99q0 -37 -14 -49t-38 -12h-140v-1200q0 -23 -4 -35.5t-11.5 -18.5t-18.5 -7t-24 -1h-124q-17 1 -25.5 5.5t-13 12t-5 17t-0.5 21.5v1206h-205v-1219q-2 -14 -4 -22t-6.5 -12.5t-12.5 -6t-22 -2.5h-138
q-16 1 -24.5 6t-12.5 12t-4.5 17t-0.5 22v610q-86 2 -162.5 34.5t-133.5 88t-90.5 128.5t-33.5 156q0 84 32 158.5t87.5 130t129.5 88t158 32.5h494q2 1 7 1h104h57t56 -1z" />
    <glyph glyph-name="periodcentered" unicode="&#xb7;" horiz-adv-x="454" 
d="M110 561q0 34 13 63.5t34.5 51.5t51 34.5t62.5 12.5q35 0 65 -12.5t51.5 -34.5t33.5 -51.5t12 -63.5q0 -33 -12 -62.5t-33.5 -51t-51.5 -34.5t-65 -13q-33 0 -62.5 13t-51 34.5t-34.5 51t-13 62.5z" />
    <glyph glyph-name="cedilla" unicode="&#xb8;" horiz-adv-x="556" 
d="M233 -530h-4q-2 1 -5 1t-5 2q-14 3 -25.5 18.5t-19.5 34t-12.5 37t-4.5 28.5q0 13 4 18l2 3q2 2 4 3.5t4 2.5l10 3q49 13 82.5 25.5t54 25.5t29.5 26.5t9 28.5q0 22 -15.5 40.5t-39 35.5t-50.5 34t-50.5 37t-39 43.5t-15.5 53.5v42h168q0 -25 16.5 -45.5t41.5 -40
t54.5 -39.5t54.5 -43.5t41.5 -52.5t16.5 -66q0 -36 -12.5 -69.5t-45.5 -66t-91.5 -62.5t-151.5 -58h-5z" />
    <glyph glyph-name="onesuperior" unicode="&#xb9;" horiz-adv-x="468" 
d="M38 1386q0 32 28 51l88 42q4 3 12 5.5t18 2.5h95q24 0 35 -11.5t11 -31.5v-747q0 -20 -10.5 -32t-33.5 -12h-97q-20 0 -32 10t-12 32v589q-9 -5 -18.5 -9.5t-20.5 -9.5q-5 -7 -13 -8q-5 0 -6 -0.5l-3 -1.5q-22 0 -31.5 12.5t-9.5 32.5v86z" />
    <glyph glyph-name="ordmasculine" unicode="&#xba;" horiz-adv-x="1022" 
d="M118 1115q0 81 30 151.5t82.5 123t122.5 83t150 30.5q81 0 151.5 -30.5t123 -83t83 -123t30.5 -151.5q0 -80 -30.5 -150t-83 -122.5t-123 -82.5t-151.5 -30q-80 0 -150 30t-122.5 82.5t-82.5 122.5t-30 150zM334 1114q0 -35 13.5 -65t36 -53t53 -36t64.5 -13q36 0 67 13
t53.5 36t35.5 53t13 65q0 36 -13 67t-35.5 54t-53.5 36t-67 13q-34 0 -64.5 -13t-53 -36t-36 -54t-13.5 -67z" />
    <glyph glyph-name="guillemotright" unicode="&#xbb;" horiz-adv-x="1382" 
d="M1390 520q-72 -73 -142.5 -144.5t-143.5 -143.5l-213 -213q-11 -11 -24.5 -21t-31.5 -10q-20 0 -34 14l-100 99q-7 8 -12 18.5t-5 22.5q0 9 3 20.5t10 18.5l375 374l-374 376h1q-10 9 -12.5 20t-2.5 18q0 18 15 36l97 99q17 15 39 15q10 0 21.5 -3t17.5 -8l515 -515
q9 -9 12.5 -17t3.5 -19q0 -10 -3.5 -19.5t-11.5 -17.5zM562 232l-214 -213q-10 -11 -23.5 -21t-31.5 -10q-20 0 -34 14l-100 99q-7 8 -12 18.5t-5 22.5q0 8 3.5 20t9.5 19l373 374l-372 376h1q-10 9 -12.5 20t-2.5 18q0 18 15 36l97 99q17 15 39 15q10 0 21.5 -3t17.5 -8
l515 -515q16 -16 16 -36q0 -10 -3.5 -19.5t-11.5 -17.5z" />
    <glyph glyph-name="onequarter" unicode="&#xbc;" horiz-adv-x="1484" 
d="M755 102q-26 0 -37.5 15.5t-11.5 35.5q0 9 3.5 19t7.5 17l361 616q11 19 19 23t19 4h102q19 0 30.5 -15.5t11.5 -29.5v-497h59q18 0 33.5 -10t15.5 -32v-102q0 -17 -15.5 -30.5t-33.5 -13.5h-59v-77q0 -23 -10.5 -33.5t-36.5 -10.5h-97q-42 0 -42 44v77h-319zM1074 290
v168q-25 -44 -48 -82.5t-50 -85.5h98zM92 1386q0 32 28 51l88 42q4 3 12 5.5t18 2.5h95q24 0 35 -11.5t11 -31.5v-747q0 -20 -10.5 -32t-33.5 -12h-97q-20 0 -32 10t-12 32v589q-9 -5 -18.5 -9.5t-20.5 -9.5q-5 -7 -13 -8q-5 0 -6 -0.5l-3 -1.5q-22 0 -31.5 12.5t-9.5 32.5
v86zM943 1435h-1q10 21 27.5 35.5t46.5 14.5h86q24 0 42 -10.5t18 -30.5q0 -7 -0.5 -12.5t-4.5 -7.5l-752 -1374q-14 -26 -24.5 -38t-34.5 -12h-110q-27 0 -38.5 10t-10.5 33q1 2 2 5.5t1 5.5z" />
    <glyph glyph-name="onehalf" unicode="&#xbd;" horiz-adv-x="1484" 
d="M943 1435h-1q10 21 27.5 35.5t46.5 14.5h86q24 0 42 -10.5t18 -30.5q0 -7 -0.5 -12.5t-4.5 -7.5l-752 -1374q-14 -26 -24.5 -38t-34.5 -12h-110q-27 0 -38.5 10t-10.5 33q1 2 2 5.5t1 5.5zM92 1386q0 32 28 51l88 42q4 3 12 5.5t18 2.5h95q24 0 35 -11.5t11 -31.5v-747
q0 -20 -10.5 -32t-33.5 -12h-97q-20 0 -32 10t-12 32v589q-9 -5 -18.5 -9.5t-20.5 -9.5q-5 -7 -13 -8q-5 0 -6 -0.5l-3 -1.5q-22 0 -31.5 12.5t-9.5 32.5v86zM1111 163h250q44 0 44 -45v-89q0 -21 -12 -34t-32 -13h-492q-19 0 -34 13t-15 34v81q0 6 5 13l4 10l350 360
q22 22 28 36.5t6 33.5t-8 36t-22 30t-33 20.5t-40 7.5t-38.5 -8t-30.5 -22t-20.5 -32t-7.5 -38v-45q0 -22 -12 -32t-33 -10h-97q-23 0 -33.5 13t-10.5 29v45q0 60 22.5 110t61 87t90 57.5t109.5 20.5t111.5 -19t94 -53.5t65 -83.5t24.5 -109q0 -61 -25.5 -112t-60.5 -83z
" />
    <glyph glyph-name="threequarters" unicode="&#xbe;" horiz-adv-x="1532" 
d="M1084 1435h-1q10 21 27.5 35.5t46.5 14.5h86q24 0 42 -10.5t18 -30.5q0 -7 -0.5 -12.5t-4.5 -7.5l-752 -1374q-14 -26 -24.5 -38t-34.5 -12h-110q-27 0 -38.5 10t-10.5 33q1 2 2 5.5t1 5.5zM346 1020q-24 0 -34.5 8t-10.5 27v105q0 20 12 31.5t33 11.5q19 0 31 5.5
t19 14.5t10 20t3 21q0 11 -1.5 23t-6.5 22t-16.5 16.5t-30.5 6.5q-17 0 -27.5 -6t-16.5 -16t-8 -23.5t-2 -28.5q0 -23 -9.5 -34t-35.5 -11h-92q-20 0 -31.5 11.5t-11.5 30.5q0 67 19 114.5t51.5 77.5t76 44t92.5 14q48 0 90.5 -18.5t74.5 -50.5t50.5 -75t18.5 -92
q0 -38 -10.5 -72.5t-30.5 -60.5q24 -17 42 -36t29.5 -43.5t17 -56t5.5 -73.5q0 -59 -21 -110t-58.5 -88.5t-89.5 -59t-114 -21.5q-59 0 -110.5 12.5t-89.5 46t-60 92.5t-22 152q0 16 10.5 27.5t27.5 16.5h103q23 0 33.5 -12t10.5 -32q0 -35 7.5 -58t20 -36.5t30.5 -19
t39 -5.5q97 0 97 97q0 51 -25 71t-89 20zM810 104q-26 0 -37.5 15.5t-11.5 35.5q0 9 3.5 19t7.5 17l361 616q11 19 19 23t19 4h102q19 0 30.5 -15.5t11.5 -29.5v-497h59q18 0 33.5 -10t15.5 -32v-102q0 -17 -15.5 -30.5t-33.5 -13.5h-59v-77q0 -23 -10.5 -33.5t-36.5 -10.5
h-97q-42 0 -42 44v77h-319zM1129 292v168q-25 -44 -48 -82.5t-50 -85.5h98z" />
    <glyph glyph-name="questiondown" unicode="&#xbf;" horiz-adv-x="1136" 
d="M440.043 410.035v129.991q0 21.999 14 35.498q13.999 13.499 31.998 13.499h179.988q21.999 0 33.998 -15.499t11.999 -33.498v-168.989q0 -48.9971 -15.499 -86.9951q-15.499 -37.9971 -40.4971 -68.4951q-24.999 -30.498 -56.9971 -55.4971
q-31.998 -24.998 -64.9961 -48.4971q-32.9971 -23.498 -64.9951 -47.4971q-31.998 -23.998 -56.9971 -52.9971q-24.998 -28.998 -40.4971 -63.9961q-15.499 -34.9971 -15.499 -79.9951q0 -41.9971 17.998 -80.9951q17.999 -38.9971 48.4971 -68.9951
q30.499 -29.998 71.4961 -47.9971t85.9951 -17.999q44.9971 0 85.4941 18.499q40.498 18.499 71.4961 49.4971t49.4971 71.4951q18.499 40.498 18.499 83.4951v29.998q0 19.999 12.999 31.998t32.998 11.999h182.988q24.999 0 34.498 -13.499t9.49902 -27.498v-32.998
q0 -104.993 -40.4971 -192.488t-108.493 -150.491t-158.49 -97.9932q-90.4951 -34.998 -190.488 -34.998q-102.994 0 -195.488 35.498q-92.4941 35.4971 -161.99 98.4932t-109.993 150.991q-40.498 87.9941 -40.498 192.988q0 71.9951 15.999 125.992t41.498 94.4941
q25.498 40.498 58.9961 70.4961t67.9961 53.4961q34.498 23.499 67.4961 43.998q32.998 20.498 58.4961 41.4971t41.4971 45.9971q15.999 24.999 15.999 57.9971zM744.024 845.008q0 32.998 -12.999 61.9961q-12.999 28.999 -34.498 50.9971q-21.498 21.999 -50.9961 34.498
q-29.499 12.499 -62.4971 12.499q-34.9971 0 -64.9951 -12.499q-29.999 -12.499 -51.4971 -34.498q-21.499 -21.998 -33.498 -50.9971q-11.999 -28.998 -11.999 -61.9961q0 -33.998 11.999 -63.4961t33.498 -51.4961q21.498 -21.999 51.4971 -34.498
q29.998 -12.5 64.9951 -12.5q32.998 0 62.4971 12.5q29.498 12.499 50.9961 34.498q21.499 21.998 34.498 51.4961t12.999 63.4961z" />
    <glyph glyph-name="Agrave" unicode="&#xc0;" horiz-adv-x="1470" 
d="M638 1452q7 14 19 23.5t39 9.5h116q22 0 34 -9.5t19 -23.5l595 -1406v-6q0 -15 -10 -27.5t-45 -12.5h-192q-19 0 -28.5 6.5t-15.5 24.5l-99 233h-634l-99 -233q-9 -31 -37 -31h-208q-25 0 -34.5 9.5t-9.5 27.5q0 2 150 355t440 1060zM541 537h424l-211 517zM517 1930
q-8 17 -10.5 26t-2.5 14q0 12 8.5 15.5t21.5 3.5h150q19 0 30.5 -10t23.5 -32l88 -205q6 -15 7.5 -22t3.5 -14q0 -14 -6.5 -21t-26.5 -7h-143q-34 0 -53 42z" />
    <glyph glyph-name="Aacute" unicode="&#xc1;" horiz-adv-x="1470" 
d="M638 1452q7 14 19 23.5t39 9.5h116q22 0 34 -9.5t19 -23.5l595 -1406v-6q0 -15 -10 -27.5t-45 -12.5h-192q-19 0 -28.5 6.5t-15.5 24.5l-99 233h-634l-99 -233q-9 -31 -37 -31h-208q-25 0 -34.5 9.5t-9.5 27.5q0 2 150 355t440 1060zM541 537h424l-211 517zM938 1721
q-19 -42 -53 -42h-152q-20 0 -26.5 7t-6.5 21q2 7 3 15.5t8 20.5l88 205q12 22 23.5 32t30.5 10h159q26 0 26 -22q0 -8 -1 -17t-8 -20z" />
    <glyph glyph-name="Acircumflex" unicode="&#xc2;" horiz-adv-x="1470" 
d="M638 1452q7 14 19 23.5t39 9.5h116q22 0 34 -9.5t19 -23.5l595 -1406v-6q0 -15 -10 -27.5t-45 -12.5h-192q-19 0 -28.5 6.5t-15.5 24.5l-99 233h-634l-99 -233q-9 -31 -37 -31h-208q-25 0 -34.5 9.5t-9.5 27.5q0 2 150 355t440 1060zM541 537h424l-211 517zM719 2053
q7 5 11 6.5t11 1.5q8 0 20 -8l268 -269q5 -3 7 -9t2 -13q0 -11 -9 -20l-92 -94q-14 -11 -27 -11q-5 0 -11 2.5t-11 6.5l-147 151l-150 -151q-6 -4 -12 -5.5t-10 -1.5q-6 0 -12 2t-10 7l-94 92q-9 6 -9 22q0 7 2 13t7 9z" />
    <glyph glyph-name="Atilde" unicode="&#xc3;" horiz-adv-x="1470" 
d="M638 1452q7 14 19 23.5t39 9.5h116q22 0 34 -9.5t19 -23.5l595 -1406v-6q0 -15 -10 -27.5t-45 -12.5h-192q-19 0 -28.5 6.5t-15.5 24.5l-99 233h-634l-99 -233q-9 -31 -37 -31h-208q-25 0 -34.5 9.5t-9.5 27.5q0 2 150 355t440 1060zM541 537h424l-211 517zM533 1665
q-6 -2 -10 -2q-3 0 -7 2q-5 3 -20.5 15t-32 27t-29.5 30t-13 24q0 4 4 10.5t9 13.5l20 26q39 51 89 76t108 25q34 -2 70 -14.5t68 -33.5l55 -36q27 -18 52 -18q42 0 70 29q5 6 11.5 14.5t13.5 17t14.5 14.5t16.5 6q8 0 19 -8l74 -71q10 -11 10 -23q0 -5 -3.5 -12t-5.5 -9
l-28 -35q-39 -45 -87 -68.5t-105 -23.5q-36 0 -71.5 12.5t-66.5 34.5q-13 9 -26.5 18.5t-28 17.5t-28.5 13.5t-28 5.5q-27 0 -42 -10.5t-26 -24t-21 -26.5t-25 -17z" />
    <glyph glyph-name="Adieresis" unicode="&#xc4;" horiz-adv-x="1470" 
d="M638 1452q7 14 19 23.5t39 9.5h116q22 0 34 -9.5t19 -23.5l595 -1406v-6q0 -15 -10 -27.5t-45 -12.5h-192q-19 0 -28.5 6.5t-15.5 24.5l-99 233h-634l-99 -233q-9 -31 -37 -31h-208q-25 0 -34.5 9.5t-9.5 27.5q0 2 150 355t440 1060zM541 537h424l-211 517zM436 1771
q0 30 11 55.5t30.5 45t45 30.5t54.5 11q30 0 56 -11t45 -30.5t30 -45t11 -55.5q0 -29 -11 -54.5t-30 -45t-45 -30.5t-56 -11q-29 0 -54.5 11t-45 30.5t-30.5 45t-11 54.5zM842 1773q0 30 11 56t30 45.5t45 30.5t55 11q30 0 56 -11t45 -30.5t30 -45.5t11 -56q0 -29 -11 -54.5
t-30 -44.5t-45 -30t-56 -11q-29 0 -55 11t-45 30t-30 44.5t-11 54.5z" />
    <glyph glyph-name="Aring" unicode="&#xc5;" horiz-adv-x="1470" 
d="M638 1452q7 14 19 23.5t39 9.5h116q22 0 34 -9.5t19 -23.5l595 -1406v-6q0 -15 -10 -27.5t-45 -12.5h-192q-19 0 -28.5 6.5t-15.5 24.5l-99 233h-634l-99 -233q-9 -31 -37 -31h-208q-25 0 -34.5 9.5t-9.5 27.5q0 2 150 355t440 1060zM541 537h424l-211 517zM745 2056
q43 0 81.5 -16.5t67.5 -45.5t45.5 -67.5t16.5 -81.5q0 -44 -16.5 -82t-45.5 -66.5t-67.5 -44.5t-81.5 -16q-44 0 -82 16t-66.5 44.5t-44.5 66.5t-16 82q0 43 16 81.5t44.5 67.5t66.5 45.5t82 16.5zM746 1928q-35 0 -58 -24t-23 -59t23 -58t58 -23t58.5 23t23.5 58t-23.5 59
t-58.5 24z" />
    <glyph glyph-name="AE" unicode="&#xc6;" horiz-adv-x="2302" 
d="M370 42q-33 -42 -72 -42h-221q-20 0 -29.5 6t-9.5 22q0 9 5.5 19.5t9.5 16.5l-2 -2v1l44 58q166 207 293 366.5t224.5 282.5t171.5 217.5t134.5 172t112 145t105.5 138.5q11 14 30 28t45 14h942q55 0 55 -58v-162q0 -19 -14.5 -37t-42.5 -18h-707v-323h566q23 0 38.5 -13
t15.5 -40v-147q0 -17 -14 -34t-40 -17h-569v-361h735q55 0 55 -55v-165q0 -26 -15.5 -40.5t-40.5 -14.5h-978q-53 0 -53 49q0 60 0.5 114.5t1.5 114.5h-592zM757 540h398v506z" />
    <glyph glyph-name="Ccedilla" unicode="&#xc7;" horiz-adv-x="1410" 
d="M1279 1377q17 -10 25 -26t-3 -38l-97 -165q-15 -20 -30 -23t-36 10q-62 45 -134.5 70t-153.5 25q-102 0 -187 -38.5t-147 -104.5t-96.5 -155t-34.5 -191q0 -101 34.5 -189.5t96.5 -154.5t147 -104t187 -38q81 0 155 25t135 70q22 13 36.5 11t29.5 -22l99 -167
q11 -22 3 -37t-25 -25q-93 -63 -202.5 -97.5t-228.5 -34.5q-106 0 -203.5 27t-182.5 77t-154.5 119.5t-119.5 154t-77 182t-27 203.5t27 203.5t77 183t119.5 155.5t154.5 119.5t182.5 77t203.5 27.5q119 0 226 -33.5t201 -96.5zM840 -530h-4q-2 1 -5 1t-5 2
q-14 3 -25.5 18.5t-19.5 34t-12.5 37t-4.5 28.5q0 13 4 18l2 3q2 2 4 3.5t4 2.5l10 3q49 13 82.5 25.5t54 25.5t29.5 26.5t9 28.5q0 22 -15.5 40.5t-39 35.5t-50.5 34t-50.5 37t-39 43.5t-15.5 53.5v42h168q0 -25 16.5 -45.5t41.5 -40t54.5 -39.5t54.5 -43.5t41.5 -52.5
t16.5 -66q0 -36 -12.5 -69.5t-45.5 -66t-91.5 -62.5t-151.5 -58h-5z" />
    <glyph glyph-name="Egrave" unicode="&#xc8;" horiz-adv-x="1284" 
d="M162 1437q0 48 44 48h964q26 0 37 -14.5t11 -36.5v-176q0 -18 -12.5 -32t-37.5 -14h-711v-304h548q20 2 32 -8.5t12 -35.5v-181q0 -18 -10 -32t-32 -14h-550v-364h737q28 0 37 -12t9 -37v-182q0 -42 -44 -42h-990q-18 0 -31 10t-13 32v1395zM536 1930q-8 17 -10.5 26
t-2.5 14q0 12 8.5 15.5t21.5 3.5h150q19 0 30.5 -10t23.5 -32l88 -205q6 -15 7.5 -22t3.5 -14q0 -14 -6.5 -21t-26.5 -7h-143q-34 0 -53 42z" />
    <glyph glyph-name="Eacute" unicode="&#xc9;" horiz-adv-x="1284" 
d="M162 1437q0 48 44 48h964q26 0 37 -14.5t11 -36.5v-176q0 -18 -12.5 -32t-37.5 -14h-711v-304h548q20 2 32 -8.5t12 -35.5v-181q0 -18 -10 -32t-32 -14h-550v-364h737q28 0 37 -12t9 -37v-182q0 -42 -44 -42h-990q-18 0 -31 10t-13 32v1395zM842 1720q-19 -42 -53 -42
h-152q-20 0 -26.5 7t-6.5 21q2 7 3 15.5t8 20.5l88 205q12 22 23.5 32t30.5 10h159q26 0 26 -22q0 -8 -1 -17t-8 -20z" />
    <glyph glyph-name="Ecircumflex" unicode="&#xca;" horiz-adv-x="1284" 
d="M162 1437q0 48 44 48h964q26 0 37 -14.5t11 -36.5v-176q0 -18 -12.5 -32t-37.5 -14h-711v-304h548q20 2 32 -8.5t12 -35.5v-181q0 -18 -10 -32t-32 -14h-550v-364h737q28 0 37 -12t9 -37v-182q0 -42 -44 -42h-990q-18 0 -31 10t-13 32v1395zM668 2053q7 5 11 6.5t11 1.5
q8 0 20 -8l268 -269q5 -3 7 -9t2 -13q0 -11 -9 -20l-92 -94q-14 -11 -27 -11q-5 0 -11 2.5t-11 6.5l-147 151l-150 -151q-6 -4 -12 -5.5t-10 -1.5q-6 0 -12 2t-10 7l-94 92q-9 6 -9 22q0 7 2 13t7 9z" />
    <glyph glyph-name="Edieresis" unicode="&#xcb;" horiz-adv-x="1284" 
d="M162 1437q0 48 44 48h964q26 0 37 -14.5t11 -36.5v-176q0 -18 -12.5 -32t-37.5 -14h-711v-304h548q20 2 32 -8.5t12 -35.5v-181q0 -18 -10 -32t-32 -14h-550v-364h737q28 0 37 -12t9 -37v-182q0 -42 -44 -42h-990q-18 0 -31 10t-13 32v1395zM377 1760q0 30 11 55.5
t30.5 45t45 30.5t54.5 11q30 0 56 -11t45 -30.5t30 -45t11 -55.5q0 -29 -11 -54.5t-30 -45t-45 -30.5t-56 -11q-29 0 -54.5 11t-45 30.5t-30.5 45t-11 54.5zM783 1762q0 30 11 56t30 45.5t45 30.5t55 11q30 0 56 -11t45 -30.5t30 -45.5t11 -56q0 -29 -11 -54.5t-30 -44.5
t-45 -30t-56 -11q-29 0 -55 11t-45 30t-30 44.5t-11 54.5z" />
    <glyph glyph-name="Igrave" unicode="&#xcc;" horiz-adv-x="618" 
d="M162 1441q0 18 11 31t33 13h202q15 0 32 -12t17 -32v-1397q0 -44 -49 -44h-202q-44 0 -44 44v1397zM69 1930q-8 17 -10.5 26t-2.5 14q0 12 8.5 15.5t21.5 3.5h150q19 0 30.5 -10t23.5 -32l88 -205q6 -15 7.5 -22t3.5 -14q0 -14 -6.5 -21t-26.5 -7h-143q-34 0 -53 42z" />
    <glyph glyph-name="Iacute" unicode="&#xcd;" horiz-adv-x="618" 
d="M162 1441q0 18 11 31t33 13h202q15 0 32 -12t17 -32v-1397q0 -44 -49 -44h-202q-44 0 -44 44v1397zM396 1720q-19 -42 -53 -42h-152q-20 0 -26.5 7t-6.5 21q2 7 3 15.5t8 20.5l88 205q12 22 23.5 32t30.5 10h159q26 0 26 -22q0 -8 -1 -17t-8 -20z" />
    <glyph glyph-name="Icircumflex" unicode="&#xce;" horiz-adv-x="618" 
d="M162 1441q0 18 11 31t33 13h202q15 0 32 -12t17 -32v-1397q0 -44 -49 -44h-202q-44 0 -44 44v1397zM235 2053q7 5 11 6.5t11 1.5q8 0 20 -8l268 -269q5 -3 7 -9t2 -13q0 -11 -9 -20l-92 -94q-14 -11 -27 -11q-5 0 -11 2.5t-11 6.5l-147 151l-150 -151q-6 -4 -12 -5.5
t-10 -1.5q-6 0 -12 2t-10 7l-94 92q-9 6 -9 22q0 7 2 13t7 9z" />
    <glyph glyph-name="Idieresis" unicode="&#xcf;" horiz-adv-x="516" 
d="M162 1441q0 18 11 31t33 13h202q15 0 32 -12t17 -32v-1397q0 -44 -49 -44h-202q-44 0 -44 44v1397zM-67 1815q0 34 13 63.5t34.5 51.5t51 34.5t62.5 12.5q34 0 64 -12.5t51.5 -34.5t34 -51.5t12.5 -63.5q0 -33 -12.5 -62.5t-34 -51t-51.5 -34.5t-64 -13q-33 0 -62.5 13
t-51 34.5t-34.5 51t-13 62.5zM286 1815q0 34 13 63.5t34.5 51.5t51 34.5t62.5 12.5q34 0 64 -12.5t51.5 -34.5t34 -51.5t12.5 -63.5q0 -33 -12.5 -62.5t-34 -51t-51.5 -34.5t-64 -13q-33 0 -62.5 13t-51 34.5t-34.5 51t-13 62.5z" />
    <glyph glyph-name="Eth" unicode="&#xd0;" horiz-adv-x="1550" 
d="M151 1428q0 27 14 42t42 15h473q159 0 297 -57.5t240 -158t160.5 -236t58.5 -292.5q0 -104 -27 -199.5t-76 -178t-118 -149.5t-153 -114.5t-180.5 -73.5t-201.5 -26h-473q-23 0 -39.5 10t-16.5 42v561h-89q-44 0 -44 47v148q0 19 11 30t33 11h89v579zM541 290q73 0 148 3
q95 3 176 39.5t140.5 97.5t93 142.5t33.5 174.5q0 94 -33.5 173.5t-91 137.5t-135.5 92.5t-166 40.5q-44 3 -89 3h-161v-345h115q18 0 29.5 -11t11.5 -30v-148q0 -14 -11 -30.5t-30 -16.5h-115v-323h85z" />
    <glyph glyph-name="Ntilde" unicode="&#xd1;" horiz-adv-x="1582" 
d="M162 1441q0 18 11 31t33 13h235q15 0 32.5 -8t25.5 -23l657 -927v927q7 18 20 24.5t24 6.5h202q15 0 32 -12t17 -32v-1397q0 -44 -49 -44h-213q-11 0 -20.5 9.5t-21.5 23.5l-695 1000v-989q3 -44 -44 -44h-202q-44 0 -44 44v1397zM582 1665q-6 -2 -10 -2q-3 0 -7 2
q-5 3 -20.5 15t-32 27t-29.5 30t-13 24q0 4 4 10.5t9 13.5l20 26q39 51 89 76t108 25q34 -2 70 -14.5t68 -33.5l55 -36q27 -18 52 -18q42 0 70 29q5 6 11.5 14.5t13.5 17t14.5 14.5t16.5 6q8 0 19 -8l74 -71q10 -11 10 -23q0 -5 -3.5 -12t-5.5 -9l-28 -35q-39 -45 -87 -68.5
t-105 -23.5q-36 0 -71.5 12.5t-66.5 34.5q-13 9 -26.5 18.5t-28 17.5t-28.5 13.5t-28 5.5q-27 0 -42 -10.5t-26 -24t-21 -26.5t-25 -17z" />
    <glyph glyph-name="Ograve" unicode="&#xd2;" horiz-adv-x="1706" 
d="M385 741q0 -101 34.5 -189.5t96.5 -154.5t147 -104t187 -38q101 0 186.5 38t147.5 104t97 154.5t35 189.5q0 102 -35 191t-97 155t-147.5 104.5t-186.5 38.5q-102 0 -187 -38.5t-147 -104.5t-96.5 -155t-34.5 -191zM88 741q0 106 27 203.5t77 183t119.5 155.5
t154.5 119.5t182.5 77t203.5 27.5q105 0 203 -27.5t183 -77t155 -119.5t119.5 -155.5t77 -183t27.5 -203.5t-27.5 -203.5t-77 -182t-119.5 -154t-155 -119.5t-183 -77t-203 -27q-106 0 -203.5 27t-182.5 77t-154.5 119.5t-119.5 154t-77 182t-27 203.5zM659 1930
q-8 17 -10.5 26t-2.5 14q0 12 8.5 15.5t21.5 3.5h150q19 0 30.5 -10t23.5 -32l88 -205q6 -15 7.5 -22t3.5 -14q0 -14 -6.5 -21t-26.5 -7h-143q-34 0 -53 42z" />
    <glyph glyph-name="Oacute" unicode="&#xd3;" horiz-adv-x="1706" 
d="M385 741q0 -101 34.5 -189.5t96.5 -154.5t147 -104t187 -38q101 0 186.5 38t147.5 104t97 154.5t35 189.5q0 102 -35 191t-97 155t-147.5 104.5t-186.5 38.5q-102 0 -187 -38.5t-147 -104.5t-96.5 -155t-34.5 -191zM88 741q0 106 27 203.5t77 183t119.5 155.5
t154.5 119.5t182.5 77t203.5 27.5q105 0 203 -27.5t183 -77t155 -119.5t119.5 -155.5t77 -183t27.5 -203.5t-27.5 -203.5t-77 -182t-119.5 -154t-155 -119.5t-183 -77t-203 -27q-106 0 -203.5 27t-182.5 77t-154.5 119.5t-119.5 154t-77 182t-27 203.5zM976 1720
q-19 -42 -53 -42h-152q-20 0 -26.5 7t-6.5 21q2 7 3 15.5t8 20.5l88 205q12 22 23.5 32t30.5 10h159q26 0 26 -22q0 -8 -1 -17t-8 -20z" />
    <glyph glyph-name="Ocircumflex" unicode="&#xd4;" horiz-adv-x="1706" 
d="M385 741q0 -101 34.5 -189.5t96.5 -154.5t147 -104t187 -38q101 0 186.5 38t147.5 104t97 154.5t35 189.5q0 102 -35 191t-97 155t-147.5 104.5t-186.5 38.5q-102 0 -187 -38.5t-147 -104.5t-96.5 -155t-34.5 -191zM88 741q0 106 27 203.5t77 183t119.5 155.5
t154.5 119.5t182.5 77t203.5 27.5q105 0 203 -27.5t183 -77t155 -119.5t119.5 -155.5t77 -183t27.5 -203.5t-27.5 -203.5t-77 -182t-119.5 -154t-155 -119.5t-183 -77t-203 -27q-106 0 -203.5 27t-182.5 77t-154.5 119.5t-119.5 154t-77 182t-27 203.5zM829 2053q7 5 11 6.5
t11 1.5q8 0 20 -8l268 -269q5 -3 7 -9t2 -13q0 -11 -9 -20l-92 -94q-14 -11 -27 -11q-5 0 -11 2.5t-11 6.5l-147 151l-150 -151q-6 -4 -12 -5.5t-10 -1.5q-6 0 -12 2t-10 7l-94 92q-9 6 -9 22q0 7 2 13t7 9z" />
    <glyph glyph-name="Otilde" unicode="&#xd5;" horiz-adv-x="1706" 
d="M385 741q0 -101 34.5 -189.5t96.5 -154.5t147 -104t187 -38q101 0 186.5 38t147.5 104t97 154.5t35 189.5q0 102 -35 191t-97 155t-147.5 104.5t-186.5 38.5q-102 0 -187 -38.5t-147 -104.5t-96.5 -155t-34.5 -191zM88 741q0 106 27 203.5t77 183t119.5 155.5
t154.5 119.5t182.5 77t203.5 27.5q105 0 203 -27.5t183 -77t155 -119.5t119.5 -155.5t77 -183t27.5 -203.5t-27.5 -203.5t-77 -182t-119.5 -154t-155 -119.5t-183 -77t-203 -27q-106 0 -203.5 27t-182.5 77t-154.5 119.5t-119.5 154t-77 182t-27 203.5zM642 1665
q-6 -2 -10 -2q-3 0 -7 2q-5 3 -20.5 15t-32 27t-29.5 30t-13 24q0 4 4 10.5t9 13.5l20 26q39 51 89 76t108 25q34 -2 70 -14.5t68 -33.5l55 -36q27 -18 52 -18q42 0 70 29q5 6 11.5 14.5t13.5 17t14.5 14.5t16.5 6q8 0 19 -8l74 -71q10 -11 10 -23q0 -5 -3.5 -12t-5.5 -9
l-28 -35q-39 -45 -87 -68.5t-105 -23.5q-36 0 -71.5 12.5t-66.5 34.5q-13 9 -26.5 18.5t-28 17.5t-28.5 13.5t-28 5.5q-27 0 -42 -10.5t-26 -24t-21 -26.5t-25 -17z" />
    <glyph glyph-name="Odieresis" unicode="&#xd6;" horiz-adv-x="1706" 
d="M385 741q0 -101 34.5 -189.5t96.5 -154.5t147 -104t187 -38q101 0 186.5 38t147.5 104t97 154.5t35 189.5q0 102 -35 191t-97 155t-147.5 104.5t-186.5 38.5q-102 0 -187 -38.5t-147 -104.5t-96.5 -155t-34.5 -191zM88 741q0 106 27 203.5t77 183t119.5 155.5
t154.5 119.5t182.5 77t203.5 27.5q105 0 203 -27.5t183 -77t155 -119.5t119.5 -155.5t77 -183t27.5 -203.5t-27.5 -203.5t-77 -182t-119.5 -154t-155 -119.5t-183 -77t-203 -27q-106 0 -203.5 27t-182.5 77t-154.5 119.5t-119.5 154t-77 182t-27 203.5zM542 1751
q0 30 11 55.5t30.5 45t45 30.5t54.5 11q30 0 56 -11t45 -30.5t30 -45t11 -55.5q0 -29 -11 -54.5t-30 -45t-45 -30.5t-56 -11q-29 0 -54.5 11t-45 30.5t-30.5 45t-11 54.5zM948 1753q0 30 11 56t30 45.5t45 30.5t55 11q30 0 56 -11t45 -30.5t30 -45.5t11 -56q0 -29 -11 -54.5
t-30 -44.5t-45 -30t-56 -11q-29 0 -55 11t-45 30t-30 44.5t-11 54.5z" />
    <glyph glyph-name="multiply" unicode="&#xd7;" horiz-adv-x="932" 
d="M674 626l144 -144q16 -16 16 -39t-17 -40l-105 -105q-17 -17 -44 -17q-20 0 -34 14l-146 145q-71 -69 -140 -140q-7 -8 -17 -13t-20 -5q-22 0 -41 19l-98 98q-19 19 -19 41t17 39l140 139l-143 143q-17 17 -17 39q0 10 6 20t14 18l105 108q19 19 39 19q21 0 38 -18v1
l142 -143l141 140q8 8 17.5 11.5t20.5 3.5q25 0 41 -16l99 -101q16 -16 16 -39t-15 -38z" />
    <glyph glyph-name="Oslash" unicode="&#xd8;" horiz-adv-x="1702" 
d="M852 1506q45 0 85 -4.5t81 -12.5l41 96q11 26 30 40t50 14h192q28 0 43.5 -9t15.5 -32q0 -5 -2 -15t-3 -13l-91 -209q73 -51 132.5 -118.5t101.5 -147t65 -169.5t23 -186q0 -106 -27.5 -203t-77 -182t-119.5 -154.5t-155 -119t-182.5 -76.5t-203.5 -27q-16 0 -33.5 1.5
t-32.5 3.5q-7 -1 -15 -1.5t-14 -0.5q-15 0 -29.5 1t-28.5 3l-42 -99q-11 -26 -30.5 -40t-49.5 -14h-192q-28 0 -43.5 9t-15.5 32q0 5 2 15t3 13l39 90q0 3 1 4l5 16l47 102q-76 51 -138 118.5t-105.5 147.5t-67 171.5t-23.5 190.5q0 105 27 203t77 183t119.5 155
t154.5 119.5t182.5 77t203.5 27.5zM384 741q0 -101 34.5 -189.5t96.5 -154.5t147 -104t187 -38q101 0 186.5 38t147.5 104t97 154.5t35 189.5q0 102 -35 191t-97 155t-147.5 104.5t-186.5 38.5q-102 0 -187 -38.5t-147 -104.5t-96.5 -155t-34.5 -191z" />
    <glyph glyph-name="Ugrave" unicode="&#xd9;" horiz-adv-x="1504" 
d="M435 587q0 -70 23 -132t65 -108.5t100.5 -73.5t128.5 -27t128 27t100 73.5t65 108.5t23 132v854q0 18 13.5 31t33.5 13h198q18 0 34 -12t16 -32v-854q0 -126 -48 -237t-131.5 -194.5t-194.5 -131.5t-237 -48q-84 0 -162 22t-146 62t-124 95.5t-96 123.5t-62 146t-22 162
v854q0 15 12 29.5t30 14.5h207q14 0 30 -13t16 -31v-854zM567 1930q-8 17 -10.5 26t-2.5 14q0 12 8.5 15.5t21.5 3.5h150q19 0 30.5 -10t23.5 -32l88 -205q6 -15 7.5 -22t3.5 -14q0 -14 -6.5 -21t-26.5 -7h-143q-34 0 -53 42z" />
    <glyph glyph-name="Uacute" unicode="&#xda;" horiz-adv-x="1504" 
d="M435 587q0 -70 23 -132t65 -108.5t100.5 -73.5t128.5 -27t128 27t100 73.5t65 108.5t23 132v854q0 18 13.5 31t33.5 13h198q18 0 34 -12t16 -32v-854q0 -126 -48 -237t-131.5 -194.5t-194.5 -131.5t-237 -48q-84 0 -162 22t-146 62t-124 95.5t-96 123.5t-62 146t-22 162
v854q0 15 12 29.5t30 14.5h207q14 0 30 -13t16 -31v-854zM901 1720q-19 -42 -53 -42h-152q-20 0 -26.5 7t-6.5 21q2 7 3 15.5t8 20.5l88 205q12 22 23.5 32t30.5 10h159q26 0 26 -22q0 -8 -1 -17t-8 -20z" />
    <glyph glyph-name="Ucircumflex" unicode="&#xdb;" horiz-adv-x="1504" 
d="M435 587q0 -70 23 -132t65 -108.5t100.5 -73.5t128.5 -27t128 27t100 73.5t65 108.5t23 132v854q0 18 13.5 31t33.5 13h198q18 0 34 -12t16 -32v-854q0 -126 -48 -237t-131.5 -194.5t-194.5 -131.5t-237 -48q-84 0 -162 22t-146 62t-124 95.5t-96 123.5t-62 146t-22 162
v854q0 15 12 29.5t30 14.5h207q14 0 30 -13t16 -31v-854zM727 2053q7 5 11 6.5t11 1.5q8 0 20 -8l268 -269q5 -3 7 -9t2 -13q0 -11 -9 -20l-92 -94q-14 -11 -27 -11q-5 0 -11 2.5t-11 6.5l-147 151l-150 -151q-6 -4 -12 -5.5t-10 -1.5q-6 0 -12 2t-10 7l-94 92q-9 6 -9 22
q0 7 2 13t7 9z" />
    <glyph glyph-name="Udieresis" unicode="&#xdc;" horiz-adv-x="1504" 
d="M435 587q0 -70 23 -132t65 -108.5t100.5 -73.5t128.5 -27t128 27t100 73.5t65 108.5t23 132v854q0 18 13.5 31t33.5 13h198q18 0 34 -12t16 -32v-854q0 -126 -48 -237t-131.5 -194.5t-194.5 -131.5t-237 -48q-84 0 -162 22t-146 62t-124 95.5t-96 123.5t-62 146t-22 162
v854q0 15 12 29.5t30 14.5h207q14 0 30 -13t16 -31v-854zM442 1751q0 30 11 55.5t30.5 45t45 30.5t54.5 11q30 0 56 -11t45 -30.5t30 -45t11 -55.5q0 -29 -11 -54.5t-30 -45t-45 -30.5t-56 -11q-29 0 -54.5 11t-45 30.5t-30.5 45t-11 54.5zM848 1753q0 30 11 56t30 45.5
t45 30.5t55 11q30 0 56 -11t45 -30.5t30 -45.5t11 -56q0 -29 -11 -54.5t-30 -44.5t-45 -30t-56 -11q-29 0 -55 11t-45 30t-30 44.5t-11 54.5z" />
    <glyph glyph-name="Yacute" unicode="&#xdd;" horiz-adv-x="1318" 
d="M273 1114l-182 308v1q-3 3 -3 6q-5 8 -8.5 15.5t-3.5 12.5q0 12 8.5 20t23.5 8h256q9 -2 14.5 -3t10.5 -5t11 -12t15 -23l26 -41l71 -135q49 -91 99 -183t99 -183l145 266q35 67 75.5 140.5t77.5 139.5q15 26 23 31.5t22 7.5h261q14 0 21 -7.5t7 -19.5q0 -7 -3.5 -15.5
t-8.5 -16.5l-284 -476q-45 -79 -94 -160.5t-94 -159.5v-573q0 -57 -56 -57h-191q-50 0 -50 57v571zM838 1720q-19 -42 -53 -42h-152q-20 0 -26.5 7t-6.5 21q2 7 3 15.5t8 20.5l88 205q12 22 23.5 32t30.5 10h159q26 0 26 -22q0 -8 -1 -17t-8 -20z" />
    <glyph glyph-name="Thorn" unicode="&#xde;" horiz-adv-x="1280" 
d="M449 1222h320q101 0 186.5 -39.5t147.5 -106t97 -153t35 -180.5q0 -84 -30.5 -163.5t-84.5 -143.5t-128 -107t-162 -54q-50 -6 -106 -6h-274v-215q0 -54 -56 -54h-187q-54 0 -54 54v1377q0 23 14 38.5t41 15.5h186q22 0 38.5 -15t16.5 -39v-209zM936 745q0 41 -15.5 80
t-43.5 69t-66 48.5t-84 18.5h-277v-434h277q45 0 83.5 18.5t66.5 48.5t43.5 69.5t15.5 81.5z" />
    <glyph glyph-name="germandbls" unicode="&#xdf;" horiz-adv-x="1152" 
d="M160 736q0 88 0.5 175.5t0.5 176.5q0 105 38 179.5t99.5 122t139 70t157.5 23.5q82 0 156 -29t130 -82t88.5 -127t32.5 -165q0 -81 -30.5 -139t-87.5 -106q109 -63 165 -162.5t56 -231.5q0 -108 -33.5 -193t-97.5 -144.5t-157.5 -91t-214.5 -31.5q-22 0 -33 13.5
t-13 33.5v163q0 23 12.5 39t37.5 16h15q46 0 84.5 15t66.5 43.5t43 68.5t15 90q0 54 -18 94.5t-50 67.5t-75 40.5t-94 13.5q-22 0 -35.5 10.5t-13.5 36.5v158q0 23 13 36t35 13q32 0 58.5 11t45 30t28.5 45.5t10 57.5q0 18 -7 45t-24 52t-44.5 43t-69.5 18q-39 0 -67 -12.5
t-46 -32.5t-26.5 -46.5t-8.5 -53.5v-1408q0 -24 -14.5 -37.5t-43.5 -13.5h-172q-26 0 -38.5 13.5t-12.5 37.5v1054z" />
    <glyph glyph-name="agrave" unicode="&#xe0;" horiz-adv-x="1188" 
d="M824 61q-1 9 -1.5 15t-1.5 10.5t-2 10.5t-2 15q-18 -26 -39.5 -49.5t-50.5 -41.5t-67.5 -29t-90.5 -11h-5q-107 0 -195.5 39t-153 107t-100 161t-35.5 200q0 109 35.5 202t99 161t152.5 107t197 39q52 0 93.5 -12t73.5 -32.5t56.5 -47t43.5 -56.5q2 18 6 36t7 36
q4 18 8 30t11 18.5t18 9.5t28 3h106q26 0 45.5 -17t19.5 -45v-862q0 -27 -19.5 -42.5t-45.5 -15.5h-127q-18 0 -29 4.5t-18 13t-10.5 19.5t-6.5 24zM355 486q0 -52 16 -97t45.5 -78.5t71.5 -52.5t93 -19q52 0 94.5 18.5t72 51.5t45.5 78t16 98q0 51 -15.5 97t-45 80.5
t-71.5 54.5t-96 20q-52 0 -93.5 -20t-71 -54t-45.5 -80t-16 -97zM410 1426q-8 17 -10.5 26t-2.5 14q0 12 8.5 15.5t21.5 3.5h150q19 0 30.5 -10t23.5 -32l88 -205q6 -15 7.5 -22t3.5 -14q0 -14 -6.5 -21t-26.5 -7h-143q-34 0 -53 42z" />
    <glyph glyph-name="aacute" unicode="&#xe1;" horiz-adv-x="1188" 
d="M824 61q-1 9 -1.5 15t-1.5 10.5t-2 10.5t-2 15q-18 -26 -39.5 -49.5t-50.5 -41.5t-67.5 -29t-90.5 -11h-5q-107 0 -195.5 39t-153 107t-100 161t-35.5 200q0 109 35.5 202t99 161t152.5 107t197 39q52 0 93.5 -12t73.5 -32.5t56.5 -47t43.5 -56.5q2 18 6 36t7 36
q4 18 8 30t11 18.5t18 9.5t28 3h106q26 0 45.5 -17t19.5 -45v-862q0 -27 -19.5 -42.5t-45.5 -15.5h-127q-18 0 -29 4.5t-18 13t-10.5 19.5t-6.5 24zM355 486q0 -52 16 -97t45.5 -78.5t71.5 -52.5t93 -19q52 0 94.5 18.5t72 51.5t45.5 78t16 98q0 51 -15.5 97t-45 80.5
t-71.5 54.5t-96 20q-52 0 -93.5 -20t-71 -54t-45.5 -80t-16 -97zM707 1216q-19 -42 -53 -42h-152q-20 0 -26.5 7t-6.5 21q2 7 3 15.5t8 20.5l88 205q12 22 23.5 32t30.5 10h159q26 0 26 -22q0 -8 -1 -17t-8 -20z" />
    <glyph glyph-name="acircumflex" unicode="&#xe2;" horiz-adv-x="1188" 
d="M824 61q-1 9 -1.5 15t-1.5 10.5t-2 10.5t-2 15q-18 -26 -39.5 -49.5t-50.5 -41.5t-67.5 -29t-90.5 -11h-5q-107 0 -195.5 39t-153 107t-100 161t-35.5 200q0 109 35.5 202t99 161t152.5 107t197 39q52 0 93.5 -12t73.5 -32.5t56.5 -47t43.5 -56.5q2 18 6 36t7 36
q4 18 8 30t11 18.5t18 9.5t28 3h106q26 0 45.5 -17t19.5 -45v-862q0 -27 -19.5 -42.5t-45.5 -15.5h-127q-18 0 -29 4.5t-18 13t-10.5 19.5t-6.5 24zM355 486q0 -52 16 -97t45.5 -78.5t71.5 -52.5t93 -19q52 0 94.5 18.5t72 51.5t45.5 78t16 98q0 51 -15.5 97t-45 80.5
t-71.5 54.5t-96 20q-52 0 -93.5 -20t-71 -54t-45.5 -80t-16 -97zM539 1549q7 5 11 6.5t11 1.5q8 0 20 -8l268 -269q5 -3 7 -9t2 -13q0 -11 -9 -20l-92 -94q-14 -11 -27 -11q-5 0 -11 2.5t-11 6.5l-147 151l-150 -151q-6 -4 -12 -5.5t-10 -1.5q-6 0 -12 2t-10 7l-94 92
q-9 6 -9 22q0 7 2 13t7 9z" />
    <glyph glyph-name="atilde" unicode="&#xe3;" horiz-adv-x="1188" 
d="M824 61q-1 9 -1.5 15t-1.5 10.5t-2 10.5t-2 15q-18 -26 -39.5 -49.5t-50.5 -41.5t-67.5 -29t-90.5 -11h-5q-107 0 -195.5 39t-153 107t-100 161t-35.5 200q0 109 35.5 202t99 161t152.5 107t197 39q52 0 93.5 -12t73.5 -32.5t56.5 -47t43.5 -56.5q2 18 6 36t7 36
q4 18 8 30t11 18.5t18 9.5t28 3h106q26 0 45.5 -17t19.5 -45v-862q0 -27 -19.5 -42.5t-45.5 -15.5h-127q-18 0 -29 4.5t-18 13t-10.5 19.5t-6.5 24zM355 486q0 -52 16 -97t45.5 -78.5t71.5 -52.5t93 -19q52 0 94.5 18.5t72 51.5t45.5 78t16 98q0 51 -15.5 97t-45 80.5
t-71.5 54.5t-96 20q-52 0 -93.5 -20t-71 -54t-45.5 -80t-16 -97zM353 1138q-6 -2 -10 -2q-3 0 -7 2q-5 3 -20.5 15t-32 27t-29.5 30t-13 24q0 4 4 10.5t9 13.5l20 26q39 51 89 76t108 25q34 -2 70 -14.5t68 -33.5l55 -36q27 -18 52 -18q42 0 70 29q5 6 11.5 14.5t13.5 17
t14.5 14.5t16.5 6q8 0 19 -8l74 -71q10 -11 10 -23q0 -5 -3.5 -12t-5.5 -9l-28 -35q-39 -45 -87 -68.5t-105 -23.5q-36 0 -71.5 12.5t-66.5 34.5q-13 9 -26.5 18.5t-28 17.5t-28.5 13.5t-28 5.5q-27 0 -42 -10.5t-26 -24t-21 -26.5t-25 -17z" />
    <glyph glyph-name="adieresis" unicode="&#xe4;" horiz-adv-x="1188" 
d="M824 61q-1 9 -1.5 15t-1.5 10.5t-2 10.5t-2 15q-18 -26 -39.5 -49.5t-50.5 -41.5t-67.5 -29t-90.5 -11h-5q-107 0 -195.5 39t-153 107t-100 161t-35.5 200q0 109 35.5 202t99 161t152.5 107t197 39q52 0 93.5 -12t73.5 -32.5t56.5 -47t43.5 -56.5q2 18 6 36t7 36
q4 18 8 30t11 18.5t18 9.5t28 3h106q26 0 45.5 -17t19.5 -45v-862q0 -27 -19.5 -42.5t-45.5 -15.5h-127q-18 0 -29 4.5t-18 13t-10.5 19.5t-6.5 24zM355 486q0 -52 16 -97t45.5 -78.5t71.5 -52.5t93 -19q52 0 94.5 18.5t72 51.5t45.5 78t16 98q0 51 -15.5 97t-45 80.5
t-71.5 54.5t-96 20q-52 0 -93.5 -20t-71 -54t-45.5 -80t-16 -97zM245 1267q0 30 11 55.5t30.5 45t45 30.5t54.5 11q30 0 56 -11t45 -30.5t30 -45t11 -55.5q0 -29 -11 -54.5t-30 -45t-45 -30.5t-56 -11q-29 0 -54.5 11t-45 30.5t-30.5 45t-11 54.5zM651 1269q0 30 11 56
t30 45.5t45 30.5t55 11q30 0 56 -11t45 -30.5t30 -45.5t11 -56q0 -29 -11 -54.5t-30 -44.5t-45 -30t-56 -11q-29 0 -55 11t-45 30t-30 44.5t-11 54.5z" />
    <glyph glyph-name="aring" unicode="&#xe5;" horiz-adv-x="1188" 
d="M824 61q-1 9 -1.5 15t-1.5 10.5t-2 10.5t-2 15q-18 -26 -39.5 -49.5t-50.5 -41.5t-67.5 -29t-90.5 -11h-5q-107 0 -195.5 39t-153 107t-100 161t-35.5 200q0 109 35.5 202t99 161t152.5 107t197 39q52 0 93.5 -12t73.5 -32.5t56.5 -47t43.5 -56.5q2 18 6 36t7 36
q4 18 8 30t11 18.5t18 9.5t28 3h106q26 0 45.5 -17t19.5 -45v-862q0 -27 -19.5 -42.5t-45.5 -15.5h-127q-18 0 -29 4.5t-18 13t-10.5 19.5t-6.5 24zM355 486q0 -52 16 -97t45.5 -78.5t71.5 -52.5t93 -19q52 0 94.5 18.5t72 51.5t45.5 78t16 98q0 51 -15.5 97t-45 80.5
t-71.5 54.5t-96 20q-52 0 -93.5 -20t-71 -54t-45.5 -80t-16 -97zM566 1614q43 0 81.5 -16.5t67.5 -45.5t45.5 -67.5t16.5 -81.5q0 -44 -16.5 -82t-45.5 -66.5t-67.5 -44.5t-81.5 -16q-44 0 -82 16t-66.5 44.5t-44.5 66.5t-16 82q0 43 16 81.5t44.5 67.5t66.5 45.5t82 16.5z
M567 1486q-35 0 -58 -24t-23 -59t23 -58t58 -23t58.5 23t23.5 58t-23.5 59t-58.5 24z" />
    <glyph glyph-name="ae" unicode="&#xe6;" horiz-adv-x="1830" 
d="M795 61q-1 9 -1.5 15t-1.5 10.5t-2 10.5t-2 15q-18 -26 -39.5 -49.5t-50.5 -41.5t-67.5 -29t-90.5 -11h-5q-107 0 -195.5 39t-153 107t-100 161t-35.5 200q0 109 35.5 202t99 161t152.5 107t197 39q52 0 93.5 -12t73.5 -32.5t56.5 -47t43.5 -56.5q2 18 6 36t7 36
q4 18 8 30t11 18.5t18 9.5t28 3h106q26 0 45.5 -17t19.5 -45v-862q0 -27 -19.5 -42.5t-45.5 -15.5h-127q-18 0 -29 4.5t-18 13t-10.5 19.5t-6.5 24zM326 486q0 -52 16 -97t45.5 -78.5t71.5 -52.5t93 -19q52 0 94.5 18.5t72 51.5t45.5 78t16 98q0 51 -15.5 97t-45 80.5
t-71.5 54.5t-96 20q-52 0 -93.5 -20t-71 -54t-45.5 -80t-16 -97zM1320 215q43 0 90.5 15.5t90.5 47.5l24.5 14t23.5 6q11 0 21 -5t19 -18l74 -101q13 -17 13 -35q0 -16 -10 -30t-25 -25q-31 -24 -69 -43t-80 -32.5t-85 -20.5t-85 -7q-102 0 -191 39.5t-156 108t-105.5 161
t-38.5 199.5q0 103 36.5 195.5t101 162t152 110t189.5 40.5q96 0 180.5 -36.5t148.5 -99.5t101 -149t37 -185v-6q0 -38 -9 -62.5t-27.5 -38.5t-46 -19.5t-64.5 -5.5h-532q10 -42 32.5 -75.5t52.5 -56.5t65.5 -35.5t71.5 -12.5zM1521 594q-7 35 -26 66t-47 53.5t-63 35.5
t-74 13q-35 0 -68.5 -11.5t-61.5 -33t-48 -52.5t-28 -71h416z" />
    <glyph glyph-name="ccedilla" unicode="&#xe7;" horiz-adv-x="1022" 
d="M745 298q21 15 37 15q25 0 48 -34l81 -125q9 -13 9 -27q0 -16 -10.5 -28t-22.5 -20q-65 -43 -139.5 -70t-157.5 -27q-104 0 -195.5 39.5t-159.5 107.5t-107.5 160.5t-39.5 198.5t39.5 198.5t107.5 160t159.5 106.5t195.5 39q83 0 155 -22.5t133 -65.5q15 -8 25 -21.5
t10 -33.5q0 -7 -2 -14.5t-7 -13.5l-69 -117q-22 -38 -53 -38q-16 0 -39 16q-33 23 -71.5 37t-83.5 14q-49 0 -89.5 -19.5t-69.5 -53.5t-45 -78.5t-16 -93.5q0 -51 16 -95t45 -77t69.5 -51.5t89.5 -18.5q88 0 157 52zM563 -530h-4q-2 1 -5 1t-5 2q-14 3 -25.5 18.5t-19.5 34
t-12.5 37t-4.5 28.5q0 13 4 18l2 3q2 2 4 3.5t4 2.5l10 3q49 13 82.5 25.5t54 25.5t29.5 26.5t9 28.5q0 22 -15.5 40.5t-39 35.5t-50.5 34t-50.5 37t-39 43.5t-15.5 53.5v42h168q0 -25 16.5 -45.5t41.5 -40t54.5 -39.5t54.5 -43.5t41.5 -52.5t16.5 -66q0 -36 -12.5 -69.5
t-45.5 -66t-91.5 -62.5t-151.5 -58h-5z" />
    <glyph glyph-name="egrave" unicode="&#xe8;" horiz-adv-x="1096" 
d="M577 215q43 0 90.5 15.5t90.5 47.5l24.5 14t23.5 6q11 0 21 -5t19 -18l74 -101q13 -17 13 -35q0 -16 -10 -30t-25 -25q-31 -24 -69 -43t-80 -32.5t-85 -20.5t-85 -7q-102 0 -191 39.5t-156 108t-105.5 161t-38.5 199.5q0 103 36.5 195.5t101 162t152 110t189.5 40.5
q96 0 180.5 -36.5t148.5 -99.5t101 -149t37 -185v-6q0 -38 -9 -62.5t-27.5 -38.5t-46 -19.5t-64.5 -5.5h-532q10 -42 32.5 -75.5t52.5 -56.5t65.5 -35.5t71.5 -12.5zM778 594q-7 35 -26 66t-47 53.5t-63 35.5t-74 13q-35 0 -68.5 -11.5t-61.5 -33t-48 -52.5t-28 -71h416z
M390 1426q-8 17 -10.5 26t-2.5 14q0 12 8.5 15.5t21.5 3.5h150q19 0 30.5 -10t23.5 -32l88 -205q6 -15 7.5 -22t3.5 -14q0 -14 -6.5 -21t-26.5 -7h-143q-34 0 -53 42z" />
    <glyph glyph-name="eacute" unicode="&#xe9;" horiz-adv-x="1096" 
d="M577 215q43 0 90.5 15.5t90.5 47.5l24.5 14t23.5 6q11 0 21 -5t19 -18l74 -101q13 -17 13 -35q0 -16 -10 -30t-25 -25q-31 -24 -69 -43t-80 -32.5t-85 -20.5t-85 -7q-102 0 -191 39.5t-156 108t-105.5 161t-38.5 199.5q0 103 36.5 195.5t101 162t152 110t189.5 40.5
q96 0 180.5 -36.5t148.5 -99.5t101 -149t37 -185v-6q0 -38 -9 -62.5t-27.5 -38.5t-46 -19.5t-64.5 -5.5h-532q10 -42 32.5 -75.5t52.5 -56.5t65.5 -35.5t71.5 -12.5zM778 594q-7 35 -26 66t-47 53.5t-63 35.5t-74 13q-35 0 -68.5 -11.5t-61.5 -33t-48 -52.5t-28 -71h416z
M737 1216q-19 -42 -53 -42h-152q-20 0 -26.5 7t-6.5 21q2 7 3 15.5t8 20.5l88 205q12 22 23.5 32t30.5 10h159q26 0 26 -22q0 -8 -1 -17t-8 -20z" />
    <glyph glyph-name="ecircumflex" unicode="&#xea;" horiz-adv-x="1096" 
d="M577 215q43 0 90.5 15.5t90.5 47.5l24.5 14t23.5 6q11 0 21 -5t19 -18l74 -101q13 -17 13 -35q0 -16 -10 -30t-25 -25q-31 -24 -69 -43t-80 -32.5t-85 -20.5t-85 -7q-102 0 -191 39.5t-156 108t-105.5 161t-38.5 199.5q0 103 36.5 195.5t101 162t152 110t189.5 40.5
q96 0 180.5 -36.5t148.5 -99.5t101 -149t37 -185v-6q0 -38 -9 -62.5t-27.5 -38.5t-46 -19.5t-64.5 -5.5h-532q10 -42 32.5 -75.5t52.5 -56.5t65.5 -35.5t71.5 -12.5zM778 594q-7 35 -26 66t-47 53.5t-63 35.5t-74 13q-35 0 -68.5 -11.5t-61.5 -33t-48 -52.5t-28 -71h416z
M551 1549q7 5 11 6.5t11 1.5q8 0 20 -8l268 -269q5 -3 7 -9t2 -13q0 -11 -9 -20l-92 -94q-14 -11 -27 -11q-5 0 -11 2.5t-11 6.5l-147 151l-150 -151q-6 -4 -12 -5.5t-10 -1.5q-6 0 -12 2t-10 7l-94 92q-9 6 -9 22q0 7 2 13t7 9z" />
    <glyph glyph-name="edieresis" unicode="&#xeb;" horiz-adv-x="1096" 
d="M577 215q43 0 90.5 15.5t90.5 47.5l24.5 14t23.5 6q11 0 21 -5t19 -18l74 -101q13 -17 13 -35q0 -16 -10 -30t-25 -25q-31 -24 -69 -43t-80 -32.5t-85 -20.5t-85 -7q-102 0 -191 39.5t-156 108t-105.5 161t-38.5 199.5q0 103 36.5 195.5t101 162t152 110t189.5 40.5
q96 0 180.5 -36.5t148.5 -99.5t101 -149t37 -185v-6q0 -38 -9 -62.5t-27.5 -38.5t-46 -19.5t-64.5 -5.5h-532q10 -42 32.5 -75.5t52.5 -56.5t65.5 -35.5t71.5 -12.5zM778 594q-7 35 -26 66t-47 53.5t-63 35.5t-74 13q-35 0 -68.5 -11.5t-61.5 -33t-48 -52.5t-28 -71h416z
M288 1267q0 30 11 55.5t30.5 45t45 30.5t54.5 11q30 0 56 -11t45 -30.5t30 -45t11 -55.5q0 -29 -11 -54.5t-30 -45t-45 -30.5t-56 -11q-29 0 -54.5 11t-45 30.5t-30.5 45t-11 54.5zM694 1269q0 30 11 56t30 45.5t45 30.5t55 11q30 0 56 -11t45 -30.5t30 -45.5t11 -56
q0 -29 -11 -54.5t-30 -44.5t-45 -30t-56 -11q-29 0 -55 11t-45 30t-30 44.5t-11 54.5z" />
    <glyph glyph-name="igrave" unicode="&#xec;" horiz-adv-x="565" 
d="M421 55q0 -26 -15.5 -40.5t-42.5 -14.5h-165q-55 0 -55 55v872q0 23 14.5 39.5t40.5 16.5h165q20 0 39 -16t19 -40v-872zM76 1426q-8 17 -10.5 26t-2.5 14q0 12 8.5 15.5t21.5 3.5h150q19 0 30.5 -10t23.5 -32l88 -205q6 -15 7.5 -22t3.5 -14q0 -14 -6.5 -21t-26.5 -7
h-143q-34 0 -53 42z" />
    <glyph glyph-name="iacute" unicode="&#xed;" horiz-adv-x="565" 
d="M421 55q0 -26 -15.5 -40.5t-42.5 -14.5h-165q-55 0 -55 55v872q0 23 14.5 39.5t40.5 16.5h165q20 0 39 -16t19 -40v-872zM471 1216q-19 -42 -53 -42h-152q-20 0 -26.5 7t-6.5 21q2 7 3 15.5t8 20.5l88 205q12 22 23.5 32t30.5 10h159q26 0 26 -22q0 -8 -1 -17t-8 -20z
" />
    <glyph glyph-name="icircumflex" unicode="&#xee;" horiz-adv-x="565" 
d="M421 55q0 -26 -15.5 -40.5t-42.5 -14.5h-165q-55 0 -55 55v872q0 23 14.5 39.5t40.5 16.5h165q20 0 39 -16t19 -40v-872zM235 1549q7 5 11 6.5t11 1.5q8 0 20 -8l268 -269q5 -3 7 -9t2 -13q0 -11 -9 -20l-92 -94q-14 -11 -27 -11q-5 0 -11 2.5t-11 6.5l-147 151
l-150 -151q-6 -4 -12 -5.5t-10 -1.5q-6 0 -12 2t-10 7l-94 92q-9 6 -9 22q0 7 2 13t7 9z" />
    <glyph glyph-name="idieresis" unicode="&#xef;" horiz-adv-x="565" 
d="M421 55q0 -26 -15.5 -40.5t-42.5 -14.5h-165q-55 0 -55 55v872q0 23 14.5 39.5t40.5 16.5h165q20 0 39 -16t19 -40v-872zM-38 1267q0 30 11 55.5t30.5 45t45 30.5t54.5 11q30 0 56 -11t45 -30.5t30 -45t11 -55.5q0 -29 -11 -54.5t-30 -45t-45 -30.5t-56 -11
q-29 0 -54.5 11t-45 30.5t-30.5 45t-11 54.5zM368 1269q0 30 11 56t30 45.5t45 30.5t55 11q30 0 56 -11t45 -30.5t30 -45.5t11 -56q0 -29 -11 -54.5t-30 -44.5t-45 -30t-56 -11q-29 0 -55 11t-45 30t-30 44.5t-11 54.5z" />
    <glyph glyph-name="eth" unicode="&#xf0;" horiz-adv-x="1148" 
d="M954 1444q10 10 25.5 19t25.5 9q7 0 14.5 -4t12.5 -12q7 -12 19.5 -27.5t24.5 -31.5t20.5 -30.5t8.5 -23.5q0 -5 -3.5 -15t-5.5 -13l-26 -23l-83 -66q34 -65 55.5 -135t33.5 -144t16.5 -152.5t4.5 -161.5v-40t-1 -40q-6 -121 -43.5 -224.5t-103 -179.5t-158 -119.5
t-208.5 -43.5q-105 0 -196 38.5t-158.5 105t-106.5 156t-39 191.5q0 103 39.5 192.5t107.5 156t159 104.5t195 38q66 0 130.5 -25t114.5 -69q-2 45 -16.5 94t-34.5 91l-64 -50q-8 -5 -18.5 -8t-15.5 -3q-8 0 -17 5.5t-16 13.5l-13 16q-10 13 -21 26.5t-20 26.5t-15 24t-6 19
q0 15 20.5 32.5t43.5 35.5l10 8q2 0 10 6q-15 8 -33.5 17.5t-40.5 9.5q-17 0 -27.5 -6t-19.5 -11l-18 -11h1q-13 -9 -19.5 -14t-22.5 -5q-7 0 -14.5 4.5t-18.5 21.5l-67 106q-16 24 -16 40q0 14 11.5 28.5t40.5 34.5q48 33 89.5 44t88.5 11q33 0 71 -7.5t76 -21t72.5 -32.5
t60.5 -42zM808 481q0 48 -17 90t-46.5 73.5t-70 50t-88.5 18.5t-88.5 -18.5t-70.5 -50t-47 -73.5t-17 -90t17 -90t47 -73t70.5 -48.5t88.5 -17.5t88.5 17.5t70 48.5t46.5 73t17 90z" />
    <glyph glyph-name="ntilde" unicode="&#xf1;" horiz-adv-x="1164" 
d="M331 982q30 0 45 -10t22.5 -27.5t11 -40.5t10.5 -49q23 26 53 51t66.5 44.5t79.5 31.5t92 12q93 0 165.5 -29.5t122 -82t75.5 -125t26 -158.5v-540q0 -28 -17 -43.5t-41 -15.5h-164q-32 0 -44 14.5t-12 42.5v496q0 40 -13.5 73.5t-38 56.5t-57.5 36t-72 13
q-32 0 -65.5 -13.5t-61.5 -37t-48 -55t-26 -67.5v-504q0 -55 -59 -55h-161q-29 0 -43.5 15.5t-14.5 39.5v867q0 29 15 44.5t46 15.5h108v0zM355 1155q-6 -2 -10 -2q-3 0 -7 2q-5 3 -20.5 15t-32 27t-29.5 30t-13 24q0 4 4 10.5t9 13.5l20 26q39 51 89 76t108 25
q34 -2 70 -14.5t68 -33.5l55 -36q27 -18 52 -18q42 0 70 29q5 6 11.5 14.5t13.5 17t14.5 14.5t16.5 6q8 0 19 -8l74 -71q10 -11 10 -23q0 -5 -3.5 -12t-5.5 -9l-28 -35q-39 -45 -87 -68.5t-105 -23.5q-36 0 -71.5 12.5t-66.5 34.5q-13 9 -26.5 18.5t-28 17.5t-28.5 13.5
t-28 5.5q-27 0 -42 -10.5t-26 -24t-21 -26.5t-25 -17z" />
    <glyph glyph-name="ograve" unicode="&#xf2;" horiz-adv-x="1220" 
d="M88 488q0 106 39.5 198.5t108 160t160.5 106.5t198 39q105 0 196.5 -39t160 -106.5t108 -160t39.5 -198.5t-39.5 -198.5t-108 -160.5t-160 -107.5t-196.5 -39.5q-106 0 -198 39.5t-160.5 107.5t-108 160.5t-39.5 198.5zM369 488q0 -51 15.5 -95t44.5 -77t70.5 -51.5
t92.5 -18.5q50 0 90.5 18.5t68.5 51.5t43 77t15 95q0 49 -15 93.5t-43 78.5t-68.5 53.5t-90.5 19.5q-51 0 -92.5 -19.5t-70.5 -53.5t-44.5 -78.5t-15.5 -93.5zM406 1426q-8 17 -10.5 26t-2.5 14q0 12 8.5 15.5t21.5 3.5h150q19 0 30.5 -10t23.5 -32l88 -205q6 -15 7.5 -22
t3.5 -14q0 -14 -6.5 -21t-26.5 -7h-143q-34 0 -53 42z" />
    <glyph glyph-name="oacute" unicode="&#xf3;" horiz-adv-x="1220" 
d="M88 488q0 106 39.5 198.5t108 160t160.5 106.5t198 39q105 0 196.5 -39t160 -106.5t108 -160t39.5 -198.5t-39.5 -198.5t-108 -160.5t-160 -107.5t-196.5 -39.5q-106 0 -198 39.5t-160.5 107.5t-108 160.5t-39.5 198.5zM369 488q0 -51 15.5 -95t44.5 -77t70.5 -51.5
t92.5 -18.5q50 0 90.5 18.5t68.5 51.5t43 77t15 95q0 49 -15 93.5t-43 78.5t-68.5 53.5t-90.5 19.5q-51 0 -92.5 -19.5t-70.5 -53.5t-44.5 -78.5t-15.5 -93.5zM735 1216q-19 -42 -53 -42h-152q-20 0 -26.5 7t-6.5 21q2 7 3 15.5t8 20.5l88 205q12 22 23.5 32t30.5 10h159
q26 0 26 -22q0 -8 -1 -17t-8 -20z" />
    <glyph glyph-name="ocircumflex" unicode="&#xf4;" horiz-adv-x="1220" 
d="M88 488q0 106 39.5 198.5t108 160t160.5 106.5t198 39q105 0 196.5 -39t160 -106.5t108 -160t39.5 -198.5t-39.5 -198.5t-108 -160.5t-160 -107.5t-196.5 -39.5q-106 0 -198 39.5t-160.5 107.5t-108 160.5t-39.5 198.5zM369 488q0 -51 15.5 -95t44.5 -77t70.5 -51.5
t92.5 -18.5q50 0 90.5 18.5t68.5 51.5t43 77t15 95q0 49 -15 93.5t-43 78.5t-68.5 53.5t-90.5 19.5q-51 0 -92.5 -19.5t-70.5 -53.5t-44.5 -78.5t-15.5 -93.5zM572 1549q7 5 11 6.5t11 1.5q8 0 20 -8l268 -269q5 -3 7 -9t2 -13q0 -11 -9 -20l-92 -94q-14 -11 -27 -11
q-5 0 -11 2.5t-11 6.5l-147 151l-150 -151q-6 -4 -12 -5.5t-10 -1.5q-6 0 -12 2t-10 7l-94 92q-9 6 -9 22q0 7 2 13t7 9z" />
    <glyph glyph-name="otilde" unicode="&#xf5;" horiz-adv-x="1220" 
d="M88 488q0 106 39.5 198.5t108 160t160.5 106.5t198 39q105 0 196.5 -39t160 -106.5t108 -160t39.5 -198.5t-39.5 -198.5t-108 -160.5t-160 -107.5t-196.5 -39.5q-106 0 -198 39.5t-160.5 107.5t-108 160.5t-39.5 198.5zM369 488q0 -51 15.5 -95t44.5 -77t70.5 -51.5
t92.5 -18.5q50 0 90.5 18.5t68.5 51.5t43 77t15 95q0 49 -15 93.5t-43 78.5t-68.5 53.5t-90.5 19.5q-51 0 -92.5 -19.5t-70.5 -53.5t-44.5 -78.5t-15.5 -93.5zM388 1158q-6 -2 -10 -2q-3 0 -7 2q-5 3 -20.5 15t-32 27t-29.5 30t-13 24q0 4 4 10.5t9 13.5l20 26q39 51 89 76
t108 25q34 -2 70 -14.5t68 -33.5l55 -36q27 -18 52 -18q42 0 70 29q5 6 11.5 14.5t13.5 17t14.5 14.5t16.5 6q8 0 19 -8l74 -71q10 -11 10 -23q0 -5 -3.5 -12t-5.5 -9l-28 -35q-39 -45 -87 -68.5t-105 -23.5q-36 0 -71.5 12.5t-66.5 34.5q-13 9 -26.5 18.5t-28 17.5
t-28.5 13.5t-28 5.5q-27 0 -42 -10.5t-26 -24t-21 -26.5t-25 -17z" />
    <glyph glyph-name="odieresis" unicode="&#xf6;" horiz-adv-x="1220" 
d="M88 488q0 106 39.5 198.5t108 160t160.5 106.5t198 39q105 0 196.5 -39t160 -106.5t108 -160t39.5 -198.5t-39.5 -198.5t-108 -160.5t-160 -107.5t-196.5 -39.5q-106 0 -198 39.5t-160.5 107.5t-108 160.5t-39.5 198.5zM369 488q0 -51 15.5 -95t44.5 -77t70.5 -51.5
t92.5 -18.5q50 0 90.5 18.5t68.5 51.5t43 77t15 95q0 49 -15 93.5t-43 78.5t-68.5 53.5t-90.5 19.5q-51 0 -92.5 -19.5t-70.5 -53.5t-44.5 -78.5t-15.5 -93.5zM281 1267q0 30 11 55.5t30.5 45t45 30.5t54.5 11q30 0 56 -11t45 -30.5t30 -45t11 -55.5q0 -29 -11 -54.5
t-30 -45t-45 -30.5t-56 -11q-29 0 -54.5 11t-45 30.5t-30.5 45t-11 54.5zM687 1269q0 30 11 56t30 45.5t45 30.5t55 11q30 0 56 -11t45 -30.5t30 -45.5t11 -56q0 -29 -11 -54.5t-30 -44.5t-45 -30t-56 -11q-29 0 -55 11t-45 30t-30 44.5t-11 54.5z" />
    <glyph glyph-name="divide" unicode="&#xf7;" horiz-adv-x="902" 
d="M315 928q0 31 11.5 58t32 47.5t47.5 32.5t58 12q33 0 60.5 -12t47.5 -32.5t31 -47.5t11 -58q0 -32 -11 -59t-31 -47t-47.5 -31.5t-60.5 -11.5q-31 0 -58 11.5t-47.5 31.5t-32 47t-11.5 59zM309 118q0 31 12 58.5t32 48t47.5 32t57.5 11.5q33 0 60.5 -11.5t47.5 -32
t31 -48t11 -58.5t-11 -58t-31 -47.5t-47.5 -32t-60.5 -11.5q-30 0 -57.5 11.5t-47.5 32t-32 47.5t-12 58zM145 391q-57 0 -57 55v157q0 55 57 55h633q23 0 38.5 -15.5t15.5 -39.5v-157q0 -24 -15.5 -39.5t-38.5 -15.5h-633z" />
    <glyph glyph-name="oslash" unicode="&#xf8;" horiz-adv-x="1220" 
d="M190 -103l84 196q-86 69 -136 171.5t-50 223.5q0 106 39.5 198.5t108 160t160.5 106.5t198 39q17 0 33 -1t33 -3l44 102q9 20 24 31.5t40 11.5h156q22 0 34.5 -7.5t12.5 -25.5q0 -5 -1.5 -12.5t-2.5 -9.5l-78 -180q48 -34 86.5 -78.5t65.5 -96.5t42 -111.5t15 -123.5
q0 -106 -39.5 -198.5t-108 -160.5t-160 -107.5t-196.5 -39.5q-50 0 -96 9q-12 -27 -23.5 -53t-22.5 -51q-10 -20 -21 -29.5t-31 -9.5h-173q-40 0 -40 29q0 4 2 9l1 9v2zM369 488q0 -51 15.5 -95t44.5 -77t70.5 -51.5t92.5 -18.5q50 0 90.5 18.5t68.5 51.5t43 77t15 95
q0 49 -15 93.5t-43 78.5t-68.5 53.5t-90.5 19.5q-51 0 -92.5 -19.5t-70.5 -53.5t-44.5 -78.5t-15.5 -93.5z" />
    <glyph glyph-name="ugrave" unicode="&#xf9;" horiz-adv-x="1136" 
d="M869 0q-30 0 -46.5 12t-26 31.5t-14.5 44.5t-12 51q-23 -26 -50 -53t-60 -49t-72.5 -35.5t-88.5 -13.5q-93 0 -164 29.5t-118.5 82t-72 125t-24.5 158.5v540q0 28 17 43.5t41 15.5h164q32 0 44 -14.5t12 -42.5v-496q0 -41 12 -74t34.5 -56t54.5 -36t71 -13q32 0 66 12.5
t61.5 35.5t45 55t17.5 70v504q0 55 59 55h161q29 0 43.5 -15.5t14.5 -39.5v-867q0 -29 -15 -44.5t-46 -15.5h-108v0zM444 1426q-8 17 -10.5 26t-2.5 14q0 12 8.5 15.5t21.5 3.5h150q19 0 30.5 -10t23.5 -32l88 -205q6 -15 7.5 -22t3.5 -14q0 -14 -6.5 -21t-26.5 -7h-143
q-34 0 -53 42z" />
    <glyph glyph-name="uacute" unicode="&#xfa;" horiz-adv-x="1136" 
d="M869 0q-30 0 -46.5 12t-26 31.5t-14.5 44.5t-12 51q-23 -26 -50 -53t-60 -49t-72.5 -35.5t-88.5 -13.5q-93 0 -164 29.5t-118.5 82t-72 125t-24.5 158.5v540q0 28 17 43.5t41 15.5h164q32 0 44 -14.5t12 -42.5v-496q0 -41 12 -74t34.5 -56t54.5 -36t71 -13q32 0 66 12.5
t61.5 35.5t45 55t17.5 70v504q0 55 59 55h161q29 0 43.5 -15.5t14.5 -39.5v-867q0 -29 -15 -44.5t-46 -15.5h-108v0zM694 1216q-19 -42 -53 -42h-152q-20 0 -26.5 7t-6.5 21q2 7 3 15.5t8 20.5l88 205q12 22 23.5 32t30.5 10h159q26 0 26 -22q0 -8 -1 -17t-8 -20z" />
    <glyph glyph-name="ucircumflex" unicode="&#xfb;" horiz-adv-x="1136" 
d="M869 0q-30 0 -46.5 12t-26 31.5t-14.5 44.5t-12 51q-23 -26 -50 -53t-60 -49t-72.5 -35.5t-88.5 -13.5q-93 0 -164 29.5t-118.5 82t-72 125t-24.5 158.5v540q0 28 17 43.5t41 15.5h164q32 0 44 -14.5t12 -42.5v-496q0 -41 12 -74t34.5 -56t54.5 -36t71 -13q32 0 66 12.5
t61.5 35.5t45 55t17.5 70v504q0 55 59 55h161q29 0 43.5 -15.5t14.5 -39.5v-867q0 -29 -15 -44.5t-46 -15.5h-108v0zM546 1549q7 5 11 6.5t11 1.5q8 0 20 -8l268 -269q5 -3 7 -9t2 -13q0 -11 -9 -20l-92 -94q-14 -11 -27 -11q-5 0 -11 2.5t-11 6.5l-147 151l-150 -151
q-6 -4 -12 -5.5t-10 -1.5q-6 0 -12 2t-10 7l-94 92q-9 6 -9 22q0 7 2 13t7 9z" />
    <glyph glyph-name="udieresis" unicode="&#xfc;" horiz-adv-x="1136" 
d="M869 0q-30 0 -46.5 12t-26 31.5t-14.5 44.5t-12 51q-23 -26 -50 -53t-60 -49t-72.5 -35.5t-88.5 -13.5q-93 0 -164 29.5t-118.5 82t-72 125t-24.5 158.5v540q0 28 17 43.5t41 15.5h164q32 0 44 -14.5t12 -42.5v-496q0 -41 12 -74t34.5 -56t54.5 -36t71 -13q32 0 66 12.5
t61.5 35.5t45 55t17.5 70v504q0 55 59 55h161q29 0 43.5 -15.5t14.5 -39.5v-867q0 -29 -15 -44.5t-46 -15.5h-108v0zM246 1267q0 30 11 55.5t30.5 45t45 30.5t54.5 11q30 0 56 -11t45 -30.5t30 -45t11 -55.5q0 -29 -11 -54.5t-30 -45t-45 -30.5t-56 -11q-29 0 -54.5 11
t-45 30.5t-30.5 45t-11 54.5zM652 1269q0 30 11 56t30 45.5t45 30.5t55 11q30 0 56 -11t45 -30.5t30 -45.5t11 -56q0 -29 -11 -54.5t-30 -44.5t-45 -30t-56 -11q-29 0 -55 11t-45 30t-30 44.5t-11 54.5z" />
    <glyph glyph-name="yacute" unicode="&#xfd;" horiz-adv-x="1048" 
d="M585 -341q-9 -15 -26.5 -30t-37.5 -15h-162q-23 0 -39 9t-16 33q0 15 4 27l120 327l-364 893h1q-6 11 -7.5 20t-1.5 14q0 44 54 44h175q26 0 42 -13.5t21 -33.5v1l76 -198q37 -104 71.5 -197.5t71.5 -189.5l215 587q16 44 66 44h173q31 0 43.5 -13.5t12.5 -35.5
q0 -5 -2 -13.5t-7 -22.5zM684 1216q-19 -42 -53 -42h-152q-20 0 -26.5 7t-6.5 21q2 7 3 15.5t8 20.5l88 205q12 22 23.5 32t30.5 10h159q26 0 26 -22q0 -8 -1 -17t-8 -20z" />
    <glyph glyph-name="thorn" unicode="&#xfe;" horiz-adv-x="1182" 
d="M440 901q39 42 88 61l-1 -1q30 19 64.5 30t82.5 11q91 0 169 -35.5t138.5 -95.5t100.5 -139.5t54 -167.5q8 -35 8 -73q0 -106 -35 -198t-98 -160.5t-149 -108t-188 -39.5q-50 0 -84.5 10.5t-63.5 28.5l1 -1q-53 19 -86 58v-401q0 -26 -16.5 -42.5t-45.5 -16.5h-152
q-26 0 -45.5 16.5t-19.5 42.5v1697q0 26 17.5 41t40.5 15h164q26 0 41 -15t15 -41v-476zM647 742q-43 0 -80.5 -19t-66.5 -51t-48 -74t-25 -87v-30q6 -45 25 -87.5t48 -75.5t66.5 -53t80.5 -20q47 0 86.5 19.5t68.5 53t45 79t16 97.5t-16 97t-45 78.5t-68.5 53t-86.5 19.5z
" />
    <glyph glyph-name="ydieresis" unicode="&#xff;" horiz-adv-x="1048" 
d="M585 -341q-9 -15 -26.5 -30t-37.5 -15h-162q-23 0 -39 9t-16 33q0 15 4 27l120 327l-364 893h1q-6 11 -7.5 20t-1.5 14q0 44 54 44h175q26 0 42 -13.5t21 -33.5v1l76 -198q37 -104 71.5 -197.5t71.5 -189.5l215 587q16 44 66 44h173q31 0 43.5 -13.5t12.5 -35.5
q0 -5 -2 -13.5t-7 -22.5zM223 1267q0 30 11 55.5t30.5 45t45 30.5t54.5 11q30 0 56 -11t45 -30.5t30 -45t11 -55.5q0 -29 -11 -54.5t-30 -45t-45 -30.5t-56 -11q-29 0 -54.5 11t-45 30.5t-30.5 45t-11 54.5zM629 1269q0 30 11 56t30 45.5t45 30.5t55 11q30 0 56 -11
t45 -30.5t30 -45.5t11 -56q0 -29 -11 -54.5t-30 -44.5t-45 -30t-56 -11q-29 0 -55 11t-45 30t-30 44.5t-11 54.5z" />
    <glyph glyph-name="Amacron" unicode="&#x100;" horiz-adv-x="1470" 
d="M638 1452q7 14 19 23.5t39 9.5h116q22 0 34 -9.5t19 -23.5l595 -1406v-6q0 -15 -10 -27.5t-45 -12.5h-192q-19 0 -28.5 6.5t-15.5 24.5l-99 233h-634l-99 -233q-9 -31 -37 -31h-208q-25 0 -34.5 9.5t-9.5 27.5q0 2 150 355t440 1060zM541 537h424l-211 517zM358 1841
q0 35 35 35h725q36 0 36 -35v-100q0 -12 -9 -26t-27 -14h-725q-35 0 -35 40v100z" />
    <glyph glyph-name="amacron" unicode="&#x101;" horiz-adv-x="1188" 
d="M824 61q-1 9 -1.5 15t-1.5 10.5t-2 10.5t-2 15q-18 -26 -39.5 -49.5t-50.5 -41.5t-67.5 -29t-90.5 -11h-5q-107 0 -195.5 39t-153 107t-100 161t-35.5 200q0 109 35.5 202t99 161t152.5 107t197 39q52 0 93.5 -12t73.5 -32.5t56.5 -47t43.5 -56.5q2 18 6 36t7 36
q4 18 8 30t11 18.5t18 9.5t28 3h106q26 0 45.5 -17t19.5 -45v-862q0 -27 -19.5 -42.5t-45.5 -15.5h-127q-18 0 -29 4.5t-18 13t-10.5 19.5t-6.5 24zM355 486q0 -52 16 -97t45.5 -78.5t71.5 -52.5t93 -19q52 0 94.5 18.5t72 51.5t45.5 78t16 98q0 51 -15.5 97t-45 80.5
t-71.5 54.5t-96 20q-52 0 -93.5 -20t-71 -54t-45.5 -80t-16 -97zM236 1337q0 35 35 35h725q36 0 36 -35v-100q0 -12 -9 -26t-27 -14h-725q-35 0 -35 40v100z" />
    <glyph glyph-name="Abreve" unicode="&#x102;" horiz-adv-x="1470" 
d="M638 1452q7 14 19 23.5t39 9.5h116q22 0 34 -9.5t19 -23.5l595 -1406v-6q0 -15 -10 -27.5t-45 -12.5h-192q-19 0 -28.5 6.5t-15.5 24.5l-99 233h-634l-99 -233q-9 -31 -37 -31h-208q-25 0 -34.5 9.5t-9.5 27.5q0 2 150 355t440 1060zM541 537h424l-211 517zM765 1703
q-59 1 -109 22.5t-87 56.5t-58 79.5t-21 92.5q0 17 11.5 27t26.5 10h144q11 0 17 -6.5t6 -15.5q0 -23 18 -41.5t56 -18.5q34 0 52.5 19t18.5 41q0 9 5 15.5t16 6.5h146q15 0 26.5 -10t11.5 -27q0 -49 -21.5 -94t-59.5 -79.5t-89 -55.5t-110 -22z" />
    <glyph glyph-name="abreve" unicode="&#x103;" horiz-adv-x="1188" 
d="M824 61q-1 9 -1.5 15t-1.5 10.5t-2 10.5t-2 15q-18 -26 -39.5 -49.5t-50.5 -41.5t-67.5 -29t-90.5 -11h-5q-107 0 -195.5 39t-153 107t-100 161t-35.5 200q0 109 35.5 202t99 161t152.5 107t197 39q52 0 93.5 -12t73.5 -32.5t56.5 -47t43.5 -56.5q2 18 6 36t7 36
q4 18 8 30t11 18.5t18 9.5t28 3h106q26 0 45.5 -17t19.5 -45v-862q0 -27 -19.5 -42.5t-45.5 -15.5h-127q-18 0 -29 4.5t-18 13t-10.5 19.5t-6.5 24zM355 486q0 -52 16 -97t45.5 -78.5t71.5 -52.5t93 -19q52 0 94.5 18.5t72 51.5t45.5 78t16 98q0 51 -15.5 97t-45 80.5
t-71.5 54.5t-96 20q-52 0 -93.5 -20t-71 -54t-45.5 -80t-16 -97zM576 1199q-59 1 -109 22.5t-87 56.5t-58 79.5t-21 92.5q0 17 11.5 27t26.5 10h144q11 0 17 -6.5t6 -15.5q0 -23 18 -41.5t56 -18.5q34 0 52.5 19t18.5 41q0 9 5 15.5t16 6.5h146q15 0 26.5 -10t11.5 -27
q0 -49 -21.5 -94t-59.5 -79.5t-89 -55.5t-110 -22z" />
    <glyph glyph-name="Aogonek" unicode="&#x104;" horiz-adv-x="1470" 
d="M638 1452q7 14 19 23.5t39 9.5h116q22 0 34 -9.5t19 -23.5l595 -1406v-6q0 -15 -10 -27.5t-45 -12.5h-192q-19 0 -28.5 6.5t-15.5 24.5l-99 233h-634l-99 -233q-9 -31 -37 -31h-208q-25 0 -34.5 9.5t-9.5 27.5q0 2 150 355t440 1060zM541 537h424l-211 517zM1344 -529
q-93 28 -151.5 58t-91.5 62.5t-45.5 66t-12.5 69.5q0 37 16.5 65.5t41.5 51.5t54.5 42.5t54.5 39t41.5 41t16.5 47.5h168v-42q0 -30 -15.5 -53.5t-39 -43.5t-50.5 -37t-50.5 -34t-39 -35.5t-15.5 -40.5q0 -15 9 -28.5t29.5 -26.5t54 -25.5t82.5 -25.5l10 -3q2 -1 4 -2.5
t4 -3.5l2 -3q4 -5 4 -18q0 -10 -4.5 -28.5t-12.5 -37t-19.5 -34t-25.5 -18.5q-2 -2 -5 -2t-5 -1h-4h-5z" />
    <glyph glyph-name="aogonek" unicode="&#x105;" horiz-adv-x="1188" 
d="M824 61q-1 9 -1.5 15t-1.5 10.5t-2 10.5t-2 15q-18 -26 -39.5 -49.5t-50.5 -41.5t-67.5 -29t-90.5 -11h-5q-107 0 -195.5 39t-153 107t-100 161t-35.5 200q0 109 35.5 202t99 161t152.5 107t197 39q52 0 93.5 -12t73.5 -32.5t56.5 -47t43.5 -56.5q2 18 6 36t7 36
q4 18 8 30t11 18.5t18 9.5t28 3h106q26 0 45.5 -17t19.5 -45v-862q0 -27 -19.5 -42.5t-45.5 -15.5h-127q-18 0 -29 4.5t-18 13t-10.5 19.5t-6.5 24zM355 486q0 -52 16 -97t45.5 -78.5t71.5 -52.5t93 -19q52 0 94.5 18.5t72 51.5t45.5 78t16 98q0 51 -15.5 97t-45 80.5
t-71.5 54.5t-96 20q-52 0 -93.5 -20t-71 -54t-45.5 -80t-16 -97zM989 -511q-93 28 -151.5 58t-91.5 62.5t-45.5 66t-12.5 69.5q0 37 16.5 65.5t41.5 51.5t54.5 42.5t54.5 39t41.5 41t16.5 47.5h168v-42q0 -30 -15.5 -53.5t-39 -43.5t-50.5 -37t-50.5 -34t-39 -35.5
t-15.5 -40.5q0 -15 9 -28.5t29.5 -26.5t54 -25.5t82.5 -25.5l10 -3q2 -1 4 -2.5t4 -3.5l2 -3q4 -5 4 -18q0 -10 -4.5 -28.5t-12.5 -37t-19.5 -34t-25.5 -18.5q-2 -2 -5 -2t-5 -1h-4h-5z" />
    <glyph glyph-name="Cacute" unicode="&#x106;" horiz-adv-x="1410" 
d="M1279 1377q17 -10 25 -26t-3 -38l-97 -165q-15 -20 -30 -23t-36 10q-62 45 -134.5 70t-153.5 25q-102 0 -187 -38.5t-147 -104.5t-96.5 -155t-34.5 -191q0 -101 34.5 -189.5t96.5 -154.5t147 -104t187 -38q81 0 155 25t135 70q22 13 36.5 11t29.5 -22l99 -167
q11 -22 3 -37t-25 -25q-93 -63 -202.5 -97.5t-228.5 -34.5q-106 0 -203.5 27t-182.5 77t-154.5 119.5t-119.5 154t-77 182t-27 203.5t27 203.5t77 183t119.5 155.5t154.5 119.5t182.5 77t203.5 27.5q119 0 226 -33.5t201 -96.5zM1023 1718q-19 -42 -53 -42h-152
q-20 0 -26.5 7t-6.5 21q2 7 3 15.5t8 20.5l88 205q12 22 23.5 32t30.5 10h159q26 0 26 -22q0 -8 -1 -17t-8 -20z" />
    <glyph glyph-name="cacute" unicode="&#x107;" horiz-adv-x="1022" 
d="M745 298q21 15 37 15q25 0 48 -34l81 -125q9 -13 9 -27q0 -16 -10.5 -28t-22.5 -20q-65 -43 -139.5 -70t-157.5 -27q-104 0 -195.5 39.5t-159.5 107.5t-107.5 160.5t-39.5 198.5t39.5 198.5t107.5 160t159.5 106.5t195.5 39q83 0 155 -22.5t133 -65.5q15 -8 25 -21.5
t10 -33.5q0 -7 -2 -14.5t-7 -13.5l-69 -117q-22 -38 -53 -38q-16 0 -39 16q-33 23 -71.5 37t-83.5 14q-49 0 -89.5 -19.5t-69.5 -53.5t-45 -78.5t-16 -93.5q0 -51 16 -95t45 -77t69.5 -51.5t89.5 -18.5q88 0 157 52zM684 1216q-19 -42 -53 -42h-152q-20 0 -26.5 7t-6.5 21
q2 7 3 15.5t8 20.5l88 205q12 22 23.5 32t30.5 10h159q26 0 26 -22q0 -8 -1 -17t-8 -20z" />
    <glyph glyph-name="Ccircumflex" unicode="&#x108;" horiz-adv-x="1410" 
d="M1279 1377q17 -10 25 -26t-3 -38l-97 -165q-15 -20 -30 -23t-36 10q-62 45 -134.5 70t-153.5 25q-102 0 -187 -38.5t-147 -104.5t-96.5 -155t-34.5 -191q0 -101 34.5 -189.5t96.5 -154.5t147 -104t187 -38q81 0 155 25t135 70q22 13 36.5 11t29.5 -22l99 -167
q11 -22 3 -37t-25 -25q-93 -63 -202.5 -97.5t-228.5 -34.5q-106 0 -203.5 27t-182.5 77t-154.5 119.5t-119.5 154t-77 182t-27 203.5t27 203.5t77 183t119.5 155.5t154.5 119.5t182.5 77t203.5 27.5q119 0 226 -33.5t201 -96.5zM801 2051q7 5 11 6.5t11 1.5q8 0 20 -8
l268 -269q5 -3 7 -9t2 -13q0 -11 -9 -20l-92 -94q-14 -11 -27 -11q-5 0 -11 2.5t-11 6.5l-147 151l-150 -151q-6 -4 -12 -5.5t-10 -1.5q-6 0 -12 2t-10 7l-94 92q-9 6 -9 22q0 7 2 13t7 9z" />
    <glyph glyph-name="ccircumflex" unicode="&#x109;" horiz-adv-x="1022" 
d="M745 298q21 15 37 15q25 0 48 -34l81 -125q9 -13 9 -27q0 -16 -10.5 -28t-22.5 -20q-65 -43 -139.5 -70t-157.5 -27q-104 0 -195.5 39.5t-159.5 107.5t-107.5 160.5t-39.5 198.5t39.5 198.5t107.5 160t159.5 106.5t195.5 39q83 0 155 -22.5t133 -65.5q15 -8 25 -21.5
t10 -33.5q0 -7 -2 -14.5t-7 -13.5l-69 -117q-22 -38 -53 -38q-16 0 -39 16q-33 23 -71.5 37t-83.5 14q-49 0 -89.5 -19.5t-69.5 -53.5t-45 -78.5t-16 -93.5q0 -51 16 -95t45 -77t69.5 -51.5t89.5 -18.5q88 0 157 52zM525 1453q7 5 11 6.5t11 1.5q8 0 20 -8l268 -269
q5 -3 7 -9t2 -13q0 -11 -9 -20l-92 -94q-14 -11 -27 -11q-5 0 -11 2.5t-11 6.5l-147 151l-150 -151q-6 -4 -12 -5.5t-10 -1.5q-6 0 -12 2t-10 7l-94 92q-9 6 -9 22q0 7 2 13t7 9z" />
    <glyph glyph-name="Cdotaccent" unicode="&#x10a;" horiz-adv-x="1410" 
d="M1279 1377q17 -10 25 -26t-3 -38l-97 -165q-15 -20 -30 -23t-36 10q-62 45 -134.5 70t-153.5 25q-102 0 -187 -38.5t-147 -104.5t-96.5 -155t-34.5 -191q0 -101 34.5 -189.5t96.5 -154.5t147 -104t187 -38q81 0 155 25t135 70q22 13 36.5 11t29.5 -22l99 -167
q11 -22 3 -37t-25 -25q-93 -63 -202.5 -97.5t-228.5 -34.5q-106 0 -203.5 27t-182.5 77t-154.5 119.5t-119.5 154t-77 182t-27 203.5t27 203.5t77 183t119.5 155.5t154.5 119.5t182.5 77t203.5 27.5q119 0 226 -33.5t201 -96.5zM711 1771q0 29 11 55t30.5 45.5t45 30.5
t54.5 11q30 0 56 -11t45 -30.5t30 -45.5t11 -55t-11 -55t-30 -45t-45 -30t-56 -11q-29 0 -54.5 11t-45 30t-30.5 45t-11 55z" />
    <glyph glyph-name="cdotaccent" unicode="&#x10b;" horiz-adv-x="1022" 
d="M745 298q21 15 37 15q25 0 48 -34l81 -125q9 -13 9 -27q0 -16 -10.5 -28t-22.5 -20q-65 -43 -139.5 -70t-157.5 -27q-104 0 -195.5 39.5t-159.5 107.5t-107.5 160.5t-39.5 198.5t39.5 198.5t107.5 160t159.5 106.5t195.5 39q83 0 155 -22.5t133 -65.5q15 -8 25 -21.5
t10 -33.5q0 -7 -2 -14.5t-7 -13.5l-69 -117q-22 -38 -53 -38q-16 0 -39 16q-33 23 -71.5 37t-83.5 14q-49 0 -89.5 -19.5t-69.5 -53.5t-45 -78.5t-16 -93.5q0 -51 16 -95t45 -77t69.5 -51.5t89.5 -18.5q88 0 157 52zM363 1311q0 34 13 63.5t34.5 51.5t51 34.5t62.5 12.5
q34 0 64 -12.5t51.5 -34.5t34 -51.5t12.5 -63.5q0 -33 -12.5 -62.5t-34 -51t-51.5 -34.5t-64 -13q-33 0 -62.5 13t-51 34.5t-34.5 51t-13 62.5z" />
    <glyph glyph-name="Ccaron" unicode="&#x10c;" horiz-adv-x="1410" 
d="M1279 1377q17 -10 25 -26t-3 -38l-97 -165q-15 -20 -30 -23t-36 10q-62 45 -134.5 70t-153.5 25q-102 0 -187 -38.5t-147 -104.5t-96.5 -155t-34.5 -191q0 -101 34.5 -189.5t96.5 -154.5t147 -104t187 -38q81 0 155 25t135 70q22 13 36.5 11t29.5 -22l99 -167
q11 -22 3 -37t-25 -25q-93 -63 -202.5 -97.5t-228.5 -34.5q-106 0 -203.5 27t-182.5 77t-154.5 119.5t-119.5 154t-77 182t-27 203.5t27 203.5t77 183t119.5 155.5t154.5 119.5t182.5 77t203.5 27.5q119 0 226 -33.5t201 -96.5zM537 1889q-5 3 -7 9t-2 13q0 16 9 22l94 92
q6 9 22 9q9 0 22 -7l150 -151l147 151q5 4 11 6.5t11 2.5q13 0 27 -11l92 -94q9 -9 9 -20q0 -7 -2 -13t-7 -9l-268 -269q-12 -8 -20 -8q-7 0 -11 1.5t-11 6.5z" />
    <glyph glyph-name="ccaron" unicode="&#x10d;" horiz-adv-x="1022" 
d="M745 298q21 15 37 15q25 0 48 -34l81 -125q9 -13 9 -27q0 -16 -10.5 -28t-22.5 -20q-65 -43 -139.5 -70t-157.5 -27q-104 0 -195.5 39.5t-159.5 107.5t-107.5 160.5t-39.5 198.5t39.5 198.5t107.5 160t159.5 106.5t195.5 39q83 0 155 -22.5t133 -65.5q15 -8 25 -21.5
t10 -33.5q0 -7 -2 -14.5t-7 -13.5l-69 -117q-22 -38 -53 -38q-16 0 -39 16q-33 23 -71.5 37t-83.5 14q-49 0 -89.5 -19.5t-69.5 -53.5t-45 -78.5t-16 -93.5q0 -51 16 -95t45 -77t69.5 -51.5t89.5 -18.5q88 0 157 52zM221 1387q-5 3 -7 9t-2 13q0 16 9 22l94 92q6 9 22 9
q9 0 22 -7l150 -151l147 151q5 4 11 6.5t11 2.5q13 0 27 -11l92 -94q9 -9 9 -20q0 -7 -2 -13t-7 -9l-268 -269q-12 -8 -20 -8q-7 0 -11 1.5t-11 6.5z" />
    <glyph glyph-name="Dcaron" unicode="&#x10e;" horiz-adv-x="1490" 
d="M1433 741q0 -106 -27 -201.5t-77 -178t-119.5 -149.5t-154 -114t-182.5 -72.5t-203 -25.5h-460q-8 0 -16 1t-15.5 5t-12 12t-4.5 22v1397q0 50 48 50h460q105 -1 202.5 -27t182 -74t154.5 -115t119.5 -150t77 -179t27.5 -201zM457 1216v-943h191q100 0 188.5 34.5
t154.5 96.5t104.5 148t38.5 189t-38.5 190t-104.5 150t-154.5 98.5t-188.5 36.5h-191zM395 1891q-5 3 -7 9t-2 13q0 16 9 22l94 92q6 9 22 9q9 0 22 -7l150 -151l147 151q5 4 11 6.5t11 2.5q13 0 27 -11l92 -94q9 -9 9 -20q0 -7 -2 -13t-7 -9l-268 -269q-12 -8 -20 -8
q-7 0 -11 1.5t-11 6.5z" />
    </font>
</defs>
</svg>
