<svg width="39" height="22" viewBox="0 0 39 22" fill="none" xmlns="http://www.w3.org/2000/svg">
<path fill-rule="evenodd" clip-rule="evenodd" d="M20.0195 1.24719C20.0537 1.31729 20.1665 1.33309 20.235 1.33449C20.6575 1.34279 21.1763 1.19469 21.5605 1.01799C21.6721 0.966689 21.9156 0.840889 21.9754 0.720289C21.989 0.692789 21.983 0.684089 21.9861 0.660689C21.8821 0.507289 21.5504 0.11649 21.4147 8.99761e-05C21.4079 -0.00571002 20.1852 0.269989 20.1324 0.510789C20.1258 0.540989 20.1148 0.56869 20.11 0.59879L20.06 0.874389C20.0508 0.940889 20.0094 1.19549 20.0195 1.24719V1.24719Z" fill="#2B2A29"/>
<path fill-rule="evenodd" clip-rule="evenodd" d="M22.127 2.30657C22.088 2.12677 22.1176 1.99598 22.1816 1.87638C22.2445 1.75918 22.3105 1.59297 22.4222 1.53827C22.5157 1.73647 22.6104 1.80417 22.4902 2.02087C22.4233 2.14167 22.3034 2.26677 22.127 2.30657ZM22.0222 0.594675C22.059 0.651075 22.107 0.700275 22.1447 0.755075C22.2537 0.913575 21.9428 1.09667 21.8335 1.15957C21.4398 1.38617 20.8221 1.56477 20.3727 1.56797C20.2861 1.56857 20.1291 1.55768 20.0551 1.50988C19.9768 1.45938 19.994 1.41467 19.9984 1.34927C20.0017 1.30117 20.0039 1.23637 20.0109 1.19307C19.8864 1.25517 19.6516 1.48257 19.6338 1.64787C19.6295 1.68757 19.6342 1.72347 19.6469 1.75587C19.5065 1.83057 19.3701 1.90127 19.2416 1.97647C18.921 2.16407 18.8813 2.20308 18.4648 2.25768L17.444 2.38037C17.337 1.67137 16.626 1.72238 16.171 2.13348C15.8144 2.45577 15.6456 2.93857 15.4736 3.47957C15.397 3.72047 15.3125 4.01287 15.2466 4.26647C15.1462 4.65287 15.1121 4.69748 15.2662 5.11118C15.4958 5.72808 15.7407 6.19607 15.3279 6.69597L15.3405 6.80038C15.3983 6.87008 15.701 7.64447 15.7608 7.79627C15.8776 8.09287 15.8146 8.09568 16.1728 8.04798C16.3809 8.02018 16.6512 8.00797 16.8172 7.93977C16.8435 7.79627 16.7176 7.50507 16.5812 7.40587C16.3559 7.24217 16.3216 7.61398 16.1594 7.02778C16.5955 6.75368 17.0869 5.84817 17.2519 5.33457L19.7494 5.83768C19.6974 6.16098 19.5614 6.42697 19.715 6.76887C19.7708 6.89307 19.854 7.04497 19.9165 7.16657C19.9694 7.26967 20.0452 7.48278 20.1509 7.53538C20.2996 7.59938 21.0596 7.47787 21.1995 7.40177C21.2155 7.21947 21.1189 7.13227 21.0348 7.00747C20.8654 6.75597 20.8685 6.88387 20.7248 6.82607C20.5518 6.75647 20.726 6.36597 20.8252 6.07847C20.9126 5.82467 20.9668 5.50997 21.1174 5.34347L21.6227 4.74707C21.8853 4.46237 22.0314 4.19697 22.0859 3.90197C22.1216 3.70877 22.0274 3.48707 21.9743 3.20147C21.9559 3.00907 22.2325 2.63167 22.2664 2.55957C22.3002 2.48777 22.3358 2.51218 22.4079 2.48238C22.5719 2.41488 22.7479 2.14998 22.7899 1.97618C22.8809 1.59988 22.6896 1.46038 22.4042 1.27388C22.4166 1.26298 22.4288 1.25207 22.4406 1.24097C22.5782 1.11177 22.7341 0.897775 22.5478 0.732175C22.4378 0.634375 22.1309 0.576775 22.0222 0.594675V0.594675ZM19.8437 1.92167C20.0236 1.99027 20.3024 2.00288 20.6175 1.96738C20.724 2.12668 20.8616 2.24397 21.1109 2.16427C21.2635 2.11537 21.3336 1.97317 21.3571 1.81097C21.6184 1.73057 21.8732 1.62448 22.0915 1.49628C21.9347 1.83878 21.8318 1.78817 21.8562 2.35467C21.6242 2.34397 21.5449 2.23938 21.4041 2.38638C21.4268 2.62938 21.7205 2.62367 21.9545 2.60787C21.9567 2.71527 21.7292 2.94128 21.7019 3.11478C21.658 3.39268 21.8579 3.67937 21.8274 3.87347C21.7668 4.25767 21.5728 4.52947 21.2455 4.77227C21.2718 4.61207 21.3449 4.57008 21.2516 4.44368C21.0669 4.36028 21.0405 4.49338 21.0013 4.64238L20.6713 5.70037C20.27 6.86737 20.3225 6.65348 20.5467 7.10278C20.7564 7.14248 20.7539 7.02947 20.8446 7.22237L20.2737 7.28367C20.1036 6.97357 19.8506 6.61757 19.9349 6.24717C19.9791 6.05427 20.1798 5.32197 20.0902 5.14537C19.8428 5.07027 19.8347 5.39827 19.8199 5.58177L17.3174 5.06647C17.3254 4.80947 17.3788 4.50187 17.2729 4.26657L17.0776 4.29527C17.0302 4.51157 17.0964 4.85727 17.0182 5.17597C16.8326 5.93267 16.4024 6.44838 15.8631 6.95798C15.8866 7.14028 16.0465 7.52218 16.1531 7.62308C16.3843 7.71748 16.3667 7.50278 16.4803 7.74568L16.0485 7.79707C15.5347 6.55827 15.5866 6.98437 15.7696 6.41197C15.9416 5.87417 15.6375 5.39817 15.4637 4.89977C15.3307 4.51847 15.9121 2.72888 16.3406 2.33108C16.5479 2.13858 16.9674 1.94578 17.1457 2.27228C17.3632 2.67048 16.782 2.84347 16.5218 2.75147C16.7596 2.62817 17.1994 2.62097 17.035 2.24677C16.7867 2.20617 16.9055 2.27927 16.744 2.39177C16.6531 2.45507 16.5143 2.46248 16.4025 2.51118C16.1703 2.61248 16.1953 2.93708 16.4025 3.01128C16.5595 3.06738 17.0274 3.00077 17.172 2.91937C17.5061 2.73147 17.1592 2.67958 17.7506 2.60978C18.3473 2.53928 18.8082 2.53558 19.276 2.25978C19.4599 2.15128 19.6521 2.03447 19.8437 1.92167V1.92167ZM20.847 1.92368C20.8803 1.91658 21.0917 1.87767 21.1252 1.86967C21.0988 1.98857 20.978 2.04728 20.847 1.92368Z" fill="#2B2A29"/>
<path fill-rule="evenodd" clip-rule="evenodd" d="M22.3856 1.42459C22.2811 1.43259 22.2068 1.51929 22.2196 1.61809C22.2324 1.71689 22.3276 1.79039 22.4321 1.78239C22.5367 1.77429 22.611 1.68759 22.5981 1.58879C22.5853 1.49009 22.4901 1.41649 22.3856 1.42459Z" fill="#2B2A29"/>
<path fill-rule="evenodd" clip-rule="evenodd" d="M0.0213013 15.1477L37.9887 10.661V15.0994L0.0213013 19.5861V15.1477V15.1477ZM4.4622 15.7105V15.7037L3.6553 15.799V15.8059C3.7438 15.8537 3.8119 16.0205 3.8119 16.2947V16.9599C3.7369 16.9824 3.662 16.9947 3.611 17.0008C3.2228 17.0466 3.0492 16.8991 3.0492 16.57V16.3849C3.0492 16.1037 3.1241 15.9269 3.2058 15.859V15.8521L2.4023 15.9471V15.9539C2.4875 16.0021 2.5828 16.1554 2.5828 16.44V16.5737C2.5828 17.1257 2.8041 17.4423 3.4782 17.3627C3.5599 17.353 3.6961 17.3301 3.8119 17.2958V17.649C3.8119 17.9301 3.7131 18.1098 3.628 18.1781V18.1849L4.4622 18.0863V18.0795C4.3736 18.0317 4.2783 17.8784 4.2783 17.5938V16.2396C4.2783 15.9585 4.377 15.7788 4.4622 15.7105V15.7105ZM8.5669 16.9431C8.4205 17.1695 8.1822 17.3108 7.8825 17.3462L7.5114 17.3901V16.6187L7.8247 16.5817C8.0153 16.5591 8.1379 16.6064 8.1958 16.7538L8.2026 16.753L8.3013 16.1654C8.1481 16.2041 8.0528 16.2188 7.7702 16.2521L7.5114 16.2827V15.6793L7.9609 15.6262C8.2264 15.5948 8.4136 15.6584 8.4954 15.8167L8.5022 15.8125L8.4443 15.2057C8.3694 15.2317 8.2196 15.2597 8.0834 15.2757L6.8612 15.4202V15.427C6.9497 15.4749 7.045 15.6281 7.045 15.9127V17.2669C7.045 17.548 6.9462 17.7277 6.8612 17.796V17.8029L8.063 17.6609C8.2639 17.6371 8.3524 17.6335 8.4783 17.6392L8.5737 16.9457L8.5669 16.9431ZM11.8306 14.8329L10.9011 14.9428V14.9496C10.9897 14.9974 11.085 15.1507 11.085 15.4215V16.7895C11.085 17.0706 10.9862 17.2503 10.9011 17.3186V17.3255L11.7353 17.2269V17.22C11.6467 17.1722 11.5514 17.0189 11.5514 16.7481V16.4635L11.8306 16.4305C12.3719 16.3666 12.6886 16.0652 12.6886 15.5063C12.6886 15.0127 12.3719 14.769 11.8306 14.8329V14.8329ZM11.7523 16.1004L11.5514 16.1207V15.2053L11.7523 15.1816C12.0621 15.145 12.2051 15.2721 12.2051 15.5875C12.2051 15.8823 12.0655 16.0668 11.7523 16.1004V16.1004ZM16.9329 14.2368V14.23L16.126 14.3253V14.3322C16.2145 14.38 16.2826 14.5468 16.2826 14.8211V15.4862C16.2077 15.5087 16.1328 15.521 16.0818 15.5271C15.6936 15.5729 15.52 15.4254 15.52 15.0963V14.9112C15.52 14.6301 15.5949 14.4532 15.6766 14.3853V14.3784L14.8731 14.4734V14.4803C14.9582 14.5285 15.0535 14.6817 15.0535 14.9663V15.1C15.0535 15.652 15.2748 15.9687 15.9489 15.889C16.0307 15.8794 16.1669 15.8564 16.2826 15.8222V16.1753C16.2826 16.4564 16.1839 16.6361 16.0988 16.7044V16.7112L16.9329 16.6127V16.6058C16.8444 16.558 16.7491 16.4047 16.7491 16.1201V14.7659C16.7491 14.4848 16.8478 14.3052 16.9329 14.2368V14.2368ZM19.3421 16.328L20.0196 16.2479C20.057 16.151 20.1217 16.0199 20.1899 15.9021L20.704 15.0049C20.8333 14.7804 20.9525 14.523 21.0478 14.234L21.0615 14.2323C20.9968 14.5246 20.9661 14.7922 20.9661 15.0047V15.6218C20.9661 15.9029 20.8674 16.0826 20.7823 16.151V16.1578L21.6198 16.0588V16.052C21.5313 16.0042 21.4359 15.8509 21.4359 15.5663V14.195C21.4359 13.9756 21.5585 13.7314 21.6368 13.681V13.6741L20.8844 13.7631C20.8776 13.8324 20.8572 13.9068 20.7448 14.1087L20.2545 14.986C20.1626 15.1511 20.0264 15.4072 19.9243 15.7141L19.9107 15.7157C19.9651 15.4041 19.9856 15.1823 19.9856 14.9869V14.3835C19.9856 14.1024 20.0843 13.9227 20.1626 13.8552V13.8483L19.3319 13.9465V13.9534C19.4204 14.0012 19.5157 14.1545 19.5157 14.439V15.7932C19.5157 16.0743 19.4204 16.2536 19.3421 16.3212V16.328V16.328ZM23.7651 15.8053L24.5176 15.7164V15.7096C24.4699 15.674 24.4495 15.5393 24.5243 15.2871L24.7593 14.4914C24.8308 14.2464 24.9023 14.0048 24.933 13.7612L24.9466 13.7595C24.984 13.9951 25.0521 14.2202 25.1236 14.4483L25.3585 15.1885C25.4334 15.423 25.413 15.5592 25.3653 15.6094V15.6162L26.1518 15.5233V15.5164C26.0565 15.4454 25.9067 15.2609 25.8182 15.0005L25.3687 13.6857C25.3006 13.488 25.3245 13.3206 25.413 13.2348V13.2279L24.4835 13.3377V13.3446C24.5755 13.416 24.6095 13.5834 24.5414 13.7971L24.0988 15.2037C24.0103 15.485 23.8605 15.7049 23.7651 15.7985V15.8053V15.8053ZM28.1661 15.2852L28.9185 15.1963V15.1895C28.8708 15.1539 28.8504 15.0192 28.9253 14.767L29.1602 13.9713C29.2318 13.7263 29.3032 13.4847 29.3339 13.2411L29.3475 13.2395C29.385 13.475 29.453 13.7001 29.5245 13.9282L29.7594 14.6684C29.8344 14.9029 29.814 15.0391 29.7663 15.0893V15.0961L30.5527 15.0032V14.9963C30.4574 14.9253 30.3076 14.7408 30.2191 14.4804L29.7696 13.1656C29.7016 12.9679 29.7254 12.8005 29.814 12.7147V12.7078L28.8844 12.8176V12.8245C28.9764 12.8959 29.0104 13.0633 28.9423 13.2771L28.4997 14.6836C28.4112 14.9649 28.2614 15.1848 28.1661 15.2784V15.2852V15.2852ZM33.6616 13.0691L33.3416 13.1069V12.8052C33.3416 12.5241 33.4403 12.3444 33.5254 12.2761V12.2692L32.6913 12.3678V12.3747C32.7798 12.4225 32.8751 12.5758 32.8751 12.8466V14.2145C32.8751 14.4956 32.7764 14.6753 32.6913 14.7437V14.7505L33.6922 14.6322C34.1383 14.5795 34.5094 14.258 34.5094 13.7197C34.5094 13.2329 34.1587 13.0104 33.6616 13.0691V13.0691ZM33.539 14.3075L33.3416 14.3308V13.4463L33.539 13.423C33.8693 13.384 34.0225 13.5064 34.0225 13.8047C34.0225 14.0926 33.8693 14.2685 33.539 14.3075V14.3075Z" fill="#2B2A29"/>
<path fill-rule="evenodd" clip-rule="evenodd" d="M0.0213013 14.4335L4.0635 13.9631V11.6234L0.0213013 14.4335Z" fill="#2B2A29"/>
<path fill-rule="evenodd" clip-rule="evenodd" d="M37.9887 15.8406L33.9466 16.311V18.6507L37.9887 15.8406Z" fill="#2B2A29"/>
<path d="M0 14.6021L37.9673 10.1155L38.0101 10.4773L0.0427002 14.9639L0 14.6021Z" fill="#2B2A29"/>
<path d="M0 19.7855L37.9673 15.2989L38.0101 15.6607L0.0427002 20.1474L0 19.7855Z" fill="#2B2A29"/>
<path d="M12.6747 12.0711C12.6747 12.0874 12.6717 12.0986 12.6663 12.1054C12.6609 12.113 12.6493 12.1175 12.6317 12.1196L12.5355 12.1309C12.5086 12.1341 12.4847 12.1276 12.4648 12.1114C12.4448 12.0952 12.4347 12.0731 12.4347 12.046V10.8695L12.1578 10.9022V12.0764C12.1578 12.1051 12.1471 12.1304 12.1263 12.1514C12.1056 12.1725 12.0809 12.1846 12.054 12.1878L11.9571 12.1993C11.9394 12.2014 11.9271 12.1997 11.9217 12.1934C11.9163 12.1878 11.9132 12.1766 11.9132 12.1588V9.5082C11.9132 9.4904 11.9163 9.47839 11.9217 9.47159C11.9271 9.46399 11.9394 9.45939 11.9571 9.45729L12.054 9.44589C12.0863 9.44209 12.1117 9.4484 12.1301 9.4655C12.1486 9.4827 12.1578 9.50789 12.1578 9.53969V10.6977L12.4347 10.665V9.49999C12.4347 9.47139 12.4455 9.44609 12.4663 9.42509C12.4871 9.40399 12.5109 9.39189 12.5378 9.38869L12.634 9.37729C12.6517 9.37519 12.6624 9.37709 12.6678 9.38339C12.6725 9.38899 12.6747 9.4004 12.6747 9.4182V12.0711V12.0711ZM15.0363 9.39009C15.0363 9.34669 15.044 9.30399 15.0593 9.26189C15.0747 9.21979 15.0978 9.18069 15.1301 9.14589C15.1624 9.11029 15.2024 9.07999 15.2509 9.05489C15.2985 9.02989 15.3555 9.01389 15.4216 9.00599C15.4878 8.99819 15.5447 9.00079 15.5939 9.01439C15.6432 9.02789 15.6832 9.04869 15.7139 9.07689C15.7455 9.10409 15.7686 9.13779 15.7839 9.17619C15.7993 9.21469 15.807 9.25559 15.807 9.29899V11.4476C15.807 11.4848 15.8001 11.5244 15.7862 11.5663C15.7732 11.6081 15.7501 11.6473 15.7193 11.6842C15.6878 11.7204 15.6478 11.7523 15.5986 11.779C15.5493 11.8057 15.4909 11.8235 15.4216 11.8317C15.3524 11.8398 15.294 11.8359 15.2447 11.8208C15.1955 11.8057 15.1555 11.7841 15.1255 11.7551C15.0947 11.727 15.0724 11.6932 15.0578 11.6547C15.0432 11.6161 15.0363 11.5775 15.0363 11.5387V9.39009ZM15.2809 11.5044C15.2809 11.5377 15.2917 11.5659 15.3132 11.5889C15.3347 11.6111 15.3724 11.6191 15.4255 11.6128C15.4763 11.6068 15.5132 11.59 15.5347 11.5627C15.5562 11.5346 15.567 11.5039 15.567 11.4706V9.3328C15.567 9.2995 15.5555 9.27139 15.5332 9.24849C15.5109 9.22629 15.474 9.21829 15.4224 9.22439C15.3701 9.23059 15.3332 9.24809 15.3124 9.27609C15.2917 9.30409 15.2809 9.33479 15.2809 9.36659V11.5044ZM18.2147 11.4598C18.197 11.4619 18.1855 11.4601 18.1801 11.4538C18.1747 11.4483 18.1716 11.4362 18.1716 11.4192V8.75929C18.1716 8.74149 18.1747 8.72959 18.1801 8.72269C18.1855 8.71509 18.197 8.71069 18.2147 8.70859L18.5585 8.6679C18.6316 8.6593 18.6931 8.66289 18.7424 8.67869C18.7908 8.69469 18.8293 8.71799 18.8585 8.74869C18.887 8.77939 18.9077 8.8141 18.9201 8.8529C18.9316 8.8918 18.9377 8.92899 18.9377 8.96389V9.65399C18.9377 9.72449 18.9316 9.78869 18.9201 9.84589C18.9077 9.90309 18.8778 9.94849 18.8301 9.98359C18.8539 9.99549 18.8731 10.0126 18.887 10.0365C18.9016 10.0595 18.9123 10.0854 18.9201 10.1147C18.927 10.144 18.9316 10.1745 18.9339 10.2068C18.9362 10.2382 18.9377 10.2691 18.9377 10.2977V11.0351C18.9377 11.0691 18.9316 11.1063 18.9201 11.1471C18.9077 11.1881 18.887 11.2278 18.857 11.2654C18.8277 11.3022 18.7877 11.3355 18.737 11.364C18.687 11.3924 18.6231 11.4115 18.5462 11.4206L18.2147 11.4598V11.4598ZM18.4162 10.1393V11.2191L18.5547 11.2027C18.6055 11.1967 18.6424 11.1792 18.6647 11.151C18.687 11.1221 18.6977 11.0921 18.6977 11.0596V10.3261C18.6977 10.3036 18.6962 10.2798 18.6939 10.2545C18.6916 10.2284 18.6862 10.2058 18.6777 10.1844C18.6685 10.1638 18.6562 10.1474 18.6393 10.1347C18.6224 10.1219 18.5993 10.1177 18.5685 10.1214L18.4162 10.1393V10.1393ZM18.4162 8.89929V9.93019L18.5685 9.91219C18.5993 9.90859 18.6224 9.89889 18.6393 9.88219C18.6562 9.86539 18.6685 9.84619 18.6777 9.82339C18.6862 9.79989 18.6916 9.77609 18.6939 9.74949C18.6962 9.72369 18.6977 9.69939 18.6977 9.67699V8.99149C18.6977 8.95969 18.687 8.93159 18.6647 8.90859C18.6424 8.88489 18.6055 8.8769 18.5547 8.8829L18.4162 8.89929V8.89929ZM22.493 10.8938C22.493 10.9341 22.4738 10.9565 22.4346 10.9612L22.3069 10.9762C22.2676 10.9809 22.2484 10.963 22.2484 10.9227V8.3403C22.2484 8.3117 22.2592 8.2864 22.28 8.2654C22.3007 8.2443 22.3253 8.23209 22.3523 8.22889L22.4492 8.21739C22.4669 8.21539 22.4792 8.21699 22.4846 8.22179C22.49 8.22659 22.493 8.2378 22.493 8.2557V10.8938ZM21.4477 8.3358C21.4746 8.3326 21.4992 8.33899 21.52 8.35509C21.5407 8.37129 21.5515 8.39399 21.5515 8.42269V9.2855L21.69 9.26919C21.81 9.25499 21.9038 9.27569 21.9715 9.33199C22.0392 9.38749 22.073 9.4648 22.073 9.5632V10.6646C22.073 10.763 22.04 10.8482 21.973 10.9196C21.9069 10.9918 21.8138 11.0345 21.6938 11.0487L21.35 11.0893C21.3323 11.0914 21.3208 11.0897 21.3154 11.0833C21.31 11.0778 21.3069 11.0665 21.3069 11.0487V8.3982C21.3069 8.3803 21.31 8.36829 21.3154 8.36149C21.3208 8.35389 21.3331 8.34929 21.3508 8.34729L21.4477 8.3358V8.3358ZM21.69 10.8315C21.7408 10.8255 21.7777 10.8079 21.8 10.7798C21.8223 10.7508 21.833 10.7209 21.833 10.6883V9.58919C21.833 9.55899 21.823 9.5315 21.8031 9.5083C21.7831 9.4852 21.75 9.47589 21.7038 9.48139L21.5515 9.49929V10.8479L21.69 10.8315V10.8315ZM24.8561 7.97639C24.8561 7.96019 24.8592 7.94889 24.8638 7.94219C24.8684 7.93469 24.8799 7.9302 24.8969 7.9282L24.9938 7.91679C25.0222 7.91339 25.0476 7.9197 25.0692 7.9357C25.0907 7.9518 25.0999 7.97469 25.0968 8.00369L25.0607 9.76009L25.3538 8.07719C25.3668 8.00979 25.383 7.9575 25.403 7.9203C25.423 7.8831 25.4484 7.86299 25.4792 7.85939L25.5753 7.848C25.5946 7.8458 25.6061 7.84749 25.6115 7.85389C25.6161 7.85949 25.6184 7.87009 25.6184 7.88639V10.5416C25.6184 10.5555 25.6153 10.5675 25.6099 10.5751C25.6045 10.5827 25.593 10.5879 25.5753 10.59L25.4815 10.6011C25.4507 10.6047 25.4253 10.5992 25.4045 10.5839C25.3838 10.5685 25.3738 10.5441 25.3753 10.5122L25.4138 8.7478L25.1161 10.4553C25.1115 10.4806 25.1061 10.5045 25.1007 10.5276C25.0945 10.5508 25.0869 10.5718 25.0776 10.5907C25.0676 10.6097 25.0561 10.625 25.043 10.6374C25.0292 10.6491 25.0115 10.6566 24.9907 10.6591L24.9 10.6698C24.8822 10.6719 24.8707 10.6694 24.8646 10.6632C24.8592 10.6568 24.8561 10.6456 24.8561 10.6316V7.97639V7.97639ZM25.513 7.1258C25.513 7.3287 25.4907 7.47929 25.4476 7.57659C25.4045 7.67379 25.3307 7.7282 25.2269 7.7405C25.1176 7.7534 25.0438 7.71569 25.0045 7.62739C24.9653 7.53979 24.9453 7.3943 24.9453 7.1929C24.9453 7.1844 24.9476 7.17709 24.9523 7.16959C24.9577 7.16199 24.9645 7.15799 24.9745 7.15689L25.0392 7.14919C25.0522 7.14769 25.0653 7.1508 25.0784 7.1577C25.0923 7.1654 25.1007 7.17989 25.1038 7.20199C25.1122 7.34039 25.1246 7.44279 25.1422 7.50889C25.1599 7.57489 25.1884 7.60559 25.2269 7.60109C25.2907 7.59349 25.3322 7.4523 25.3515 7.1782C25.3546 7.153 25.363 7.13499 25.3769 7.12409C25.3907 7.11229 25.4045 7.10609 25.4192 7.10429L25.4838 7.09669C25.4915 7.09579 25.4984 7.098 25.5045 7.1028C25.5099 7.1083 25.513 7.1157 25.513 7.1258V7.1258Z" fill="#2B2A29"/>
<path d="M6.65781 20.2868L6.17841 20.3437V21.1769L6.24641 21.1688V20.4009L6.58971 20.3602V21.1281L6.65781 21.12V20.2868V20.2868ZM7.66941 20.1493C7.57921 20.16 7.50341 20.212 7.46221 20.2918L7.45431 20.1923L7.39731 20.1991V21.3191L7.46381 21.3112V20.9336C7.50801 20.9984 7.58561 21.0274 7.66471 21.018C7.81341 21.0004 7.91311 20.8819 7.91311 20.6987V20.4151C7.91311 20.2271 7.80861 20.1328 7.66941 20.1493ZM7.84511 20.7068C7.84511 20.8549 7.77071 20.9418 7.65041 20.956C7.54131 20.969 7.46381 20.8842 7.46381 20.7584V20.478C7.46381 20.3187 7.55391 20.2267 7.65521 20.2147C7.76911 20.2012 7.84511 20.2703 7.84511 20.4232V20.7068ZM8.86791 20.0071C8.71911 20.0247 8.62431 20.1284 8.61631 20.2631L8.68591 20.2549C8.68911 20.1589 8.76031 20.0852 8.86631 20.0726C8.97861 20.0593 9.04031 20.1237 9.04031 20.2511V20.3563L8.86951 20.3765C8.69071 20.3977 8.59101 20.4987 8.59101 20.6548C8.59101 20.8157 8.69231 20.8961 8.83781 20.8789C8.93751 20.867 9.00551 20.8144 9.04191 20.748L9.04821 20.8364L9.10831 20.8293V20.2414C9.10831 20.0774 9.01811 19.9893 8.86791 20.0071V20.0071ZM8.84731 20.8108C8.73501 20.8242 8.66061 20.7677 8.66061 20.6482C8.66061 20.5303 8.73181 20.4565 8.86791 20.4404L9.04031 20.42V20.5952C9.04031 20.7131 8.97071 20.7962 8.84731 20.8108V20.8108ZM10.2024 20.255C10.2689 20.2073 10.3068 20.1375 10.3068 20.069C10.3068 19.9383 10.2182 19.8661 10.0664 19.8841L9.84801 19.91V20.7416L10.0838 20.7136C10.2546 20.6933 10.3479 20.5963 10.3479 20.4465C10.3479 20.3525 10.291 20.278 10.2024 20.255V20.255ZM9.91601 19.9672L10.0648 19.9496C10.1771 19.9362 10.2372 19.9865 10.2372 20.0773C10.2372 20.1649 10.1708 20.2349 10.0726 20.2465L9.91601 20.2651V19.9672ZM10.0822 20.6485L9.91601 20.6682V20.3304L10.0869 20.3101C10.2087 20.2957 10.2783 20.3512 10.2783 20.4547C10.2783 20.5646 10.2119 20.6331 10.0822 20.6485V20.6485ZM11.0339 20.6009L11.1019 20.5928L11.3883 19.9964C11.4137 19.9425 11.4437 19.8768 11.4595 19.8351L11.4626 19.8363C11.4595 19.8956 11.458 19.9691 11.458 20.0424V20.5506L11.526 20.5425V19.7093L11.4548 19.7177L11.1621 20.3324C11.1431 20.3744 11.1147 20.4352 11.1019 20.4685L11.0988 20.4673C11.1019 20.4176 11.1019 20.3506 11.1019 20.2965V19.7596L11.0339 19.7677V20.6009V20.6009ZM12.1675 20.476C12.2941 20.461 12.3432 20.3309 12.359 20.1315C12.3669 20.0382 12.3747 19.8699 12.3795 19.6734L12.6516 19.6411V20.409L12.7196 20.4009V19.5677L12.3115 19.6161C12.3083 19.8332 12.3021 19.9885 12.2909 20.1284C12.2783 20.2828 12.2514 20.3991 12.1675 20.409V20.476V20.476ZM13.6871 19.7557L13.5257 19.7748V19.4721L13.4577 19.4802V20.3134L13.6871 20.2862C13.8375 20.2683 13.9482 20.1421 13.9482 19.9892C13.9482 19.8362 13.8375 19.7378 13.6871 19.7557V19.7557ZM13.6871 20.2193L13.5257 20.2384V19.8417L13.6871 19.8226C13.801 19.809 13.8802 19.881 13.8802 19.9973C13.8802 20.1151 13.801 20.2057 13.6871 20.2193V20.2193ZM15.0153 19.2955V19.6619L14.672 19.7026V19.3362L14.604 19.3443V20.1775L14.672 20.1694V19.7679L15.0153 19.7272V20.1287L15.0834 20.1206V19.2874L15.0153 19.2955ZM16.0586 19.1542C15.9098 19.1718 15.815 19.2755 15.807 19.4102L15.8766 19.402C15.8798 19.306 15.951 19.2323 16.057 19.2197C16.1693 19.2064 16.231 19.2708 16.231 19.3982V19.5034L16.0602 19.5236C15.8814 19.5448 15.7817 19.6458 15.7817 19.8019C15.7817 19.9628 15.883 20.0432 16.0285 20.026C16.1282 20.0141 16.1962 19.9615 16.2326 19.8951L16.2389 19.9835L16.299 19.9764V19.3885C16.299 19.2245 16.2088 19.1364 16.0586 19.1542V19.1542ZM16.038 19.9579C15.9257 19.9713 15.8513 19.9148 15.8513 19.7953C15.8513 19.6774 15.9225 19.6036 16.0586 19.5875L16.231 19.5671V19.7423C16.231 19.8602 16.1614 19.9433 16.038 19.9579V19.9579ZM17.235 19.0322C17.0815 19.0504 16.9819 19.1689 16.9819 19.3187C16.9819 19.4509 17.0531 19.5445 17.1607 19.5508L16.9534 19.8988L17.0341 19.8892L17.235 19.5452L17.3853 19.5274V19.8476L17.4533 19.8395V19.0063L17.235 19.0322V19.0322ZM17.3853 19.4637L17.2239 19.4828C17.1148 19.4958 17.0499 19.4269 17.0499 19.3106C17.0499 19.1959 17.1196 19.1128 17.235 19.0991L17.3853 19.0813V19.4637V19.4637ZM18.8004 18.829C18.6516 18.8466 18.5568 18.9503 18.5488 19.085L18.6184 19.0768C18.6216 18.9808 18.6928 18.9071 18.7988 18.8945C18.9111 18.8812 18.9728 18.9456 18.9728 19.073V19.1782L18.802 19.1984C18.6232 19.2196 18.5235 19.3206 18.5235 19.4767C18.5235 19.6376 18.6248 19.718 18.7703 19.7008C18.87 19.6889 18.938 19.6363 18.9744 19.5699L18.9807 19.6583L19.0408 19.6512V19.0633C19.0408 18.8993 18.9506 18.8112 18.8004 18.829V18.829ZM18.7798 19.6327C18.6675 19.6461 18.5931 19.5896 18.5931 19.4701C18.5931 19.3522 18.6643 19.2784 18.8004 19.2623L18.9728 19.2419V19.4171C18.9728 19.535 18.9032 19.6181 18.7798 19.6327V19.6327ZM19.6841 19.5845C19.8107 19.5695 19.8598 19.4394 19.8756 19.24C19.8835 19.1467 19.8913 18.9784 19.8961 18.7819L20.1682 18.7496V19.5175L20.2362 19.5094V18.6762L19.8281 18.7246C19.8249 18.9417 19.8187 19.097 19.8075 19.2369C19.7949 19.3913 19.768 19.5076 19.6841 19.5175V19.5845V19.5845ZM21.2036 18.8641L21.0422 18.8832V18.5805L20.9742 18.5886V19.4218L21.2036 19.3946C21.354 19.3767 21.4647 19.2505 21.4647 19.0976C21.4647 18.9446 21.354 18.8462 21.2036 18.8641V18.8641ZM21.2036 19.3277L21.0422 19.3468V18.9501L21.2036 18.931C21.3175 18.9174 21.3967 18.9894 21.3967 19.1057C21.3967 19.2235 21.3175 19.3141 21.2036 19.3277V19.3277ZM22.4464 18.414L21.9623 18.4714V18.5351L22.1696 18.5105V19.28L22.2376 19.2719V18.5024L22.4464 18.4777V18.414V18.414ZM23.4992 18.8722C23.4866 19.0011 23.4233 19.0803 23.2952 19.0955C23.1781 19.1094 23.1069 19.0414 23.1069 18.9028V18.7865L23.5562 18.7332V18.5468C23.5562 18.3699 23.4534 18.277 23.2952 18.2958C23.1386 18.3144 23.0389 18.4313 23.0389 18.6082V18.9109C23.0389 19.0861 23.137 19.1812 23.2936 19.1626C23.4613 19.1427 23.5547 19.0313 23.5689 18.8639L23.4992 18.8722ZM23.2952 18.3627C23.4154 18.3484 23.4881 18.4163 23.4881 18.5549V18.6775L23.1069 18.7227V18.6001C23.1069 18.4615 23.1781 18.3766 23.2952 18.3627ZM24.5474 18.1473C24.4572 18.158 24.3814 18.21 24.3402 18.2898L24.3323 18.1903L24.2753 18.1971V19.3171L24.3418 19.3092V18.9316C24.386 18.9964 24.4636 19.0254 24.5427 19.016C24.6914 18.9984 24.7911 18.8799 24.7911 18.6967V18.4131C24.7911 18.2251 24.6866 18.1308 24.5474 18.1473V18.1473ZM24.7231 18.7048C24.7231 18.8529 24.6487 18.9398 24.5284 18.954C24.4193 18.967 24.3418 18.8822 24.3418 18.7564V18.476C24.3418 18.3167 24.4319 18.2247 24.5332 18.2127C24.6471 18.1992 24.7231 18.2683 24.7231 18.4212V18.7048ZM25.9215 18.0018V18.3682L25.5782 18.4089V18.0425L25.5102 18.0506V18.8838L25.5782 18.8757V18.4742L25.9215 18.4335V18.835L25.9896 18.8269V17.9937L25.9215 18.0018ZM26.9649 17.8605C26.8161 17.8781 26.7213 17.9818 26.7133 18.1165L26.7829 18.1083C26.7861 18.0123 26.8573 17.9386 26.9633 17.926C27.0756 17.9127 27.1373 17.9771 27.1373 18.1045V18.2097L26.9665 18.2299C26.7877 18.2511 26.688 18.3521 26.688 18.5082C26.688 18.6691 26.7893 18.7495 26.9348 18.7323C27.0345 18.7204 27.1025 18.6678 27.1389 18.6014L27.1452 18.6898L27.2053 18.6827V18.0948C27.2053 17.9308 27.1151 17.8427 26.9649 17.8605V17.8605ZM26.9443 18.6642C26.832 18.6776 26.7576 18.6211 26.7576 18.5016C26.7576 18.3837 26.8288 18.3099 26.9649 18.2938L27.1373 18.2734V18.4486C27.1373 18.5665 27.0677 18.6496 26.9443 18.6642V18.6642ZM28.3263 17.7166L27.8422 17.774V17.8377L28.0495 17.8131V18.5826L28.1175 18.5745V17.805L28.3263 17.7803V17.7166V17.7166ZM28.9805 18.4722L29.0485 18.4641L29.3349 17.8677C29.3603 17.8138 29.3903 17.7481 29.4061 17.7064L29.4092 17.7076C29.4061 17.7669 29.4046 17.8404 29.4046 17.9137V18.4219L29.4726 18.4138V17.5806L29.4014 17.589L29.1087 18.2037C29.0897 18.2457 29.0613 18.3065 29.0485 18.3398L29.0454 18.3386C29.0485 18.2889 29.0485 18.2219 29.0485 18.1678V17.6309L28.9805 17.639V18.4722V18.4722ZM30.5649 17.8397C30.6314 17.792 30.6693 17.7222 30.6693 17.6537C30.6693 17.523 30.5807 17.4508 30.4289 17.4688L30.2105 17.4947V18.3263L30.4463 18.2983C30.6171 18.278 30.7104 18.181 30.7104 18.0312C30.7104 17.9372 30.6535 17.8627 30.5649 17.8397V17.8397ZM30.2785 17.5519L30.4273 17.5343C30.5396 17.5209 30.5997 17.5712 30.5997 17.662C30.5997 17.7496 30.5333 17.8196 30.4351 17.8312L30.2785 17.8498V17.5519ZM30.4447 18.2332L30.2785 18.2529V17.9151L30.4494 17.8948C30.5712 17.8804 30.6408 17.9359 30.6408 18.0394C30.6408 18.1493 30.5744 18.2178 30.4447 18.2332V18.2332ZM31.6321 17.3069C31.4833 17.3245 31.3885 17.4282 31.3805 17.5629L31.4501 17.5547C31.4533 17.4587 31.5245 17.385 31.6305 17.3724C31.7428 17.3591 31.8045 17.4235 31.8045 17.5509V17.6561L31.6337 17.6763C31.4549 17.6975 31.3552 17.7985 31.3552 17.9546C31.3552 18.1155 31.4565 18.1959 31.602 18.1787C31.7017 18.1668 31.7697 18.1142 31.8061 18.0478L31.8124 18.1362L31.8725 18.1291V17.5412C31.8725 17.3772 31.7823 17.2891 31.6321 17.3069V17.3069ZM31.6115 18.1106C31.4992 18.124 31.4248 18.0675 31.4248 17.948C31.4248 17.8301 31.496 17.7563 31.6321 17.7402L31.8045 17.7198V17.895C31.8045 18.0129 31.7349 18.096 31.6115 18.1106V18.1106Z" fill="#2B2A29"/>
</svg>
