<?xml version="1.0" encoding="UTF-8"?>
<!DOCTYPE svg PUBLIC "-//W3C//DTD SVG 1.1//EN" "http://www.w3.org/Graphics/SVG/1.1/DTD/svg11.dtd">
<!-- Creator: CorelDRAW 2019 (64-Bit Оценочная версия) -->
<svg xmlns="http://www.w3.org/2000/svg" xml:space="preserve" width="50mm" height="50mm" version="1.1" style="shape-rendering:geometricPrecision; text-rendering:geometricPrecision; image-rendering:optimizeQuality; fill-rule:evenodd; clip-rule:evenodd"
viewBox="0 0 5000 5000"
 xmlns:xlink="http://www.w3.org/1999/xlink">
 <defs>
  <style type="text/css">
   <![CDATA[
    .fil1 {fill:none}
    .fil0 {fill:#2B2A29}
    .fil3 {fill:#2B2A29;fill-rule:nonzero}
    .fil2 {fill:#2B2A29;fill-rule:nonzero}
   ]]>
  </style>
 </defs>
 <g id="Слой_x0020_1">
  <metadata id="CorelCorpID_0Corel-Layer"/>
  <g id="_2317055737504">
   <path class="fil0" d="M2601.45 1558.76c3.42,7.01 14.7,8.59 21.55,8.73 42.25,0.83 94.13,-13.98 132.55,-31.65 11.16,-5.13 35.51,-17.71 41.49,-29.77 1.36,-2.75 0.76,-3.62 1.07,-5.96 -10.4,-15.34 -43.57,-54.42 -57.14,-66.06 -0.68,-0.58 -122.95,26.99 -128.23,51.07 -0.66,3.02 -1.76,5.79 -2.24,8.8l-5 27.56c-0.92,6.65 -5.06,32.11 -4.05,37.28z"/>
   <path class="fil0" d="M2812.2 1664.7c-3.9,-17.98 -0.94,-31.06 5.46,-43.02 6.29,-11.72 12.89,-28.34 24.06,-33.81 9.35,19.82 18.82,26.59 6.8,48.26 -6.69,12.08 -18.68,24.59 -36.32,28.57zm-10.48 -171.19c3.68,5.64 8.48,10.56 12.25,16.04 10.9,15.85 -20.19,34.16 -31.12,40.45 -39.37,22.66 -101.14,40.52 -146.08,40.84 -8.66,0.06 -24.36,-1.03 -31.76,-5.81 -7.83,-5.05 -6.11,-9.52 -5.67,-16.06 0.33,-4.81 0.55,-11.29 1.25,-15.62 -12.45,6.21 -35.93,28.95 -37.71,45.48 -0.43,3.97 0.04,7.56 1.31,10.8 -14.04,7.47 -27.68,14.54 -40.53,22.06 -32.06,18.76 -36.03,22.66 -77.68,28.12l-102.08 12.27c-10.7,-70.9 -81.8,-65.8 -127.3,-24.69 -35.66,32.23 -52.54,80.51 -69.74,134.61 -7.66,24.09 -16.11,53.33 -22.7,78.69 -10.04,38.64 -13.45,43.1 1.96,84.47 22.96,61.69 47.45,108.49 6.17,158.48l1.26 10.44c5.78,6.97 36.05,84.41 42.03,99.59 11.68,29.66 5.38,29.94 41.2,25.17 20.81,-2.78 47.84,-4 64.44,-10.82 2.63,-14.35 -9.96,-43.47 -23.6,-53.39 -22.53,-16.37 -25.96,20.81 -42.18,-37.81 43.61,-27.41 92.75,-117.96 109.25,-169.32l249.75 50.31c-5.2,32.33 -18.8,58.93 -3.44,93.12 5.58,12.42 13.9,27.61 20.15,39.77 5.29,10.31 12.87,31.62 23.44,36.88 14.87,6.4 90.87,-5.75 104.86,-13.36 1.6,-18.23 -8.06,-26.95 -16.47,-39.43 -16.94,-25.15 -16.63,-12.36 -31,-18.14 -17.3,-6.96 0.12,-46.01 10.04,-74.76 8.74,-25.38 14.16,-56.85 29.22,-73.5l50.53 -59.64c26.26,-28.47 40.87,-55.01 46.32,-84.51 3.57,-19.32 -5.85,-41.49 -11.16,-70.05 -1.84,-19.24 25.82,-56.98 29.21,-64.19 3.38,-7.18 6.94,-4.74 14.15,-7.72 16.4,-6.75 34,-33.24 38.2,-50.62 9.1,-37.63 -10.03,-51.58 -38.57,-70.23 1.24,-1.09 2.46,-2.18 3.64,-3.29 13.76,-12.92 29.35,-34.32 10.72,-50.88 -11,-9.78 -41.69,-15.54 -52.56,-13.75zm-217.85 132.7c17.99,6.86 45.87,8.12 77.38,4.57 10.65,15.93 24.41,27.66 49.34,19.69 15.26,-4.89 22.27,-19.11 24.62,-35.33 26.13,-8.04 51.61,-18.65 73.44,-31.47 -15.68,34.25 -25.97,29.19 -23.53,85.84 -23.2,-1.07 -31.13,-11.53 -45.21,3.17 2.27,24.3 31.64,23.73 55.04,22.15 0.22,10.74 -22.53,33.34 -25.26,50.69 -4.39,27.79 15.6,56.46 12.55,75.87 -6.06,38.42 -25.46,65.6 -58.19,89.88 2.63,-16.02 9.94,-20.22 0.61,-32.86 -18.47,-8.34 -21.11,4.97 -25.03,19.87l-33 105.8c-40.13,116.7 -34.88,95.31 -12.46,140.24 20.97,3.97 20.72,-7.33 29.79,11.96l-57.09 6.13c-17.01,-31.01 -42.31,-66.61 -33.88,-103.65 4.42,-19.29 24.49,-92.52 15.53,-110.18 -24.74,-7.51 -25.55,25.29 -27.03,43.64l-250.25 -51.53c0.8,-25.7 6.14,-56.46 -4.45,-79.99l-19.53 2.87c-4.74,21.63 1.88,56.2 -5.94,88.07 -18.56,75.67 -61.58,127.24 -115.51,178.2 2.35,18.23 18.34,56.42 29,66.51 23.12,9.44 21.36,-12.03 32.72,12.26l-43.18 5.14c-51.38,-123.88 -46.19,-81.27 -27.89,-138.51 17.2,-53.78 -13.21,-101.38 -30.59,-151.22 -13.3,-38.13 44.84,-217.09 87.69,-256.87 20.73,-19.25 62.68,-38.53 80.51,-5.88 21.75,39.82 -36.37,57.12 -62.39,47.92 23.78,-12.33 67.76,-13.05 51.32,-50.47 -24.83,-4.06 -12.95,3.25 -29.1,14.5 -9.09,6.33 -22.97,7.07 -34.15,11.94 -23.22,10.13 -20.72,42.59 0,50.01 15.7,5.61 62.49,-1.05 76.95,-9.19 33.41,-18.79 -1.28,-23.98 57.86,-30.96 59.67,-7.05 105.76,-7.42 152.54,-35 18.39,-10.85 37.61,-22.53 56.77,-33.81zm100.33 0.2c3.33,-0.71 24.47,-4.6 27.82,-5.4 -2.64,11.89 -14.72,17.76 -27.82,5.4z"/>
   <path class="fil0" d="M2838.06 1576.5c-10.45,0.8 -17.88,9.47 -16.6,19.35 1.28,9.88 10.8,17.23 21.25,16.43 10.46,-0.81 17.89,-9.48 16.6,-19.36 -1.28,-9.87 -10.8,-17.23 -21.25,-16.42z"/>
   <path class="fil0" d="M601.63 2948.81l3796.74 -448.67 0 443.84 -3796.74 448.67 0 -443.84zm444.09 56.28l0 -0.68 -80.69 9.53 0 0.69c8.85,4.78 15.66,21.46 15.66,48.88l0 66.52c-7.5,2.25 -14.99,3.48 -20.09,4.09 -38.82,4.58 -56.18,-10.17 -56.18,-43.08l0 -18.51c0,-28.12 7.49,-45.8 15.66,-52.59l0 -0.69 -80.35 9.5 0 0.68c8.52,4.82 18.05,20.15 18.05,48.61l0 13.37c0,55.2 22.13,86.86 89.54,78.9 8.17,-0.97 21.79,-3.26 33.37,-6.69l0 35.32c0,28.11 -9.88,46.08 -18.39,52.91l0 0.68 83.42 -9.86 0 -0.68c-8.86,-4.78 -18.39,-20.11 -18.39,-48.57l0 -135.42c0,-28.11 9.87,-46.08 18.39,-52.91zm410.47 123.26c-14.64,22.64 -38.47,36.77 -68.44,40.31l-37.11 4.39 0 -77.14 31.33 -3.7c19.06,-2.26 31.32,2.47 37.11,17.21l0.68 -0.08 9.87 -58.76c-15.32,3.87 -24.85,5.34 -53.11,8.67l-25.88 3.06 0 -60.34 44.95 -5.31c26.55,-3.14 45.27,3.22 53.45,19.05l0.68 -0.42 -5.79 -60.68c-7.49,2.6 -22.47,5.4 -36.09,7l-122.22 14.45 0 0.68c8.85,4.79 18.38,20.11 18.38,48.57l0 135.42c0,28.11 -9.88,46.08 -18.38,52.91l0 0.69 120.18 -14.2c20.09,-2.38 28.94,-2.74 41.53,-2.17l9.54 -69.35 -0.68 -0.26zm326.37 -211.02l-92.95 10.99 0 0.68c8.86,4.78 18.39,20.11 18.39,47.19l0 136.8c0,28.11 -9.88,46.08 -18.39,52.91l0 0.69 83.42 -9.86 0 -0.69c-8.86,-4.78 -18.39,-20.11 -18.39,-47.19l0 -28.46 27.92 -3.3c54.13,-6.39 85.8,-36.53 85.8,-92.42 0,-49.36 -31.67,-73.73 -85.8,-67.34zm-7.83 126.75l-20.09 2.03 0 -91.54 20.09 -2.37c30.98,-3.66 45.28,9.05 45.28,40.59 0,29.48 -13.96,47.93 -45.28,51.29zm518.06 -186.36l0 -0.68 -80.69 9.53 0 0.69c8.85,4.78 15.66,21.46 15.66,48.89l0 66.51c-7.49,2.25 -14.98,3.48 -20.08,4.09 -38.82,4.58 -56.18,-10.17 -56.18,-43.08l0 -18.51c0,-28.11 7.49,-45.8 15.66,-52.59l0 -0.69 -80.35 9.5 0 0.69c8.51,4.82 18.04,20.14 18.04,48.6l0 13.37c0,55.2 22.13,86.87 89.54,78.9 8.18,-0.96 21.8,-3.26 33.37,-6.68l0 35.31c0,28.11 -9.87,46.08 -18.38,52.91l0 0.68 83.41 -9.85 0 -0.69c-8.85,-4.78 -18.38,-20.11 -18.38,-48.57l0 -135.42c0,-28.11 9.87,-46.07 18.38,-52.91zm240.92 209.12l67.75 -8.01c3.74,-9.69 10.21,-22.8 17.03,-34.58l51.41 -89.72c12.93,-22.45 24.85,-48.19 34.38,-77.09l1.37 -0.17c-6.47,29.23 -9.54,55.99 -9.54,77.24l0 61.71c0,28.11 -9.87,46.08 -18.38,52.92l0 0.68 83.75 -9.9 0 -0.68c-8.85,-4.78 -18.39,-20.11 -18.39,-48.57l0 -137.13c0,-21.94 12.26,-46.36 20.09,-51.4l0 -0.69 -75.24 8.9c-0.68,6.93 -2.72,14.37 -13.96,34.56l-49.03 87.73c-9.19,16.51 -22.81,42.12 -33.02,72.81l-1.36 0.16c5.44,-31.16 7.49,-53.34 7.49,-72.88l0 -60.34c0,-28.11 9.87,-46.08 17.7,-52.83l0 -0.69 -83.07 9.82 0 0.69c8.85,4.78 18.38,20.11 18.38,48.56l0 135.42c0,28.11 -9.53,46.04 -17.36,52.8l0 0.68zm442.3 -52.27l75.25 -8.89 0 -0.68c-4.77,-3.56 -6.81,-17.03 0.67,-42.25l23.5 -79.57c7.15,-24.5 14.3,-48.66 17.37,-73.02l1.36 -0.17c3.74,23.56 10.55,46.07 17.7,68.88l23.49 74.02c7.49,23.45 5.45,37.07 0.68,42.09l0 0.68 78.65 -9.29 0 -0.69c-9.53,-7.1 -24.51,-25.55 -33.36,-51.59l-44.95 -131.48c-6.81,-19.77 -4.42,-36.51 4.43,-45.09l0 -0.69 -92.95 10.98 0 0.69c9.2,7.14 12.6,23.88 5.79,45.25l-44.26 140.66c-8.85,28.13 -23.83,50.12 -33.37,59.48l0 0.68zm440.1 -52.01l75.24 -8.89 0 -0.68c-4.77,-3.56 -6.81,-17.03 0.68,-42.25l23.49 -79.57c7.16,-24.5 14.3,-48.66 17.37,-73.02l1.36 -0.16c3.75,23.55 10.55,46.06 17.7,68.87l23.49 74.02c7.5,23.45 5.46,37.07 0.69,42.09l0 0.68 78.64 -9.29 0 -0.69c-9.53,-7.1 -24.51,-25.55 -33.36,-51.59l-44.95 -131.48c-6.8,-19.77 -4.42,-36.51 4.44,-45.09l0 -0.69 -92.96 10.98 0 0.69c9.2,7.14 12.6,23.88 5.79,45.26l-44.26 140.65c-8.85,28.13 -23.83,50.12 -33.36,59.48l0 0.68zm549.55 -221.61l-32 3.78 0 -30.17c0,-28.11 9.87,-46.08 18.38,-52.91l0 -0.69 -83.41 9.86 0 0.69c8.85,4.78 18.38,20.11 18.38,47.19l0 136.79c0,28.11 -9.87,46.08 -18.38,52.92l0 0.68 100.09 -11.83c44.61,-5.27 81.72,-37.42 81.72,-91.25 0,-48.68 -35.07,-70.93 -84.78,-65.06zm-12.26 123.84l-19.74 2.33 0 -88.45 19.74 -2.33c33.03,-3.9 48.35,8.34 48.35,38.17 0,28.79 -15.32,46.38 -48.35,50.28z"/>
   <polygon class="fil0" points="601.63,2877.39 1005.85,2830.35 1005.85,2596.38 "/>
   <polygon class="fil0" points="4398.37,3018.1 3994.16,3065.14 3994.16,3299.11 "/>
   <line class="fil1" x1="601.63" y1="3368.52" x2="4398.37" y2= "2919.86" />
   <polygon class="fil2" points="599.5,2894.25 4396.23,2445.59 4400.51,2481.77 603.77,2930.43 "/>
   <polygon class="fil2" points="599.5,3412.59 4396.23,2963.93 4400.51,3000.11 603.77,3448.78 "/>
   <path class="fil2" d="M1866.97 2641.15c0,1.63 -0.3,2.75 -0.84,3.43 -0.54,0.76 -1.7,1.21 -3.46,1.42l-9.62 1.13c-2.69,0.32 -5.08,-0.33 -7.07,-1.95 -2,-1.62 -3.01,-3.83 -3.01,-6.54l0 -117.65 -27.69 3.27 0 117.42c0,2.87 -1.07,5.4 -3.15,7.5 -2.07,2.11 -4.54,3.32 -7.23,3.64l-9.69 1.15c-1.77,0.21 -3,0.04 -3.54,-0.59 -0.54,-0.56 -0.85,-1.68 -0.85,-3.46l0 -265.06c0,-1.78 0.31,-2.98 0.85,-3.66 0.54,-0.76 1.77,-1.22 3.54,-1.43l9.69 -1.14c3.23,-0.38 5.77,0.25 7.61,1.96 1.85,1.72 2.77,4.24 2.77,7.42l0 115.8 27.69 -3.27 0 -116.5c0,-2.86 1.08,-5.39 3.16,-7.49 2.08,-2.11 4.46,-3.32 7.15,-3.64l9.62 -1.14c1.77,-0.21 2.84,-0.02 3.38,0.61 0.47,0.56 0.69,1.7 0.69,3.48l0 265.29zm236.16 -268.1c0,-4.34 0.77,-8.61 2.3,-12.82 1.54,-4.21 3.85,-8.12 7.08,-11.6 3.23,-3.56 7.23,-6.59 12.08,-9.1 4.76,-2.5 10.46,-4.1 17.07,-4.89 6.62,-0.78 12.31,-0.52 17.23,0.84 4.93,1.35 8.93,3.43 12,6.25 3.16,2.72 5.47,6.09 7,9.93 1.54,3.85 2.31,7.94 2.31,12.28l0 214.86c0,3.72 -0.69,7.68 -2.08,11.87 -1.3,4.18 -3.61,8.1 -6.69,11.79 -3.15,3.62 -7.15,6.81 -12.07,9.48 -4.93,2.67 -10.77,4.45 -17.7,5.27 -6.92,0.81 -12.76,0.42 -17.69,-1.09 -4.92,-1.51 -8.92,-3.67 -11.92,-6.57 -3.08,-2.81 -5.31,-6.19 -6.77,-10.04 -1.46,-3.86 -2.15,-7.72 -2.15,-11.6l0 -214.86zm24.46 211.43c0,3.33 1.08,6.15 3.23,8.45 2.15,2.22 5.92,3.02 11.23,2.39 5.08,-0.6 8.77,-2.28 10.92,-5.01 2.15,-2.81 3.23,-5.88 3.23,-9.21l0 -213.78c0,-3.33 -1.15,-6.14 -3.38,-8.43 -2.23,-2.22 -5.92,-3.02 -11.08,-2.41 -5.23,0.62 -8.92,2.37 -11,5.17 -2.07,2.8 -3.15,5.87 -3.15,9.05l0 213.78zm293.38 -4.46c-1.77,0.21 -2.92,0.03 -3.46,-0.6 -0.54,-0.55 -0.85,-1.76 -0.85,-3.46l0 -265.99c0,-1.78 0.31,-2.97 0.85,-3.66 0.54,-0.76 1.69,-1.2 3.46,-1.41l34.38 -4.07c7.31,-0.86 13.46,-0.5 18.39,1.08 4.84,1.6 8.69,3.93 11.61,7 2.85,3.07 4.92,6.54 6.16,10.42 1.15,3.89 1.76,7.61 1.76,11.1l0 69.01c0,7.05 -0.61,13.47 -1.76,19.19 -1.24,5.72 -4.23,10.26 -9,13.77 2.38,1.19 4.3,2.9 5.69,5.29 1.46,2.3 2.53,4.89 3.31,7.82 0.69,2.93 1.15,5.98 1.38,9.21 0.23,3.14 0.38,6.23 0.38,9.09l0 73.74c0,3.4 -0.61,7.12 -1.76,11.2 -1.24,4.1 -3.31,8.07 -6.31,11.83 -2.93,3.68 -6.93,7.01 -12,9.86 -5,2.84 -11.39,4.75 -19.08,5.66l-33.15 3.92zm20.15 -132.05l0 107.98 13.85 -1.64c5.08,-0.6 8.77,-2.35 11,-5.17 2.23,-2.89 3.3,-5.89 3.3,-9.14l0 -73.35c0,-2.25 -0.15,-4.63 -0.38,-7.16 -0.23,-2.61 -0.77,-4.87 -1.62,-7.01 -0.92,-2.06 -2.15,-3.7 -3.84,-4.97 -1.69,-1.28 -4,-1.7 -7.08,-1.33l-15.23 1.79zm0 -124l0 103.09 15.23 -1.8c3.08,-0.36 5.39,-1.33 7.08,-3 1.69,-1.68 2.92,-3.6 3.84,-5.88 0.85,-2.35 1.39,-4.73 1.62,-7.39 0.23,-2.58 0.38,-5.01 0.38,-7.25l0 -68.55c0,-3.18 -1.07,-5.99 -3.3,-8.29 -2.23,-2.37 -5.92,-3.17 -11,-2.57l-13.85 1.64zm407.68 199.45c0,4.03 -1.92,6.27 -5.84,6.74l-12.77 1.5c-3.93,0.47 -5.85,-1.32 -5.85,-5.35l0 -258.24c0,-2.86 1.08,-5.39 3.16,-7.49 2.07,-2.11 4.53,-3.33 7.23,-3.65l9.69 -1.15c1.77,-0.2 3,-0.04 3.54,0.44 0.54,0.48 0.84,1.6 0.84,3.39l0 263.81zm-104.53 -255.8c2.69,-0.32 5.15,0.32 7.23,1.93 2.07,1.62 3.15,3.89 3.15,6.76l0 86.28 13.85 -1.63c12,-1.42 21.38,0.65 28.15,6.28 6.77,5.55 10.15,13.28 10.15,23.12l0 110.14c0,9.84 -3.3,18.36 -10,25.5 -6.61,7.22 -15.92,11.49 -27.92,12.91l-34.38 4.06c-1.77,0.21 -2.92,0.04 -3.46,-0.6 -0.54,-0.55 -0.85,-1.68 -0.85,-3.46l0 -265.05c0,-1.79 0.31,-2.99 0.85,-3.67 0.54,-0.76 1.77,-1.22 3.54,-1.42l9.69 -1.15zm24.23 249.57c5.08,-0.6 8.77,-2.36 11,-5.17 2.23,-2.9 3.3,-5.89 3.3,-9.15l0 -109.91c0,-3.02 -1,-5.77 -2.99,-8.09 -2,-2.31 -5.31,-3.24 -9.93,-2.69l-15.23 1.79 0 134.86 13.85 -1.64zm316.61 -285.51c0,-1.62 0.31,-2.75 0.77,-3.42 0.46,-0.75 1.61,-1.2 3.31,-1.4l9.69 -1.14c2.84,-0.34 5.38,0.29 7.54,1.89 2.15,1.61 3.07,3.9 2.76,6.8l-3.61 175.64 29.31 -168.29c1.3,-6.74 2.92,-11.97 4.92,-15.69 2,-3.72 4.54,-5.73 7.62,-6.09l9.61 -1.14c1.93,-0.22 3.08,-0.05 3.62,0.59 0.46,0.56 0.69,1.62 0.69,3.25l0 265.52c0,1.39 -0.31,2.59 -0.85,3.35 -0.54,0.76 -1.69,1.28 -3.46,1.49l-9.38 1.11c-3.08,0.36 -5.62,-0.19 -7.7,-1.72 -2.07,-1.54 -3.07,-3.98 -2.92,-7.17l3.85 -176.44 -29.77 170.75c-0.46,2.53 -1,4.92 -1.54,7.23 -0.62,2.32 -1.38,4.42 -2.31,6.31 -1,1.9 -2.15,3.43 -3.46,4.67 -1.38,1.17 -3.15,1.92 -5.23,2.17l-9.07 1.07c-1.78,0.21 -2.93,-0.04 -3.54,-0.66 -0.54,-0.64 -0.85,-1.76 -0.85,-3.16l0 -265.52zm65.69 -85.06c0,20.29 -2.23,35.35 -6.54,45.08 -4.31,9.72 -11.69,15.16 -22.07,16.39 -10.93,1.29 -18.31,-2.48 -22.24,-11.31 -3.92,-8.76 -5.92,-23.31 -5.92,-43.45 0,-0.85 0.23,-1.58 0.7,-2.33 0.54,-0.76 1.22,-1.16 2.22,-1.27l6.47 -0.77c1.3,-0.15 2.61,0.16 3.92,0.85 1.39,0.77 2.23,2.22 2.54,4.43 0.84,13.84 2.08,24.08 3.84,30.69 1.77,6.6 4.62,9.67 8.47,9.22 6.38,-0.76 10.53,-14.88 12.46,-42.29 0.31,-2.52 1.15,-4.32 2.54,-5.41 1.38,-1.18 2.76,-1.8 4.23,-1.98l6.46 -0.76c0.77,-0.09 1.46,0.13 2.07,0.61 0.54,0.55 0.85,1.29 0.85,2.3z"/>
   <path class="fil3" d="M1265.28 3462.72l-47.94 5.69 0 83.32 6.8 -0.81 0 -76.79 34.33 -4.07 0 76.79 6.81 -0.81 0 -83.32zm101.16 -13.75c-9.02,1.07 -16.6,6.27 -20.72,14.25l-0.79 -9.95 -5.7 0.68 0 112 6.65 -0.79 0 -37.76c4.42,6.48 12.18,9.38 20.09,8.44 14.87,-1.76 24.84,-13.61 24.84,-31.93l0 -28.36c0,-18.8 -10.45,-28.23 -24.37,-26.58zm17.57 55.75c0,14.81 -7.44,23.5 -19.47,24.92 -10.91,1.3 -18.66,-7.18 -18.66,-19.76l0 -28.04c0,-15.93 9.01,-25.13 19.14,-26.33 11.39,-1.35 18.99,5.56 18.99,20.85l0 28.36zm102.28 -69.97c-14.88,1.76 -24.36,12.13 -25.16,25.6l6.96 -0.82c0.32,-9.6 7.44,-16.97 18.04,-18.23 11.23,-1.33 17.4,5.11 17.4,17.85l0 10.52 -17.08 2.02c-17.88,2.12 -27.85,12.22 -27.85,27.83 0,16.09 10.13,24.13 24.68,22.41 9.97,-1.19 16.77,-6.45 20.41,-13.09l0.63 8.84 6.01 -0.71 0 -58.79c0,-16.4 -9.02,-25.21 -24.04,-23.43zm-2.06 80.37c-11.23,1.34 -18.67,-4.31 -18.67,-16.26 0,-11.79 7.12,-19.17 20.73,-20.78l17.24 -2.04 0 17.52c0,11.79 -6.96,20.1 -19.3,21.56zm135.51 -55.58c6.65,-4.77 10.44,-11.75 10.44,-18.6 0,-13.07 -8.86,-20.29 -24.04,-18.49l-21.84 2.59 0 83.16 23.58 -2.8c17.08,-2.03 26.41,-11.73 26.41,-26.71 0,-9.4 -5.69,-16.85 -14.55,-19.15zm-28.64 -28.78l14.88 -1.76c11.23,-1.34 17.24,3.69 17.24,12.77 0,8.76 -6.64,15.76 -16.46,16.92l-15.66 1.86 0 -29.79zm16.62 68.13l-16.62 1.97 0 -33.78 17.09 -2.03c12.18,-1.44 19.14,4.11 19.14,14.46 0,10.99 -6.64,17.84 -19.61,19.38zm95.17 -4.76l6.8 -0.81 28.64 -59.64c2.54,-5.39 5.54,-11.96 7.12,-16.13l0.31 0.12c-0.31,5.93 -0.46,13.28 -0.46,20.61l0 50.82 6.8 -0.81 0 -83.32 -7.12 0.84 -29.27 61.47c-1.9,4.2 -4.74,10.28 -6.02,13.61l-0.31 -0.12c0.31,-4.97 0.31,-11.67 0.31,-17.08l0 -53.69 -6.8 0.81 0 83.32zm113.36 -12.49c12.66,-1.5 17.57,-14.51 19.15,-34.45 0.79,-9.33 1.57,-26.16 2.05,-45.81l27.21 -3.23 0 76.79 6.8 -0.81 0 -83.32 -40.81 4.84c-0.32,21.71 -0.94,37.24 -2.06,51.23 -1.26,15.44 -3.95,27.07 -12.34,28.06l0 6.7zm151.96 -72.03l-16.14 1.91 0 -30.27 -6.8 0.81 0 83.32 22.94 -2.72c15.04,-1.79 26.11,-14.41 26.11,-29.7 0,-15.3 -11.07,-25.14 -26.11,-23.35zm0 46.36l-16.14 1.91 0 -39.67 16.14 -1.91c11.39,-1.36 19.31,5.84 19.31,17.47 0,11.78 -7.92,20.84 -19.31,22.2zm132.82 -92.38l0 36.64 -34.33 4.07 0 -36.64 -6.8 0.81 0 83.32 6.8 -0.81 0 -40.15 34.33 -4.07 0 40.15 6.81 -0.81 0 -83.32 -6.81 0.81zm104.33 -14.13c-14.88,1.76 -24.36,12.13 -25.16,25.6l6.96 -0.82c0.32,-9.6 7.44,-16.97 18.04,-18.23 11.23,-1.33 17.4,5.11 17.4,17.85l0 10.52 -17.08 2.02c-17.88,2.12 -27.85,12.22 -27.85,27.83 0,16.09 10.13,24.13 24.68,22.41 9.97,-1.19 16.77,-6.45 20.41,-13.09l0.63 8.84 6.01 -0.71 0 -58.79c0,-16.4 -9.02,-25.21 -24.04,-23.43zm-2.06 80.37c-11.23,1.34 -18.67,-4.31 -18.67,-16.26 0,-11.79 7.12,-19.17 20.73,-20.78l17.24 -2.04 0 17.52c0,11.79 -6.96,20.1 -19.3,21.56zm119.7 -92.57c-15.35,1.82 -25.31,13.67 -25.31,28.65 0,13.22 7.12,22.58 17.88,23.21l-20.73 34.8 8.07 -0.96 20.09 -34.4 15.03 -1.78 0 32.02 6.8 -0.81 0 -83.32 -21.83 2.59zm15.03 43.15l-16.14 1.91c-10.91,1.3 -17.4,-5.59 -17.4,-17.22 0,-11.47 6.97,-19.78 18.51,-21.15l15.03 -1.78 0 38.24zm141.51 -63.47c-14.88,1.76 -24.36,12.13 -25.16,25.6l6.96 -0.82c0.32,-9.6 7.44,-16.97 18.04,-18.23 11.23,-1.33 17.4,5.11 17.4,17.85l0 10.52 -17.08 2.02c-17.88,2.12 -27.85,12.22 -27.85,27.83 0,16.09 10.13,24.13 24.68,22.41 9.97,-1.19 16.77,-6.45 20.41,-13.09l0.63 8.84 6.01 -0.71 0 -58.79c0,-16.4 -9.02,-25.21 -24.04,-23.43zm-2.06 80.37c-11.23,1.34 -18.67,-4.31 -18.67,-16.26 0,-11.79 7.12,-19.17 20.73,-20.78l17.24 -2.04 0 17.52c0,11.79 -6.96,20.1 -19.3,21.56zm90.43 -4.82c12.66,-1.5 17.57,-14.51 19.15,-34.45 0.79,-9.33 1.57,-26.16 2.05,-45.81l27.21 -3.23 0 76.79 6.8 -0.81 0 -83.32 -40.81 4.84c-0.32,21.71 -0.94,37.24 -2.06,51.23 -1.26,15.44 -3.95,27.07 -12.34,28.06l0 6.7zm151.95 -72.04l-16.14 1.91 0 -30.27 -6.8 0.81 0 83.32 22.94 -2.72c15.04,-1.79 26.11,-14.41 26.11,-29.7 0,-15.3 -11.07,-25.14 -26.11,-23.35zm0 46.36l-16.14 1.91 0 -39.67 16.14 -1.91c11.39,-1.36 19.31,5.84 19.31,17.47 0,11.78 -7.92,20.84 -19.31,22.2zm124.28 -91.37l-48.41 5.74 0 6.37 20.73 -2.46 0 76.95 6.8 -0.81 0 -76.95 20.88 -2.47 0 -6.37zm105.28 45.82c-1.26,12.89 -7.59,20.81 -20.4,22.33 -11.71,1.39 -18.83,-5.41 -18.83,-19.27l0 -11.63 44.93 -5.33 0 -18.64c0,-17.69 -10.28,-26.98 -26.1,-25.1 -15.66,1.86 -25.63,13.55 -25.63,31.24l0 30.27c0,17.52 9.81,27.03 25.47,25.17 16.77,-1.99 26.11,-13.13 27.53,-29.87l-6.97 0.83zm-20.4 -50.95c12.02,-1.43 19.29,5.36 19.29,19.22l0 12.26 -38.12 4.52 0 -12.26c0,-13.86 7.12,-22.35 18.83,-23.74zm125.22 -21.54c-9.02,1.07 -16.6,6.27 -20.72,14.25l-0.79 -9.95 -5.7 0.68 0 112 6.65 -0.79 0 -37.76c4.42,6.48 12.18,9.38 20.09,8.44 14.87,-1.76 24.84,-13.61 24.84,-31.93l0 -28.36c0,-18.8 -10.45,-28.23 -24.37,-26.58zm17.57 55.75c0,14.81 -7.44,23.5 -19.47,24.92 -10.91,1.3 -18.66,-7.18 -18.66,-19.76l0 -28.04c0,-15.93 9.01,-25.13 19.14,-26.33 11.39,-1.35 18.99,5.56 18.99,20.85l0 28.36zm119.84 -70.3l0 36.64 -34.33 4.07 0 -36.64 -6.8 0.81 0 83.32 6.8 -0.81 0 -40.15 34.33 -4.07 0 40.15 6.81 -0.81 0 -83.32 -6.81 0.81zm104.34 -14.13c-14.88,1.76 -24.36,12.13 -25.16,25.6l6.96 -0.82c0.32,-9.6 7.44,-16.97 18.04,-18.23 11.23,-1.33 17.4,5.11 17.4,17.85l0 10.52 -17.08 2.02c-17.88,2.12 -27.85,12.22 -27.85,27.83 0,16.09 10.13,24.13 24.68,22.41 9.97,-1.19 16.77,-6.45 20.41,-13.09l0.63 8.84 6.01 -0.71 0 -58.79c0,-16.4 -9.02,-25.21 -24.04,-23.43zm-2.06 80.37c-11.23,1.34 -18.67,-4.31 -18.67,-16.26 0,-11.79 7.12,-19.17 20.73,-20.78l17.24 -2.04 0 17.52c0,11.79 -6.96,20.1 -19.3,21.56zm138.2 -94.76l-48.41 5.74 0 6.37 20.73 -2.46 0 76.95 6.8 -0.81 0 -76.95 20.88 -2.47 0 -6.37zm65.42 75.56l6.8 -0.81 28.64 -59.64c2.54,-5.39 5.54,-11.96 7.12,-16.13l0.31 0.12c-0.31,5.93 -0.46,13.28 -0.46,20.61l0 50.82 6.8 -0.81 0 -83.32 -7.12 0.84 -29.27 61.47c-1.9,4.2 -4.74,10.28 -6.02,13.61l-0.31 -0.12c0.31,-4.97 0.31,-11.67 0.31,-17.08l0 -53.69 -6.8 0.81 0 83.32zm158.44 -63.25c6.65,-4.77 10.44,-11.75 10.44,-18.6 0,-13.07 -8.86,-20.29 -24.04,-18.49l-21.84 2.59 0 83.16 23.58 -2.8c17.08,-2.03 26.41,-11.73 26.41,-26.71 0,-9.4 -5.69,-16.85 -14.55,-19.15zm-28.64 -28.78l14.88 -1.76c11.23,-1.34 17.24,3.69 17.24,12.77 0,8.76 -6.64,15.76 -16.46,16.92l-15.66 1.86 0 -29.79zm16.62 68.13l-16.62 1.97 0 -33.78 17.09 -2.03c12.18,-1.44 19.14,4.11 19.14,14.46 0,10.99 -6.64,17.84 -19.61,19.38zm118.74 -92.63c-14.88,1.76 -24.36,12.13 -25.16,25.6l6.96 -0.82c0.32,-9.6 7.44,-16.97 18.04,-18.23 11.23,-1.33 17.4,5.11 17.4,17.85l0 10.52 -17.08 2.02c-17.88,2.12 -27.85,12.22 -27.85,27.83 0,16.09 10.13,24.13 24.68,22.41 9.97,-1.19 16.77,-6.45 20.41,-13.09l0.63 8.84 6.01 -0.71 0 -58.79c0,-16.4 -9.02,-25.21 -24.04,-23.43zm-2.06 80.37c-11.23,1.34 -18.67,-4.31 -18.67,-16.26 0,-11.79 7.12,-19.17 20.73,-20.78l17.24 -2.04 0 17.52c0,11.79 -6.96,20.1 -19.3,21.56z"/>
  </g>
 </g>
</svg>
