<?xml version="1.0" standalone="no"?>
<!DOCTYPE svg PUBLIC "-//W3C//DTD SVG 1.1//EN" "http://www.w3.org/Graphics/SVG/1.1/DTD/svg11.dtd" >
<svg>
<metadata>
Created by FontForge 20090622 at Thu Mar 28 07:01:40 2019
 By deploy user
Copyright (c) Olivier Gourvat - Mostardesign Studio, 2012. All rights reserved.
</metadata>
<defs>
<font id="SofiaProExtraLight" horiz-adv-x="620" >
  <font-face 
    font-family="Sofia Pro ExtraLight"
    font-weight="400"
    font-stretch="normal"
    units-per-em="1000"
    panose-1="2 0 0 0 0 0 0 0 0 0"
    ascent="750"
    descent="-250"
    x-height="467"
    cap-height="689"
    bbox="-161 -234 1114 1039"
    underline-thickness="50"
    underline-position="-50"
    unicode-range="U+0020-U+FB04"
  />
<missing-glyph horiz-adv-x="635" 
d="M80 0v665h475v-665h-475zM185 431h62q0 37 21 60t53 23t56 -20.5t24 -52.5q0 -30 -24 -50q-15 -17 -33 -21q-45 -13 -69 -38t-24 -72v-38h62v38q0 22 12.5 32.5t37.5 17.5q43 13 71 48t28 83q0 60 -41.5 97.5t-99.5 37.5q-57 0 -96.5 -40t-39.5 -105zM237 131
q0 -18 13.5 -30.5t32.5 -12.5q18 0 31.5 12.5t13.5 30.5t-13.5 30.5t-31.5 12.5q-19 0 -32.5 -12.5t-13.5 -30.5z" />
    <glyph glyph-name="f_f" unicode="ff" horiz-adv-x="652" 
d="M460 426h-293v-426h-45v426h-94v41h94v68q0 198 159 198h41v-44h-41q-114 0 -114 -154v-68h293v68q0 198 159 198h41v-44h-41q-114 0 -114 -154v-68h125v-41h-125v-426h-45v426z" />
    <glyph glyph-name="fi" unicode="fi" horiz-adv-x="569" 
d="M442 426h-275v-426h-45v426h-94v41h94v68q0 198 159 198h41v-44h-41q-114 0 -114 -154v-68h320v-467h-45v426zM424 640q0 16 11.5 26.5t28.5 10.5t28 -10.5t11 -26.5t-11 -26.5t-28 -10.5t-28.5 10.5t-11.5 26.5z" />
    <glyph glyph-name="fl" unicode="fl" horiz-adv-x="554" 
d="M425 689h-144q-114 0 -114 -154v-68h125v-41h-125v-426h-45v426h-94v41h94v68q0 198 159 198h189v-733h-45v689z" />
    <glyph glyph-name="f_f_i" unicode="ffi" horiz-adv-x="907" 
d="M780 0v426h-275v-426h-45v426h-293v-426h-45v426h-94v41h94v68q0 198 159 198h41v-44h-41q-114 0 -114 -154v-68h293v68q0 198 159 198h41v-44h-41q-114 0 -114 -154v-68h320v-467h-45zM762 640q0 16 11.5 26.5t28.5 10.5t28 -10.5t11 -26.5t-11 -26.5t-28 -10.5
t-28.5 10.5t-11.5 26.5z" />
    <glyph glyph-name="f_f_l" unicode="ffl" horiz-adv-x="892" 
d="M460 426h-293v-426h-45v426h-94v41h94v68q0 198 159 198h41v-44h-41q-114 0 -114 -154v-68h293v68q0 198 159 198h41v-44h-41q-114 0 -114 -154v-68h125v-41h-125v-426h-45v426zM763 0h45v733h-45v-733z" />
    <glyph glyph-name="f_f_j" unicode="ffj" horiz-adv-x="914" 
d="M832 467v-496q0 -197 -159 -197h-41v44h41q114 0 114 153v455h-282v-426h-45v426h-293v-426h-45v426h-94v41h94v68q0 198 159 198h41v-44h-41q-114 0 -114 -154v-68h293v68q0 198 159 198h41v-44h-41q-114 0 -114 -154v-68h327zM770 640q0 16 11.5 26.5t28.5 10.5
t28 -10.5t11 -26.5t-11 -26.5t-28 -10.5t-28.5 10.5t-11.5 26.5z" />
    <glyph glyph-name="f_j" unicode="fj" horiz-adv-x="576" 
d="M494 467v-496q0 -197 -159 -197h-41v44h41q114 0 114 153v455h-282v-426h-45v426h-94v41h94v68q0 198 159 198h41v-44h-41q-114 0 -114 -154v-68h327zM432 640q0 16 11.5 26.5t28.5 10.5t28 -10.5t11 -26.5t-11 -26.5t-28 -10.5t-28.5 10.5t-11.5 26.5z" />
    <glyph glyph-name=".notdef" horiz-adv-x="635" 
d="M80 0v665h475v-665h-475zM185 431h62q0 37 21 60t53 23t56 -20.5t24 -52.5q0 -30 -24 -50q-15 -17 -33 -21q-45 -13 -69 -38t-24 -72v-38h62v38q0 22 12.5 32.5t37.5 17.5q43 13 71 48t28 83q0 60 -41.5 97.5t-99.5 37.5q-57 0 -96.5 -40t-39.5 -105zM237 131
q0 -18 13.5 -30.5t32.5 -12.5q18 0 31.5 12.5t13.5 30.5t-13.5 30.5t-31.5 12.5q-19 0 -32.5 -12.5t-13.5 -30.5z" />
    <glyph glyph-name=".null" horiz-adv-x="0" 
 />
    <glyph glyph-name="nonmarkingreturn" horiz-adv-x="333" 
 />
    <glyph glyph-name="space" unicode=" " horiz-adv-x="270" 
 />
    <glyph glyph-name="exclam" unicode="!" horiz-adv-x="245" 
d="M102 168l-2 521h45l-3 -521h-40zM81 32q0 16 12 27t29 11t29.5 -11t12.5 -27t-12.5 -27.5t-29.5 -11.5t-29 11.5t-12 27.5z" />
    <glyph glyph-name="quotedbl" unicode="&#x22;" horiz-adv-x="303" 
d="M182 432v257h40v-257h-40zM81 432v257h40v-257h-40z" />
    <glyph glyph-name="numbersign" unicode="#" horiz-adv-x="697" 
d="M471 464h-180l-67 -242h180zM577 689l-51 -182h131l-12 -43h-131l-66 -242h130l-11 -43h-131l-49 -179h-44l50 179h-180l-50 -179h-43l50 179h-130l12 43h129l67 242h-130l12 43h130l50 182h43l-50 -182h180l50 182h44z" />
    <glyph glyph-name="dollar" unicode="$" horiz-adv-x="550" 
d="M259 794h38v-98q78 -8 128.5 -56.5t54.5 -122.5h-45q-4 61 -50.5 98t-115.5 37q-66 0 -116 -39t-50 -98q0 -96 122 -124l97 -22q91 -21 142 -73.5t37 -142.5q-12 -61 -65.5 -108t-138.5 -54v-114h-38v113q-88 5 -144.5 61t-62.5 128h45q6 -57 53.5 -100.5t119.5 -43.5
q79 0 128 37.5t59 88.5q18 126 -145 164l-96 23q-159 34 -159 167q0 76 60.5 127t141.5 55v97z" />
    <glyph glyph-name="percent" unicode="%" horiz-adv-x="674" 
d="M516 668h-38l-326 -668h39zM40 552q0 51 34.5 86t85.5 35q50 0 85.5 -35.5t35.5 -85.5q0 -51 -35 -85.5t-86 -34.5t-85.5 34.5t-34.5 85.5zM85 552q0 -32 21.5 -53.5t53.5 -21.5t54 21.5t22 53.5t-22 54t-54 22t-53.5 -22t-21.5 -54zM394 113q0 51 34.5 86t85.5 35
q50 0 85.5 -35.5t35.5 -85.5q0 -51 -35 -85.5t-86 -34.5t-85.5 34.5t-34.5 85.5zM439 113q0 -32 21.5 -53.5t53.5 -21.5t54 21.5t22 53.5q0 31 -22 53.5t-54 22.5t-53.5 -22t-21.5 -54z" />
    <glyph glyph-name="ampersand" unicode="&#x26;" horiz-adv-x="662" 
d="M280 35q76 0 125 46t51 117v177h-175q-75 0 -125.5 -50t-50.5 -120q0 -72 49 -121t126 -49zM162 535q0 -50 34 -83.5t87 -33.5h173v89h45v-90h94v-42h-94v-170q0 -80 22.5 -123t89.5 -46v-44q-53 0 -92.5 28t-50.5 80q-21 -53 -76 -82t-115 -29q-96 0 -158 62.5
t-62 153.5q0 63 35 117t95 78q-34 22 -53 59t-19 76q0 68 49 115t121 47q97 0 147 -73q-16 -10 -37 -25q-37 53 -110 53q-53 0 -89 -34t-36 -83z" />
    <glyph glyph-name="quotesingle" unicode="'" horiz-adv-x="202" 
d="M81 432v257h40v-257h-40z" />
    <glyph glyph-name="parenleft" unicode="(" horiz-adv-x="345" 
d="M56 231q0 215 68 337.5t182 127.5v-45q-94 -5 -149.5 -115.5t-55.5 -304.5q0 -193 55.5 -304t149.5 -115v-46q-114 5 -182 128t-68 337z" />
    <glyph glyph-name="parenright" unicode=")" horiz-adv-x="345" 
d="M289 231q0 -214 -68 -337t-182 -128v46q94 4 149.5 115t55.5 304q0 194 -55.5 304.5t-149.5 115.5v45q114 -5 182 -127.5t68 -337.5z" />
    <glyph glyph-name="asterisk" unicode="*" horiz-adv-x="465" 
d="M148 366l-39 29l96 117l-146 41l16 47l140 -54l-9 151h52l-10 -151l143 54l14 -46l-145 -39l95 -120l-38 -27l-81 125z" />
    <glyph glyph-name="plus" unicode="+" horiz-adv-x="519" 
d="M60 283h177v176h44v-176h178v-44h-178v-178h-44v178h-177v44z" />
    <glyph glyph-name="comma" unicode="," horiz-adv-x="229" 
d="M65 -137l-32 11q62 87 59 199h50q-2 -126 -77 -210z" />
    <glyph glyph-name="hyphen" unicode="-" horiz-adv-x="479" 
d="M75 207v43h329v-43h-329z" />
    <glyph glyph-name="period" unicode="." horiz-adv-x="233" 
d="M75 28q0 17 12 28t29 11q18 0 30 -11t12 -28q0 -16 -12.5 -27t-29.5 -11t-29 11t-12 27z" />
    <glyph glyph-name="slash" unicode="/" horiz-adv-x="457" 
d="M36 0l335 689h50l-335 -689h-50z" />
    <glyph glyph-name="zero" unicode="0" horiz-adv-x="604" 
d="M71 331q0 76 10.5 134.5t35.5 107t71.5 74.5t113.5 26t113 -26t70.5 -74.5t35 -107t10.5 -134.5t-10.5 -133.5t-35 -106.5t-70.5 -75t-113 -26t-113.5 26t-71.5 75t-35.5 107t-10.5 133zM117 331q0 -65 8.5 -115.5t28.5 -92.5t57.5 -64.5t90.5 -22.5t90 22.5t57 64.5
t28 92t8 116q0 138 -40.5 217t-142.5 79q-53 0 -90.5 -22.5t-57.5 -64.5t-28.5 -92.5t-8.5 -116.5z" />
    <glyph glyph-name="one" unicode="1" horiz-adv-x="308" 
d="M204 0h-46v609l-116 -41v43l162 60v-671z" />
    <glyph glyph-name="two" unicode="2" horiz-adv-x="514" 
d="M449 45v-45h-389v16l280 334q60 72 60 138q0 62 -42.5 101t-106.5 39q-56 0 -98.5 -29.5t-53.5 -78.5l-42 11q14 65 67.5 103.5t126.5 38.5q83 0 138.5 -51.5t55.5 -133.5q0 -85 -72 -169l-232 -274h308z" />
    <glyph glyph-name="three" unicode="3" horiz-adv-x="540" 
d="M404 490q5 55 -31 94t-104 44q-44 4 -85.5 -16.5t-61.5 -54.5l-37 22q27 46 77.5 72t109.5 22q92 -6 138.5 -59.5t39.5 -128.5q-4 -41 -29 -75.5t-65 -51.5q55 -13 90.5 -69t30.5 -115q-7 -82 -77.5 -136t-160.5 -47q-64 4 -114.5 38t-73.5 85l41 18q19 -41 60.5 -67
t89.5 -29q74 -4 128 37t61 107q1 68 -44 111t-108 43h-66v44h66q46 -1 83.5 31.5t41.5 80.5z" />
    <glyph glyph-name="four" unicode="4" horiz-adv-x="573" 
d="M381 575l-266 -388h266v388zM530 144h-104v-144h-45v144h-348l360 520h33v-477h104v-43z" />
    <glyph glyph-name="five" unicode="5" horiz-adv-x="553" 
d="M453 619h-276l-46 -251q89 41 154 41q85 0 149 -55t64 -150t-62.5 -154t-168.5 -59q-64 0 -124.5 37t-90.5 94q4 3 19.5 13t19.5 13q23 -47 73.5 -78.5t102.5 -31.5q86 0 135.5 47t49.5 119q0 73 -51.5 116t-115.5 43q-50 0 -89 -11t-98 -40l-18 24l58 328h315v-45z" />
    <glyph glyph-name="six" unicode="6" horiz-adv-x="553" 
d="M77 208q-3 47 -3.5 86.5t2.5 89.5t11 89t25 78t41.5 65t62.5 42t87 15q124 -2 174 -114l-41 -17q-38 84 -134 86q-48 1 -83 -20t-54 -52.5t-30 -78t-14 -86.5t-2 -88q18 54 68.5 81.5t108.5 25.5q87 -4 143 -67.5t53 -151.5q-4 -88 -65 -146t-148 -55q-85 3 -140 62
t-62 156zM122 207q-1 -72 45 -120.5t114 -50.5t115.5 43t50.5 114q3 70 -41 119.5t-111 51.5q-70 2 -120.5 -43t-52.5 -114z" />
    <glyph glyph-name="seven" unicode="7" horiz-adv-x="504" 
d="M117 0h-52l342 619h-349v45h425z" />
    <glyph glyph-name="eight" unicode="8" horiz-adv-x="561" 
d="M161 516q0 -46 32.5 -79t80.5 -34h10q51 1 84.5 34t33.5 79q0 47 -35.5 79.5t-86.5 32.5t-85 -32.5t-34 -79.5zM105 198q0 -69 50 -116t125 -47t125.5 47t50.5 116q0 66 -50 114.5t-123 49.5h-11q-71 -2 -119 -50t-48 -114zM116 516q0 66 47 111.5t117 45.5
q71 0 119.5 -45.5t48.5 -111.5q0 -41 -21 -75.5t-57 -55.5q59 -23 95 -74t36 -113q0 -87 -64 -147.5t-157 -60.5q-94 0 -157 60t-63 148q0 62 35 113t94 75q-34 20 -53.5 54t-19.5 76z" />
    <glyph glyph-name="nine" unicode="9" horiz-adv-x="554" 
d="M477 455q4 -56 3.5 -102t-5 -103.5t-20 -101t-40 -81.5t-67 -58t-98.5 -19q-126 2 -175 113l40 18q38 -84 137 -86q48 -1 83 20t54 52t29.5 77t13.5 85.5t2 87.5q-18 -51 -69 -78.5t-107 -25.5q-87 3 -143 66.5t-54 152.5q5 87 66 145t148 56q84 -3 139.5 -62t62.5 -156z
M432 456q1 72 -45 120.5t-114 50.5t-116 -43t-51 -115q-2 -70 41.5 -119.5t111.5 -51.5q69 -2 120 43t53 115z" />
    <glyph glyph-name="colon" unicode=":" horiz-adv-x="233" 
d="M75 438q0 17 12 28t29 11q18 0 30 -11t12 -28q0 -16 -12.5 -27t-29.5 -11t-29 11t-12 27zM75 28q0 17 12 28t29 11q18 0 30 -11t12 -28q0 -16 -12.5 -27t-29.5 -11t-29 11t-12 27z" />
    <glyph glyph-name="semicolon" unicode=";" horiz-adv-x="267" 
d="M90 -137l-33 11q63 88 60 199h49q-2 -125 -76 -210zM100 438q0 17 12 28t29 11q18 0 30 -11t12 -28q0 -16 -12.5 -27t-29.5 -11t-29 11t-12 27z" />
    <glyph glyph-name="less" unicode="&#x3c;" horiz-adv-x="634" 
d="M560 432l-456 -172l456 -172v-48l-509 195v51l509 195v-49z" />
    <glyph glyph-name="equal" unicode="=" horiz-adv-x="609" 
d="M79 121v44h451v-44h-451zM79 331v44h451v-44h-451z" />
    <glyph glyph-name="greater" unicode="&#x3e;" horiz-adv-x="634" 
d="M74 88l456 172l-456 172v49l509 -195v-51l-509 -195v48z" />
    <glyph glyph-name="question" unicode="?" horiz-adv-x="479" 
d="M92 518l-45 2q4 80 58 128t131 48q81 0 140 -52.5t59 -135.5q0 -67 -40 -116t-99 -66q-51 -15 -74.5 -36t-23.5 -70v-52h-45v52q0 67 32 98t97 51q46 14 76.5 51t30.5 88q0 63 -45.5 103t-107.5 40q-59 0 -100 -36.5t-44 -96.5zM134 32q0 16 12 27t29 11t29.5 -11
t12.5 -27t-12.5 -27.5t-29.5 -11.5t-29 11.5t-12 27.5z" />
    <glyph glyph-name="at" unicode="@" horiz-adv-x="998" 
d="M521 -195h-28q-185 0 -312 129t-127 315t128 317t312 131q189 0 325 -123.5t136 -305.5q0 -37 -5.5 -75t-19.5 -76t-34 -67t-52 -47.5t-72 -18.5q-58 0 -96 31t-38 102v138q1 64 -44.5 109t-109.5 45t-109 -45t-45 -109t45 -109t109 -45q56 0 96 35v-48q-47 -30 -96 -30
q-81 0 -139 58t-58 139q0 82 58 139.5t139 57.5q80 0 138 -56t59 -137v-144q0 -88 91 -88q38 0 67 23.5t44 61.5t22 77t7 79q0 109 -57.5 198t-153 138.5t-207.5 49.5q-166 0 -281.5 -118.5t-115.5 -286.5q0 -177 123.5 -293t300.5 -108v-43z" />
    <glyph glyph-name="A" unicode="A" horiz-adv-x="626" 
d="M466 229l-153 397l-152 -397h305zM481 187h-336l-72 -187h-48l264 689h48l264 -689h-48z" />
    <glyph glyph-name="B" unicode="B" horiz-adv-x="618" 
d="M524 523q0 -53 -21.5 -95t-64.5 -60q53 -15 88.5 -69.5t35.5 -110.5q0 -78 -51.5 -133t-136.5 -55h-271v689h243q82 0 130 -44t48 -122zM363 344h-214v-299h224q64 0 104 42t40 101t-44 107.5t-110 48.5zM149 644v-257h221q52 0 80.5 41t28.5 95q0 58 -36.5 89.5
t-98.5 31.5h-195z" />
    <glyph glyph-name="C" unicode="C" horiz-adv-x="660" 
d="M596 115l31 -32q-98 -93 -233 -93q-143 0 -240 103t-97 250q0 148 97 251t240 103q133 0 233 -93l-31 -32q-87 80 -202 80q-124 0 -208 -90t-84 -219t84 -218.5t208 -89.5q117 0 202 80z" />
    <glyph glyph-name="D" unicode="D" horiz-adv-x="722" 
d="M148 644v-599h211q122 0 190 83t68 215q0 133 -68 217t-190 84h-211zM359 0h-256v689h256q142 0 222.5 -97t80.5 -249q0 -151 -80.5 -247t-222.5 -96z" />
    <glyph glyph-name="E" unicode="E" horiz-adv-x="551" 
d="M103 0v689h382v-45h-337v-283h295v-45h-295v-271h349v-45h-394z" />
    <glyph glyph-name="F" unicode="F" horiz-adv-x="514" 
d="M103 0v689h377v-45h-332v-283h263v-46h-263v-315h-45z" />
    <glyph glyph-name="G" unicode="G" horiz-adv-x="758" 
d="M671 283h-211v43h261q-3 -167 -87 -252t-232 -85q-146 0 -246 103t-100 251t100 251t246 103q117 0 210 -72l-30 -34q-79 61 -180 61q-127 0 -214 -90t-87 -219t87 -218.5t214 -89.5q117 0 188 64.5t81 183.5z" />
    <glyph glyph-name="H" unicode="H" horiz-adv-x="710" 
d="M562 689h45v-689h-45v321h-414v-321h-45v689h45v-325h414v325z" />
    <glyph glyph-name="I" unicode="I" horiz-adv-x="251" 
d="M103 689h45v-689h-45v689z" />
    <glyph glyph-name="J" unicode="J" horiz-adv-x="252" 
d="M-103 -227q0 5 2 22t2 22q26 -4 47 -4q80 0 117.5 47t37.5 122v707h46v-707q0 -96 -48.5 -155.5t-152.5 -59.5q-21 0 -51 6z" />
    <glyph glyph-name="K" unicode="K" horiz-adv-x="534" 
d="M148 316v-316h-45v689h45v-347l281 347h55l-290 -357l340 -332h-62z" />
    <glyph glyph-name="L" unicode="L" horiz-adv-x="479" 
d="M103 0v689h45v-644h302v-45h-347z" />
    <glyph glyph-name="M" unicode="M" horiz-adv-x="950" 
d="M196 689l280 -572l279 572h45l87 -689h-45l-77 612l-266 -543h-47l-268 544l-77 -613h-44l86 689h47z" />
    <glyph glyph-name="N" unicode="N" horiz-adv-x="684" 
d="M536 689h45v-689h-49l-384 616v-616h-45v689h51l382 -616v616z" />
    <glyph glyph-name="O" unicode="O" horiz-adv-x="805" 
d="M101 343q0 -128 87.5 -218t213.5 -90q127 0 214.5 90t87.5 218q0 129 -87.5 219t-214.5 90q-126 0 -213.5 -90t-87.5 -219zM56 343q0 147 100.5 250.5t245.5 103.5q146 0 246.5 -103t100.5 -251q0 -147 -100.5 -250t-246.5 -103q-145 0 -245.5 103t-100.5 250z" />
    <glyph glyph-name="P" unicode="P" horiz-adv-x="598" 
d="M371 644h-222v-321h217q76 0 112.5 46t36.5 114t-35.5 114.5t-108.5 46.5zM368 278h-219v-278h-46v689h268q96 0 142.5 -59.5t46.5 -146.5t-47 -146t-145 -59z" />
    <glyph glyph-name="Q" unicode="Q" horiz-adv-x="805" 
d="M56 343q0 147 100.5 250.5t245.5 103.5q146 0 246.5 -103t100.5 -251q0 -98 -48 -180.5t-129 -128.5l80 -125l-39 -24l-82 129q-64 -24 -129 -24q-145 0 -245.5 103t-100.5 250zM506 53l-82 130l38 24l85 -135q72 39 114.5 111.5t42.5 159.5q0 129 -87.5 219t-214.5 90
q-126 0 -213.5 -90t-87.5 -219q0 -128 87.5 -218t213.5 -90q56 0 104 18z" />
    <glyph glyph-name="R" unicode="R" horiz-adv-x="604" 
d="M286 278h-137v-278h-46v689h254q96 0 142.5 -59.5t46.5 -146.5t-47 -146t-145 -59h-13l197 -278h-55zM357 644h-208v-321h203q76 0 112.5 46t36.5 114t-35.5 114.5t-108.5 46.5z" />
    <glyph glyph-name="S" unicode="S" horiz-adv-x="562" 
d="M58 179h45q6 -57 53.5 -100.5t119.5 -43.5q79 0 128 37.5t59 88.5q18 126 -145 164l-96 23q-159 34 -159 167q0 78 64 130t148 52q89 0 148 -49t63 -131h-45q-4 61 -50.5 98t-115.5 37q-66 0 -116 -39t-50 -98q0 -96 122 -124l97 -22q91 -21 142 -73.5t37 -142.5
q-13 -66 -73 -114.5t-158 -48.5q-92 0 -152 57t-66 132z" />
    <glyph glyph-name="T" unicode="T" horiz-adv-x="556" 
d="M27 644v45h502v-45h-229v-644h-45v644h-228z" />
    <glyph glyph-name="U" unicode="U" horiz-adv-x="673" 
d="M577 689v-460q0 -106 -70 -173t-171 -67t-170.5 67t-69.5 173v460h45v-460q0 -87 56.5 -140.5t138.5 -53.5t139 54t57 140v460h45z" />
    <glyph glyph-name="V" unicode="V" horiz-adv-x="543" 
d="M299 0h-54l-207 689h47l187 -625l186 625h47z" />
    <glyph glyph-name="W" unicode="W" horiz-adv-x="918" 
d="M632 67l209 622h48l-234 -689h-48l-148 507l-149 -507h-47l-234 689h47l209 -622l152 520h44z" />
    <glyph glyph-name="X" unicode="X" horiz-adv-x="576" 
d="M473 689h55l-213 -317l247 -372h-55l-219 335l-219 -335h-55l246 372l-213 317h55l186 -279z" />
    <glyph glyph-name="Y" unicode="Y" horiz-adv-x="602" 
d="M584 689l-260 -363v-326h-46v326l-258 363h54l227 -316l229 316h54z" />
    <glyph glyph-name="Z" unicode="Z" horiz-adv-x="538" 
d="M99 46h396v-46h-455v37l397 606h-391v46h449v-39z" />
    <glyph glyph-name="bracketleft" unicode="[" horiz-adv-x="283" 
d="M93 -226v915h146v-46h-100v-823h100v-46h-146z" />
    <glyph glyph-name="backslash" unicode="\" horiz-adv-x="457" 
d="M36 689h50l335 -689h-50z" />
    <glyph glyph-name="bracketright" unicode="]" horiz-adv-x="283" 
d="M44 689h146v-915h-146v46h100v823h-100v46z" />
    <glyph glyph-name="underscore" unicode="_" horiz-adv-x="679" 
d="M74 -85v44h531v-44h-531z" />
    <glyph glyph-name="grave" unicode="`" horiz-adv-x="437" 
d="M215 545l-86 130h55l76 -130h-45z" />
    <glyph glyph-name="a" unicode="a" 
d="M490 0v101q-28 -51 -82 -81t-116 -30q-101 0 -171 70t-70 174t70 173.5t171 69.5q63 0 116.5 -29.5t81.5 -80.5v100h46v-467h-46zM97 234q0 -84 57 -141t138 -57q82 0 139.5 54.5t58.5 138.5q0 88 -57.5 145t-140.5 57q-82 0 -138.5 -56.5t-56.5 -140.5z" />
    <glyph glyph-name="b" unicode="b" 
d="M523 234q0 84 -56.5 140.5t-138.5 56.5q-83 0 -140.5 -57t-57.5 -145q1 -84 58.5 -138.5t139.5 -54.5q81 0 138 57t57 141zM130 101v-101h-46v733h46v-366q28 51 81.5 80.5t116.5 29.5q101 0 171 -69.5t70 -173.5t-70 -174t-171 -70q-62 0 -116 30t-82 81z" />
    <glyph glyph-name="c" unicode="c" horiz-adv-x="499" 
d="M424 80l30 -34q-67 -56 -160 -56q-102 0 -172.5 68t-70.5 177q0 108 70.5 175t172.5 67q89 0 159 -55l-29 -34q-57 44 -130 44q-83 0 -140.5 -54.5t-57.5 -142.5q0 -89 57.5 -144.5t140.5 -55.5q74 0 130 45z" />
    <glyph glyph-name="d" unicode="d" 
d="M490 0v101q-28 -51 -82 -81t-116 -30q-101 0 -171 70t-70 174t70 173.5t171 69.5q63 0 116.5 -29.5t81.5 -80.5v366h46v-733h-46zM97 234q0 -84 57 -141t138 -57q82 0 139.5 54.5t58.5 138.5q0 88 -57.5 145t-140.5 57q-82 0 -138.5 -56.5t-56.5 -140.5z" />
    <glyph glyph-name="e" unicode="e" horiz-adv-x="560" 
d="M287 432q-76 0 -129 -48t-60 -128h372q-7 81 -57 128.5t-126 47.5zM516 235q0 -14 -1 -21h-417q6 -80 59.5 -129.5t129.5 -49.5q52 0 95 23.5t68 65.5l43 -15q-30 -56 -84.5 -87.5t-121.5 -31.5q-100 0 -167.5 68t-67.5 177q0 108 67.5 175t167.5 67q101 0 165 -66.5
t64 -175.5z" />
    <glyph glyph-name="f" unicode="f" horiz-adv-x="314" 
d="M122 426h-94v41h94v68q0 198 159 198h41v-44h-41q-114 0 -114 -154v-68h125v-41h-125v-426h-45v426z" />
    <glyph glyph-name="g" unicode="g" 
d="M97 233q0 -84 56.5 -140.5t138.5 -56.5q81 0 139.5 55.5t58.5 141.5t-57.5 142t-140.5 56q-81 0 -138 -57t-57 -141zM90 -127l38 25q57 -85 157 -85q98 0 151.5 58t53.5 198v34q-27 -51 -81 -82t-117 -31q-101 0 -171 69.5t-70 173.5t70 174t171 70q62 0 116 -30t82 -81
v101h46v-397q0 -165 -65.5 -234t-185.5 -69q-125 0 -195 106z" />
    <glyph glyph-name="h" unicode="h" horiz-adv-x="559" 
d="M84 0v733h46v-358q19 52 65.5 77t99.5 25q84 0 135.5 -55t50.5 -148v-274h-45v274q0 73 -39 115.5t-102 42.5q-69 0 -116.5 -41.5t-48.5 -128.5v-262h-46z" />
    <glyph glyph-name="i" unicode="i" horiz-adv-x="213" 
d="M129 467h-45v-467h45v467zM66 640q0 16 11.5 26.5t28.5 10.5t28 -10.5t11 -26.5t-11 -26.5t-28 -10.5t-28.5 10.5t-11.5 26.5z" />
    <glyph glyph-name="j" unicode="j" horiz-adv-x="213" 
d="M129 467v-496q0 -197 -159 -197h-41v44h41q114 0 114 153v496h45zM67 640q0 16 11.5 26.5t28.5 10.5t28 -10.5t11 -26.5t-11 -26.5t-28 -10.5t-28.5 10.5t-11.5 26.5z" />
    <glyph glyph-name="k" unicode="k" horiz-adv-x="454" 
d="M183 264l265 -264h-63l-256 254v-254h-45v733h45v-459l190 193h65z" />
    <glyph glyph-name="l" unicode="l" horiz-adv-x="213" 
d="M129 0h-45v733h45v-733z" />
    <glyph glyph-name="m" unicode="m" horiz-adv-x="911" 
d="M481 0h-45v274q0 73 -39 115.5t-102 42.5q-69 0 -116.5 -41.5t-48.5 -128.5v-262h-46v467h46v-92q19 51 66.5 76.5t98.5 25.5q63 0 108 -31.5t64 -89.5q14 46 47.5 74.5t65.5 37.5t67 9q84 0 135.5 -55t50.5 -148v-274h-45v274q0 73 -39 115.5t-102 42.5
q-69 0 -116.5 -41.5t-49.5 -128.5v-262z" />
    <glyph glyph-name="n" unicode="n" horiz-adv-x="559" 
d="M84 0v467h46v-92q19 52 65.5 77t99.5 25q84 0 135.5 -55t50.5 -148v-274h-45v274q0 73 -39 115.5t-102 42.5q-69 0 -116.5 -41.5t-48.5 -128.5v-262h-46z" />
    <glyph glyph-name="o" unicode="o" horiz-adv-x="590" 
d="M295 35q84 0 141.5 55.5t57.5 144.5q0 88 -57.5 142.5t-141.5 54.5t-141.5 -54.5t-57.5 -142.5q0 -89 57.5 -144.5t141.5 -55.5zM295 -10q-103 0 -173.5 68t-70.5 177q0 108 70.5 175t173.5 67t173.5 -67t70.5 -175q0 -109 -70.5 -177t-173.5 -68z" />
    <glyph glyph-name="p" unicode="p" 
d="M130 467v-101q28 51 82 81t116 30q101 0 171 -70t70 -175q0 -104 -70 -173t-171 -69q-63 0 -116.5 29t-81.5 80v-325h-46v693h46zM523 232q0 84 -57 141.5t-138 57.5q-82 0 -139.5 -54.5t-58.5 -139.5q0 -87 58 -144t140 -57t138.5 56t56.5 140z" />
    <glyph glyph-name="q" unicode="q" 
d="M97 232q0 -84 56.5 -140t138.5 -56t140 57t58 144q-1 85 -58.5 139.5t-139.5 54.5q-81 0 -138 -57.5t-57 -141.5zM490 366v101h46v-693h-46v325q-28 -51 -81.5 -80t-116.5 -29q-101 0 -171 69t-70 173q0 105 70 175t171 70q62 0 116 -30t82 -81z" />
    <glyph glyph-name="r" unicode="r" horiz-adv-x="369" 
d="M130 0h-46v467h46v-121q16 61 55 96t98 35q40 0 69 -13l-8 -44q-27 11 -61 11q-43 0 -74 -23t-47.5 -61.5t-24 -79.5t-7.5 -87v-180z" />
    <glyph glyph-name="s" unicode="s" horiz-adv-x="422" 
d="M213 477q58 0 97.5 -30.5t46.5 -86.5h-45q-6 33 -33 53t-66 20q-40 0 -69.5 -19t-33.5 -49q-10 -74 81 -96l67 -16q115 -28 115 -129q0 -60 -45.5 -97t-118.5 -37q-61 0 -108.5 34.5t-55.5 94.5h42q29 -85 125 -85q53 0 84.5 24.5t31.5 65.5q0 66 -80 85l-68 16
q-55 13 -88.5 44.5t-26.5 101.5q7 47 49 76.5t99 29.5z" />
    <glyph glyph-name="t" unicode="t" horiz-adv-x="293" 
d="M266 467v-41h-109v-426h-45v426h-85v41h85v188h45v-188h109z" />
    <glyph glyph-name="u" unicode="u" horiz-adv-x="560" 
d="M476 467v-467h-46v92q-19 -52 -65.5 -77t-99.5 -25q-84 0 -135.5 54.5t-51.5 148.5v274h46v-274q0 -73 39 -115.5t102 -42.5q69 0 116.5 41.5t48.5 128.5v262h46z" />
    <glyph glyph-name="v" unicode="v" horiz-adv-x="501" 
d="M250 51l175 416h49l-197 -467h-53l-196 467h49z" />
    <glyph glyph-name="w" unicode="w" horiz-adv-x="817" 
d="M737 467h48l-175 -467h-42l-161 417l-156 -417h-42l-180 467h49l151 -398l149 398h59l151 -397z" />
    <glyph glyph-name="x" unicode="x" horiz-adv-x="462" 
d="M353 467h57l-151 -209l186 -258h-56l-158 219l-159 -219h-55l186 258l-151 209h57l122 -170z" />
    <glyph glyph-name="y" unicode="y" horiz-adv-x="500" 
d="M474 467l-297 -693h-45l93 224l-197 469h48l174 -412l175 412h49z" />
    <glyph glyph-name="z" unicode="z" horiz-adv-x="479" 
d="M433 45v-45h-391v36l324 386h-317v45h384v-37l-326 -385h326z" />
    <glyph glyph-name="braceleft" unicode="{" horiz-adv-x="373" 
d="M332 -226h-35q-79 0 -133.5 51.5t-54.5 135.5v173q0 29 -19 53t-47 28v39q28 4 47 27.5t19 52.5v176q-1 83 54 135t134 52h35v-43h-35q-60 0 -102 -40.5t-41 -103.5v-176q0 -31 -15.5 -59t-41.5 -42q25 -13 41 -41.5t16 -57.5v-173q0 -64 41.5 -104t101.5 -40h35v-43z
" />
    <glyph glyph-name="bar" unicode="|" horiz-adv-x="224" 
d="M93 794h38v-920h-38v920z" />
    <glyph glyph-name="braceright" unicode="}" horiz-adv-x="372" 
d="M76 -226h-35v43h35q61 0 102 40t41 104v173q0 29 16 57.5t41 41.5q-26 14 -41.5 42t-15.5 59v176q1 68 -44 106t-110 38h-24v43h35q74 0 128 -47t59 -122q1 -12 1 -39v-155q0 -29 19 -52.5t47 -27.5v-39q-28 -4 -47 -28t-19 -53v-173q0 -84 -54.5 -135.5t-133.5 -51.5z
" />
    <glyph glyph-name="exclamdown" unicode="&#xa1;" horiz-adv-x="220" 
d="M88 -226l2 521h40l3 -521h-45zM69 431q0 16 12 27.5t29 11.5t29.5 -11.5t12.5 -27.5t-12.5 -27t-29.5 -11t-29 11t-12 27z" />
    <glyph glyph-name="cent" unicode="&#xa2;" horiz-adv-x="520" 
d="M303 -10v-110h-38v112q-92 11 -151.5 77t-59.5 166q0 99 59.5 164t151.5 76v104h38v-102q85 -3 153 -55l-29 -34q-57 44 -130 44q-83 0 -140.5 -54.5t-57.5 -142.5q0 -89 57.5 -144.5t140.5 -55.5q74 0 130 45l30 -34q-63 -53 -154 -56z" />
    <glyph glyph-name="sterling" unicode="&#xa3;" horiz-adv-x="635" 
d="M149 45v247h-83v40h83v183q0 83 59.5 135.5t139.5 52.5q77 0 131 -48.5t58 -128.5h-45q-4 59 -45 95t-99 36q-62 0 -108 -39.5t-46 -102.5v-183h139v-40h-139v-247h307q14 0 23.5 10.5t9.5 26.5v50h45v-50q0 -34 -23 -58t-55 -24h-453v45h101z" />
    <glyph glyph-name="currency" unicode="&#xa4;" horiz-adv-x="600" 
d="M154 464l-76 76l28 28l77 -77q47 40 116 40q66 0 116 -41l78 78l28 -28l-77 -78q41 -52 41 -116q0 -65 -40 -117l77 -77l-28 -28l-77 77q-51 -42 -118 -42q-70 0 -118 41l-75 -75l-28 29l75 74q-41 50 -41 118t42 118zM160 346q0 -59 40.5 -99.5t99.5 -40.5t99.5 40.5
t40.5 99.5t-40.5 99.5t-99.5 40.5t-99.5 -40.5t-40.5 -99.5z" />
    <glyph glyph-name="yen" unicode="&#xa5;" horiz-adv-x="632" 
d="M598 689l-260 -363v-34h163v-37h-163v-95h163v-37h-163v-123h-46v123h-164v37h164v95h-164v37h164v34l-258 363h54l227 -316l229 316h54z" />
    <glyph glyph-name="brokenbar" unicode="&#xa6;" horiz-adv-x="228" 
d="M95 239h38v-365h-38v365zM133 428h-38v366h38v-366z" />
    <glyph glyph-name="section" unicode="&#xa7;" horiz-adv-x="503" 
d="M170 325v49q37 13 75 13q80 0 135 -51.5t55 -135.5v-137q0 -84 -55 -136t-135 -52q-58 0 -105 29t-68 79l42 15q17 -36 52.5 -57t78.5 -21q61 0 103 39.5t42 103.5v137q0 64 -41.5 103t-103.5 39q-45 0 -75 -17zM334 248v-49q-36 -14 -75 -14q-80 0 -135 51.5t-55 135.5
v137q0 84 55 136t135 52q58 0 105 -29t68 -79l-42 -15q-17 36 -52.5 57t-78.5 21q-61 0 -103 -39.5t-42 -103.5v-137q0 -64 41.5 -103t103.5 -39q46 0 75 18z" />
    <glyph glyph-name="dieresis" unicode="&#xa8;" horiz-adv-x="482" 
d="M120 629q0 16 11.5 26.5t27.5 10.5q17 0 28.5 -10.5t11.5 -26.5t-11.5 -26t-28.5 -10q-16 0 -27.5 10.5t-11.5 25.5zM283 629q0 16 11.5 26.5t27.5 10.5q17 0 28.5 -10.5t11.5 -26.5t-11.5 -26t-28.5 -10q-16 0 -27.5 10.5t-11.5 25.5z" />
    <glyph glyph-name="copyright" unicode="&#xa9;" horiz-adv-x="819" 
d="M521 229l-26 29q-42 -39 -87 -39q-50 0 -85.5 36.5t-35.5 86.5q0 52 35.5 88t85.5 36q44 0 88 -39l26 30q-52 49 -114 49q-67 0 -113 -48t-46 -116q0 -66 46.5 -114t112.5 -48q62 0 113 49zM60 343q0 147 101.5 250.5t247.5 103.5t248 -103.5t102 -250.5t-102 -250
t-248 -103t-247.5 103t-101.5 250zM101 343q0 -129 89.5 -220.5t218.5 -91.5t219 91.5t90 220.5t-90 221t-219 92t-218.5 -92t-89.5 -221z" />
    <glyph glyph-name="ordfeminine" unicode="&#xaa;" horiz-adv-x="482" 
d="M358 358v55q-42 -61 -122 -61q-67 0 -113 46t-46 114t46 113.5t113 45.5q83 0 122 -60v53h38v-306h-38zM116 512q0 -51 35 -86.5t85 -35.5t85.5 33t36.5 85q0 54 -35.5 89.5t-86.5 35.5q-50 0 -85 -34.5t-35 -86.5zM90 263v34h305v-34h-305z" />
    <glyph glyph-name="guillemotleft" unicode="&#xab;" horiz-adv-x="426" 
d="M242 25h-51l-138 207l138 207h50l-138 -207zM370 25h-50l-138 207l138 207h50l-138 -207z" />
    <glyph glyph-name="logicalnot" unicode="&#xac;" horiz-adv-x="651" 
d="M88 340h484v-210h-44v167h-440v43z" />
    <glyph glyph-name="registered" unicode="&#xae;" horiz-adv-x="819" 
d="M349 303h44l86 -121h47l-87 122q41 4 61 31t20 66q0 42 -22.5 70.5t-68.5 28.5h-120v-318h40v121zM349 461h80q27 0 40 -17.5t13 -42.5q0 -26 -13.5 -43t-41.5 -17h-78v120zM60 343q0 147 101.5 250.5t247.5 103.5t248 -103.5t102 -250.5t-102 -250t-248 -103t-247.5 103
t-101.5 250zM101 343q0 -129 89.5 -220.5t218.5 -91.5t219 91.5t90 220.5t-90 221t-219 92t-218.5 -92t-89.5 -221z" />
    <glyph glyph-name="macron" unicode="&#xaf;" horiz-adv-x="472" 
d="M120 604v42h232v-42h-232z" />
    <glyph glyph-name="degree" unicode="&#xb0;" horiz-adv-x="359" 
d="M62 580q0 49 34.5 83t83.5 34t83 -34t34 -83t-34 -83.5t-83 -34.5t-83.5 34.5t-34.5 83.5zM101 580q0 -33 23.5 -56t55.5 -23t55.5 23t23.5 56q0 32 -23.5 55t-55.5 23t-55.5 -23t-23.5 -55z" />
    <glyph glyph-name="plusminus" unicode="&#xb1;" horiz-adv-x="549" 
d="M472 44v-44h-395v44h395zM77 300h175v162h44v-162h176v-43h-176v-163h-44v163h-175v43z" />
    <glyph glyph-name="twosuperior" unicode="&#xb2;" horiz-adv-x="318" 
d="M108 511h168v-40h-237v17l164 196q33 42 33 75t-23.5 53.5t-57.5 20.5q-31 0 -54.5 -17.5t-28.5 -46.5l-37 9q8 43 41 68.5t79 25.5q51 0 85.5 -31.5t34.5 -81.5q0 -51 -43 -101z" />
    <glyph glyph-name="threesuperior" unicode="&#xb3;" horiz-adv-x="326" 
d="M227 760q2 29 -16 49.5t-52 23.5q-24 2 -45.5 -9t-33.5 -30l-31 22q16 27 47 43t66 14q52 -4 81 -36t27 -76q-3 -51 -53 -77q31 -9 51 -41.5t17 -66.5q-5 -50 -45 -82t-95 -28q-78 6 -113 74l32 19q23 -48 84 -53q38 -3 66 19t31 57q1 35 -24.5 58.5t-60.5 23.5h-41v38
h41q26 0 45 16.5t22 41.5z" />
    <glyph glyph-name="acute" unicode="&#xb4;" horiz-adv-x="437" 
d="M204 675h56l-87 -130h-44z" />
    <glyph glyph-name="mu" unicode="&#xb5;" horiz-adv-x="560" 
d="M91 -149v616h46v-274q0 -73 39 -115.5t102 -42.5q69 0 116.5 41.5t48.5 128.5v262h46v-467h-46v92q-19 -52 -65.5 -77t-99.5 -25q-97 0 -141 68v-207h-46z" />
    <glyph glyph-name="paragraph" unicode="&#xb6;" horiz-adv-x="601" 
d="M305 689v-756h-45v333q-93 0 -158.5 62t-65.5 150q0 87 62 149t150 62h57zM260 -144h46q29 0 51.5 21.5t22.5 49.5v762h57q52 0 88.5 -37t36.5 -89v-70h-45v70q0 38 -26.5 59.5t-65.5 21.5v-710q0 -49 -35 -84.5t-84 -35.5h-46v42z" />
    <glyph glyph-name="periodcentered" unicode="&#xb7;" horiz-adv-x="233" 
d="M75 246q0 17 12 28t29 11q18 0 30 -11t12 -28q0 -16 -12.5 -27t-29.5 -11t-29 11t-12 27z" />
    <glyph glyph-name="cedilla" unicode="&#xb8;" horiz-adv-x="506" 
d="M157 -97h40q0 -16 6 -29q9 -20 29.5 -28t40.5 0q34 15 34 48q0 10 -6 24l-37 96h42l32 -80q16 -38 2 -74t-52 -51q-36 -15 -71.5 0t-51.5 52q-8 22 -8 42z" />
    <glyph glyph-name="onesuperior" unicode="&#xb9;" horiz-adv-x="195" 
d="M136 868v-397h-40v343l-67 -24v39z" />
    <glyph glyph-name="ordmasculine" unicode="&#xba;" horiz-adv-x="477" 
d="M236 352q-67 0 -113 46t-46 114t46 113.5t113 45.5t113 -45.5t46 -113.5t-46 -114t-113 -46zM236 633q-50 0 -85 -34.5t-35 -86.5q0 -51 35 -86.5t85 -35.5t85 35.5t35 86.5q0 52 -35 86.5t-85 34.5zM90 263v34h305v-34h-305z" />
    <glyph glyph-name="guillemotright" unicode="&#xbb;" horiz-adv-x="426" 
d="M235 25h-51l139 207l-138 207h50l138 -207zM106 25h-50l138 207l-138 207h50l138 -207z" />
    <glyph glyph-name="onequarter" unicode="&#xbc;" horiz-adv-x="749" 
d="M535 673h48l-448 -683h-48zM706 121v-37h-59v-84h-40v84h-207l217 312h30v-275h59zM607 121v200l-137 -200h137zM156 665v-397h-40v343l-67 -24v39z" />
    <glyph glyph-name="onehalf" unicode="&#xbd;" horiz-adv-x="774" 
d="M550 40h168v-40h-237v16l164 197q33 40 33 74q0 33 -23 53.5t-58 20.5q-31 0 -54.5 -17t-28.5 -46l-36 9q7 43 40.5 68.5t78.5 25.5q52 0 86.5 -32t34.5 -82t-44 -101zM530 673h48l-448 -683h-48zM157 665v-397h-40v343l-67 -24v39z" />
    <glyph glyph-name="threequarters" unicode="&#xbe;" horiz-adv-x="846" 
d="M632 673h48l-448 -683h-48zM803 121v-37h-59v-84h-40v84h-207l217 312h30v-275h59zM704 121v200l-137 -200h137zM245 557q2 30 -16 50t-52 23q-24 2 -45.5 -9t-33.5 -30l-31 22q16 27 47 43t66 14q52 -4 81 -35.5t27 -75.5q-3 -53 -53 -77q32 -10 51.5 -42t16.5 -67
q-5 -50 -45 -82t-95 -28q-78 6 -113 74l33 20q23 -49 83 -54q38 -3 66 19t31 57q1 35 -24.5 58.5t-60.5 23.5h-41v38h41q26 0 45 16.5t22 41.5z" />
    <glyph glyph-name="questiondown" unicode="&#xbf;" horiz-adv-x="465" 
d="M381 -51l45 -2q-4 -80 -58 -128t-131 -48q-81 0 -140 52.5t-59 135.5q0 67 40 116t99 66q51 15 74.5 36t23.5 70v52h45v-52q0 -67 -32 -98t-97 -51q-46 -14 -76.5 -51t-30.5 -88q0 -63 45.5 -103t107.5 -40q59 0 100 36.5t44 96.5zM339 435q0 -16 -12 -27t-29 -11
t-29.5 11t-12.5 27t12.5 27.5t29.5 11.5t29 -11.5t12 -27.5z" />
    <glyph glyph-name="Agrave" unicode="&#xc0;" horiz-adv-x="626" 
d="M313 626l153 -397h-305zM145 187h336l72 -187h48l-264 689h-48l-264 -689h48zM293 745l-86 130h55l76 -130h-45z" />
    <glyph glyph-name="Aacute" unicode="&#xc1;" horiz-adv-x="626" 
d="M466 229l-153 397l-152 -397h305zM481 187h-336l-72 -187h-48l264 689h48l264 -689h-48zM366 875h56l-87 -130h-44z" />
    <glyph glyph-name="Acircumflex" unicode="&#xc2;" horiz-adv-x="626" 
d="M466 229l-153 397l-152 -397h305zM481 187h-336l-72 -187h-48l264 689h48l264 -689h-48zM177 745l104 130h64l104 -130h-46l-90 99l-90 -99h-46z" />
    <glyph glyph-name="Atilde" unicode="&#xc3;" horiz-adv-x="626" 
d="M466 229l-153 397l-152 -397h305zM481 187h-336l-72 -187h-48l264 689h48l264 -689h-48zM265 816q-13 0 -24 -11.5t-12 -33.5h-39q2 41 23 63.5t45 22.5h9q19 0 49 -21t44 -21q13 0 24 10.5t12 32.5h39q-2 -41 -23 -63t-45 -22q-21 0 -54.5 21.5t-47.5 21.5z" />
    <glyph glyph-name="Adieresis" unicode="&#xc4;" horiz-adv-x="626" 
d="M313 626l153 -397h-305zM145 187h336l72 -187h48l-264 689h-48l-264 -689h48zM192 829q0 16 11.5 26.5t27.5 10.5q17 0 28.5 -10.5t11.5 -26.5t-11.5 -26t-28.5 -10q-16 0 -27.5 10.5t-11.5 25.5zM355 829q0 16 11.5 26.5t27.5 10.5q17 0 28.5 -10.5t11.5 -26.5
t-11.5 -26t-28.5 -10q-16 0 -27.5 10.5t-11.5 25.5z" />
    <glyph glyph-name="Aring" unicode="&#xc5;" horiz-adv-x="626" 
d="M313 626l153 -397h-305zM145 187h336l72 -187h48l-264 689h-48l-264 -689h48zM224 844q0 37 25.5 63.5t61.5 26.5q38 0 64 -26t26 -64q0 -37 -26 -62.5t-64 -25.5q-36 0 -61.5 25.5t-25.5 62.5zM261 844q0 -21 14.5 -35.5t36.5 -14.5t37 14.5t15 35.5q0 22 -15 37t-37 15
t-36.5 -15t-14.5 -37z" />
    <glyph glyph-name="AE" unicode="&#xc6;" horiz-adv-x="959" 
d="M15 0l446 689h432v-45h-337v-283h295v-46h-295v-270h349v-45h-394v189h-320l-122 -189h-54zM511 233v411h-23l-269 -411h292z" />
    <glyph glyph-name="Ccedilla" unicode="&#xc7;" horiz-adv-x="660" 
d="M238 -97h40q0 -16 6 -29q9 -20 29.5 -28t40.5 0q34 15 34 48q0 10 -6 24l-29 75q-128 15 -212 114.5t-84 235.5q0 148 97 251t240 103q133 0 233 -93l-31 -32q-87 80 -202 80q-124 0 -208 -90t-84 -219t84 -218.5t208 -89.5q117 0 202 80l31 -32q-96 -92 -231 -93l23 -56
q16 -38 2 -74t-52 -51q-36 -15 -71.5 0t-51.5 52q-8 22 -8 42z" />
    <glyph glyph-name="Egrave" unicode="&#xc8;" horiz-adv-x="551" 
d="M103 689v-689h394v45h-349v271h295v45h-295v283h337v45h-382zM286 745l-86 130h55l76 -130h-45z" />
    <glyph glyph-name="Eacute" unicode="&#xc9;" horiz-adv-x="551" 
d="M103 0v689h382v-45h-337v-283h295v-45h-295v-271h349v-45h-394zM308 875h56l-87 -130h-44z" />
    <glyph glyph-name="Ecircumflex" unicode="&#xca;" horiz-adv-x="551" 
d="M103 0v689h382v-45h-337v-283h295v-45h-295v-271h349v-45h-394zM144 745l104 130h64l104 -130h-46l-90 99l-90 -99h-46z" />
    <glyph glyph-name="Edieresis" unicode="&#xcb;" horiz-adv-x="551" 
d="M103 689v-689h394v45h-349v271h295v45h-295v283h337v45h-382zM159 829q0 16 11.5 26.5t27.5 10.5q17 0 28.5 -10.5t11.5 -26.5t-11.5 -26t-28.5 -10q-16 0 -27.5 10.5t-11.5 25.5zM322 829q0 16 11.5 26.5t27.5 10.5q17 0 28.5 -10.5t11.5 -26.5t-11.5 -26t-28.5 -10
q-16 0 -27.5 10.5t-11.5 25.5z" />
    <glyph glyph-name="Igrave" unicode="&#xcc;" horiz-adv-x="251" 
d="M148 689h-45v-689h45v689zM103 745l-86 130h55l76 -130h-45z" />
    <glyph glyph-name="Iacute" unicode="&#xcd;" horiz-adv-x="251" 
d="M103 689h45v-689h-45v689zM177 875h56l-87 -130h-44z" />
    <glyph glyph-name="Icircumflex" unicode="&#xce;" horiz-adv-x="251" 
d="M103 689h45v-689h-45v689zM-10 745l104 130h64l104 -130h-46l-90 99l-90 -99h-46z" />
    <glyph glyph-name="Idieresis" unicode="&#xcf;" horiz-adv-x="251" 
d="M148 689h-45v-689h45v689zM5 829q0 16 11.5 26.5t27.5 10.5q17 0 28.5 -10.5t11.5 -26.5t-11.5 -26t-28.5 -10q-16 0 -27.5 10.5t-11.5 25.5zM168 829q0 16 11.5 26.5t27.5 10.5q17 0 28.5 -10.5t11.5 -26.5t-11.5 -26t-28.5 -10q-16 0 -27.5 10.5t-11.5 25.5z" />
    <glyph glyph-name="Eth" unicode="&#xd0;" horiz-adv-x="727" 
d="M152 644v-282h185v-42h-185v-275h211q122 0 190.5 83t68.5 215q0 133 -68.5 217t-190.5 84h-211zM363 0h-256v320h-98v42h98v327h256q142 0 223 -97t81 -249q0 -151 -81 -247t-223 -96z" />
    <glyph glyph-name="Ntilde" unicode="&#xd1;" horiz-adv-x="684" 
d="M536 689h45v-689h-49l-384 616v-616h-45v689h51l382 -616v616zM294 816q-13 0 -24 -11.5t-12 -33.5h-39q2 41 23 63.5t45 22.5h9q20 0 49.5 -21t43.5 -21q13 0 24 10.5t12 32.5h39q-2 -41 -23 -63t-45 -22q-21 0 -54.5 21.5t-47.5 21.5z" />
    <glyph glyph-name="Ograve" unicode="&#xd2;" horiz-adv-x="805" 
d="M101 343q0 129 87.5 219t213.5 90q127 0 214.5 -90t87.5 -219q0 -128 -87.5 -218t-214.5 -90q-126 0 -213.5 90t-87.5 218zM56 343q0 -147 100.5 -250t245.5 -103q146 0 246.5 103t100.5 250q0 148 -100.5 251t-246.5 103q-145 0 -245.5 -103.5t-100.5 -250.5zM376 745
l-86 130h55l76 -130h-45z" />
    <glyph glyph-name="Oacute" unicode="&#xd3;" horiz-adv-x="805" 
d="M101 343q0 -128 87.5 -218t213.5 -90q127 0 214.5 90t87.5 218q0 129 -87.5 219t-214.5 90q-126 0 -213.5 -90t-87.5 -219zM56 343q0 147 100.5 250.5t245.5 103.5q146 0 246.5 -103t100.5 -251q0 -147 -100.5 -250t-246.5 -103q-145 0 -245.5 103t-100.5 250zM457 875
h56l-87 -130h-44z" />
    <glyph glyph-name="Ocircumflex" unicode="&#xd4;" horiz-adv-x="805" 
d="M101 343q0 -128 87.5 -218t213.5 -90q127 0 214.5 90t87.5 218q0 129 -87.5 219t-214.5 90q-126 0 -213.5 -90t-87.5 -219zM56 343q0 147 100.5 250.5t245.5 103.5q146 0 246.5 -103t100.5 -251q0 -147 -100.5 -250t-246.5 -103q-145 0 -245.5 103t-100.5 250zM269 745
l104 130h64l104 -130h-46l-90 99l-90 -99h-46z" />
    <glyph glyph-name="Otilde" unicode="&#xd5;" horiz-adv-x="805" 
d="M101 343q0 -128 87.5 -218t213.5 -90q127 0 214.5 90t87.5 218q0 129 -87.5 219t-214.5 90q-126 0 -213.5 -90t-87.5 -219zM56 343q0 147 100.5 250.5t245.5 103.5q146 0 246.5 -103t100.5 -251q0 -147 -100.5 -250t-246.5 -103q-145 0 -245.5 103t-100.5 250zM357 816
q-13 0 -24 -11.5t-12 -33.5h-39q2 41 23 63.5t45 22.5h9q19 0 49 -21t44 -21q13 0 24 10.5t12 32.5h39q-2 -41 -23 -63t-45 -22q-21 0 -54.5 21.5t-47.5 21.5z" />
    <glyph glyph-name="Odieresis" unicode="&#xd6;" horiz-adv-x="805" 
d="M101 343q0 129 87.5 219t213.5 90q127 0 214.5 -90t87.5 -219q0 -128 -87.5 -218t-214.5 -90q-126 0 -213.5 90t-87.5 218zM56 343q0 -147 100.5 -250t245.5 -103q146 0 246.5 103t100.5 250q0 148 -100.5 251t-246.5 103q-145 0 -245.5 -103.5t-100.5 -250.5zM284 829
q0 16 11.5 26.5t27.5 10.5q17 0 28.5 -10.5t11.5 -26.5t-11.5 -26t-28.5 -10q-16 0 -27.5 10.5t-11.5 25.5zM447 829q0 16 11.5 26.5t27.5 10.5q17 0 28.5 -10.5t11.5 -26.5t-11.5 -26t-28.5 -10q-16 0 -27.5 10.5t-11.5 25.5z" />
    <glyph glyph-name="multiply" unicode="&#xd7;" horiz-adv-x="471" 
d="M75 143l130 130l-129 129l31 30l128 -128l130 129l31 -31l-129 -129l130 -131l-31 -31l-131 130l-129 -129z" />
    <glyph glyph-name="Oslash" unicode="&#xd8;" horiz-adv-x="804" 
d="M401 35q127 0 214.5 90t87.5 218q0 116 -74 203l-427 -436q86 -75 199 -75zM100 343q0 -117 74 -205l428 435q-85 79 -201 79q-126 0 -213.5 -90t-87.5 -219zM171 78l-87 -88l-28 27l87 89q-88 101 -88 237q0 147 100.5 250.5t245.5 103.5q134 0 233 -91l91 92l27 -27
l-91 -93q87 -100 87 -235q0 -147 -100.5 -250t-246.5 -103q-134 0 -230 88z" />
    <glyph glyph-name="Ugrave" unicode="&#xd9;" horiz-adv-x="673" 
d="M577 689v-460q0 -106 -70 -173t-171 -67t-170.5 67t-69.5 173v460h45v-460q0 -87 56.5 -140.5t138.5 -53.5t139 54t57 140v460h45zM324 745l-86 130h55l76 -130h-45z" />
    <glyph glyph-name="Uacute" unicode="&#xda;" horiz-adv-x="673" 
d="M577 689v-460q0 -106 -70 -173t-171 -67t-170.5 67t-69.5 173v460h45v-460q0 -87 56.5 -140.5t138.5 -53.5t139 54t57 140v460h45zM377 875h56l-87 -130h-44z" />
    <glyph glyph-name="Ucircumflex" unicode="&#xdb;" horiz-adv-x="673" 
d="M577 689v-460q0 -106 -70 -173t-171 -67t-170.5 67t-69.5 173v460h45v-460q0 -87 56.5 -140.5t138.5 -53.5t139 54t57 140v460h45zM200 745l104 130h64l104 -130h-46l-90 99l-90 -99h-46z" />
    <glyph glyph-name="Udieresis" unicode="&#xdc;" horiz-adv-x="673" 
d="M577 689v-460q0 -106 -70 -173t-171 -67t-170.5 67t-69.5 173v460h45v-460q0 -87 56.5 -140.5t138.5 -53.5t139 54t57 140v460h45zM215 829q0 16 11.5 26.5t27.5 10.5q17 0 28.5 -10.5t11.5 -26.5t-11.5 -26t-28.5 -10q-16 0 -27.5 10.5t-11.5 25.5zM378 829
q0 16 11.5 26.5t27.5 10.5q17 0 28.5 -10.5t11.5 -26.5t-11.5 -26t-28.5 -10q-16 0 -27.5 10.5t-11.5 25.5z" />
    <glyph glyph-name="Yacute" unicode="&#xdd;" horiz-adv-x="602" 
d="M584 689l-260 -363v-326h-46v326l-258 363h54l227 -316l229 316h54zM345 875h56l-87 -130h-44z" />
    <glyph glyph-name="Thorn" unicode="&#xde;" horiz-adv-x="568" 
d="M148 512v-318h179q66 0 110.5 45t44.5 116q0 70 -44.5 113.5t-110.5 43.5h-179zM327 149h-179v-149h-45v689h45v-132h179q86 0 143.5 -56t57.5 -146q0 -92 -57.5 -149t-143.5 -57z" />
    <glyph glyph-name="germandbls" unicode="&#xdf;" horiz-adv-x="572" 
d="M477 212q-2 70 -51 120.5t-123 50.5h-34v42h33q52 0 85.5 33.5t33.5 82.5q0 51 -37.5 87t-93.5 37h-10q-66 0 -108 -43.5t-42 -118.5v-503h-46v503q0 96 54.5 151t141.5 55h10q75 0 125.5 -49t50.5 -119q0 -44 -25 -83t-64 -51q64 -11 104.5 -70.5t40.5 -123.5
q0 -94 -63 -157.5t-161 -63.5q-54 0 -103 20l7 43q43 -19 95 -19q79 0 129.5 51t50.5 125z" />
    <glyph glyph-name="agrave" unicode="&#xe0;" 
d="M490 0v101q-28 -51 -82 -81t-116 -30q-101 0 -171 70t-70 174t70 173.5t171 69.5q63 0 116.5 -29.5t81.5 -80.5v100h46v-467h-46zM97 234q0 -84 57 -141t138 -57q82 0 139.5 54.5t58.5 138.5q0 88 -57.5 145t-140.5 57q-82 0 -138.5 -56.5t-56.5 -140.5zM281 545l-86 130
h55l76 -130h-45z" />
    <glyph glyph-name="aacute" unicode="&#xe1;" 
d="M490 0v101q-28 -51 -82 -81t-116 -30q-101 0 -171 70t-70 174t70 173.5t171 69.5q63 0 116.5 -29.5t81.5 -80.5v100h46v-467h-46zM97 234q0 -84 57 -141t138 -57q82 0 139.5 54.5t58.5 138.5q0 88 -57.5 145t-140.5 57q-82 0 -138.5 -56.5t-56.5 -140.5zM338 675h56
l-87 -130h-44z" />
    <glyph glyph-name="acircumflex" unicode="&#xe2;" 
d="M490 0v101q-28 -51 -82 -81t-116 -30q-101 0 -171 70t-70 174t70 173.5t171 69.5q63 0 116.5 -29.5t81.5 -80.5v100h46v-467h-46zM97 234q0 -84 57 -141t138 -57q82 0 139.5 54.5t58.5 138.5q0 88 -57.5 145t-140.5 57q-82 0 -138.5 -56.5t-56.5 -140.5zM158 545l104 130
h64l104 -130h-46l-90 99l-90 -99h-46z" />
    <glyph glyph-name="atilde" unicode="&#xe3;" 
d="M490 0v101q-28 -51 -82 -81t-116 -30q-101 0 -171 70t-70 174t70 173.5t171 69.5q63 0 116.5 -29.5t81.5 -80.5v100h46v-467h-46zM97 234q0 -84 57 -141t138 -57q82 0 139.5 54.5t58.5 138.5q0 88 -57.5 145t-140.5 57q-82 0 -138.5 -56.5t-56.5 -140.5zM261 616
q-13 0 -24 -11.5t-12 -33.5h-39q2 41 23 63.5t45 22.5h9q19 0 49 -21t44 -21q13 0 24 10.5t12 32.5h39q-2 -41 -23 -63t-45 -22q-21 0 -54.5 21.5t-47.5 21.5z" />
    <glyph glyph-name="adieresis" unicode="&#xe4;" 
d="M490 0v101q-28 -51 -82 -81t-116 -30q-101 0 -171 70t-70 174t70 173.5t171 69.5q63 0 116.5 -29.5t81.5 -80.5v100h46v-467h-46zM97 234q0 -84 57 -141t138 -57q82 0 139.5 54.5t58.5 138.5q0 88 -57.5 145t-140.5 57q-82 0 -138.5 -56.5t-56.5 -140.5zM171 629
q0 16 11.5 26.5t27.5 10.5q17 0 28.5 -10.5t11.5 -26.5t-11.5 -26t-28.5 -10q-16 0 -27.5 10.5t-11.5 25.5zM334 629q0 16 11.5 26.5t27.5 10.5q17 0 28.5 -10.5t11.5 -26.5t-11.5 -26t-28.5 -10q-16 0 -27.5 10.5t-11.5 25.5z" />
    <glyph glyph-name="aring" unicode="&#xe5;" 
d="M490 0v101q-28 -51 -82 -81t-116 -30q-101 0 -171 70t-70 174t70 173.5t171 69.5q63 0 116.5 -29.5t81.5 -80.5v100h46v-467h-46zM97 234q0 -84 57 -141t138 -57q82 0 139.5 54.5t58.5 138.5q0 88 -57.5 145t-140.5 57q-82 0 -138.5 -56.5t-56.5 -140.5zM205 644
q0 37 25.5 63.5t61.5 26.5q38 0 64 -26t26 -64q0 -37 -26 -62.5t-64 -25.5q-36 0 -61.5 25.5t-25.5 62.5zM242 644q0 -21 14.5 -35.5t36.5 -14.5t37 14.5t15 35.5q0 22 -15 37t-37 15t-36.5 -15t-14.5 -37z" />
    <glyph glyph-name="ae" unicode="&#xe6;" horiz-adv-x="999" 
d="M536 85v-85h-46v101q-28 -51 -82 -81t-116 -30q-101 0 -171 70t-70 174t70 173.5t171 69.5q63 0 116.5 -29.5t81.5 -80.5v100h46v-84q67 94 190 94q101 0 165 -66.5t64 -175.5q0 -14 -1 -21h-417q6 -80 59.5 -129.5t129.5 -49.5q52 0 95 23.5t68 65.5l43 -15
q-30 -56 -84.5 -87.5t-121.5 -31.5q-59 0 -108.5 25t-81.5 70zM97 234q0 -84 57 -141t138 -57q82 0 139.5 54.5t58.5 138.5q0 88 -57.5 145t-140.5 57q-82 0 -138.5 -56.5t-56.5 -140.5zM726 432q-76 0 -129 -48t-60 -128h372q-7 81 -57 128.5t-126 47.5z" />
    <glyph glyph-name="ccedilla" unicode="&#xe7;" horiz-adv-x="501" 
d="M303 -10l23 -56q16 -38 1.5 -74t-51.5 -51q-36 -15 -71.5 0t-51.5 52q-8 22 -8 42h40q0 -16 6 -29q9 -20 29.5 -28t40.5 0q34 15 34 48q0 10 -6 24l-29 75q-90 12 -149 77.5t-59 164.5q0 108 70.5 175t172.5 67q89 0 159 -55l-29 -34q-57 44 -130 44q-83 0 -140.5 -54.5
t-57.5 -142.5q0 -89 57.5 -144.5t140.5 -55.5q74 0 130 45l30 -34q-62 -53 -152 -56z" />
    <glyph glyph-name="egrave" unicode="&#xe8;" horiz-adv-x="560" 
d="M287 432q76 0 126 -47.5t57 -128.5h-372q7 80 60 128t129 48zM516 235q0 109 -64 175.5t-165 66.5q-100 0 -167.5 -67t-67.5 -175q0 -109 67.5 -177t167.5 -68q67 0 121.5 31.5t84.5 87.5l-43 15q-25 -42 -68 -65.5t-95 -23.5q-76 0 -129.5 49.5t-59.5 129.5h417
q1 7 1 21zM304 545l-86 130h55l76 -130h-45z" />
    <glyph glyph-name="eacute" unicode="&#xe9;" horiz-adv-x="560" 
d="M287 432q-76 0 -129 -48t-60 -128h372q-7 81 -57 128.5t-126 47.5zM516 235q0 -14 -1 -21h-417q6 -80 59.5 -129.5t129.5 -49.5q52 0 95 23.5t68 65.5l43 -15q-30 -56 -84.5 -87.5t-121.5 -31.5q-100 0 -167.5 68t-67.5 177q0 108 67.5 175t167.5 67q101 0 165 -66.5
t64 -175.5zM293 675h56l-87 -130h-44z" />
    <glyph glyph-name="ecircumflex" unicode="&#xea;" horiz-adv-x="560" 
d="M287 432q-76 0 -129 -48t-60 -128h372q-7 81 -57 128.5t-126 47.5zM516 235q0 -14 -1 -21h-417q6 -80 59.5 -129.5t129.5 -49.5q52 0 95 23.5t68 65.5l43 -15q-30 -56 -84.5 -87.5t-121.5 -31.5q-100 0 -167.5 68t-67.5 177q0 108 67.5 175t167.5 67q101 0 165 -66.5
t64 -175.5zM148 545l104 130h64l104 -130h-46l-90 99l-90 -99h-46z" />
    <glyph glyph-name="edieresis" unicode="&#xeb;" horiz-adv-x="560" 
d="M287 432q76 0 126 -47.5t57 -128.5h-372q7 80 60 128t129 48zM516 235q0 109 -64 175.5t-165 66.5q-100 0 -167.5 -67t-67.5 -175q0 -109 67.5 -177t167.5 -68q67 0 121.5 31.5t84.5 87.5l-43 15q-25 -42 -68 -65.5t-95 -23.5q-76 0 -129.5 49.5t-59.5 129.5h417
q1 7 1 21zM163 629q0 16 11.5 26.5t27.5 10.5q17 0 28.5 -10.5t11.5 -26.5t-11.5 -26t-28.5 -10q-16 0 -27.5 10.5t-11.5 25.5zM326 629q0 16 11.5 26.5t27.5 10.5q17 0 28.5 -10.5t11.5 -26.5t-11.5 -26t-28.5 -10q-16 0 -27.5 10.5t-11.5 25.5z" />
    <glyph glyph-name="igrave" unicode="&#xec;" horiz-adv-x="214" 
d="M84 0h46v467h-46v-467zM86 545l-86 130h55l76 -130h-45z" />
    <glyph glyph-name="iacute" unicode="&#xed;" horiz-adv-x="214" 
d="M130 0h-46v467h46v-467zM158 675h56l-87 -130h-44z" />
    <glyph glyph-name="icircumflex" unicode="&#xee;" horiz-adv-x="214" 
d="M130 0h-46v467h46v-467zM-28 545l104 130h64l104 -130h-46l-90 99l-90 -99h-46z" />
    <glyph glyph-name="idieresis" unicode="&#xef;" horiz-adv-x="214" 
d="M84 0h46v467h-46v-467zM-13 629q0 16 11.5 26.5t27.5 10.5q17 0 28.5 -10.5t11.5 -26.5t-11.5 -26t-28.5 -10q-16 0 -27.5 10.5t-11.5 25.5zM150 629q0 16 11.5 26.5t27.5 10.5q17 0 28.5 -10.5t11.5 -26.5t-11.5 -26t-28.5 -10q-16 0 -27.5 10.5t-11.5 25.5z" />
    <glyph glyph-name="eth" unicode="&#xf0;" horiz-adv-x="592" 
d="M296 35q83 0 140.5 56t57.5 144t-57.5 142.5t-140.5 54.5q-84 0 -141.5 -54.5t-57.5 -142.5t58 -144t141 -56zM374 461l-123 150l-90 -58l-20 29l89 58l-75 93h55l58 -70l72 45l22 -27l-73 -45l205 -254q46 -59 46 -147q0 -109 -71 -177.5t-173 -68.5q-103 0 -174 68.5
t-71 177.5q0 108 69.5 175t166.5 67q50 0 87 -16z" />
    <glyph glyph-name="ntilde" unicode="&#xf1;" horiz-adv-x="559" 
d="M84 0v467h46v-92q19 52 65.5 77t99.5 25q84 0 135.5 -55t50.5 -148v-274h-45v274q0 73 -39 115.5t-102 42.5q-69 0 -116.5 -41.5t-48.5 -128.5v-262h-46zM234 616q-13 0 -24 -11.5t-12 -33.5h-39q2 41 23 63.5t45 22.5h9q19 0 49.5 -21t43.5 -21t24 10.5t12 32.5h39
q-2 -41 -23 -63t-45 -22q-21 0 -54.5 21.5t-47.5 21.5z" />
    <glyph glyph-name="ograve" unicode="&#xf2;" horiz-adv-x="590" 
d="M295 35q-84 0 -141.5 55.5t-57.5 144.5q0 88 57.5 142.5t141.5 54.5t141.5 -54.5t57.5 -142.5q0 -89 -57.5 -144.5t-141.5 -55.5zM295 -10q103 0 173.5 68t70.5 177q0 108 -70.5 175t-173.5 67t-173.5 -67t-70.5 -175q0 -109 70.5 -177t173.5 -68zM272 545l-86 130h55
l76 -130h-45z" />
    <glyph glyph-name="oacute" unicode="&#xf3;" horiz-adv-x="590" 
d="M295 35q84 0 141.5 55.5t57.5 144.5q0 88 -57.5 142.5t-141.5 54.5t-141.5 -54.5t-57.5 -142.5q0 -89 57.5 -144.5t141.5 -55.5zM295 -10q-103 0 -173.5 68t-70.5 177q0 108 70.5 175t173.5 67t173.5 -67t70.5 -175q0 -109 -70.5 -177t-173.5 -68zM341 675h56l-87 -130
h-44z" />
    <glyph glyph-name="ocircumflex" unicode="&#xf4;" horiz-adv-x="590" 
d="M295 35q84 0 141.5 55.5t57.5 144.5q0 88 -57.5 142.5t-141.5 54.5t-141.5 -54.5t-57.5 -142.5q0 -89 57.5 -144.5t141.5 -55.5zM295 -10q-103 0 -173.5 68t-70.5 177q0 108 70.5 175t173.5 67t173.5 -67t70.5 -175q0 -109 -70.5 -177t-173.5 -68zM159 545l104 130h64
l104 -130h-46l-90 99l-90 -99h-46z" />
    <glyph glyph-name="otilde" unicode="&#xf5;" horiz-adv-x="590" 
d="M295 35q84 0 141.5 55.5t57.5 144.5q0 88 -57.5 142.5t-141.5 54.5t-141.5 -54.5t-57.5 -142.5q0 -89 57.5 -144.5t141.5 -55.5zM295 -10q-103 0 -173.5 68t-70.5 177q0 108 70.5 175t173.5 67t173.5 -67t70.5 -175q0 -109 -70.5 -177t-173.5 -68zM247 616
q-13 0 -24 -11.5t-12 -33.5h-39q2 41 23 63.5t45 22.5h9q19 0 49 -21t44 -21q13 0 24 10.5t12 32.5h39q-2 -41 -23 -63t-45 -22q-21 0 -54.5 21.5t-47.5 21.5z" />
    <glyph glyph-name="odieresis" unicode="&#xf6;" horiz-adv-x="590" 
d="M295 35q-84 0 -141.5 55.5t-57.5 144.5q0 88 57.5 142.5t141.5 54.5t141.5 -54.5t57.5 -142.5q0 -89 -57.5 -144.5t-141.5 -55.5zM295 -10q103 0 173.5 68t70.5 177q0 108 -70.5 175t-173.5 67t-173.5 -67t-70.5 -175q0 -109 70.5 -177t173.5 -68zM174 629
q0 16 11.5 26.5t27.5 10.5q17 0 28.5 -10.5t11.5 -26.5t-11.5 -26t-28.5 -10q-16 0 -27.5 10.5t-11.5 25.5zM337 629q0 16 11.5 26.5t27.5 10.5q17 0 28.5 -10.5t11.5 -26.5t-11.5 -26t-28.5 -10q-16 0 -27.5 10.5t-11.5 25.5z" />
    <glyph glyph-name="divide" unicode="&#xf7;" horiz-adv-x="577" 
d="M246 438q0 17 12 28t29 11q18 0 30 -11t12 -28q0 -16 -12.5 -27t-29.5 -11t-29 11t-12 27zM246 86q0 17 12 28t29 11q18 0 30 -11t12 -28q0 -16 -12.5 -27t-29.5 -11t-29 11t-12 27zM79 290v-44h418v44h-418z" />
    <glyph glyph-name="oslash" unicode="&#xf8;" horiz-adv-x="589" 
d="M295 432q-84 0 -141.5 -54.5t-57.5 -142.5q0 -77 44 -129l280 285q-54 41 -125 41zM295 35q84 0 141.5 55.5t57.5 144.5q0 75 -46 129l-281 -286q54 -43 128 -43zM135 46l-55 -56l-28 27l55 56q-56 67 -56 162q0 108 70.5 175t173.5 67q90 0 158 -54l55 57l27 -27
l-54 -56q58 -66 58 -162q0 -109 -70.5 -177t-173.5 -68q-93 0 -160 56z" />
    <glyph glyph-name="ugrave" unicode="&#xf9;" horiz-adv-x="560" 
d="M476 467v-467h-46v92q-19 -52 -65.5 -77t-99.5 -25q-84 0 -135.5 54.5t-51.5 148.5v274h46v-274q0 -73 39 -115.5t102 -42.5q69 0 116.5 41.5t48.5 128.5v262h46zM273 545l-86 130h55l76 -130h-45z" />
    <glyph glyph-name="uacute" unicode="&#xfa;" horiz-adv-x="560" 
d="M476 467v-467h-46v92q-19 -52 -65.5 -77t-99.5 -25q-84 0 -135.5 54.5t-51.5 148.5v274h46v-274q0 -73 39 -115.5t102 -42.5q69 0 116.5 41.5t48.5 128.5v262h46zM296 675h56l-87 -130h-44z" />
    <glyph glyph-name="ucircumflex" unicode="&#xfb;" horiz-adv-x="560" 
d="M476 467v-467h-46v92q-19 -52 -65.5 -77t-99.5 -25q-84 0 -135.5 54.5t-51.5 148.5v274h46v-274q0 -73 39 -115.5t102 -42.5q69 0 116.5 41.5t48.5 128.5v262h46zM151 545l104 130h64l104 -130h-46l-90 99l-90 -99h-46z" />
    <glyph glyph-name="udieresis" unicode="&#xfc;" horiz-adv-x="560" 
d="M476 467v-467h-46v92q-19 -52 -65.5 -77t-99.5 -25q-84 0 -135.5 54.5t-51.5 148.5v274h46v-274q0 -73 39 -115.5t102 -42.5q69 0 116.5 41.5t48.5 128.5v262h46zM153 629q0 16 11.5 26.5t27.5 10.5q17 0 28.5 -10.5t11.5 -26.5t-11.5 -26t-28.5 -10q-16 0 -27.5 10.5
t-11.5 25.5zM316 629q0 16 11.5 26.5t27.5 10.5q17 0 28.5 -10.5t11.5 -26.5t-11.5 -26t-28.5 -10q-16 0 -27.5 10.5t-11.5 25.5z" />
    <glyph glyph-name="yacute" unicode="&#xfd;" horiz-adv-x="500" 
d="M474 467l-297 -693h-45l93 224l-197 469h48l174 -412l175 412h49zM278 675h56l-87 -130h-44z" />
    <glyph glyph-name="thorn" unicode="&#xfe;" 
d="M523 235q0 84 -56.5 140.5t-138.5 56.5t-140 -57.5t-58 -144.5q1 -85 58.5 -139.5t139.5 -54.5q81 0 138 57.5t57 141.5zM130 101v-327h-46v959h46v-365q28 51 81.5 80t116.5 29q101 0 171 -69t70 -173q0 -105 -70 -175t-171 -70q-62 0 -116 30t-82 81z" />
    <glyph glyph-name="ydieresis" unicode="&#xff;" horiz-adv-x="500" 
d="M177 -226l297 693h-49l-175 -412l-174 412h-48l197 -469l-93 -224h45zM131 629q0 16 11.5 26.5t27.5 10.5q17 0 28.5 -10.5t11.5 -26.5t-11.5 -26t-28.5 -10q-16 0 -27.5 10.5t-11.5 25.5zM294 629q0 16 11.5 26.5t27.5 10.5q17 0 28.5 -10.5t11.5 -26.5t-11.5 -26
t-28.5 -10q-16 0 -27.5 10.5t-11.5 25.5z" />
    <glyph glyph-name="Amacron" unicode="&#x100;" horiz-adv-x="626" 
d="M466 229l-153 397l-152 -397h305zM481 187h-336l-72 -187h-48l264 689h48l264 -689h-48zM197 804v42h232v-42h-232z" />
    <glyph glyph-name="amacron" unicode="&#x101;" 
d="M490 0v101q-28 -51 -82 -81t-116 -30q-101 0 -171 70t-70 174t70 173.5t171 69.5q63 0 116.5 -29.5t81.5 -80.5v100h46v-467h-46zM97 234q0 -84 57 -141t138 -57q82 0 139.5 54.5t58.5 138.5q0 88 -57.5 145t-140.5 57q-82 0 -138.5 -56.5t-56.5 -140.5zM192 604v42h232
v-42h-232z" />
    <glyph glyph-name="Abreve" unicode="&#x102;" horiz-adv-x="626" 
d="M313 626l153 -397h-305zM145 187h336l72 -187h48l-264 689h-48l-264 -689h48zM391 866h37q0 -50 -32 -80t-84 -30q-57 0 -86 32t-29 78h37q2 -30 22 -50.5t56 -20.5q35 0 56 20t23 51z" />
    <glyph glyph-name="abreve" unicode="&#x103;" 
d="M490 0v101q-28 -51 -82 -81t-116 -30q-101 0 -171 70t-70 174t70 173.5t171 69.5q63 0 116.5 -29.5t81.5 -80.5v100h46v-467h-46zM97 234q0 -84 57 -141t138 -57q82 0 139.5 54.5t58.5 138.5q0 88 -57.5 145t-140.5 57q-82 0 -138.5 -56.5t-56.5 -140.5zM387 666h37
q0 -50 -32 -80t-84 -30q-57 0 -86 32t-29 78h37q2 -30 22 -50.5t56 -20.5q35 0 56 20t23 51z" />
    <glyph glyph-name="Aogonek" unicode="&#x104;" horiz-adv-x="626" 
d="M466 229l-153 397l-152 -397h305zM337 689l264 -689h-6l-31 -82q-6 -14 -6 -24q0 -33 34 -48q20 -8 40.5 0t29.5 28q6 13 6 29h40q0 -20 -8 -42q-16 -37 -51.5 -52t-71.5 0q-38 15 -52 51t2 74l26 66l-72 187h-336l-72 -187h-48l264 689h48z" />
    <glyph glyph-name="aogonek" unicode="&#x105;" 
d="M490 0v101q-28 -51 -82 -81t-116 -30q-101 0 -171 70t-70 174t70 173.5t171 69.5q63 0 116.5 -29.5t81.5 -80.5v100h46v-467h-8l-27 -82q-6 -18 -6 -24q0 -33 34 -48q20 -8 40.5 0t29.5 28q6 13 6 29h40q0 -20 -8 -42q-16 -37 -51.5 -52t-71.5 0q-38 15 -52 51t2 74z
M97 234q0 -84 57 -141t138 -57q82 0 139.5 54.5t58.5 138.5q0 88 -57.5 145t-140.5 57q-82 0 -138.5 -56.5t-56.5 -140.5z" />
    <glyph glyph-name="Cacute" unicode="&#x106;" horiz-adv-x="660" 
d="M596 115l31 -32q-98 -93 -233 -93q-143 0 -240 103t-97 250q0 148 97 251t240 103q133 0 233 -93l-31 -32q-87 80 -202 80q-124 0 -208 -90t-84 -219t84 -218.5t208 -89.5q117 0 202 80zM424 875h56l-87 -130h-44z" />
    <glyph glyph-name="cacute" unicode="&#x107;" horiz-adv-x="499" 
d="M424 80l30 -34q-67 -56 -160 -56q-102 0 -172.5 68t-70.5 177q0 108 70.5 175t172.5 67q89 0 159 -55l-29 -34q-57 44 -130 44q-83 0 -140.5 -54.5t-57.5 -142.5q0 -89 57.5 -144.5t140.5 -55.5q74 0 130 45zM330 675h56l-87 -130h-44z" />
    <glyph glyph-name="Ccircumflex" unicode="&#x108;" horiz-adv-x="660" 
d="M596 115l31 -32q-98 -93 -233 -93q-143 0 -240 103t-97 250q0 148 97 251t240 103q133 0 233 -93l-31 -32q-87 80 -202 80q-124 0 -208 -90t-84 -219t84 -218.5t208 -89.5q117 0 202 80zM255 745l104 130h64l104 -130h-46l-90 99l-90 -99h-46z" />
    <glyph glyph-name="ccircumflex" unicode="&#x109;" horiz-adv-x="499" 
d="M424 80l30 -34q-67 -56 -160 -56q-102 0 -172.5 68t-70.5 177q0 108 70.5 175t172.5 67q89 0 159 -55l-29 -34q-57 44 -130 44q-83 0 -140.5 -54.5t-57.5 -142.5q0 -89 57.5 -144.5t140.5 -55.5q74 0 130 45zM143 545l104 130h64l104 -130h-46l-90 99l-90 -99h-46z" />
    <glyph glyph-name="Cdotaccent" unicode="&#x10a;" horiz-adv-x="660" 
d="M627 83l-31 32q-85 -80 -202 -80q-124 0 -208 89.5t-84 218.5t84 219t208 90q115 0 202 -80l31 32q-100 93 -233 93q-143 0 -240 -103t-97 -251q0 -147 97 -250t240 -103q135 0 233 93zM345 829q0 16 11.5 26.5t27.5 10.5q17 0 28.5 -10.5t11.5 -26.5t-11.5 -26
t-28.5 -10q-16 0 -27.5 10.5t-11.5 25.5z" />
    <glyph glyph-name="cdotaccent" unicode="&#x10b;" horiz-adv-x="499" 
d="M424 80l30 -34q-67 -56 -160 -56q-102 0 -172.5 68t-70.5 177q0 108 70.5 175t172.5 67q89 0 159 -55l-29 -34q-57 44 -130 44q-83 0 -140.5 -54.5t-57.5 -142.5q0 -89 57.5 -144.5t140.5 -55.5q74 0 130 45zM249 629q0 16 11.5 26.5t27.5 10.5q17 0 28.5 -10.5
t11.5 -26.5t-11.5 -26t-28.5 -10q-16 0 -27.5 10.5t-11.5 25.5z" />
    <glyph glyph-name="Ccaron" unicode="&#x10c;" horiz-adv-x="660" 
d="M596 115l31 -32q-98 -93 -233 -93q-143 0 -240 103t-97 250q0 148 97 251t240 103q133 0 233 -93l-31 -32q-87 80 -202 80q-124 0 -208 -90t-84 -219t84 -218.5t208 -89.5q117 0 202 80zM514 875l-104 -130h-64l-104 130h46l90 -99l90 99h46z" />
    <glyph glyph-name="ccaron" unicode="&#x10d;" horiz-adv-x="499" 
d="M424 80l30 -34q-67 -56 -160 -56q-102 0 -172.5 68t-70.5 177q0 108 70.5 175t172.5 67q89 0 159 -55l-29 -34q-57 44 -130 44q-83 0 -140.5 -54.5t-57.5 -142.5q0 -89 57.5 -144.5t140.5 -55.5q74 0 130 45zM417 675l-104 -130h-64l-104 130h46l90 -99l90 99h46z" />
    <glyph glyph-name="Dcaron" unicode="&#x10e;" horiz-adv-x="722" 
d="M148 644v-599h211q122 0 190 83t68 215q0 133 -68 217t-190 84h-211zM359 0h-256v689h256q142 0 222.5 -97t80.5 -249q0 -151 -80.5 -247t-222.5 -96zM462 875l-104 -130h-64l-104 130h46l90 -99l90 99h46z" />
    <glyph glyph-name="dcaron" unicode="&#x10f;" 
d="M611 548l-29 8q52 77 41 154h54q0 -108 -66 -162zM490 0v101q-28 -51 -82 -81t-116 -30q-101 0 -171 70t-70 174t70 173.5t171 69.5q63 0 116.5 -29.5t81.5 -80.5v366h46v-733h-46zM97 234q0 -84 57 -141t138 -57q82 0 139.5 54.5t58.5 138.5q0 88 -57.5 145t-140.5 57
q-82 0 -138.5 -56.5t-56.5 -140.5z" />
    <glyph glyph-name="Dcroat" unicode="&#x110;" horiz-adv-x="727" 
d="M152 644v-282h185v-42h-185v-275h211q122 0 190.5 83t68.5 215q0 133 -68.5 217t-190.5 84h-211zM363 0h-256v320h-98v42h98v327h256q142 0 223 -97t81 -249q0 -151 -81 -247t-223 -96z" />
    <glyph glyph-name="dcroat" unicode="&#x111;" 
d="M97 234q0 -84 57 -141t138 -57q83 0 140.5 56t57.5 142q0 85 -59 141t-139 56q-82 0 -138.5 -56.5t-56.5 -140.5zM327 585v37h163v111h46v-111h89v-37h-89v-585h-46v101q-28 -51 -82 -81t-116 -30q-101 0 -171 70t-70 174t70 173.5t171 69.5q63 0 116.5 -29.5t81.5 -80.5
v218h-163z" />
    <glyph glyph-name="Emacron" unicode="&#x112;" horiz-adv-x="551" 
d="M103 0v689h382v-45h-337v-283h295v-45h-295v-271h349v-45h-394zM164 804v42h232v-42h-232z" />
    <glyph glyph-name="emacron" unicode="&#x113;" horiz-adv-x="560" 
d="M287 432q-76 0 -129 -48t-60 -128h372q-7 81 -57 128.5t-126 47.5zM516 235q0 -14 -1 -21h-417q6 -80 59.5 -129.5t129.5 -49.5q52 0 95 23.5t68 65.5l43 -15q-30 -56 -84.5 -87.5t-121.5 -31.5q-100 0 -167.5 68t-67.5 177q0 108 67.5 175t167.5 67q101 0 165 -66.5
t64 -175.5zM168 604v42h232v-42h-232z" />
    <glyph glyph-name="Ebreve" unicode="&#x114;" horiz-adv-x="551" 
d="M103 689v-689h394v45h-349v271h295v45h-295v283h337v45h-382zM358 866h37q0 -50 -32 -80t-84 -30q-57 0 -86 32t-29 78h37q2 -30 22 -50.5t56 -20.5q35 0 56 20t23 51z" />
    <glyph glyph-name="ebreve" unicode="&#x115;" horiz-adv-x="560" 
d="M287 432q76 0 126 -47.5t57 -128.5h-372q7 80 60 128t129 48zM516 235q0 109 -64 175.5t-165 66.5q-100 0 -167.5 -67t-67.5 -175q0 -109 67.5 -177t167.5 -68q67 0 121.5 31.5t84.5 87.5l-43 15q-25 -42 -68 -65.5t-95 -23.5q-76 0 -129.5 49.5t-59.5 129.5h417
q1 7 1 21zM362 666h37q0 -50 -32 -80t-84 -30q-57 0 -86 32t-29 78h37q2 -30 22 -50.5t56 -20.5q35 0 56 20t23 51z" />
    <glyph glyph-name="Edotaccent" unicode="&#x116;" horiz-adv-x="551" 
d="M103 689v-689h394v45h-349v271h295v45h-295v283h337v45h-382zM261 829q0 16 11.5 26.5t27.5 10.5q17 0 28.5 -10.5t11.5 -26.5t-11.5 -26t-28.5 -10q-16 0 -27.5 10.5t-11.5 25.5z" />
    <glyph glyph-name="edotaccent" unicode="&#x117;" horiz-adv-x="560" 
d="M287 432q76 0 126 -47.5t57 -128.5h-372q7 80 60 128t129 48zM516 235q0 109 -64 175.5t-165 66.5q-100 0 -167.5 -67t-67.5 -175q0 -109 67.5 -177t167.5 -68q67 0 121.5 31.5t84.5 87.5l-43 15q-25 -42 -68 -65.5t-95 -23.5q-76 0 -129.5 49.5t-59.5 129.5h417
q1 7 1 21zM244 629q0 16 11.5 26.5t27.5 10.5q17 0 28.5 -10.5t11.5 -26.5t-11.5 -26t-28.5 -10q-16 0 -27.5 10.5t-11.5 25.5z" />
    <glyph glyph-name="Eogonek" unicode="&#x118;" horiz-adv-x="551" 
d="M497 0l-33 -82q-6 -14 -6 -24q0 -33 34 -48q20 -8 40.5 0t29.5 28q6 13 6 29h40q0 -20 -8 -42q-16 -37 -51.5 -52t-71.5 0q-38 15 -52 51t2 74l37 66h-361v689h382v-45h-337v-283h295v-45h-295v-271h349v-45z" />
    <glyph glyph-name="eogonek" unicode="&#x119;" horiz-adv-x="561" 
d="M450 124l43 -15q-12 -18 -34 -47l-33.5 -45t-26.5 -43t-27 -56q-6 -14 -6 -24q0 -33 34 -48q20 -8 40.5 0t29.5 28q6 13 6 29h40q0 -20 -8 -42q-16 -37 -51.5 -52t-71.5 0q-38 15 -52 51t2 74l35 71q-41 -15 -83 -15q-100 0 -167.5 68t-67.5 177q0 108 67.5 175t167.5 67
q101 0 165 -66.5t64 -175.5q0 -14 -1 -21h-417q6 -80 59.5 -129.5t129.5 -49.5q52 0 95 23.5t68 65.5zM287 432q-76 0 -129 -48t-60 -128h372q-7 81 -57 128.5t-126 47.5z" />
    <glyph glyph-name="Ecaron" unicode="&#x11a;" horiz-adv-x="551" 
d="M103 0v689h382v-45h-337v-283h295v-45h-295v-271h349v-45h-394zM416 875l-104 -130h-64l-104 130h46l90 -99l90 99h46z" />
    <glyph glyph-name="ecaron" unicode="&#x11b;" horiz-adv-x="560" 
d="M287 432q-76 0 -129 -48t-60 -128h372q-7 81 -57 128.5t-126 47.5zM516 235q0 -14 -1 -21h-417q6 -80 59.5 -129.5t129.5 -49.5q52 0 95 23.5t68 65.5l43 -15q-30 -56 -84.5 -87.5t-121.5 -31.5q-100 0 -167.5 68t-67.5 177q0 108 67.5 175t167.5 67q101 0 165 -66.5
t64 -175.5zM420 675l-104 -130h-64l-104 130h46l90 -99l90 99h46z" />
    <glyph glyph-name="Gcircumflex" unicode="&#x11c;" horiz-adv-x="758" 
d="M671 283h-211v43h261q-3 -167 -87 -252t-232 -85q-146 0 -246 103t-100 251t100 251t246 103q117 0 210 -72l-30 -34q-79 61 -180 61q-127 0 -214 -90t-87 -219t87 -218.5t214 -89.5q117 0 188 64.5t81 183.5zM248 745l104 130h64l104 -130h-46l-90 99l-90 -99h-46z" />
    <glyph glyph-name="gcircumflex" unicode="&#x11d;" 
d="M97 233q0 -84 56.5 -140.5t138.5 -56.5q81 0 139.5 55.5t58.5 141.5t-57.5 142t-140.5 56q-81 0 -138 -57t-57 -141zM90 -127l38 25q57 -85 157 -85q98 0 151.5 58t53.5 198v34q-27 -51 -81 -82t-117 -31q-101 0 -171 69.5t-70 173.5t70 174t171 70q62 0 116 -30t82 -81
v101h46v-397q0 -165 -65.5 -234t-185.5 -69q-125 0 -195 106zM172 545l104 130h64l104 -130h-46l-90 99l-90 -99h-46z" />
    <glyph glyph-name="Gbreve" unicode="&#x11e;" horiz-adv-x="758" 
d="M671 283q-10 -119 -81 -183.5t-188 -64.5q-127 0 -214 89.5t-87 218.5t87 219t214 90q101 0 180 -61l30 34q-93 72 -210 72q-146 0 -246 -103t-100 -251t100 -251t246 -103q148 0 232 85t87 252h-261v-43h211zM463 866h37q0 -50 -32 -80t-84 -30q-57 0 -86 32t-29 78h37
q2 -30 22 -50.5t56 -20.5q35 0 56 20t23 51z" />
    <glyph glyph-name="gbreve" unicode="&#x11f;" 
d="M97 233q0 -84 56.5 -140.5t138.5 -56.5q81 0 139.5 55.5t58.5 141.5t-57.5 142t-140.5 56q-81 0 -138 -57t-57 -141zM90 -127l38 25q57 -85 157 -85q98 0 151.5 58t53.5 198v34q-27 -51 -81 -82t-117 -31q-101 0 -171 69.5t-70 173.5t70 174t171 70q62 0 116 -30t82 -81
v101h46v-397q0 -165 -65.5 -234t-185.5 -69q-125 0 -195 106zM387 666h37q0 -50 -32 -80t-84 -30q-57 0 -86 32t-29 78h37q2 -30 22 -50.5t56 -20.5q35 0 56 20t23 51z" />
    <glyph glyph-name="Gdotaccent" unicode="&#x120;" horiz-adv-x="758" 
d="M671 283q-10 -119 -81 -183.5t-188 -64.5q-127 0 -214 89.5t-87 218.5t87 219t214 90q101 0 180 -61l30 34q-93 72 -210 72q-146 0 -246 -103t-100 -251t100 -251t246 -103q148 0 232 85t87 252h-261v-43h211zM345 829q0 16 11.5 26.5t27.5 10.5q17 0 28.5 -10.5
t11.5 -26.5t-11.5 -26t-28.5 -10q-16 0 -27.5 10.5t-11.5 25.5z" />
    <glyph glyph-name="gdotaccent" unicode="&#x121;" 
d="M97 233q0 -84 56.5 -140.5t138.5 -56.5q81 0 139.5 55.5t58.5 141.5t-57.5 142t-140.5 56q-81 0 -138 -57t-57 -141zM90 -127l38 25q57 -85 157 -85q98 0 151.5 58t53.5 198v34q-27 -51 -81 -82t-117 -31q-101 0 -171 69.5t-70 173.5t70 174t171 70q62 0 116 -30t82 -81
v101h46v-397q0 -165 -65.5 -234t-185.5 -69q-125 0 -195 106zM269 629q0 16 11.5 26.5t27.5 10.5q17 0 28.5 -10.5t11.5 -26.5t-11.5 -26t-28.5 -10q-16 0 -27.5 10.5t-11.5 25.5z" />
    <glyph glyph-name="Gcommaaccent" unicode="&#x122;" horiz-adv-x="758" 
d="M671 283h-211v43h261q-3 -167 -87 -252t-232 -85q-146 0 -246 103t-100 251t100 251t246 103q117 0 210 -72l-30 -34q-79 61 -180 61q-127 0 -214 -90t-87 -219t87 -218.5t214 -89.5q117 0 188 64.5t81 183.5zM330 -223q61 71 58 156h51q-6 -109 -73 -161q-12 1 -36 5z
" />
    <glyph glyph-name="gcommaaccent" unicode="&#x123;" 
d="M259 546q-1 106 61 168l29 -11q-49 -67 -41 -157h-49zM97 233q0 -84 56.5 -140.5t138.5 -56.5q81 0 139.5 55.5t58.5 141.5t-57.5 142t-140.5 56q-81 0 -138 -57t-57 -141zM90 -127l38 25q57 -85 157 -85q98 0 151.5 58t53.5 198v34q-27 -51 -81 -82t-117 -31
q-101 0 -171 69.5t-70 173.5t70 174t171 70q62 0 116 -30t82 -81v101h46v-397q0 -165 -65.5 -234t-185.5 -69q-125 0 -195 106z" />
    <glyph glyph-name="Hcircumflex" unicode="&#x124;" horiz-adv-x="710" 
d="M562 689h45v-689h-45v321h-414v-321h-45v689h45v-325h414v325zM219 745l104 130h64l104 -130h-46l-90 99l-90 -99h-46z" />
    <glyph glyph-name="hcircumflex" unicode="&#x125;" horiz-adv-x="559" 
d="M84 0v733h46v-358q19 52 65.5 77t99.5 25q84 0 135.5 -55t50.5 -148v-274h-45v274q0 73 -39 115.5t-102 42.5q-69 0 -116.5 -41.5t-48.5 -128.5v-262h-46zM-29 760l104 130h64l104 -130h-46l-90 99l-90 -99h-46z" />
    <glyph glyph-name="Hbar" unicode="&#x126;" horiz-adv-x="723" 
d="M688 521h-75v-521h-45v321h-414v-321h-45v521h-69v37h69v131h45v-131h414v131h45v-131h75v-37zM568 364v157h-414v-157h414z" />
    <glyph glyph-name="hbar" unicode="&#x127;" horiz-adv-x="559" 
d="M84 0v586h-87v36h87v111h45v-111h166v-36h-166v-211q19 52 65.5 77t100.5 25q83 0 134.5 -55t51.5 -148v-274h-45v274q0 73 -39 115.5t-102 42.5q-69 0 -116.5 -41.5t-49.5 -128.5v-262h-45z" />
    <glyph glyph-name="Itilde" unicode="&#x128;" horiz-adv-x="251" 
d="M103 689h45v-689h-45v689zM78 816q-13 0 -24 -11.5t-12 -33.5h-39q2 41 23 63.5t45 22.5h9q20 0 50 -21t43 -21t24 10.5t12 32.5h39q-2 -41 -23 -63t-45 -22q-21 0 -54.5 21.5t-47.5 21.5z" />
    <glyph glyph-name="itilde" unicode="&#x129;" horiz-adv-x="214" 
d="M130 0h-46v467h46v-467zM60 616q-13 0 -24 -11.5t-12 -33.5h-39q2 41 23 63.5t45 22.5h9q19 0 49.5 -21t43.5 -21t24 10.5t12 32.5h39q-2 -41 -23 -63t-45 -22q-21 0 -54.5 21.5t-47.5 21.5z" />
    <glyph glyph-name="Imacron" unicode="&#x12a;" horiz-adv-x="251" 
d="M103 689h45v-689h-45v689zM10 804v42h232v-42h-232z" />
    <glyph glyph-name="imacron" unicode="&#x12b;" horiz-adv-x="214" 
d="M130 0h-46v467h46v-467zM-8 604v42h232v-42h-232z" />
    <glyph glyph-name="Ibreve" unicode="&#x12c;" horiz-adv-x="251" 
d="M148 689h-45v-689h45v689zM204 866h37q0 -50 -32 -80t-84 -30q-57 0 -86 32t-29 78h37q2 -30 22 -50.5t56 -20.5q35 0 56 20t23 51z" />
    <glyph glyph-name="ibreve" unicode="&#x12d;" horiz-adv-x="214" 
d="M84 0h46v467h-46v-467zM186 666h37q0 -50 -32 -80t-84 -30q-57 0 -86 32t-29 78h37q2 -30 22 -50.5t56 -20.5q35 0 56 20t23 51z" />
    <glyph glyph-name="Iogonek" unicode="&#x12e;" horiz-adv-x="251" 
d="M103 0v689h45v-689h-3l-31 -82q-6 -18 -6 -24q0 -33 34 -48q20 -8 40.5 0t29.5 28q6 13 6 29h40q0 -20 -8 -42q-16 -37 -51.5 -52t-71.5 0q-38 15 -52 51t2 74z" />
    <glyph glyph-name="iogonek" unicode="&#x12f;" horiz-adv-x="213" 
d="M84 0v467h45v-467h-3l-31 -82q-6 -18 -6 -24q0 -33 34 -48q20 -8 40.5 0t29.5 28q6 13 6 29h40q0 -20 -8 -42q-16 -37 -51.5 -52t-71.5 0q-38 15 -52 51t2 74zM66 640q0 16 11.5 26.5t28.5 10.5t28 -10.5t11 -26.5t-11 -26.5t-28 -10.5t-28.5 10.5t-11.5 26.5z" />
    <glyph glyph-name="Idotaccent" unicode="&#x130;" horiz-adv-x="251" 
d="M148 689h-45v-689h45v689zM86 829q0 16 11.5 26.5t27.5 10.5q17 0 28.5 -10.5t11.5 -26.5t-11.5 -26t-28.5 -10q-16 0 -27.5 10.5t-11.5 25.5z" />
    <glyph glyph-name="dotlessi" unicode="&#x131;" horiz-adv-x="214" 
d="M130 0h-46v467h46v-467z" />
    <glyph glyph-name="IJ" unicode="&#x132;" horiz-adv-x="503" 
d="M103 689h45v-689h-45v689zM148 -227q0 5 2 22t2 22q26 -4 47 -4q80 0 117.5 47t37.5 122v707h46v-707q0 -96 -48.5 -155.5t-152.5 -59.5q-21 0 -51 6z" />
    <glyph glyph-name="ij" unicode="&#x133;" horiz-adv-x="426" 
d="M129 467h-45v-467h45v467zM66 640q0 16 11.5 26.5t28.5 10.5t28 -10.5t11 -26.5t-11 -26.5t-28 -10.5t-28.5 10.5t-11.5 26.5zM342 467v-496q0 -197 -159 -197h-41v44h41q114 0 114 153v496h45zM280 640q0 16 11.5 26.5t28.5 10.5t28 -10.5t11 -26.5t-11 -26.5t-28 -10.5
t-28.5 10.5t-11.5 26.5z" />
    <glyph glyph-name="Jcircumflex" unicode="&#x134;" horiz-adv-x="252" 
d="M-11 745l104 130h64l104 -130h-46l-90 99l-90 -99h-46zM-103 -227q0 5 2 22t2 22q26 -4 47 -4q80 0 117.5 47t37.5 122v707h46v-707q0 -96 -48.5 -155.5t-152.5 -59.5q-21 0 -51 6z" />
    <glyph glyph-name="jcircumflex" unicode="&#x135;" horiz-adv-x="213" 
d="M129 467v-496q0 -197 -159 -197h-41v44h41q114 0 114 153v496h45zM-33 545l104 130h64l104 -130h-46l-90 99l-90 -99h-46z" />
    <glyph glyph-name="Kcommaaccent" unicode="&#x136;" horiz-adv-x="534" 
d="M148 316v-316h-45v689h45v-347l281 347h55l-290 -357l340 -332h-62zM219 -223q61 71 58 156h51q-6 -109 -73 -161q-12 1 -36 5z" />
    <glyph glyph-name="kcommaaccent" unicode="&#x137;" horiz-adv-x="454" 
d="M183 264l265 -264h-63l-256 254v-254h-45v733h45v-459l190 193h65zM171 -223q61 71 58 156h51q-6 -109 -73 -161q-12 1 -36 5z" />
    <glyph glyph-name="kgreenlandic" unicode="&#x138;" horiz-adv-x="431" 
d="M352 0l-223 210v-210h-45v467h45v-231l204 231h59l-213 -242l236 -225h-63z" />
    <glyph glyph-name="Lacute" unicode="&#x139;" horiz-adv-x="479" 
d="M179 897h56l-87 -130h-44zM103 0v689h45v-644h302v-45h-347z" />
    <glyph glyph-name="lacute" unicode="&#x13a;" horiz-adv-x="213" 
d="M162 923h55l-86 -130h-45zM129 0h-45v733h45v-733z" />
    <glyph glyph-name="Lcommaaccent" unicode="&#x13b;" horiz-adv-x="479" 
d="M103 0v689h45v-644h302v-45h-347zM192 -223q61 71 58 156h51q-6 -109 -73 -161q-12 1 -36 5z" />
    <glyph glyph-name="lcommaaccent" unicode="&#x13c;" horiz-adv-x="213" 
d="M129 0h-45v733h45v-733zM28 -223q61 71 58 156h51q-6 -109 -73 -161q-12 1 -36 5z" />
    <glyph glyph-name="Lcaron" unicode="&#x13d;" horiz-adv-x="479" 
d="M103 0v689h45v-644h302v-45h-347zM273 484q-9 3 -29 11q60 83 57 194h45q-3 -123 -73 -205z" />
    <glyph glyph-name="lcaron" unicode="&#x13e;" horiz-adv-x="213" 
d="M129 0h-45v733h45v-733zM204 528q-9 3 -29 11q60 83 57 194h45q-3 -123 -73 -205z" />
    <glyph glyph-name="Ldot" unicode="&#x13f;" horiz-adv-x="479" 
d="M103 0v689h45v-644h302v-45h-347zM242 246q0 17 12 28t29 11q18 0 30 -11t12 -28q0 -16 -12.5 -27t-29.5 -11t-29 11t-12 27z" />
    <glyph glyph-name="ldot" unicode="&#x140;" horiz-adv-x="301" 
d="M129 0h-45v733h45v-733zM216 246q0 17 12 28t29 11q18 0 30 -11t12 -28q0 -16 -12.5 -27t-29.5 -11t-29 11t-12 27z" />
    <glyph glyph-name="Lslash" unicode="&#x141;" horiz-adv-x="486" 
d="M110 0v344l-77 -48v41l77 48v304h45v-275l110 69v-42l-110 -69v-327h302v-45h-347z" />
    <glyph glyph-name="lslash" unicode="&#x142;" horiz-adv-x="235" 
d="M92 342l-79 -50v42l79 50v349h46v-320l98 62v-42l-98 -62v-371h-46v342z" />
    <glyph glyph-name="Nacute" unicode="&#x143;" horiz-adv-x="684" 
d="M385 897h55l-86 -130h-44zM536 689h45v-689h-49l-384 616v-616h-45v689h51l382 -616v616z" />
    <glyph glyph-name="nacute" unicode="&#x144;" horiz-adv-x="559" 
d="M84 0v467h46v-92q19 52 65.5 77t99.5 25q84 0 135.5 -55t50.5 -148v-274h-45v274q0 73 -39 115.5t-102 42.5q-69 0 -116.5 -41.5t-48.5 -128.5v-262h-46zM325 675h56l-87 -130h-44z" />
    <glyph glyph-name="Ncommaaccent" unicode="&#x145;" horiz-adv-x="684" 
d="M536 689h45v-689h-49l-384 616v-616h-45v689h51l382 -616v616zM259 -223q61 71 58 156h51q-6 -109 -73 -161q-12 1 -36 5z" />
    <glyph glyph-name="ncommaaccent" unicode="&#x146;" horiz-adv-x="559" 
d="M84 0v467h46v-92q19 52 65.5 77t99.5 25q84 0 135.5 -55t50.5 -148v-274h-45v274q0 73 -39 115.5t-102 42.5q-69 0 -116.5 -41.5t-48.5 -128.5v-262h-46zM209 -223q61 71 58 156h51q-6 -109 -73 -161q-12 1 -36 5z" />
    <glyph glyph-name="Ncaron" unicode="&#x147;" horiz-adv-x="684" 
d="M478 897l-104 -130h-64l-104 130h46l90 -99l90 99h46zM536 689h45v-689h-49l-384 616v-616h-45v689h51l382 -616v616z" />
    <glyph glyph-name="ncaron" unicode="&#x148;" horiz-adv-x="559" 
d="M84 0v467h46v-92q19 52 65.5 77t99.5 25q84 0 135.5 -55t50.5 -148v-274h-45v274q0 73 -39 115.5t-102 42.5q-69 0 -116.5 -41.5t-48.5 -128.5v-262h-46zM418 675l-104 -130h-64l-104 130h46l90 -99l90 99h46z" />
    <glyph glyph-name="napostrophe" unicode="&#x149;" horiz-adv-x="560" 
d="M24 505l-28 7q49 77 40 150h49q0 -100 -61 -157zM84 0v467h46v-92q19 52 65.5 77t99.5 25q84 0 135.5 -54.5t51.5 -148.5v-274h-46v274q0 73 -39 115.5t-102 42.5q-69 0 -116.5 -41.5t-48.5 -128.5v-262h-46z" />
    <glyph glyph-name="Eng" unicode="&#x14a;" horiz-adv-x="684" 
d="M536 0l-388 616v-616h-45v689h51l382 -609v609h45v-689v-19q0 -96 -48.5 -155.5t-152.5 -59.5q-21 0 -51 6q0 4 2 22t2 22q26 -4 47 -4q149 0 155 169z" />
    <glyph glyph-name="eng" unicode="&#x14b;" horiz-adv-x="559" 
d="M436 -18v292q0 73 -39 115.5t-102 42.5q-69 0 -116.5 -41.5t-48.5 -128.5v-262h-46v467h46v-92q19 52 65.5 77t99.5 25q84 0 135.5 -55t50.5 -148v-292q0 -96 -48 -155.5t-152 -59.5q-26 0 -51 5q0 4 2 22t2 23q22 -5 47 -5q80 0 117.5 47t37.5 123z" />
    <glyph glyph-name="Omacron" unicode="&#x14c;" horiz-adv-x="805" 
d="M101 343q0 -128 87.5 -218t213.5 -90q127 0 214.5 90t87.5 218q0 129 -87.5 219t-214.5 90q-126 0 -213.5 -90t-87.5 -219zM56 343q0 147 100.5 250.5t245.5 103.5q146 0 246.5 -103t100.5 -251q0 -147 -100.5 -250t-246.5 -103q-145 0 -245.5 103t-100.5 250zM289 804
v42h232v-42h-232z" />
    <glyph glyph-name="omacron" unicode="&#x14d;" horiz-adv-x="590" 
d="M295 35q84 0 141.5 55.5t57.5 144.5q0 88 -57.5 142.5t-141.5 54.5t-141.5 -54.5t-57.5 -142.5q0 -89 57.5 -144.5t141.5 -55.5zM295 -10q-103 0 -173.5 68t-70.5 177q0 108 70.5 175t173.5 67t173.5 -67t70.5 -175q0 -109 -70.5 -177t-173.5 -68zM179 604v42h232v-42
h-232z" />
    <glyph glyph-name="Obreve" unicode="&#x14e;" horiz-adv-x="805" 
d="M101 343q0 129 87.5 219t213.5 90q127 0 214.5 -90t87.5 -219q0 -128 -87.5 -218t-214.5 -90q-126 0 -213.5 90t-87.5 218zM56 343q0 -147 100.5 -250t245.5 -103q146 0 246.5 103t100.5 250q0 148 -100.5 251t-246.5 103q-145 0 -245.5 -103.5t-100.5 -250.5zM483 866
h37q0 -50 -32 -80t-84 -30q-57 0 -86 32t-29 78h37q2 -30 22 -50.5t56 -20.5q35 0 56 20t23 51z" />
    <glyph glyph-name="obreve" unicode="&#x14f;" horiz-adv-x="590" 
d="M295 35q-84 0 -141.5 55.5t-57.5 144.5q0 88 57.5 142.5t141.5 54.5t141.5 -54.5t57.5 -142.5q0 -89 -57.5 -144.5t-141.5 -55.5zM295 -10q103 0 173.5 68t70.5 177q0 108 -70.5 175t-173.5 67t-173.5 -67t-70.5 -175q0 -109 70.5 -177t173.5 -68zM373 666h37
q0 -50 -32 -80t-84 -30q-57 0 -86 32t-29 78h37q2 -30 22 -50.5t56 -20.5q35 0 56 20t23 51z" />
    <glyph glyph-name="Ohungarumlaut" unicode="&#x150;" horiz-adv-x="805" 
d="M101 343q0 -128 87.5 -218t213.5 -90q127 0 214.5 90t87.5 218q0 129 -87.5 219t-214.5 90q-126 0 -213.5 -90t-87.5 -219zM56 343q0 147 100.5 250.5t245.5 103.5q146 0 246.5 -103t100.5 -251q0 -147 -100.5 -250t-246.5 -103q-145 0 -245.5 103t-100.5 250zM502 875
h56l-87 -130h-44zM387 875h52l-80 -130h-46z" />
    <glyph glyph-name="ohungarumlaut" unicode="&#x151;" horiz-adv-x="590" 
d="M295 35q84 0 141.5 55.5t57.5 144.5q0 88 -57.5 142.5t-141.5 54.5t-141.5 -54.5t-57.5 -142.5q0 -89 57.5 -144.5t141.5 -55.5zM295 -10q-103 0 -173.5 68t-70.5 177q0 108 70.5 175t173.5 67t173.5 -67t70.5 -175q0 -109 -70.5 -177t-173.5 -68zM387 675h56l-87 -130
h-44zM272 675h52l-80 -130h-46z" />
    <glyph glyph-name="OE" unicode="&#x152;" horiz-adv-x="1152" 
d="M101 343q0 -128 87.5 -218t213.5 -90q129 0 215.5 91t86.5 222q-2 127 -89.5 215.5t-212.5 88.5q-126 0 -213.5 -90t-87.5 -219zM704 514v175h382v-45h-336v-283h294v-46h-294v-270h348v-45h-394v172q-44 -83 -124 -132.5t-178 -49.5q-145 0 -245.5 103t-100.5 250
t100.5 250.5t245.5 103.5q98 0 178 -50t124 -133z" />
    <glyph glyph-name="oe" unicode="&#x153;" horiz-adv-x="1002" 
d="M729 432q-76 0 -129 -48t-60 -128h372q-7 81 -57 128.5t-126 47.5zM295 35q81 0 138 53t61 138v9q0 88 -57.5 142.5t-141.5 54.5t-141.5 -54.5t-57.5 -142.5q0 -89 57.5 -144.5t141.5 -55.5zM958 235q0 -14 -1 -21h-417q6 -80 59.5 -129.5t129.5 -49.5q52 0 94.5 23.5
t68.5 65.5l43 -15q-30 -56 -84.5 -87.5t-121.5 -31.5q-72 0 -129.5 37t-84.5 101q-28 -64 -87.5 -101t-132.5 -37q-103 0 -173.5 68t-70.5 177q0 108 70.5 175t173.5 67q73 0 132.5 -36.5t87.5 -99.5q27 63 84.5 99.5t129.5 36.5q101 0 165 -66.5t64 -175.5z" />
    <glyph glyph-name="Racute" unicode="&#x154;" horiz-adv-x="604" 
d="M286 278h-137v-278h-46v689h254q96 0 142.5 -59.5t46.5 -146.5t-47 -146t-145 -59h-13l197 -278h-55zM357 644h-208v-321h203q76 0 112.5 46t36.5 114t-35.5 114.5t-108.5 46.5zM338 875h56l-87 -130h-44z" />
    <glyph glyph-name="racute" unicode="&#x155;" horiz-adv-x="369" 
d="M130 0h-46v467h46v-121q16 61 55 96t98 35q40 0 69 -13l-8 -44q-27 11 -61 11q-43 0 -74 -23t-47.5 -61.5t-24 -79.5t-7.5 -87v-180zM174 675h56l-87 -130h-44z" />
    <glyph glyph-name="Rcommaaccent" unicode="&#x156;" horiz-adv-x="604" 
d="M286 278h-137v-278h-46v689h254q96 0 142.5 -59.5t46.5 -146.5t-47 -146t-145 -59h-13l197 -278h-55zM357 644h-208v-321h203q76 0 112.5 46t36.5 114t-35.5 114.5t-108.5 46.5zM230 -223q61 71 58 156h51q-6 -109 -73 -161q-12 1 -36 5z" />
    <glyph glyph-name="rcommaaccent" unicode="&#x157;" horiz-adv-x="369" 
d="M130 0h-46v467h46v-121q16 61 55 96t98 35q40 0 69 -13l-8 -44q-27 11 -61 11q-43 0 -74 -23t-47.5 -61.5t-24 -79.5t-7.5 -87v-180zM27 -223q61 71 58 156h51q-6 -109 -73 -161q-12 1 -36 5z" />
    <glyph glyph-name="Rcaron" unicode="&#x158;" horiz-adv-x="604" 
d="M286 278h-137v-278h-46v689h254q96 0 142.5 -59.5t46.5 -146.5t-47 -146t-145 -59h-13l197 -278h-55zM357 644h-208v-321h203q76 0 112.5 46t36.5 114t-35.5 114.5t-108.5 46.5zM439 875l-104 -130h-64l-104 130h46l90 -99l90 99h46z" />
    <glyph glyph-name="rcaron" unicode="&#x159;" horiz-adv-x="369" 
d="M130 0h-46v467h46v-121q16 61 55 96t98 35q40 0 69 -13l-8 -44q-27 11 -61 11q-43 0 -74 -23t-47.5 -61.5t-24 -79.5t-7.5 -87v-180zM333 675l-104 -130h-64l-104 130h46l90 -99l90 99h46z" />
    <glyph glyph-name="Sacute" unicode="&#x15a;" horiz-adv-x="562" 
d="M58 179h45q6 -57 53.5 -100.5t119.5 -43.5q79 0 128 37.5t59 88.5q18 126 -145 164l-96 23q-159 34 -159 167q0 78 64 130t148 52q89 0 148 -49t63 -131h-45q-4 61 -50.5 98t-115.5 37q-66 0 -116 -39t-50 -98q0 -96 122 -124l97 -22q91 -21 142 -73.5t37 -142.5
q-13 -66 -73 -114.5t-158 -48.5q-92 0 -152 57t-66 132zM318 875h56l-87 -130h-44z" />
    <glyph glyph-name="sacute" unicode="&#x15b;" horiz-adv-x="422" 
d="M213 477q58 0 97.5 -30.5t46.5 -86.5h-45q-6 33 -33 53t-66 20q-40 0 -69.5 -19t-33.5 -49q-10 -74 81 -96l67 -16q115 -28 115 -129q0 -60 -45.5 -97t-118.5 -37q-61 0 -108.5 34.5t-55.5 94.5h42q29 -85 125 -85q53 0 84.5 24.5t31.5 65.5q0 66 -80 85l-68 16
q-55 13 -88.5 44.5t-26.5 101.5q7 47 49 76.5t99 29.5zM254 675h56l-87 -130h-44z" />
    <glyph glyph-name="Scircumflex" unicode="&#x15c;" horiz-adv-x="562" 
d="M58 179h45q6 -57 53.5 -100.5t119.5 -43.5q79 0 128 37.5t59 88.5q18 126 -145 164l-96 23q-159 34 -159 167q0 78 64 130t148 52q89 0 148 -49t63 -131h-45q-4 61 -50.5 98t-115.5 37q-66 0 -116 -39t-50 -98q0 -96 122 -124l97 -22q91 -21 142 -73.5t37 -142.5
q-13 -66 -73 -114.5t-158 -48.5q-92 0 -152 57t-66 132zM137 745l104 130h64l104 -130h-46l-90 99l-90 -99h-46z" />
    <glyph glyph-name="scircumflex" unicode="&#x15d;" horiz-adv-x="422" 
d="M213 477q58 0 97.5 -30.5t46.5 -86.5h-45q-6 33 -33 53t-66 20q-40 0 -69.5 -19t-33.5 -49q-10 -74 81 -96l67 -16q115 -28 115 -129q0 -60 -45.5 -97t-118.5 -37q-61 0 -108.5 34.5t-55.5 94.5h42q29 -85 125 -85q53 0 84.5 24.5t31.5 65.5q0 66 -80 85l-68 16
q-55 13 -88.5 44.5t-26.5 101.5q7 47 49 76.5t99 29.5zM74 545l104 130h64l104 -130h-46l-90 99l-90 -99h-46z" />
    <glyph glyph-name="Scedilla" unicode="&#x15e;" horiz-adv-x="563" 
d="M163 -97h40q0 -16 6 -29q9 -20 29.5 -28t40.5 0q34 15 34 48q0 10 -6 24l-28 72h-2q-92 0 -152 57t-66 132h45q6 -57 53.5 -100.5t119.5 -43.5q79 0 128 37.5t59 88.5q18 126 -145 164l-96 23q-159 34 -159 167q0 78 64 130t148 52q89 0 148 -49t63 -131h-45
q-4 61 -50.5 98t-115.5 37q-66 0 -116 -39t-50 -98q0 -96 122 -124l97 -22q91 -21 142 -73.5t37 -142.5q-12 -58 -60.5 -103.5t-127.5 -56.5l24 -59q16 -38 2 -74t-52 -51q-36 -15 -71.5 0t-51.5 52q-8 22 -8 42z" />
    <glyph glyph-name="scedilla" unicode="&#x15f;" horiz-adv-x="422" 
d="M239 -82l-28 72h-2q-61 0 -108.5 34.5t-55.5 94.5h42q29 -85 125 -85q53 0 84.5 24.5t31.5 65.5q0 66 -80 85l-68 16q-55 13 -88.5 44.5t-26.5 101.5q7 47 49 76.5t99 29.5q58 0 97.5 -30.5t46.5 -86.5h-45q-6 33 -33 53t-66 20q-40 0 -69.5 -19t-33.5 -49
q-10 -74 81 -96l67 -16q115 -28 115 -129q0 -51 -33 -85.5t-88 -44.5l24 -60q16 -38 2 -74t-52 -51q-36 -15 -71.5 0t-51.5 52q-8 22 -8 42h40q0 -16 6 -29q9 -20 29.5 -28t40.5 0q34 15 34 48q0 10 -6 24z" />
    <glyph glyph-name="Scaron" unicode="&#x160;" horiz-adv-x="562" 
d="M58 179h45q6 -57 53.5 -100.5t119.5 -43.5q79 0 128 37.5t59 88.5q18 126 -145 164l-96 23q-159 34 -159 167q0 78 64 130t148 52q89 0 148 -49t63 -131h-45q-4 61 -50.5 98t-115.5 37q-66 0 -116 -39t-50 -98q0 -96 122 -124l97 -22q91 -21 142 -73.5t37 -142.5
q-13 -66 -73 -114.5t-158 -48.5q-92 0 -152 57t-66 132zM420 875l-104 -130h-64l-104 130h46l90 -99l90 99h46z" />
    <glyph glyph-name="scaron" unicode="&#x161;" horiz-adv-x="422" 
d="M213 477q58 0 97.5 -30.5t46.5 -86.5h-45q-6 33 -33 53t-66 20q-40 0 -69.5 -19t-33.5 -49q-10 -74 81 -96l67 -16q115 -28 115 -129q0 -60 -45.5 -97t-118.5 -37q-61 0 -108.5 34.5t-55.5 94.5h42q29 -85 125 -85q53 0 84.5 24.5t31.5 65.5q0 66 -80 85l-68 16
q-55 13 -88.5 44.5t-26.5 101.5q7 47 49 76.5t99 29.5zM346 675l-104 -130h-64l-104 130h46l90 -99l90 99h46z" />
    <glyph glyph-name="Tcommaaccent" unicode="&#x162;" horiz-adv-x="556" 
d="M27 644v45h502v-45h-229v-644h-45v644h-228zM198 -223q61 71 58 156h51q-6 -109 -73 -161q-12 1 -36 5z" />
    <glyph glyph-name="tcommaaccent" unicode="&#x163;" horiz-adv-x="293" 
d="M266 467v-41h-109v-426h-45v426h-85v41h85v188h45v-188h109zM53 -223q61 71 58 156h51q-6 -109 -73 -161q-12 1 -36 5z" />
    <glyph glyph-name="Tcaron" unicode="&#x164;" horiz-adv-x="556" 
d="M27 644v45h502v-45h-229v-644h-45v644h-228zM414 875l-104 -130h-64l-104 130h46l90 -99l90 99h46z" />
    <glyph glyph-name="tcaron" unicode="&#x165;" horiz-adv-x="293" 
d="M296 678q1 -104 -62 -163l-29 10q48 66 42 153h49zM266 426v41h-109v188h-45v-188h-85v-41h85v-426h45v426h109z" />
    <glyph glyph-name="Tbar" unicode="&#x166;" horiz-adv-x="556" 
d="M255 0v358h-131v39h131v247h-228v45h502v-45h-229v-247h131v-39h-131v-358h-45z" />
    <glyph glyph-name="tbar" unicode="&#x167;" horiz-adv-x="297" 
d="M159 0h-45v234h-68v38h68v154h-85v41h85v188h45v-188h109v-41h-109v-154h77v-38h-77v-234z" />
    <glyph glyph-name="Utilde" unicode="&#x168;" horiz-adv-x="673" 
d="M577 689v-460q0 -106 -70 -173t-171 -67t-170.5 67t-69.5 173v460h45v-460q0 -87 56.5 -140.5t138.5 -53.5t139 54t57 140v460h45zM289 816q-13 0 -24 -11.5t-12 -33.5h-39q2 41 23 63.5t45 22.5h9q19 0 49 -21t44 -21q13 0 24 10.5t12 32.5h39q-2 -41 -23 -63t-45 -22
q-21 0 -54.5 21.5t-47.5 21.5z" />
    <glyph glyph-name="utilde" unicode="&#x169;" horiz-adv-x="560" 
d="M476 467v-467h-46v92q-19 -52 -65.5 -77t-99.5 -25q-84 0 -135.5 54.5t-51.5 148.5v274h46v-274q0 -73 39 -115.5t102 -42.5q69 0 116.5 41.5t48.5 128.5v262h46zM239 616q-13 0 -24 -11.5t-12 -33.5h-39q2 41 23 63.5t45 22.5h9q19 0 49 -21t44 -21q13 0 24 10.5
t12 32.5h39q-2 -41 -23 -63t-45 -22q-21 0 -54.5 21.5t-47.5 21.5z" />
    <glyph glyph-name="Umacron" unicode="&#x16a;" horiz-adv-x="673" 
d="M577 689v-460q0 -106 -70 -173t-171 -67t-170.5 67t-69.5 173v460h45v-460q0 -87 56.5 -140.5t138.5 -53.5t139 54t57 140v460h45zM220 804v42h232v-42h-232z" />
    <glyph glyph-name="umacron" unicode="&#x16b;" horiz-adv-x="560" 
d="M476 467v-467h-46v92q-19 -52 -65.5 -77t-99.5 -25q-84 0 -135.5 54.5t-51.5 148.5v274h46v-274q0 -73 39 -115.5t102 -42.5q69 0 116.5 41.5t48.5 128.5v262h46zM171 604v42h232v-42h-232z" />
    <glyph glyph-name="Ubreve" unicode="&#x16c;" horiz-adv-x="673" 
d="M577 689v-460q0 -106 -70 -173t-171 -67t-170.5 67t-69.5 173v460h45v-460q0 -87 56.5 -140.5t138.5 -53.5t139 54t57 140v460h45zM415 866h37q0 -50 -32 -80t-84 -30q-57 0 -86 32t-29 78h37q2 -30 22 -50.5t56 -20.5q35 0 56 20t23 51z" />
    <glyph glyph-name="ubreve" unicode="&#x16d;" horiz-adv-x="560" 
d="M476 467v-467h-46v92q-19 -52 -65.5 -77t-99.5 -25q-84 0 -135.5 54.5t-51.5 148.5v274h46v-274q0 -73 39 -115.5t102 -42.5q69 0 116.5 41.5t48.5 128.5v262h46zM365 666h37q0 -50 -32 -80t-84 -30q-57 0 -86 32t-29 78h37q2 -30 22 -50.5t56 -20.5q35 0 56 20t23 51z
" />
    <glyph glyph-name="Uring" unicode="&#x16e;" horiz-adv-x="673" 
d="M577 689v-460q0 -106 -70 -173t-171 -67t-170.5 67t-69.5 173v460h45v-460q0 -87 56.5 -140.5t138.5 -53.5t139 54t57 140v460h45zM248 844q0 37 25.5 63.5t61.5 26.5q38 0 64 -26t26 -64q0 -37 -26 -62.5t-64 -25.5q-36 0 -61.5 25.5t-25.5 62.5zM285 844
q0 -21 14.5 -35.5t36.5 -14.5t37 14.5t15 35.5q0 22 -15 37t-37 15t-36.5 -15t-14.5 -37z" />
    <glyph glyph-name="uring" unicode="&#x16f;" horiz-adv-x="560" 
d="M476 467v-467h-46v92q-19 -52 -65.5 -77t-99.5 -25q-84 0 -135.5 54.5t-51.5 148.5v274h46v-274q0 -73 39 -115.5t102 -42.5q69 0 116.5 41.5t48.5 128.5v262h46zM198 644q0 37 25.5 63.5t61.5 26.5q38 0 64 -26t26 -64q0 -37 -26 -62.5t-64 -25.5q-36 0 -61.5 25.5
t-25.5 62.5zM235 644q0 -21 14.5 -35.5t36.5 -14.5t37 14.5t15 35.5q0 22 -15 37t-37 15t-36.5 -15t-14.5 -37z" />
    <glyph glyph-name="Uhungarumlaut" unicode="&#x170;" horiz-adv-x="673" 
d="M577 689v-460q0 -106 -70 -173t-171 -67t-170.5 67t-69.5 173v460h45v-460q0 -87 56.5 -140.5t138.5 -53.5t139 54t57 140v460h45zM433 875h56l-87 -130h-44zM318 875h52l-80 -130h-46z" />
    <glyph glyph-name="uhungarumlaut" unicode="&#x171;" horiz-adv-x="560" 
d="M476 467v-467h-46v92q-19 -52 -65.5 -77t-99.5 -25q-84 0 -135.5 54.5t-51.5 148.5v274h46v-274q0 -73 39 -115.5t102 -42.5q69 0 116.5 41.5t48.5 128.5v262h46zM371 675h56l-87 -130h-44zM256 675h52l-80 -130h-46z" />
    <glyph glyph-name="Uogonek" unicode="&#x172;" horiz-adv-x="675" 
d="M486 -97q0 -20 -8 -42q-16 -37 -51.5 -52t-71.5 0q-38 15 -52 51t2 74l22 55q-98 4 -164 70t-66 170v460h45v-460q0 -87 56.5 -140.5t138.5 -53.5t139 54t57 140v460h45v-460q0 -97 -59 -162t-149 -76l-28 -73q-6 -14 -6 -24q0 -33 34 -48q20 -8 40.5 0t29.5 28
q6 13 6 29h40z" />
    <glyph glyph-name="uogonek" unicode="&#x173;" horiz-adv-x="560" 
d="M585 -97q0 -20 -8 -42q-16 -37 -51.5 -52t-71.5 0q-38 15 -52 51t2 74l26 66v92q-19 -52 -65.5 -77t-99.5 -25q-84 0 -135.5 54.5t-51.5 148.5v274h46v-274q0 -73 39 -115.5t102 -42.5q69 0 116.5 41.5t48.5 128.5v262h46v-467h-4l-31 -82q-6 -14 -6 -24q0 -33 34 -48
q20 -8 40.5 0t29.5 28q6 13 6 29h40z" />
    <glyph glyph-name="Wcircumflex" unicode="&#x174;" horiz-adv-x="918" 
d="M632 67l209 622h48l-234 -689h-48l-148 507l-149 -507h-47l-234 689h47l209 -622l152 520h44zM323 745l104 130h64l104 -130h-46l-90 99l-90 -99h-46z" />
    <glyph glyph-name="wcircumflex" unicode="&#x175;" horiz-adv-x="817" 
d="M737 467h48l-175 -467h-42l-161 417l-156 -417h-42l-180 467h49l151 -398l149 398h59l151 -397zM271 545l104 130h64l104 -130h-46l-90 99l-90 -99h-46z" />
    <glyph glyph-name="Ycircumflex" unicode="&#x176;" horiz-adv-x="602" 
d="M584 689l-260 -363v-326h-46v326l-258 363h54l227 -316l229 316h54zM166 745l104 130h64l104 -130h-46l-90 99l-90 -99h-46z" />
    <glyph glyph-name="ycircumflex" unicode="&#x177;" horiz-adv-x="500" 
d="M474 467l-297 -693h-45l93 224l-197 469h48l174 -412l175 412h49zM116 545l104 130h64l104 -130h-46l-90 99l-90 -99h-46z" />
    <glyph glyph-name="Ydieresis" unicode="&#x178;" horiz-adv-x="602" 
d="M584 689l-260 -363v-326h-46v326l-258 363h54l227 -316l229 316h54zM181 829q0 16 11.5 26.5t27.5 10.5q17 0 28.5 -10.5t11.5 -26.5t-11.5 -26t-28.5 -10q-16 0 -27.5 10.5t-11.5 25.5zM344 829q0 16 11.5 26.5t27.5 10.5q17 0 28.5 -10.5t11.5 -26.5t-11.5 -26
t-28.5 -10q-16 0 -27.5 10.5t-11.5 25.5z" />
    <glyph glyph-name="Zacute" unicode="&#x179;" horiz-adv-x="538" 
d="M99 46h396v-46h-455v37l397 606h-391v46h449v-39zM302 875h56l-87 -130h-44z" />
    <glyph glyph-name="zacute" unicode="&#x17a;" horiz-adv-x="479" 
d="M433 45v-45h-391v36l324 386h-317v45h384v-37l-326 -385h326zM271 675h56l-87 -130h-44z" />
    <glyph glyph-name="Zdotaccent" unicode="&#x17b;" horiz-adv-x="538" 
d="M99 46h396v-46h-455v37l397 606h-391v46h449v-39zM228 829q0 16 11.5 26.5t27.5 10.5q17 0 28.5 -10.5t11.5 -26.5t-11.5 -26t-28.5 -10q-16 0 -27.5 10.5t-11.5 25.5z" />
    <glyph glyph-name="zdotaccent" unicode="&#x17c;" horiz-adv-x="479" 
d="M433 0v45h-326l326 385v37h-384v-45h317l-324 -386v-36h391zM198 629q0 16 11.5 26.5t27.5 10.5q17 0 28.5 -10.5t11.5 -26.5t-11.5 -26t-28.5 -10q-16 0 -27.5 10.5t-11.5 25.5z" />
    <glyph glyph-name="Zcaron" unicode="&#x17d;" horiz-adv-x="538" 
d="M99 46h396v-46h-455v37l397 606h-391v46h449v-39zM403 875l-104 -130h-64l-104 130h46l90 -99l90 99h46z" />
    <glyph glyph-name="zcaron" unicode="&#x17e;" horiz-adv-x="479" 
d="M433 45v-45h-391v36l324 386h-317v45h384v-37l-326 -385h326zM374 675l-104 -130h-64l-104 130h46l90 -99l90 99h46z" />
    <glyph glyph-name="longs" unicode="&#x17f;" horiz-adv-x="271" 
d="M122 426h-94v41h94v68q0 198 159 198h41v-44h-41q-114 0 -114 -154v-535h-45v426z" />
    <glyph glyph-name="florin" unicode="&#x192;" horiz-adv-x="594" 
d="M267 -16q-18 -93 -62.5 -145.5t-133.5 -52.5h-40l8 44h41q114 0 141 154l82 442h-93l8 41h94l12 68q18 93 62.5 145.5t133.5 52.5h41l-9 -44h-41q-114 0 -141 -154l-13 -68h125l-8 -41h-125z" />
    <glyph glyph-name="Aringacute" unicode="&#x1fa;" horiz-adv-x="626" 
d="M262 845q0 -22 14.5 -36.5t35.5 -14.5q22 0 37 14.5t15 36.5t-15 37t-37 15q-21 0 -35.5 -15t-14.5 -37zM354 1039h55l-73 -109q29 -8 47.5 -32t18.5 -54q0 -37 -26 -62.5t-64 -25.5q-37 0 -62 25.5t-25 62.5q0 32 18.5 56t47.5 31zM466 229l-153 397l-152 -397h305z
M481 187h-336l-72 -187h-48l264 689h48l264 -689h-48z" />
    <glyph glyph-name="aringacute" unicode="&#x1fb;" 
d="M490 0v101q-28 -51 -82 -81t-116 -30q-101 0 -171 70t-70 174t70 173.5t171 69.5q63 0 116.5 -29.5t81.5 -80.5v100h46v-467h-46zM97 234q0 -84 57 -141t138 -57q82 0 139.5 54.5t58.5 138.5q0 88 -57.5 145t-140.5 57q-82 0 -138.5 -56.5t-56.5 -140.5zM252 635
q0 -22 14.5 -36.5t35.5 -14.5q22 0 37 14.5t15 36.5t-15 37t-37 15q-21 0 -35.5 -15t-14.5 -37zM344 829h55l-73 -109q29 -8 47.5 -32t18.5 -54q0 -37 -26 -62.5t-64 -25.5q-37 0 -62 25.5t-25 62.5q0 32 18.5 56t47.5 31z" />
    <glyph glyph-name="AEacute" unicode="&#x1fc;" horiz-adv-x="959" 
d="M15 0l446 689h432v-45h-337v-283h295v-46h-295v-270h349v-45h-394v189h-320l-122 -189h-54zM511 233v411h-23l-269 -411h292zM556 875h56l-87 -130h-44z" />
    <glyph glyph-name="aeacute" unicode="&#x1fd;" horiz-adv-x="999" 
d="M536 85v-85h-46v101q-28 -51 -82 -81t-116 -30q-101 0 -171 70t-70 174t70 173.5t171 69.5q63 0 116.5 -29.5t81.5 -80.5v100h46v-84q67 94 190 94q101 0 165 -66.5t64 -175.5q0 -14 -1 -21h-417q6 -80 59.5 -129.5t129.5 -49.5q52 0 95 23.5t68 65.5l43 -15
q-30 -56 -84.5 -87.5t-121.5 -31.5q-59 0 -108.5 25t-81.5 70zM97 234q0 -84 57 -141t138 -57q82 0 139.5 54.5t58.5 138.5q0 88 -57.5 145t-140.5 57q-82 0 -138.5 -56.5t-56.5 -140.5zM726 432q-76 0 -129 -48t-60 -128h372q-7 81 -57 128.5t-126 47.5zM561 675h56
l-87 -130h-44z" />
    <glyph glyph-name="Oslashacute" unicode="&#x1fe;" horiz-adv-x="804" 
d="M457 875h56l-87 -130h-44zM401 35q127 0 214.5 90t87.5 218q0 116 -74 203l-427 -436q86 -75 199 -75zM100 343q0 -117 74 -205l428 435q-85 79 -201 79q-126 0 -213.5 -90t-87.5 -219zM171 78l-87 -88l-28 27l87 89q-88 101 -88 237q0 147 100.5 250.5t245.5 103.5
q134 0 233 -91l91 92l27 -27l-91 -93q87 -100 87 -235q0 -147 -100.5 -250t-246.5 -103q-134 0 -230 88z" />
    <glyph glyph-name="oslashacute" unicode="&#x1ff;" horiz-adv-x="589" 
d="M342 675h56l-87 -130h-44zM295 432q-84 0 -141.5 -54.5t-57.5 -142.5q0 -77 44 -129l280 285q-54 41 -125 41zM295 35q84 0 141.5 55.5t57.5 144.5q0 75 -46 129l-281 -286q54 -43 128 -43zM135 46l-55 -56l-28 27l55 56q-56 67 -56 162q0 108 70.5 175t173.5 67
q90 0 158 -54l55 57l27 -27l-54 -56q58 -66 58 -162q0 -109 -70.5 -177t-173.5 -68q-93 0 -160 56z" />
    <glyph glyph-name="Scommaaccent" unicode="&#x218;" horiz-adv-x="562" 
d="M58 179h45q6 -57 53.5 -100.5t119.5 -43.5q79 0 128 37.5t59 88.5q18 126 -145 164l-96 23q-159 34 -159 167q0 78 64 130t148 52q89 0 148 -49t63 -131h-45q-4 61 -50.5 98t-115.5 37q-66 0 -116 -39t-50 -98q0 -96 122 -124l97 -22q91 -21 142 -73.5t37 -142.5
q-13 -66 -73 -114.5t-158 -48.5q-92 0 -152 57t-66 132zM203 -223q61 71 58 156h51q-6 -109 -73 -161q-12 1 -36 5z" />
    <glyph glyph-name="scommaaccent" unicode="&#x219;" horiz-adv-x="422" 
d="M213 477q58 0 97.5 -30.5t46.5 -86.5h-45q-6 33 -33 53t-66 20q-40 0 -69.5 -19t-33.5 -49q-10 -74 81 -96l67 -16q115 -28 115 -129q0 -60 -45.5 -97t-118.5 -37q-61 0 -108.5 34.5t-55.5 94.5h42q29 -85 125 -85q53 0 84.5 24.5t31.5 65.5q0 66 -80 85l-68 16
q-55 13 -88.5 44.5t-26.5 101.5q7 47 49 76.5t99 29.5zM131 -223q61 71 58 156h51q-6 -109 -73 -161q-12 1 -36 5z" />
    <glyph glyph-name="circumflex" unicode="&#x2c6;" horiz-adv-x="482" 
d="M105 545l104 130h64l104 -130h-46l-90 99l-90 -99h-46z" />
    <glyph glyph-name="caron" unicode="&#x2c7;" horiz-adv-x="482" 
d="M377 675l-104 -130h-64l-104 130h46l90 -99l90 99h46z" />
    <glyph glyph-name="breve" unicode="&#x2d8;" horiz-adv-x="509" 
d="M333 666h37q0 -50 -32 -80t-84 -30q-57 0 -86 32t-29 78h37q2 -30 22 -50.5t56 -20.5q35 0 56 20t23 51z" />
    <glyph glyph-name="dotaccent" unicode="&#x2d9;" horiz-adv-x="479" 
d="M200 629q0 16 11.5 26.5t27.5 10.5q17 0 28.5 -10.5t11.5 -26.5t-11.5 -26t-28.5 -10q-16 0 -27.5 10.5t-11.5 25.5z" />
    <glyph glyph-name="ring" unicode="&#x2da;" horiz-adv-x="497" 
d="M160 644q0 37 25.5 63.5t61.5 26.5q38 0 64 -26t26 -64q0 -37 -26 -62.5t-64 -25.5q-36 0 -61.5 25.5t-25.5 62.5zM197 644q0 -21 14.5 -35.5t36.5 -14.5t37 14.5t15 35.5q0 22 -15 37t-37 15t-36.5 -15t-14.5 -37z" />
    <glyph glyph-name="ogonek" unicode="&#x2db;" horiz-adv-x="506" 
d="M351 -97q0 -20 -8 -42q-16 -37 -51.5 -52t-71.5 0q-38 15 -52 51t2 74l32 80h42l-37 -96q-6 -14 -6 -24q0 -33 34 -48q20 -8 40.5 0t29.5 28q6 13 6 29h40z" />
    <glyph glyph-name="tilde" unicode="&#x2dc;" horiz-adv-x="451" 
d="M178 616q-13 0 -24 -11.5t-12 -33.5h-39q2 41 23 63.5t45 22.5h9q20 0 50 -21t43 -21t24 10.5t12 32.5h39q-2 -41 -23 -63t-45 -22q-21 0 -54.5 21.5t-47.5 21.5z" />
    <glyph glyph-name="hungarumlaut" unicode="&#x2dd;" horiz-adv-x="405" 
d="M269 675h56l-87 -130h-44zM154 675h52l-80 -130h-46z" />
    <glyph glyph-name="Wgrave" unicode="&#x1e80;" horiz-adv-x="918" 
d="M841 689l-209 -622l-151 520h-44l-152 -520l-209 622h-47l234 -689h47l149 507l148 -507h48l234 689h-48zM415 745l-86 130h55l76 -130h-45z" />
    <glyph glyph-name="wgrave" unicode="&#x1e81;" horiz-adv-x="817" 
d="M785 467h-48l-149 -397l-151 397h-59l-149 -398l-151 398h-49l180 -467h42l156 417l161 -417h42zM380 545l-86 130h55l76 -130h-45z" />
    <glyph glyph-name="Wacute" unicode="&#x1e82;" horiz-adv-x="918" 
d="M632 67l209 622h48l-234 -689h-48l-148 507l-149 -507h-47l-234 689h47l209 -622l152 520h44zM529 875h56l-87 -130h-44z" />
    <glyph glyph-name="wacute" unicode="&#x1e83;" horiz-adv-x="817" 
d="M737 467h48l-175 -467h-42l-161 417l-156 -417h-42l-180 467h49l151 -398l149 398h59l151 -397zM466 675h56l-87 -130h-44z" />
    <glyph glyph-name="Wdieresis" unicode="&#x1e84;" horiz-adv-x="918" 
d="M841 689l-209 -622l-151 520h-44l-152 -520l-209 622h-47l234 -689h47l149 507l148 -507h48l234 689h-48zM338 829q0 16 11.5 26.5t27.5 10.5q17 0 28.5 -10.5t11.5 -26.5t-11.5 -26t-28.5 -10q-16 0 -27.5 10.5t-11.5 25.5zM501 829q0 16 11.5 26.5t27.5 10.5
q17 0 28.5 -10.5t11.5 -26.5t-11.5 -26t-28.5 -10q-16 0 -27.5 10.5t-11.5 25.5z" />
    <glyph glyph-name="wdieresis" unicode="&#x1e85;" horiz-adv-x="817" 
d="M785 467h-48l-149 -397l-151 397h-59l-149 -398l-151 398h-49l180 -467h42l156 417l161 -417h42zM286 629q0 16 11.5 26.5t27.5 10.5q17 0 28.5 -10.5t11.5 -26.5t-11.5 -26t-28.5 -10q-16 0 -27.5 10.5t-11.5 25.5zM449 629q0 16 11.5 26.5t27.5 10.5q17 0 28.5 -10.5
t11.5 -26.5t-11.5 -26t-28.5 -10q-16 0 -27.5 10.5t-11.5 25.5z" />
    <glyph glyph-name="Ygrave" unicode="&#x1ef2;" horiz-adv-x="602" 
d="M584 689l-260 -363v-326h-46v326l-258 363h54l227 -316l229 316h54zM290 745l-86 130h55l76 -130h-45z" />
    <glyph glyph-name="ygrave" unicode="&#x1ef3;" horiz-adv-x="500" 
d="M177 -226l297 693h-49l-175 -412l-174 412h-48l197 -469l-93 -224h45zM254 545l-86 130h55l76 -130h-45z" />
    <glyph glyph-name="thinspace" unicode="&#x2009;" horiz-adv-x="14" 
 />
    <glyph glyph-name="endash" unicode="&#x2013;" horiz-adv-x="585" 
d="M71 204v42h443v-42h-443z" />
    <glyph glyph-name="emdash" unicode="&#x2014;" horiz-adv-x="792" 
d="M71 204v42h650v-42h-650z" />
    <glyph glyph-name="quoteleft" unicode="&#x2018;" horiz-adv-x="222" 
d="M143 698q3 -1 14.5 -5.5t14.5 -5.5q-60 -83 -57 -195h-45q3 122 73 206z" />
    <glyph glyph-name="quoteright" unicode="&#x2019;" horiz-adv-x="223" 
d="M90 484q-9 3 -29 11q60 83 57 194h45q-3 -123 -73 -205z" />
    <glyph glyph-name="quotesinglbase" unicode="&#x201a;" horiz-adv-x="216" 
d="M64 -78q-3 1 -15 5.5t-15 5.5q59 83 58 194h45q-3 -123 -73 -205z" />
    <glyph glyph-name="quotedblleft" unicode="&#x201c;" horiz-adv-x="325" 
d="M246 698q9 -3 29 -11q-60 -83 -57 -195h-45q3 122 73 206zM143 698q3 -1 14.5 -5.5t14.5 -5.5q-60 -83 -57 -195h-45q3 124 73 206z" />
    <glyph glyph-name="quotedblright" unicode="&#x201d;" horiz-adv-x="325" 
d="M89 483q-9 3 -29 11q60 83 57 195h45q-3 -122 -73 -206zM192 483q-3 1 -14.5 5.5t-14.5 5.5q60 83 57 195h45q-3 -124 -73 -206z" />
    <glyph glyph-name="quotedblbase" unicode="&#x201e;" horiz-adv-x="319" 
d="M63 -78q-9 3 -29 11q60 83 57 194h45q-3 -123 -73 -205zM166 -78q-2 1 -14.5 5.5t-14.5 5.5q60 83 57 194h45q-3 -125 -73 -205z" />
    <glyph glyph-name="dagger" unicode="&#x2020;" horiz-adv-x="402" 
d="M223 689v-196h132v-46h-132v-579h-45v579h-131v46h131v196h45z" />
    <glyph glyph-name="daggerdbl" unicode="&#x2021;" horiz-adv-x="428" 
d="M236 689v-196h132v-46h-132v-311h132v-45h-132v-223h-45v223h-131v45h131v311h-131v46h131v196h45z" />
    <glyph glyph-name="bullet" unicode="&#x2022;" horiz-adv-x="436" 
d="M90 236q0 51 37 86t91 35q53 0 90.5 -35t37.5 -86q0 -52 -37.5 -87t-90.5 -35q-54 0 -91 35t-37 87z" />
    <glyph glyph-name="ellipsis" unicode="&#x2026;" horiz-adv-x="658" 
d="M75 28q0 17 12 28t29 11q18 0 30 -11t12 -28q0 -16 -12.5 -27t-29.5 -11t-29 11t-12 27zM288 28q0 17 12 28t29 11q18 0 30 -11t12 -28q0 -16 -12.5 -27t-29.5 -11t-29 11t-12 27zM501 28q0 17 12 28t29 11t29 -11t12 -28q0 -16 -12 -27t-29 -11t-29 11t-12 27z" />
    <glyph glyph-name="perthousand" unicode="&#x2030;" horiz-adv-x="959" 
d="M517 668h-38l-326 -668h39zM41 552q0 51 34.5 86t85.5 35q50 0 85.5 -35.5t35.5 -85.5q0 -51 -35 -85.5t-86 -34.5t-85.5 34.5t-34.5 85.5zM86 552q0 -32 21.5 -53.5t53.5 -21.5t54 21.5t22 53.5t-22.5 54t-53.5 22q-32 0 -53.5 -22t-21.5 -54zM395 113q0 51 34.5 86
t85.5 35q50 0 85.5 -35.5t35.5 -85.5q0 -51 -35 -85.5t-86 -34.5t-85.5 34.5t-34.5 85.5zM440 113q0 -32 21.5 -53.5t53.5 -21.5t54 21.5t22 53.5q0 31 -22.5 53.5t-53.5 22.5q-32 0 -53.5 -22t-21.5 -54zM681 113q0 51 34.5 86t85.5 35q50 0 85.5 -35.5t35.5 -85.5
q0 -51 -35 -85.5t-86 -34.5t-85.5 34.5t-34.5 85.5zM726 113q0 -32 21.5 -53.5t53.5 -21.5t54 21.5t22 53.5q0 31 -22.5 53.5t-53.5 22.5q-32 0 -53.5 -22t-21.5 -54z" />
    <glyph glyph-name="guilsinglleft" unicode="&#x2039;" horiz-adv-x="297" 
d="M241 25h-50l-138 207l138 207h50l-138 -207z" />
    <glyph glyph-name="guilsinglright" unicode="&#x203a;" horiz-adv-x="297" 
d="M106 25h-50l138 207l-138 207h50l138 -207z" />
    <glyph glyph-name="fraction" unicode="&#x2044;" horiz-adv-x="180" 
d="M287 673h49l-448 -683h-49z" />
    <glyph glyph-name="zerosuperior" unicode="&#x2070;" horiz-adv-x="359" 
d="M44 671q0 94 30.5 148t106.5 54q75 0 104.5 -54t29.5 -148t-29.5 -148t-104.5 -54q-76 0 -106.5 54t-30.5 148zM84 671q0 -162 97 -162q94 0 94 162t-94 162q-97 0 -97 -162z" />
    <glyph glyph-name="foursuperior" unicode="&#x2074;" horiz-adv-x="355" 
d="M325 592v-37h-60v-84h-39v84h-207l217 312h29v-275h60zM226 592v200l-137 -200h137z" />
    <glyph glyph-name="fivesuperior" unicode="&#x2075;" horiz-adv-x="342" 
d="M280 867v-39h-161l-24 -130q42 21 81 21q54 0 92 -33t38 -91t-39 -93.5t-104 -35.5q-39 0 -75 23.5t-55 59.5l33 23q13 -29 40 -47.5t57 -18.5q47 0 75 25.5t28 63.5q0 39 -27.5 61.5t-62.5 22.5q-49 0 -116 -32l-11 13l36 207h195z" />
    <glyph glyph-name="sixsuperior" unicode="&#x2076;" horiz-adv-x="339" 
d="M46 599l-2 72.5t7 74t21.5 65t42.5 46t70 17.5q78 -4 107 -71l-35 -16q-23 48 -73 48q-55 1 -79 -49t-19 -120q9 29 35.5 43t58.5 13q52 -1 86.5 -40t32.5 -93q-2 -53 -39.5 -88.5t-89.5 -33.5t-86 37t-38 95zM86 598q0 -38 24.5 -63.5t60.5 -27.5q37 -1 62 23t27 61
q1 37 -22 63t-59 28q-37 2 -64.5 -22.5t-28.5 -61.5z" />
    <glyph glyph-name="sevensuperior" unicode="&#x2077;" horiz-adv-x="316" 
d="M300 867l-217 -396h-47l197 357h-195v39h262z" />
    <glyph glyph-name="eightsuperior" unicode="&#x2078;" horiz-adv-x="345" 
d="M71 776q0 41 29 69t72 28q44 0 73.5 -28t29.5 -69q0 -47 -38 -75q32 -15 50.5 -44.5t18.5 -64.5q0 -53 -38.5 -89.5t-95.5 -36.5t-95 36.5t-38 89.5q0 35 18.5 64.5t49.5 45.5q-38 27 -36 74zM78 592q0 -36 27 -61.5t67 -25.5t67.5 25.5t27.5 61.5t-27.5 62.5t-66.5 26.5
q-40 0 -67.5 -27t-27.5 -62zM110 776q0 -26 18.5 -43.5t46.5 -16.5q25 0 42.5 18t17.5 42t-18 40.5t-45 16.5q-26 0 -44 -17t-18 -40z" />
    <glyph glyph-name="ninesuperior" unicode="&#x2079;" horiz-adv-x="339" 
d="M292 740l2 -72.5t-7 -74t-21.5 -65t-42.5 -46t-70 -16.5q-78 2 -108 71l35 14q23 -45 75 -47q54 -1 78 48.5t20 119.5q-10 -28 -36.5 -42t-57.5 -13q-53 1 -87.5 40.5t-32.5 92.5q2 54 39.5 89t90.5 33q52 -2 85.5 -37.5t37.5 -94.5zM252 741q0 38 -24.5 63.5t-60.5 27.5
q-36 1 -61 -23t-27 -61q-2 -38 21 -64t60 -27q36 -2 63.5 22.5t28.5 61.5z" />
    <glyph glyph-name="zeroinferior" unicode="&#x2080;" horiz-adv-x="359" 
d="M44 22q0 94 30.5 148t106.5 54q75 0 104.5 -54t29.5 -148t-29.5 -148t-104.5 -54q-76 0 -106.5 54t-30.5 148zM84 22q0 -162 97 -162q94 0 94 162t-94 162q-97 0 -97 -162z" />
    <glyph glyph-name="oneinferior" unicode="&#x2081;" horiz-adv-x="194" 
d="M135 224v-396h-40v342l-67 -24v39z" />
    <glyph glyph-name="twoinferior" unicode="&#x2082;" horiz-adv-x="320" 
d="M109 -133h168v-39h-237v16l163 197q33 38 33 74q0 33 -23 53.5t-58 20.5q-31 0 -54.5 -17.5t-27.5 -46.5l-37 10q7 43 40.5 68.5t78.5 25.5q52 0 86.5 -32t34.5 -82t-44 -101z" />
    <glyph glyph-name="threeinferior" unicode="&#x2083;" horiz-adv-x="325" 
d="M226 117q2 29 -16 49t-52 23q-24 2 -46 -8.5t-33 -29.5q-29 19 -31 21q16 28 46.5 43.5t66.5 13.5q52 -4 81 -35.5t27 -75.5q-3 -53 -53 -77q32 -9 51.5 -41.5t16.5 -67.5q-5 -50 -45 -81.5t-95 -27.5q-78 5 -113 73q4 2 17.5 10.5t15.5 9.5q23 -49 83 -54q38 -2 66 19.5
t31 56.5q1 35 -24.5 58.5t-60.5 23.5h-41v39h41q26 0 45 16.5t22 41.5z" />
    <glyph glyph-name="fourinferior" unicode="&#x2084;" horiz-adv-x="354" 
d="M325 -51v-38h-60v-83h-39v83h-207l217 313h29v-275h60zM226 -51v200l-137 -200h137z" />
    <glyph glyph-name="fiveinferior" unicode="&#x2085;" horiz-adv-x="340" 
d="M279 224v-40h-161l-24 -129q45 21 81 21q54 0 92 -33t38 -91q0 -59 -39 -94.5t-104 -35.5q-39 0 -75 23.5t-55 59.5l33 24q13 -29 40 -48t57 -19q47 0 75 25.5t28 64.5t-27.5 61.5t-62.5 22.5q-47 0 -116 -33l-11 14l36 207h195z" />
    <glyph glyph-name="sixinferior" unicode="&#x2086;" horiz-adv-x="339" 
d="M46 -44l-2 72.5t7 74t21.5 65t42.5 46t70 16.5q77 -2 107 -71l-35 -15q-23 46 -73 48q-55 1 -79 -49t-19 -120q9 28 35.5 42.5t58.5 13.5q52 -1 86.5 -40.5t32.5 -92.5q-2 -54 -39.5 -89.5t-89.5 -33.5t-86 37.5t-38 95.5zM86 -45q0 -38 24.5 -64t60.5 -28
q36 -1 61.5 23.5t27.5 61.5q1 37 -22 63t-59 28q-37 2 -64.5 -22.5t-28.5 -61.5z" />
    <glyph glyph-name="seveninferior" unicode="&#x2087;" horiz-adv-x="313" 
d="M301 224l-217 -396h-47l197 356h-195v40h262z" />
    <glyph glyph-name="eightinferior" unicode="&#x2088;" horiz-adv-x="345" 
d="M71 132q0 41 29 69t72 28q44 0 73.5 -28t29.5 -69q0 -48 -38 -74q32 -16 50.5 -45t18.5 -65q0 -53 -38.5 -89t-95.5 -36t-95 36t-38 89q0 36 18.5 65t49.5 45q-38 27 -36 74zM78 -52q0 -36 27 -61t67 -25t67.5 25t27.5 61t-27.5 62.5t-66.5 26.5q-40 0 -67.5 -26.5
t-27.5 -62.5zM110 132q0 -26 18.5 -43t46.5 -17q25 0 42.5 18t17.5 42t-18 41t-45 17q-26 0 -44 -17t-18 -41z" />
    <glyph glyph-name="nineinferior" unicode="&#x2089;" horiz-adv-x="338" 
d="M292 96l2 -72.5t-7 -74t-21.5 -65t-42.5 -46t-70 -16.5q-79 4 -108 71l35 15q23 -47 75 -47q54 -1 78 48t20 120q-10 -28 -36 -42.5t-58 -13.5q-53 1 -87.5 40.5t-32.5 92.5q2 54 39.5 89t90.5 33q51 -2 85 -37.5t38 -94.5zM252 97q0 38 -24.5 64t-60.5 28q-36 1 -61 -23
t-27 -61q-2 -38 21 -64.5t60 -27.5q36 -2 63.5 22.5t28.5 61.5z" />
    <glyph glyph-name="colonmonetary" unicode="&#x20a1;" horiz-adv-x="679" 
d="M397 652l-200 -542q37 -32 72 -48l212 576q-42 13 -84 14zM99 343q0 -116 68 -201l187 507q-111 -14 -183 -100.5t-72 -205.5zM290 6l-39 -105l-36 13l38 106q-34 14 -73 45l-48 -131l-36 13l54 147q-96 101 -96 249q0 142 90.5 244t226.5 109l38 102l36 -13l-32 -88
q47 -5 83 -17l31 85l37 -13l-32 -87q50 -22 92 -61l-31 -32q-36 32 -76 50l-212 -573q42 -14 86 -14q117 0 202 80l31 -32q-98 -93 -233 -93q-51 0 -101 16z" />
    <glyph glyph-name="lira" unicode="&#x20a4;" horiz-adv-x="639" 
d="M154 253v78h-83v40h83v144q0 83 59.5 135.5t139.5 52.5q77 0 131 -48.5t58 -128.5h-45q-4 59 -45 95t-99 36q-62 0 -108 -39.5t-46 -102.5v-144h139v-40h-139v-78h139v-41h-139v-167h307q14 0 23.5 10.5t9.5 26.5v50h45v-50q0 -34 -23 -58t-55 -24h-453v45h101v167h-83
v41h83z" />
    <glyph glyph-name="uni20A6" unicode="&#x20a6;" horiz-adv-x="719" 
d="M278 436l-112 180v-180h112zM553 265h-119l119 -192v192zM301 398h-135v-95h194zM553 398h-202l59 -95h143v95zM598 689v-253h61v-38h-61v-95h61v-38h-61v-265h-49l-165 265h-218v-265h-46v265h-59v38h59v95h-59v38h59v253h51l156 -253h226v253h45z" />
    <glyph glyph-name="peseta" unicode="&#x20a7;" horiz-adv-x="712" 
d="M544 483l-3 36h-364v-74h363q4 16 4 38zM399 644h-222v-86h353q-34 86 -131 86zM177 406v-83h217q100 0 135 83h-352zM579 558h83v-39h-76q3 -18 3 -36q0 -20 -3 -38h76v-39h-84q-17 -58 -62 -93t-119 -35h-220v-278h-46v406h-73v39h73v74h-73v39h73v131h268
q74 0 118.5 -36t61.5 -95z" />
    <glyph glyph-name="rupee" unicode="&#x20a8;" horiz-adv-x="672" 
d="M247 278h-169v45h206q28 0 50 3q65 6 96 50t31 107q0 11 -1 17h-382v37h376q-11 48 -45 77.5t-91 29.5h-240v45h283h261v-37h-187q50 -37 66 -115h121v-37h-117q1 -7 1 -17q0 -80 -40.5 -137t-125.5 -65l-37 -2l196 -279h-55z" />
    <glyph glyph-name="uni20A9" unicode="&#x20a9;" horiz-adv-x="974" 
d="M216 216h-144v41h130l-39 116h-91v40h77l-93 276h47l92 -276h218l51 174h44l50 -174h217l93 276h48l-94 -276h80v-40h-93l-40 -116h133v-41h-147l-73 -216h-48l-63 216h-171l-63 -216h-47zM209 373l39 -116h119l34 116h-192zM570 373l33 -116h120l39 116h-192zM446 373
l-34 -116h147l-34 116h-79zM615 216l44 -149l50 149h-94zM262 216l50 -149l43 149h-93zM486 507l-28 -94h55z" />
    <glyph glyph-name="afii57636" unicode="&#x20aa;" horiz-adv-x="738" 
d="M149 493v-493h-45v538h167q92 0 149 -57.5t57 -142.5v-156h-45v156q0 66 -44.5 110.5t-116.5 44.5h-122zM589 45v493h45v-538h-168q-91 0 -148 57.5t-57 142.5v156h45v-156q0 -66 44.5 -110.5t115.5 -44.5h123z" />
    <glyph glyph-name="Euro" unicode="&#x20ac;" horiz-adv-x="790" 
d="M54 274v36h455v-36h-307q21 -104 100 -171.5t185 -67.5q117 0 202 80l31 -32q-98 -93 -233 -93q-125 0 -216.5 80t-114.5 204h-102zM509 412v-36h-455v36h102q23 124 114.5 204.5t216.5 80.5q133 0 233 -93l-31 -32q-87 80 -202 80q-107 0 -185.5 -67.5t-99.5 -172.5h307
z" />
    <glyph glyph-name="uni2113" unicode="&#x2113;" horiz-adv-x="378" 
d="M126 569v-303h80q77 0 77 105v198q0 105 -77 105q-45 0 -62.5 -27.5t-17.5 -77.5zM206 45h93v-45h-93q-126 0 -126 151v418q0 150 126 150q122 0 122 -150v-198q0 -151 -122 -151h-80v-69q0 -106 80 -106z" />
    <glyph glyph-name="afii61352" unicode="&#x2116;" horiz-adv-x="955" 
d="M582 689h-45v-616l-382 616h-51v-689h45v616l384 -616h49v689zM679 580q0 47 32.5 79.5t79.5 32.5t79.5 -32.5t32.5 -79.5t-32.5 -79.5t-79.5 -32.5t-79.5 33t-32.5 79zM899 393h-215v33h215v-33zM715 580q0 -32 22.5 -54t53.5 -22t53.5 22t22.5 54t-22.5 54t-53.5 22
t-53.5 -22t-22.5 -54z" />
    <glyph glyph-name="trademark" unicode="&#x2122;" horiz-adv-x="847" 
d="M389 615l-37 -310h-39l43 345h-130v-345h-39v345h-121v39h326l150 -303l151 303h31l47 -384h-38l-38 311l-136 -278h-32z" />
    <glyph glyph-name="estimated" unicode="&#x212e;" horiz-adv-x="669" 
d="M616 279h-429v-193q66 -63 152 -63q76 0 123 33t87 94l31 -19q-44 -68 -99 -104.5t-142 -36.5q-119 0 -195 84.5t-76 205.5q0 123 75 206.5t200 83.5q124 0 198.5 -84.5t74.5 -206.5zM496 312v163q-68 62 -153 62q-96 0 -156 -62v-163h309z" />
    <glyph glyph-name="minus" unicode="&#x2212;" horiz-adv-x="576" 
d="M79 241v44h418v-44h-418z" />
    <glyph glyph-name="notequal" unicode="&#x2260;" horiz-adv-x="603" 
d="M526 165v-44h-289l-72 -112h-46l72 112h-116v44h142l110 166h-252v44h279l68 107h47l-69 -107h126v-44h-152l-110 -166h262z" />
    <glyph glyph-name="lessequal" unicode="&#x2264;" horiz-adv-x="676" 
d="M76 0v44h508v-44h-508zM585 501l-456 -172l456 -172v-48l-509 195v51l509 195v-49z" />
    <glyph glyph-name="greaterequal" unicode="&#x2265;" horiz-adv-x="676" 
d="M600 44v-44h-508v44h508zM547 329l-456 172v49l509 -195v-51l-509 -195v48z" />
    <glyph glyph-name="commaaccent" unicode="&#xf6c3;" horiz-adv-x="250" 
d="M70 -223q61 71 58 156h51q-6 -109 -73 -161q-12 1 -36 5z" />
    <glyph glyph-name="rupiah" unicode="&#xf6dd;" horiz-adv-x="1150" 
d="M261 278h-137v-278h-46v689h254q96 0 142.5 -59.5t46.5 -146.5t-47 -146t-145 -59h-13l197 -278h-55zM332 644h-208v-321h203q76 0 112.5 46t36.5 114t-35.5 114.5t-108.5 46.5zM675 467v-101q28 51 82 81t116 30q101 0 171 -70t70 -175q0 -104 -70 -173t-171 -69
q-63 0 -116.5 29t-81.5 80v-325h-46v693h46zM1068 232q0 84 -57 141.5t-138 57.5q-82 0 -139.5 -54.5t-58.5 -139.5q0 -87 58 -144t140 -57t138.5 56t56.5 140z" />
    <glyph glyph-name="apple" unicode="&#xf8ff;" horiz-adv-x="847" 
d="M767 687v-687h-687v687h687zM164 595v-377h81l-74 75v178l255 -253l256 253v-178l-74 -75h84v377l-266 -263zM179 132h-15v-53h9v37l13 -37h10l11 37v-37h9v53h-14l-9 -36zM248 132q-25 0 -25 -27q0 -11 6.5 -18.5t18.5 -7.5q11 0 17 8t6 18q0 11 -6 19t-17 8zM248 89
q-7 0 -12 5.5t-5 10.5q0 6 5 11.5t12 5.5q12 0 12 -17q0 -16 -12 -16zM284 99h-13q0 -20 22 -20t22 17q0 11 -15 14q-16 3 -16 6q0 6 9 6q10 0 10 -6h9q0 16 -19 16t-19 -16q0 -8 16 -15q13 0 13 -5q0 -7 -10 -7q-9 0 -9 10zM315 122h17v-43h8v43h15v10h-40v-10zM377 132h-9
l-22 -53h12l4 13h22l3 -13h11zM374 119l7 -18h-16l6 18h3zM426 132h-28v-53h9v22h13q9 0 9 -9v-13h13q-3 3 -3 13q0 9 -7 13q7 3 7 11q0 16 -13 16zM420 108h-13v14h13q9 0 9 -6q0 -8 -9 -8zM466 132h-20v-53h20q25 0 25 29q0 24 -25 24zM466 89h-8v33h4q17 0 17 -17
q0 -6 -4 -11t-9 -5zM531 132h-37v-53h40v10h-28v12h25v9h-25v12h25v10zM543 99h-9q0 -20 22 -20t22 17q0 11 -15 14q-17 3 -17 6q0 6 7 6q12 0 12 -6h10q0 16 -19 16q-8 0 -15 -4.5t-7 -11.5t19 -15q12 0 12 -5q0 -7 -9 -7q-13 0 -13 10zM589 132h-7v-53h7v53zM633 86l4 -7
h6v29h-22v-9h12q-4 -10 -12 -10q-7 0 -11.5 5.5t-4.5 10.5q0 6 4.5 11.5t11.5 5.5q9 0 9 -10h13q-4 20 -22 20q-11 0 -18 -8t-7 -19q0 -10 7 -18t18 -8q9 0 12 7zM657 132h-8v-53h8v33l22 -33h13v53h-13v-33z" />
    <glyph glyph-name="published" horiz-adv-x="819" 
d="M364 456h86q27 0 40 -17.5t13 -42.5q0 -60 -55 -60h-84v120zM364 298h85q48 0 70.5 28t22.5 70t-22.5 70.5t-69.5 28.5h-125v-318h39v121zM60 343q0 147 101.5 250.5t247.5 103.5t248 -103.5t102 -250.5t-102 -250t-248 -103t-247.5 103t-101.5 250zM101 343
q0 -129 89.5 -220.5t218.5 -91.5t219 91.5t90 220.5t-90 221t-219 92t-218.5 -92t-89.5 -221z" />
    <glyph glyph-name="frenchfranc" horiz-adv-x="706" 
d="M149 644v-247h291v-106q31 116 153 116q41 0 70 -12l-9 -44q-30 11 -61 11q-48 0 -80.5 -22.5t-47.5 -64t-20 -81.5t-5 -92v-102h-46v352h-245v-352h-45v689h376v-45h-331z" />
    <glyph glyph-name="parenleft.case" horiz-adv-x="345" 
d="M56 344q0 215 68 337.5t182 127.5v-45q-94 -5 -149.5 -115.5t-55.5 -304.5q0 -193 55.5 -304t149.5 -115v-46q-114 5 -182 128t-68 337z" />
    <glyph glyph-name="parenright.case" horiz-adv-x="345" 
d="M289 344q0 -214 -68 -337t-182 -128v46q94 4 149.5 115t55.5 304q0 194 -55.5 304.5t-149.5 115.5v45q114 -5 182 -127.5t68 -337.5z" />
    <glyph glyph-name="hyphen.case" horiz-adv-x="479" 
d="M75 320v43h329v-43h-329z" />
    <glyph glyph-name="at.case" horiz-adv-x="998" 
d="M521 -97h-28q-185 0 -312 129t-127 315t128 317t312 131q189 0 325 -123.5t136 -305.5q0 -37 -5.5 -75t-19.5 -76t-34 -67t-52 -47.5t-72 -18.5q-58 0 -96 31t-38 102v138q1 64 -44.5 109t-109.5 45t-109 -45t-45 -109t45 -109t109 -45q56 0 96 35v-48q-47 -30 -96 -30
q-81 0 -139 58t-58 139q0 82 58 139.5t139 57.5q80 0 138 -56t59 -137v-144q0 -88 91 -88q38 0 67 23.5t44 61.5t22 77t7 79q0 109 -57.5 198t-153 138.5t-207.5 49.5q-166 0 -281.5 -118.5t-115.5 -286.5q0 -177 123.5 -293t300.5 -108v-43z" />
    <glyph glyph-name="bracketleft.case" horiz-adv-x="283" 
d="M93 802h146v-46h-100v-823h100v-46h-146v915z" />
    <glyph glyph-name="bracketright.case" horiz-adv-x="283" 
d="M44 802h146v-915h-146v46h100v823h-100v46z" />
    <glyph glyph-name="braceleft.case" horiz-adv-x="373" 
d="M332 -113h-35q-79 0 -133.5 51.5t-54.5 135.5v173q0 29 -19 53t-47 28v39q28 4 47 27.5t19 52.5v176q-1 83 54 135t134 52h35v-43h-35q-60 0 -102 -40.5t-41 -103.5v-176q0 -31 -15.5 -59t-41.5 -42q25 -13 41 -41.5t16 -57.5v-173q0 -64 41.5 -104t101.5 -40h35v-43z
" />
    <glyph glyph-name="braceright.case" horiz-adv-x="373" 
d="M76 -113h-35v43h35q61 0 102 40t41 104v173q0 29 16 57.5t41 41.5q-26 14 -41.5 42t-15.5 59v176q1 68 -44 106t-110 38h-24v43h35q74 0 128 -47t59 -122q1 -12 1 -39v-155q0 -29 19 -52.5t47 -27.5v-39q-28 -4 -47 -28t-19 -53v-173q0 -84 -54.5 -135.5t-133.5 -51.5z
" />
    <glyph glyph-name="exclamdown.case" horiz-adv-x="242" 
d="M99 0l2 521h40l3 -521h-45zM80 657q0 16 12 27.5t29 11.5t29.5 -11.5t12.5 -27.5t-12.5 -27t-29.5 -11t-29 11t-12 27z" />
    <glyph glyph-name="guillemotleft.case" horiz-adv-x="451" 
d="M252 138h-51l-138 207l138 207h50l-138 -207zM380 138h-50l-138 207l138 207h50l-138 -207z" />
    <glyph glyph-name="periodcentered.case" horiz-adv-x="233" 
d="M75 359q0 17 12 28t29 11q18 0 30 -11t12 -28q0 -16 -12.5 -27t-29.5 -11t-29 11t-12 27z" />
    <glyph glyph-name="guillemotright.case" horiz-adv-x="451" 
d="M250 138h-51l139 207l-138 207h50l138 -207zM121 138h-50l138 207l-138 207h50l138 -207z" />
    <glyph glyph-name="questiondown.case" horiz-adv-x="480" 
d="M387 170l45 -2q-4 -80 -58 -128t-131 -48q-81 0 -140 52.5t-59 135.5q0 67 40 116t99 66q51 15 74.5 36t23.5 70v52h45v-52q0 -67 -32 -98t-97 -51q-46 -14 -76.5 -51t-30.5 -88q0 -63 45.5 -103t107.5 -40q59 0 100 36.5t44 96.5zM345 656q0 -16 -12 -27t-29 -11
t-29.5 11t-12.5 27t12.5 27.5t29.5 11.5t29 -11.5t12 -27.5z" />
    <glyph glyph-name="endash.case" horiz-adv-x="587" 
d="M72 317v42h443v-42h-443z" />
    <glyph glyph-name="emdash.case" horiz-adv-x="794" 
d="M72 317v42h650v-42h-650z" />
    <glyph glyph-name="bullet.case" horiz-adv-x="434" 
d="M89 349q0 51 37 86t91 35q53 0 90.5 -35t37.5 -86q0 -52 -37.5 -87t-90.5 -35q-54 0 -91 35t-37 87z" />
    <glyph glyph-name="guilsinglleft.case" horiz-adv-x="322" 
d="M251 138h-50l-138 207l138 207h50l-138 -207z" />
    <glyph glyph-name="guilsinglright.case" horiz-adv-x="322" 
d="M121 138h-50l138 207l-138 207h50l138 -207z" />
    <glyph glyph-name="cent.case" horiz-adv-x="523" 
d="M304 102v-103h-38v105q-92 11 -151.5 77t-59.5 166q0 99 59.5 164t151.5 76v103h38v-101q85 -3 153 -55l-29 -34q-57 44 -130 44q-83 0 -140.5 -54.5t-57.5 -142.5q0 -89 57.5 -144.5t140.5 -55.5q74 0 130 45l30 -34q-63 -53 -154 -56z" />
    <glyph glyph-name="zero.tnum" horiz-adv-x="580" 
d="M59 331q0 76 10.5 134.5t35.5 107t71.5 74.5t113.5 26t113 -26t70.5 -74.5t35 -107t10.5 -134.5t-10.5 -133.5t-35 -106.5t-70.5 -75t-113 -26t-113.5 26t-71.5 75t-35.5 107t-10.5 133zM105 331q0 -65 8.5 -115.5t28.5 -92.5t57.5 -64.5t90.5 -22.5t90 22.5t57 64.5
t28 92t8 116q0 138 -40.5 217t-142.5 79q-53 0 -90.5 -22.5t-57.5 -64.5t-28.5 -92.5t-8.5 -116.5z" />
    <glyph glyph-name="one.tnum" horiz-adv-x="580" 
d="M340 0h-46v609l-116 -41v43l162 60v-671z" />
    <glyph glyph-name="two.tnum" horiz-adv-x="580" 
d="M482 45v-45h-389v16l280 334q60 72 60 138q0 62 -42.5 101t-106.5 39q-56 0 -98.5 -29.5t-53.5 -78.5l-42 11q14 65 67.5 103.5t126.5 38.5q83 0 138.5 -51.5t55.5 -133.5q0 -85 -72 -169l-232 -274h308z" />
    <glyph glyph-name="three.tnum" horiz-adv-x="580" 
d="M424 490q5 55 -31 94t-104 44q-44 4 -85.5 -16.5t-61.5 -54.5l-37 22q27 46 77.5 72t109.5 22q92 -6 138.5 -59.5t39.5 -128.5q-4 -41 -29 -75.5t-65 -51.5q55 -13 90.5 -69t30.5 -115q-7 -82 -77.5 -136t-160.5 -47q-64 4 -114.5 38t-73.5 85l41 18q19 -41 60.5 -67
t89.5 -29q74 -4 128 37t61 107q1 68 -44 111t-108 43h-66v44h66q46 -1 83.5 31.5t41.5 80.5z" />
    <glyph glyph-name="four.tnum" horiz-adv-x="580" 
d="M384 575l-266 -388h266v388zM533 144h-104v-144h-45v144h-348l360 520h33v-477h104v-43z" />
    <glyph glyph-name="five.tnum" horiz-adv-x="580" 
d="M466 619h-276l-46 -251q89 41 154 41q85 0 149 -55t64 -150t-62.5 -154t-168.5 -59q-64 0 -124.5 37t-90.5 94q4 3 19.5 13t19.5 13q23 -47 73.5 -78.5t102.5 -31.5q86 0 135.5 47t49.5 119q0 73 -51.5 116t-115.5 43q-50 0 -89 -11t-98 -40l-18 24l58 328h315v-45z" />
    <glyph glyph-name="six.tnum" horiz-adv-x="580" 
d="M90 208q-3 47 -3.5 86.5t2.5 89.5t11 89t25 78t41.5 65t62.5 42t87 15q124 -2 174 -114l-41 -17q-38 84 -134 86q-48 1 -83 -20t-54 -52.5t-30 -78t-14 -86.5t-2 -88q18 54 68.5 81.5t108.5 25.5q87 -4 143 -67.5t53 -151.5q-4 -88 -65 -146t-148 -55q-85 3 -140 62
t-62 156zM135 207q-1 -72 45 -120.5t114 -50.5t115.5 43t50.5 114q3 70 -41 119.5t-111 51.5q-70 2 -120.5 -43t-52.5 -114z" />
    <glyph glyph-name="seven.tnum" horiz-adv-x="580" 
d="M155 0h-52l342 619h-349v45h425z" />
    <glyph glyph-name="eight.tnum" horiz-adv-x="580" 
d="M170 516q0 -46 32.5 -79t80.5 -34h10q51 1 84.5 34t33.5 79q0 47 -35.5 79.5t-86.5 32.5t-85 -32.5t-34 -79.5zM114 198q0 -69 50 -116t125 -47t125.5 47t50.5 116q0 66 -50 114.5t-123 49.5h-11q-71 -2 -119 -50t-48 -114zM125 516q0 66 47 111.5t117 45.5
q71 0 119.5 -45.5t48.5 -111.5q0 -41 -21 -75.5t-57 -55.5q59 -23 95 -74t36 -113q0 -87 -64 -147.5t-157 -60.5q-94 0 -157 60t-63 148q0 62 35 113t94 75q-34 20 -53.5 54t-19.5 76z" />
    <glyph glyph-name="nine.tnum" horiz-adv-x="580" 
d="M490 455q4 -56 3.5 -102t-5 -103.5t-20 -101t-40 -81.5t-67 -58t-98.5 -19q-126 2 -175 113l40 18q38 -84 137 -86q48 -1 83 20t54 52t29.5 77t13.5 85.5t2 87.5q-18 -51 -69 -78.5t-107 -25.5q-87 3 -143 66.5t-54 152.5q5 87 66 145t148 56q84 -3 139.5 -62t62.5 -156z
M445 456q1 72 -45 120.5t-114 50.5t-116 -43t-51 -115q-2 -70 41.5 -119.5t111.5 -51.5q69 -2 120 43t53 115z" />
    <glyph glyph-name="zero.taboldstyle" horiz-adv-x="580" 
d="M289 -11q-100 0 -171.5 73.5t-71.5 188.5q0 116 71 187.5t172 71.5q102 0 173.5 -71.5t71.5 -187.5t-71.5 -189t-173.5 -73zM289 35q83 0 141.5 60t58.5 156t-58 155t-142 59q-82 0 -140 -59.5t-58 -154.5q0 -96 58 -156t140 -60z" />
    <glyph glyph-name="one.taboldstyle" horiz-adv-x="580" 
d="M370 509v-509h-45v442l-167 -64v45z" />
    <glyph glyph-name="two.taboldstyle" horiz-adv-x="580" 
d="M115 0v25l243 258q48 48 48 93q0 42 -33.5 69.5t-85.5 27.5q-46 0 -79.5 -21t-40.5 -57l-43 9q9 53 55 83.5t109 30.5q72 0 118.5 -39.5t46.5 -102.5q0 -66 -61 -125l-197 -206h261v-45h-341z" />
    <glyph glyph-name="six.taboldstyle" horiz-adv-x="580" 
d="M90 208q-3 47 -3.5 86.5t2.5 89.5t11 89t25 78t42 65t63 42t87 15q124 -2 173 -114l-40 -17q-40 84 -135 86q-48 1 -83 -20t-54 -52.5t-29.5 -78t-13.5 -86t-2 -88.5q18 54 68 81.5t108 25.5q87 -4 143.5 -67.5t53.5 -151.5q-5 -88 -66 -146t-148 -55q-84 3 -139.5 62
t-62.5 156zM136 207q-1 -72 45 -120.5t113 -50.5q68 -2 116 43t51 114q2 70 -41.5 119.5t-111.5 51.5q-69 2 -119.5 -43t-52.5 -114z" />
    <glyph glyph-name="eight.taboldstyle" horiz-adv-x="580" 
d="M170 516q0 -46 32.5 -79t80.5 -34h11q50 1 84 34t34 79q0 47 -35.5 79.5t-87.5 32.5q-51 0 -85 -32.5t-34 -79.5zM114 198q0 -69 50 -116t125 -47t125.5 47t50.5 116q0 66 -50 114.5t-123 49.5h-11q-71 -2 -119 -50t-48 -114zM125 516q0 66 47 111.5t117 45.5
q71 0 119.5 -45.5t48.5 -111.5q0 -41 -21 -75.5t-57 -55.5q59 -23 95.5 -74t36.5 -113q0 -87 -64 -147.5t-158 -60.5q-93 0 -156.5 60.5t-63.5 147.5q0 62 35.5 113t93.5 75q-34 20 -53.5 54t-19.5 76z" />
    <glyph glyph-name="three.taboldstyle" horiz-adv-x="580" 
d="M426 291q5 55 -31 94t-104 44q-44 4 -85.5 -16.5t-61.5 -54.5l-37 22q27 46 77.5 72t109.5 22q92 -6 138.5 -59.5t39.5 -128.5q-4 -41 -29 -75.5t-65 -51.5q55 -13 90.5 -69t30.5 -115q-7 -82 -77.5 -136t-160.5 -47q-64 4 -114.5 38t-73.5 85l41 18q19 -41 60.5 -67
t89.5 -29q74 -4 128 37t61 107q1 68 -44 111t-108 43h-66v44h66q46 -1 83.5 31.5t41.5 80.5z" />
    <glyph glyph-name="four.taboldstyle" horiz-adv-x="580" 
d="M384 376l-266 -388h266v388zM533 -55h-104v-143h-45v143h-349l361 521h33v-478h104v-43z" />
    <glyph glyph-name="five.taboldstyle" horiz-adv-x="580" 
d="M467 421h-276l-46 -251q89 41 154 41q85 0 149 -55t64 -150t-62.5 -154t-168.5 -59q-63 0 -124 37t-91 94q4 3 19.5 13t19.5 13q23 -47 73.5 -78.5t102.5 -31.5q86 0 135.5 47t49.5 119q0 73 -51.5 116t-115.5 43q-50 0 -89 -11t-98 -40l-18 24l58 328h315v-45z" />
    <glyph glyph-name="seven.taboldstyle" horiz-adv-x="580" 
d="M155 -198h-52l342 619h-349v45h425z" />
    <glyph glyph-name="nine.taboldstyle" horiz-adv-x="580" 
d="M494 257q4 -56 3.5 -102t-5 -103.5t-20 -101t-40 -81.5t-67 -58t-98.5 -19q-126 2 -175 114l40 17q38 -84 137 -86q48 -1 83 20t54 52.5t29.5 78t13.5 86t2 88.5q-18 -54 -68 -81.5t-108 -25.5q-87 4 -143 67t-54 152q5 88 66 146t148 55q84 -3 139.5 -62t62.5 -156z
M449 258q1 72 -45 120.5t-114 50.5t-115.5 -43t-50.5 -114q-3 -70 40.5 -119.5t111.5 -51.5q70 -3 120.5 42t52.5 115z" />
    <glyph glyph-name="zero.oldstyle" horiz-adv-x="604" 
d="M301 -11q-100 0 -171.5 73.5t-71.5 188.5q0 116 71 187.5t172 71.5q102 0 173.5 -71.5t71.5 -187.5t-71.5 -189t-173.5 -73zM301 35q83 0 141.5 60t58.5 156t-58 155t-142 59q-82 0 -140 -59.5t-58 -154.5q0 -96 58 -156t140 -60z" />
    <glyph glyph-name="one.oldstyle" horiz-adv-x="348" 
d="M254 509v-509h-45v442l-167 -64v45z" />
    <glyph glyph-name="two.oldstyle" horiz-adv-x="459" 
d="M55 0v25l243 258q48 48 48 93q0 42 -33.5 69.5t-85.5 27.5q-46 0 -79.5 -21t-40.5 -57l-43 9q9 53 55 83.5t109 30.5q72 0 118.5 -39.5t46.5 -102.5q0 -66 -61 -125l-197 -206h261v-45h-341z" />
    <glyph glyph-name="three.oldstyle" horiz-adv-x="520" 
d="M396 291q5 55 -31 94t-104 44q-44 4 -85.5 -16.5t-61.5 -54.5l-37 22q27 46 77.5 72t109.5 22q92 -6 138.5 -59.5t39.5 -128.5q-4 -41 -29 -75.5t-65 -51.5q55 -13 90.5 -69t30.5 -115q-7 -82 -77.5 -136t-160.5 -47q-64 4 -114.5 38t-73.5 85l41 18q19 -41 60.5 -67
t89.5 -29q74 -4 128 37t61 107q1 68 -44 111t-108 43h-66v44h66q46 -1 83.5 31.5t41.5 80.5z" />
    <glyph glyph-name="four.oldstyle" horiz-adv-x="560" 
d="M375 376l-266 -388h266v388zM523 -55h-103v-143h-45v143h-349l361 521h33v-478h103v-43z" />
    <glyph glyph-name="five.oldstyle" horiz-adv-x="539" 
d="M447 421h-276l-46 -251q89 41 154 41q85 0 149 -55t64 -150t-62.5 -154t-168.5 -59q-63 0 -124 37t-91 94q4 3 19.5 13t19.5 13q23 -47 73.5 -78.5t102.5 -31.5q86 0 135.5 47t49.5 119q0 73 -51.5 116t-115.5 43q-50 0 -89 -11t-98 -40l-18 24l58 328h315v-45z" />
    <glyph glyph-name="six.oldstyle" horiz-adv-x="553" 
d="M77 208q-3 47 -3.5 86.5t2.5 89.5t11 89t25 78t42 65t63 42t87 15q124 -2 173 -114l-40 -17q-39 84 -135 86q-48 1 -83 -20t-54 -52.5t-30 -78t-13.5 -86.5t-1.5 -88q18 54 68 81.5t108 25.5q87 -4 143 -67.5t53 -151.5q-4 -88 -65 -146t-148 -55q-85 3 -140 62t-62 156z
M122 207q-1 -72 45 -120.5t114 -50.5t115.5 43t50.5 114q3 70 -41 119.5t-111 51.5q-70 2 -120.5 -43t-52.5 -114z" />
    <glyph glyph-name="seven.oldstyle" horiz-adv-x="480" 
d="M105 -198h-52l342 619h-349v45h425z" />
    <glyph glyph-name="eight.oldstyle" horiz-adv-x="561" 
d="M161 516q0 -46 32.5 -79t80.5 -34h10q51 1 84.5 34t33.5 79q0 47 -35.5 79.5t-86.5 32.5t-85 -32.5t-34 -79.5zM105 198q0 -69 50 -116t125 -47t125.5 47t50.5 116q0 66 -50 114.5t-123 49.5h-11q-71 -2 -119 -50t-48 -114zM116 516q0 66 47 111.5t117 45.5
q71 0 119.5 -45.5t48.5 -111.5q0 -41 -21 -75.5t-57 -55.5q59 -23 95 -74t36 -113q0 -87 -64 -147.5t-157 -60.5q-94 0 -157 60t-63 148q0 62 35 113t94 75q-34 20 -53.5 54t-19.5 76z" />
    <glyph glyph-name="nine.oldstyle" horiz-adv-x="531" 
d="M470 257q3 -48 3.5 -87t-3 -89t-11.5 -89t-25 -78.5t-41.5 -65t-62.5 -41.5t-87 -15q-126 2 -175 114l40 17q38 -84 137 -86q48 -1 83 20t54 52.5t29.5 78t13.5 86t2 88.5q-18 -54 -68 -81.5t-108 -25.5q-87 4 -143.5 67.5t-53.5 151.5q5 88 66 146t148 55q84 -3 139 -62
t63 -156zM424 258q1 72 -45 120.5t-113 50.5q-68 2 -116 -43t-51 -114q-2 -71 41.5 -120t111.5 -51q69 -3 119.5 42t52.5 115z" />
    <glyph glyph-name="Lslash.sc" horiz-adv-x="432" 
d="M401 0h-298v290l-64 -39v37l64 40v258h43v-231l92 59v-38l-92 -59v-274h255v-43z" />
    <glyph glyph-name="Zcaron.sc" horiz-adv-x="482" 
d="M99 43h335v-43h-389v36l335 507h-329v43h383v-38zM357 759l-89 -112h-57l-88 112h42l74 -83l75 83h43z" />
    <glyph glyph-name="exclam.sc" horiz-adv-x="244" 
d="M140 145h-36l-3 441h42zM86 29q0 15 10.5 25.5t25.5 10.5t25.5 -10.5t10.5 -25.5t-10.5 -25.5t-25.5 -10.5t-25.5 10.5t-10.5 25.5z" />
    <glyph glyph-name="ampersand.sc" horiz-adv-x="583" 
d="M250 35q63 0 103.5 38.5t42.5 96.5v147h-145q-62 0 -104.5 -41.5t-42.5 -98.5q0 -60 41 -101t105 -41zM153 453q0 -42 28 -70t72 -28h143v76h42v-77h79v-37h-79v-140q0 -67 19.5 -104t75.5 -39v-41q-45 0 -79 23.5t-44 66.5q-18 -43 -64 -66.5t-96 -23.5q-82 0 -135 53
t-53 131q0 50 29.5 95.5t78.5 66.5q-28 19 -43.5 50t-15.5 64q0 57 42 97.5t103 40.5q85 0 127 -65l-35 -22q-31 45 -92 45q-44 0 -73.5 -27.5t-29.5 -68.5z" />
    <glyph glyph-name="question.sc" horiz-adv-x="426" 
d="M91 437l-42 2q3 69 49.5 111t112.5 42q69 0 119 -45t50 -116q0 -57 -34 -98.5t-85 -56.5q-41 -12 -61 -30t-20 -58v-43h-42v43q0 57 27.5 84.5t82.5 43.5q38 12 63.5 42.5t25.5 72.5q0 53 -37.5 85.5t-88.5 32.5q-49 0 -83.5 -30.5t-36.5 -81.5zM122 29q0 15 10.5 25.5
t25.5 10.5t25.5 -10.5t10.5 -25.5t-10.5 -25.5t-25.5 -10.5t-25.5 10.5t-10.5 25.5z" />
    <glyph glyph-name="A.sc" horiz-adv-x="557" 
d="M479 0l-60 158h-282l-61 -158h-45l225 586h45l224 -586h-46zM152 197h252l-126 330z" />
    <glyph glyph-name="B.sc" horiz-adv-x="547" 
d="M457 444q0 -102 -73 -131q45 -13 75.5 -59t30.5 -93q0 -67 -44.5 -114t-117.5 -47h-231v586h209q70 0 110.5 -37.5t40.5 -104.5zM320 291h-180v-249h187q54 0 87 35t33 84t-36 89.5t-91 40.5zM140 544v-214h183q44 0 68 34.5t24 79.5q0 48 -31 74t-82 26h-162z" />
    <glyph glyph-name="C.sc" horiz-adv-x="584" 
d="M515 102l29 -30q-84 -82 -200 -82q-122 0 -204.5 87.5t-82.5 213.5q0 125 82.5 212.5t204.5 87.5q118 0 200 -80q-2 -2 -8.5 -9l-12 -12.5t-9.5 -8.5q-71 68 -170 68q-104 0 -174 -75t-70 -183q0 -107 70 -182t174 -75q98 0 171 68z" />
    <glyph glyph-name="D.sc" horiz-adv-x="633" 
d="M315 0h-218v586h218q120 0 189 -82.5t69 -211.5q0 -128 -68.5 -210t-189.5 -82zM315 543h-176v-500h176q102 0 158.5 69.5t56.5 179.5t-56.5 180.5t-158.5 70.5z" />
    <glyph glyph-name="E.sc" horiz-adv-x="490" 
d="M433 0h-336v586h327v-42h-284v-236h249v-42h-249v-224h293v-42z" />
    <glyph glyph-name="F.sc" horiz-adv-x="457" 
d="M140 0h-43v586h322v-42h-279v-236h222v-42h-222v-266z" />
    <glyph glyph-name="G.sc" horiz-adv-x="663" 
d="M576 238h-178v41h225q-2 -142 -74 -215.5t-198 -73.5q-124 0 -209 88t-85 213t85 212.5t209 87.5q102 0 181 -62l-29 -31q-67 51 -152 51q-106 0 -178.5 -75t-72.5 -183t72.5 -183t178.5 -75q98 0 157.5 53.5t67.5 151.5z" />
    <glyph glyph-name="H.sc" horiz-adv-x="624" 
d="M484 311v275h43v-586h-43v271h-344v-271h-43v586h43v-275h344z" />
    <glyph glyph-name="I.sc" horiz-adv-x="237" 
d="M97 0v586h43v-586h-43z" />
    <glyph glyph-name="J.sc" horiz-adv-x="236" 
d="M-78 -194l5 42q17 -5 41 -5q66 0 97.5 39t31.5 102v602h42v-602q0 -82 -41 -132.5t-130 -50.5q-23 0 -46 5z" />
    <glyph glyph-name="K.sc" horiz-adv-x="478" 
d="M140 268v-268h-43v586h43v-292l234 292h51l-243 -302l287 -284h-58z" />
    <glyph glyph-name="L.sc" horiz-adv-x="426" 
d="M395 0h-298v586h43v-544h255v-42z" />
    <glyph glyph-name="M.sc" horiz-adv-x="826" 
d="M179 586l235 -480l233 480h43l73 -586h-42l-64 512l-222 -452h-43l-223 453l-64 -513h-42l73 586h43z" />
    <glyph glyph-name="N.sc" horiz-adv-x="602" 
d="M463 71v515h42v-586h-46l-319 515v-515h-43v586h47z" />
    <glyph glyph-name="O.sc" horiz-adv-x="703" 
d="M57 291q0 125 85.5 212.5t208.5 87.5q124 0 209.5 -87.5t85.5 -212.5t-85.5 -213t-209.5 -88q-123 0 -208.5 88t-85.5 213zM100 291q0 -107 72.5 -182t178.5 -75q107 0 180 75t73 182q0 108 -73 183t-180 75q-106 0 -178.5 -75t-72.5 -183z" />
    <glyph glyph-name="P.sc" horiz-adv-x="530" 
d="M323 235h-183v-235h-43v586h229q82 0 122 -51.5t40 -125.5t-40.5 -124t-124.5 -50zM326 544h-186v-267h181q64 0 94 38t30 94q0 57 -29.5 96t-89.5 39z" />
    <glyph glyph-name="Q.sc" horiz-adv-x="703" 
d="M57 291q0 125 85 212.5t209 87.5t209.5 -87.5t85.5 -212.5q0 -83 -40.5 -152.5t-109.5 -109.5l67 -104l-35 -23l-70 109q-53 -21 -107 -21q-124 0 -209 88t-85 213zM434 47l-68 110l35 23l73 -116q60 34 95 94.5t35 132.5q0 108 -73.5 183t-179.5 75t-179 -75t-73 -183
q0 -107 73 -182t178 -75q46 0 84 13z" />
    <glyph glyph-name="R.sc" horiz-adv-x="535" 
d="M309 233h-3l164 -233h-52l-165 235h-113v-235h-43v586h216q82 0 122 -51.5t40 -126.5t-40 -125t-126 -50zM313 543h-173v-267h169q63 0 93 38t30 94q0 57 -29 96t-90 39z" />
    <glyph glyph-name="S.sc" horiz-adv-x="498" 
d="M59 154h43q4 -48 44 -85t100 -37q66 0 106 31.5t48 74.5q17 103 -120 136l-80 19q-137 31 -137 143q0 67 54.5 111t127.5 44q76 0 126.5 -42t53.5 -113h-43q-3 52 -41.5 82.5t-95.5 30.5q-56 0 -97.5 -32t-41.5 -81q0 -79 102 -103l82 -18q174 -41 152 -185
q-11 -56 -62 -98t-134 -42q-79 0 -131 49.5t-56 114.5z" />
    <glyph glyph-name="T.sc" horiz-adv-x="487" 
d="M222 543h-192v43h427v-43h-192v-543h-43v543z" />
    <glyph glyph-name="U.sc" horiz-adv-x="593" 
d="M502 585v-390q0 -91 -59.5 -148t-145.5 -57t-146 57t-60 148v390h43v-390q0 -72 47.5 -117t115.5 -45t115 45t47 117v390h43z" />
    <glyph glyph-name="V.sc" horiz-adv-x="483" 
d="M442 586l-176 -586h-49l-176 586h45l156 -523l155 523h45z" />
    <glyph glyph-name="W.sc" horiz-adv-x="798" 
d="M419 500l126 -436l174 522h46l-199 -586h-44l-123 423l-124 -423h-43l-199 586h45l174 -521l127 435h40z" />
    <glyph glyph-name="X.sc" horiz-adv-x="512" 
d="M255 351l156 235h52l-182 -270l210 -316h-52l-184 281l-183 -281h-51l209 316l-181 270h51z" />
    <glyph glyph-name="Y.sc" horiz-adv-x="534" 
d="M510 586l-221 -310v-276h-44v277l-219 309h51l190 -266l192 266h51z" />
    <glyph glyph-name="Z.sc" horiz-adv-x="482" 
d="M99 43h335v-43h-389v36l335 507h-329v43h383v-38z" />
    <glyph glyph-name="Scaron.sc" horiz-adv-x="498" 
d="M368 765l-88 -112h-57l-88 112h42l74 -82l75 82h42zM59 154q4 -65 56 -114.5t131 -49.5q83 0 134 42t62 98q22 144 -152 185l-82 18q-102 24 -102 103q0 49 41.5 81t97.5 32q57 0 95.5 -30.5t41.5 -82.5h43q-3 71 -53.5 113t-126.5 42q-73 0 -127.5 -44t-54.5 -111
q0 -112 137 -143l80 -19q137 -33 120 -136q-8 -43 -48 -74.5t-106 -31.5q-60 0 -100 37t-44 85h-43z" />
    <glyph glyph-name="OE.sc" horiz-adv-x="997" 
d="M604 443v143h327v-43h-284v-235h248v-42h-248v-223h293v-43h-336v140q-38 -68 -105 -109t-148 -41q-123 0 -208.5 88t-85.5 213t85.5 212.5t208.5 87.5q81 0 148 -40t105 -108zM100 291q0 -107 72.5 -182t178.5 -75q109 0 180.5 76t71.5 186q-2 106 -74.5 179.5
t-177.5 73.5q-106 0 -178.5 -75t-72.5 -183z" />
    <glyph glyph-name="Ydieresis.sc" horiz-adv-x="534" 
d="M162 716q0 15 10.5 24.5t25.5 9.5t25.5 -9.5t10.5 -24.5q0 -14 -10.5 -23.5t-25.5 -9.5t-25.5 9.5t-10.5 23.5zM302 716q0 15 10.5 24.5t25.5 9.5t25.5 -9.5t10.5 -24.5q0 -14 -10.5 -23.5t-25.5 -9.5t-25.5 9.5t-10.5 23.5zM510 586l-221 -310v-276h-44v277l-219 309h51
l190 -266l192 266h51z" />
    <glyph glyph-name="exclamdown.sc" horiz-adv-x="242" 
d="M103 440h36l3 -441h-42zM85 556q0 15 10.5 25.5t25.5 10.5t25.5 -10.5t10.5 -25.5t-10.5 -25.5t-25.5 -10.5t-25.5 10.5t-10.5 25.5z" />
    <glyph glyph-name="questiondown.sc" horiz-adv-x="426" 
d="M335 148l42 -2q-3 -69 -49.5 -111t-112.5 -42q-69 0 -119 45t-50 116q0 57 34 98.5t85 56.5q41 12 61 30t20 58v43h42v-43q0 -57 -27.5 -84.5t-82.5 -43.5q-38 -12 -63.5 -42.5t-25.5 -72.5q0 -53 37.5 -85.5t88.5 -32.5q49 0 83.5 30.5t36.5 81.5zM304 556
q0 -15 -10.5 -25.5t-25.5 -10.5t-25.5 10.5t-10.5 25.5t10.5 25.5t25.5 10.5t25.5 -10.5t10.5 -25.5z" />
    <glyph glyph-name="Agrave.sc" horiz-adv-x="557" 
d="M298 645h-42l-75 112h51zM479 0l-60 158h-282l-61 -158h-45l225 586h45l224 -586h-46zM152 197h252l-126 330z" />
    <glyph glyph-name="Aacute.sc" horiz-adv-x="557" 
d="M326 757h51l-75 -112h-42zM419 158l60 -158h46l-224 586h-45l-225 -586h45l61 158h282zM404 197h-252l126 330z" />
    <glyph glyph-name="Acircumflex.sc" horiz-adv-x="557" 
d="M203 645h-42l88 112h58l88 -112h-43l-74 83zM479 0l-60 158h-282l-61 -158h-45l225 586h45l224 -586h-46zM152 197h252l-126 330z" />
    <glyph glyph-name="Atilde.sc" horiz-adv-x="557" 
d="M237 704q-10 0 -19 -9t-10 -29h-35q1 42 22 59.5t46 17.5q19 0 42 -18.5t35 -18.5q10 0 19.5 9t10.5 28h35q-2 -39 -21 -57t-42 -18q-20 0 -45 18t-38 18zM479 0l-60 158h-282l-61 -158h-45l225 586h45l224 -586h-46zM152 197h252l-126 330z" />
    <glyph glyph-name="Adieresis.sc" horiz-adv-x="557" 
d="M171 716q0 15 10.5 24.5t25.5 9.5t25.5 -9.5t10.5 -24.5q0 -14 -10.5 -23.5t-25.5 -9.5t-25.5 9.5t-10.5 23.5zM311 716q0 15 10 24.5t25 9.5q16 0 26.5 -9.5t10.5 -24.5q0 -14 -10.5 -23.5t-26.5 -9.5q-14 0 -24.5 9.5t-10.5 23.5zM419 158l60 -158h46l-224 586h-45
l-225 -586h45l61 158h282zM404 197h-252l126 330z" />
    <glyph glyph-name="Aring.sc" horiz-adv-x="557" 
d="M201 729q0 32 22 55t53 23q33 0 55.5 -23t22.5 -55t-22.5 -54.5t-55.5 -22.5q-31 0 -53 22.5t-22 54.5zM235 729q0 -18 12 -30.5t30 -12.5t30.5 12.5t12.5 30.5t-12.5 31t-30.5 13t-30 -13t-12 -31zM419 158l60 -158h46l-224 586h-45l-225 -586h45l61 158h282zM404 197
h-252l126 330z" />
    <glyph glyph-name="AE.sc" horiz-adv-x="836" 
d="M203 200h239v343h-16zM75 0h-51l378 586h367v-43h-284v-235h249v-42h-249v-223h294v-43h-337v159h-265z" />
    <glyph glyph-name="Ccedilla.sc" horiz-adv-x="585" 
d="M346 -9l21 -50q18 -44 -11.5 -81.5t-75.5 -27.5q-27 5 -46 27.5t-19 55.5l35 -2q0 -25 19.5 -39.5t42.5 -5.5q18 7 24 26t-1 33l-27 66q-108 13 -179 98t-71 200q0 125 82.5 212.5t204.5 87.5q118 0 200 -80l-30 -30q-71 68 -170 68q-104 0 -174 -75t-70 -183
q0 -107 70 -182t174 -75q98 0 171 68l29 -30q-84 -81 -199 -81z" />
    <glyph glyph-name="Egrave.sc" horiz-adv-x="490" 
d="M289 645h-42l-76 112h53zM433 0h-336v586h327v-42h-284v-236h249v-42h-249v-224h293v-42z" />
    <glyph glyph-name="Eacute.sc" horiz-adv-x="490" 
d="M298 757h51l-74 -112h-42zM97 0h336v42h-293v224h249v42h-249v236h284v42h-327v-586z" />
    <glyph glyph-name="Ecircumflex.sc" horiz-adv-x="490" 
d="M185 645h-42l87 112h58l88 -112h-43l-74 83zM433 0h-336v586h327v-42h-284v-236h249v-42h-249v-224h293v-42z" />
    <glyph glyph-name="Edieresis.sc" horiz-adv-x="490" 
d="M154 716q0 15 10.5 24.5t25.5 9.5t25.5 -9.5t10.5 -24.5q0 -14 -10.5 -23.5t-25.5 -9.5t-25.5 9.5t-10.5 23.5zM294 716q0 15 10.5 24.5t25.5 9.5t25.5 -9.5t10.5 -24.5q0 -14 -10.5 -23.5t-25.5 -9.5t-25.5 9.5t-10.5 23.5zM97 0h336v42h-293v224h249v42h-249v236h284
v42h-327v-586z" />
    <glyph glyph-name="Igrave.sc" horiz-adv-x="237" 
d="M97 0v586h43v-586h-43zM138 645h-41l-75 112h52z" />
    <glyph glyph-name="Iacute.sc" horiz-adv-x="237" 
d="M161 757h52l-75 -112h-42zM97 586v-586h43v586h-43z" />
    <glyph glyph-name="Icircumflex.sc" horiz-adv-x="237" 
d="M44 645h-42l88 112h58l88 -112h-43l-75 83zM97 0v586h43v-586h-43z" />
    <glyph glyph-name="Idieresis.sc" horiz-adv-x="237" 
d="M13 716q0 15 10 24.5t25 9.5t25.5 -9.5t10.5 -24.5q0 -14 -10.5 -23.5t-25.5 -9.5q-14 0 -24.5 9.5t-10.5 23.5zM152 716q0 15 10.5 24.5t25.5 9.5t25.5 -9.5t10.5 -24.5q0 -14 -10.5 -23.5t-25.5 -9.5t-25.5 9.5t-10.5 23.5zM97 586v-586h43v586h-43z" />
    <glyph glyph-name="Eth.sc" horiz-adv-x="635" 
d="M317 0h-218v271h-83v39h83v276h218q120 0 189 -82.5t69 -211.5q0 -128 -68.5 -210t-189.5 -82zM317 543h-176v-233h155v-39h-155v-228h176q102 0 158.5 69.5t56.5 179.5t-56.5 180.5t-158.5 70.5z" />
    <glyph glyph-name="Ntilde.sc" horiz-adv-x="602" 
d="M463 71v515h42v-586h-46l-319 515v-515h-43v586h47zM260 704q-10 0 -19.5 -9t-10.5 -29h-35q2 42 23 59.5t46 17.5q19 0 42 -18.5t35 -18.5q10 0 19.5 9t10.5 28h35q-2 -39 -21 -57t-43 -18q-19 0 -44 18t-38 18z" />
    <glyph glyph-name="Ograve.sc" horiz-adv-x="703" 
d="M57 291q0 125 85.5 212.5t208.5 87.5q124 0 209.5 -87.5t85.5 -212.5t-85.5 -213t-209.5 -88q-123 0 -208.5 88t-85.5 213zM100 291q0 -107 72.5 -182t178.5 -75q107 0 180 75t73 182q0 108 -73 183t-180 75q-106 0 -178.5 -75t-72.5 -183zM375 646h-41l-76 112h52z" />
    <glyph glyph-name="Oacute.sc" horiz-adv-x="703" 
d="M386 758h52l-75 -112h-42zM57 291q0 -125 85.5 -213t208.5 -88q124 0 209.5 88t85.5 213t-85.5 212.5t-209.5 87.5q-123 0 -208.5 -87.5t-85.5 -212.5zM100 291q0 108 72.5 183t178.5 75q107 0 180 -75t73 -183q0 -107 -73 -182t-180 -75q-106 0 -178.5 75t-72.5 182z
" />
    <glyph glyph-name="Ocircumflex.sc" horiz-adv-x="703" 
d="M57 291q0 125 85.5 212.5t208.5 87.5q124 0 209.5 -87.5t85.5 -212.5t-85.5 -213t-209.5 -88q-123 0 -208.5 88t-85.5 213zM100 291q0 -107 72.5 -182t178.5 -75q107 0 180 75t73 182q0 108 -73 183t-180 75q-106 0 -178.5 -75t-72.5 -183zM279 646h-43l88 112h58
l88 -112h-43l-74 82z" />
    <glyph glyph-name="Otilde.sc" horiz-adv-x="703" 
d="M57 291q0 125 85.5 212.5t208.5 87.5q124 0 209.5 -87.5t85.5 -212.5t-85.5 -213t-209.5 -88q-123 0 -208.5 88t-85.5 213zM100 291q0 -107 72.5 -182t178.5 -75q107 0 180 75t73 182q0 108 -73 183t-180 75q-106 0 -178.5 -75t-72.5 -183zM311 704q-10 0 -19 -9.5
t-10 -28.5h-35q2 42 22.5 59.5t45.5 17.5q19 0 42.5 -18.5t34.5 -18.5q10 0 19.5 9t10.5 28h35q-2 -40 -21 -57.5t-43 -17.5q-19 0 -44 18t-38 18z" />
    <glyph glyph-name="Odieresis.sc" horiz-adv-x="703" 
d="M248 717q0 14 10.5 23.5t25.5 9.5t25.5 -9.5t10.5 -23.5t-10.5 -23.5t-25.5 -9.5t-25.5 9.5t-10.5 23.5zM388 717q0 14 10.5 23.5t25.5 9.5t25.5 -9.5t10.5 -23.5t-10.5 -23.5t-25.5 -9.5t-25.5 9.5t-10.5 23.5zM57 291q0 -125 85.5 -213t208.5 -88q124 0 209.5 88
t85.5 213t-85.5 212.5t-209.5 87.5q-123 0 -208.5 -87.5t-85.5 -212.5zM100 291q0 108 72.5 183t178.5 75q107 0 180 -75t73 -183q0 -107 -73 -182t-180 -75q-106 0 -178.5 75t-72.5 182z" />
    <glyph glyph-name="Oslash.sc" horiz-adv-x="703" 
d="M157 65l-73 -75l-26 25l73 75q-74 85 -74 201q0 125 85.5 212.5t208.5 87.5q116 0 197 -75l77 77l24 -25l-76 -78q73 -84 73 -199q0 -125 -85.5 -213t-209.5 -88q-111 0 -194 75zM100 291q0 -99 61 -171l358 365q-74 64 -168 64q-106 0 -178.5 -75t-72.5 -183zM351 34
q107 0 180 75t73 182q0 95 -61 169l-356 -365q69 -61 164 -61z" />
    <glyph glyph-name="Ugrave.sc" horiz-adv-x="593" 
d="M286 645l-75 112h52l65 -112h-42zM502 585v-390q0 -91 -59.5 -148t-145.5 -57t-146 57t-60 148v390h43v-390q0 -72 47.5 -117t115.5 -45t115 45t47 117v390h43z" />
    <glyph glyph-name="Uacute.sc" horiz-adv-x="593" 
d="M384 757l-75 -112h-41l64 112h52zM502 585v-390q0 -91 -59.5 -148t-145.5 -57t-146 57t-60 148v390h43v-390q0 -72 47.5 -117t115.5 -45t115 45t47 117v390h43z" />
    <glyph glyph-name="Ucircumflex.sc" horiz-adv-x="593" 
d="M502 585v-390q0 -91 -59.5 -148t-145.5 -57t-146 57t-60 148v390h43v-390q0 -72 47.5 -117t115.5 -45t115 45t47 117v390h43zM224 646h-43l88 112h58l88 -112h-43l-74 82z" />
    <glyph glyph-name="Udieresis.sc" horiz-adv-x="593" 
d="M191 716q0 15 10 24.5t25 9.5q16 0 26 -9.5t10 -24.5q0 -14 -10 -23.5t-26 -9.5q-14 0 -24.5 9.5t-10.5 23.5zM331 716q0 15 10 24.5t25 9.5t26 -9.5t11 -24.5q0 -14 -11 -23.5t-26 -9.5q-14 0 -24.5 9.5t-10.5 23.5zM502 585v-390q0 -91 -59.5 -148t-145.5 -57t-146 57
t-60 148v390h43v-390q0 -72 47.5 -117t115.5 -45t115 45t47 117v390h43z" />
    <glyph glyph-name="Yacute.sc" horiz-adv-x="534" 
d="M510 586l-221 -310v-276h-44v277l-219 309h51l190 -266l192 266h51zM359 757l-75 -112h-41l65 112h51z" />
    <glyph glyph-name="Thorn.sc" horiz-adv-x="503" 
d="M289 125h-149v-125h-43v586h43v-111h149q73 0 122 -48t49 -125q0 -79 -49 -128t-122 -49zM288 432h-148v-264h149q54 0 91 37t37 97q0 58 -37 94t-92 36z" />
    <glyph glyph-name="Amacron.sc" horiz-adv-x="557" 
d="M380 691h-200v39h200v-39zM479 0l-60 158h-282l-61 -158h-45l225 586h45l224 -586h-46zM152 197h252l-126 330z" />
    <glyph glyph-name="Abreve.sc" horiz-adv-x="557" 
d="M377 757q0 -43 -27.5 -69t-72.5 -26q-49 0 -74 28t-25 67h35q2 -26 18.5 -42.5t45.5 -16.5q30 0 47 17t18 42h35zM419 158l60 -158h46l-224 586h-45l-225 -586h45l61 158h282zM404 197h-252l126 330z" />
    <glyph glyph-name="Cacute.sc" horiz-adv-x="584" 
d="M384 765h52l-76 -112h-41zM515 102q-73 -68 -171 -68q-104 0 -174 75t-70 182q0 108 70 183t174 75q99 0 170 -68q4 3 9.5 8.5l12 12.5t8.5 9q-82 80 -200 80q-122 0 -204.5 -87.5t-82.5 -212.5q0 -126 82.5 -213.5t204.5 -87.5q116 0 200 82z" />
    <glyph glyph-name="Ccircumflex.sc" horiz-adv-x="584" 
d="M515 102l29 -30q-84 -82 -200 -82q-122 0 -204.5 87.5t-82.5 213.5q0 125 82.5 212.5t204.5 87.5q118 0 200 -80q-2 -2 -8.5 -9l-12 -12.5t-9.5 -8.5q-71 68 -170 68q-104 0 -174 -75t-70 -183q0 -107 70 -182t174 -75q98 0 171 68zM261 653h-42l87 112h58l88 -112h-43
l-74 83z" />
    <glyph glyph-name="Cdotaccent.sc" horiz-adv-x="584" 
d="M294 725q0 15 10.5 24.5t25.5 9.5t25.5 -9.5t10.5 -24.5q0 -14 -10.5 -23.5t-25.5 -9.5t-25.5 9.5t-10.5 23.5zM515 102q-73 -68 -171 -68q-104 0 -174 75t-70 182q0 108 70 183t174 75q99 0 170 -68q4 3 9.5 8.5l12 12.5t8.5 9q-82 80 -200 80q-122 0 -204.5 -87.5
t-82.5 -212.5q0 -126 82.5 -213.5t204.5 -87.5q116 0 200 82z" />
    <glyph glyph-name="Ccaron.sc" horiz-adv-x="584" 
d="M448 765l-88 -112h-58l-88 112h43l74 -82l75 82h42zM515 102q-73 -68 -171 -68q-104 0 -174 75t-70 182q0 108 70 183t174 75q99 0 170 -68q4 3 9.5 8.5l12 12.5t8.5 9q-82 80 -200 80q-122 0 -204.5 -87.5t-82.5 -212.5q0 -126 82.5 -213.5t204.5 -87.5q116 0 200 82z
" />
    <glyph glyph-name="Dcaron.sc" horiz-adv-x="633" 
d="M415 765l-88 -112h-58l-88 112h43l74 -82l74 82h43zM315 0q121 0 189.5 82t68.5 210q0 129 -69 211.5t-189 82.5h-218v-586h218zM139 543h176q102 0 158.5 -70.5t56.5 -180.5t-56.5 -179.5t-158.5 -69.5h-176v500z" />
    <glyph glyph-name="Aogonek.sc" horiz-adv-x="557" 
d="M516 0l-30 -73q-7 -14 -1 -33t24 -26q23 -9 42.5 5.5t19.5 39.5l35 2q0 -33 -18.5 -55t-46.5 -28q-50 -8 -78 28t-9 81l25 59l-60 158h-282l-61 -158h-45l225 586h45l224 -586h-9zM152 197h252l-126 330z" />
    <glyph glyph-name="Emacron.sc" horiz-adv-x="490" 
d="M357 691h-199v39h199v-39zM433 0h-336v586h327v-42h-284v-236h249v-42h-249v-224h293v-42z" />
    <glyph glyph-name="Ebreve.sc" horiz-adv-x="490" 
d="M357 757q0 -43 -27.5 -69t-73.5 -26q-49 0 -74 28t-25 67h35q2 -26 18.5 -42.5t45.5 -16.5q30 0 47 17t18 42h36zM97 0h336v42h-293v224h249v42h-249v236h284v42h-327v-586z" />
    <glyph glyph-name="Edotaccent.sc" horiz-adv-x="490" 
d="M228 725q0 15 10.5 24.5t25.5 9.5t25.5 -9.5t10.5 -24.5q0 -14 -10.5 -23.5t-25.5 -9.5t-25.5 9.5t-10.5 23.5zM97 0h336v42h-293v224h249v42h-249v236h284v42h-327v-586z" />
    <glyph glyph-name="Ecaron.sc" horiz-adv-x="490" 
d="M374 765l-88 -112h-58l-87 112h42l74 -82l75 82h42zM97 0h336v42h-293v224h249v42h-249v236h284v42h-327v-586z" />
    <glyph glyph-name="Gcircumflex.sc" horiz-adv-x="663" 
d="M576 238h-178v41h225q-2 -142 -74 -215.5t-198 -73.5q-124 0 -209 88t-85 213t85 212.5t209 87.5q102 0 181 -62l-29 -31q-67 51 -152 51q-106 0 -178.5 -75t-72.5 -183t72.5 -183t178.5 -75q98 0 157.5 53.5t67.5 151.5zM262 653h-43l88 112h58l88 -112h-43l-74 83z" />
    <glyph glyph-name="Gbreve.sc" horiz-adv-x="663" 
d="M443 757q0 -43 -27 -69t-72 -26q-50 0 -75 28t-25 67h35q2 -26 18.5 -42.5t46.5 -16.5t46.5 17t17.5 42h35zM576 238q-8 -98 -67.5 -151.5t-157.5 -53.5q-106 0 -178.5 75t-72.5 183t72.5 183t178.5 75q85 0 152 -51l29 31q-79 62 -181 62q-124 0 -209 -87.5t-85 -212.5
t85 -213t209 -88q126 0 198 73.5t74 215.5h-225v-41h178z" />
    <glyph glyph-name="Eogonek.sc" horiz-adv-x="490" 
d="M402 0h-305v586h327v-42h-284v-236h249v-42h-249v-224h293v-42l-30 -73q-7 -14 -1 -33t24 -26q23 -9 42.5 5.5t19.5 39.5l35 2q0 -33 -18.5 -55t-46.5 -28q-50 -8 -80 29t-7 80z" />
    <glyph glyph-name="Dcroat.sc" horiz-adv-x="635" 
d="M317 0h-218v271h-83v39h83v276h218q120 0 189 -82.5t69 -211.5q0 -128 -68.5 -210t-189.5 -82zM317 543h-176v-233h155v-39h-155v-228h176q102 0 158.5 69.5t56.5 179.5t-56.5 180.5t-158.5 70.5z" />
    <glyph glyph-name="Gdotaccent.sc" horiz-adv-x="663" 
d="M308 725q0 15 10.5 24.5t25.5 9.5t25.5 -9.5t10.5 -24.5q0 -14 -10.5 -23.5t-25.5 -9.5t-25.5 9.5t-10.5 23.5zM576 238q-8 -98 -67.5 -151.5t-157.5 -53.5q-106 0 -178.5 75t-72.5 183t72.5 183t178.5 75q85 0 152 -51l29 31q-79 62 -181 62q-124 0 -209 -87.5
t-85 -212.5t85 -213t209 -88q126 0 198 73.5t74 215.5h-225v-41h178z" />
    <glyph glyph-name="Hcircumflex.sc" horiz-adv-x="624" 
d="M484 311v275h43v-586h-43v271h-344v-271h-43v586h43v-275h344zM238 653h-43l88 112h58l88 -112h-43l-74 83z" />
    <glyph glyph-name="Hbar.sc" horiz-adv-x="634" 
d="M145 311h344v132h-344v-132zM595 476v-33h-63v-443h-43v271h-344v-271h-43v443h-58v33h58v110h43v-110h344v110h43v-110h63z" />
    <glyph glyph-name="Itilde.sc" horiz-adv-x="237" 
d="M78 710q-10 0 -19.5 -9t-10.5 -29h-35q2 42 23 59.5t46 17.5q19 0 42 -18t35 -18q10 0 19.5 9t10.5 27h35q-2 -39 -21.5 -57t-42.5 -18q-19 0 -44 18t-38 18zM97 0v586h43v-586h-43z" />
    <glyph glyph-name="Imacron.sc" horiz-adv-x="237" 
d="M97 0v586h43v-586h-43zM217 691h-198v39h198v-39z" />
    <glyph glyph-name="Iogonek.sc" horiz-adv-x="237" 
d="M97 0v586h43v-586h-6l-30 -73q-7 -14 -1 -33t24 -26q23 -9 42.5 5.5t19.5 39.5l35 2q0 -33 -18.5 -55t-46.5 -28q-50 -8 -78 28t-9 81z" />
    <glyph glyph-name="IJ.sc" horiz-adv-x="473" 
d="M97 0v586h43v-586h-43zM159 -194l5 42q17 -5 41 -5q66 0 97.5 39t31.5 102v602h42v-602q0 -82 -41 -132.5t-130 -50.5q-23 0 -46 5z" />
    <glyph glyph-name="Jcircumflex.sc" horiz-adv-x="236" 
d="M-78 -194l5 42q17 -5 41 -5q66 0 97.5 39t31.5 102v602h42v-602q0 -82 -41 -132.5t-130 -50.5q-23 0 -46 5zM44 653h-43l88 112h58l88 -112h-43l-74 83z" />
    <glyph glyph-name="Lacute.sc" horiz-adv-x="426" 
d="M163 765h52l-75 -112h-42zM97 0h298v42h-255v544h-43v-586z" />
    <glyph glyph-name="Lcaron.sc" horiz-adv-x="427" 
d="M274 585h42q-2 -111 -62 -167l-24 10q45 63 44 157zM395 0h-298v586h43v-544h255v-42z" />
    <glyph glyph-name="Ldot.sc" horiz-adv-x="426" 
d="M395 0h-298v586h43v-544h255v-42zM230 224q0 15 10.5 24.5t25.5 9.5t25.5 -9.5t10.5 -24.5q0 -14 -10.5 -23.5t-25.5 -9.5t-25.5 9.5t-10.5 23.5z" />
    <glyph glyph-name="Nacute.sc" horiz-adv-x="602" 
d="M350 765h51l-74 -112h-42zM463 586v-515l-319 515h-47v-586h43v515l319 -515h46v586h-42z" />
    <glyph glyph-name="Ncaron.sc" horiz-adv-x="602" 
d="M433 765l-89 -112h-57l-88 112h42l75 -82l74 82h43zM463 586v-515l-319 515h-47v-586h43v515l319 -515h46v586h-42z" />
    <glyph glyph-name="Omacron.sc" horiz-adv-x="703" 
d="M57 291q0 125 85.5 212.5t208.5 87.5q124 0 209.5 -87.5t85.5 -212.5t-85.5 -213t-209.5 -88q-123 0 -208.5 88t-85.5 213zM100 291q0 -107 72.5 -182t178.5 -75q107 0 180 75t73 182q0 108 -73 183t-180 75q-106 0 -178.5 -75t-72.5 -183zM451 691h-199v39h199v-39z" />
    <glyph glyph-name="Obreve.sc" horiz-adv-x="703" 
d="M453 758q0 -44 -27 -70t-72 -26q-50 0 -75 28t-25 68h35q2 -26 18.5 -43t46.5 -17q29 0 46.5 17t18.5 43h34zM57 291q0 -125 85.5 -213t208.5 -88q124 0 209.5 88t85.5 213t-85.5 212.5t-209.5 87.5q-123 0 -208.5 -87.5t-85.5 -212.5zM100 291q0 108 72.5 183t178.5 75
q107 0 180 -75t73 -183q0 -107 -73 -182t-180 -75q-106 0 -178.5 75t-72.5 182z" />
    <glyph glyph-name="Ohungarumlaut.sc" horiz-adv-x="703" 
d="M437 766h51l-74 -112h-42zM337 766h48l-68 -112h-44zM57 291q0 -125 85.5 -213t208.5 -88q124 0 209.5 88t85.5 213t-85.5 212.5t-209.5 87.5q-123 0 -208.5 -87.5t-85.5 -212.5zM100 291q0 108 72.5 183t178.5 75q107 0 180 -75t73 -183q0 -107 -73 -182t-180 -75
q-106 0 -178.5 75t-72.5 182z" />
    <glyph glyph-name="Racute.sc" horiz-adv-x="535" 
d="M287 765h52l-75 -112h-42zM306 233h3q86 0 126 50t40 125t-40 126.5t-122 51.5h-216v-586h43v235h113l165 -235h52zM313 543q61 0 90 -39t29 -96q0 -56 -30 -94t-93 -38h-169v267h173z" />
    <glyph glyph-name="Rcaron.sc" horiz-adv-x="535" 
d="M385 765l-88 -112h-57l-89 112h43l74 -82l75 82h42zM306 233h3q86 0 126 50t40 125t-40 126.5t-122 51.5h-216v-586h43v235h113l165 -235h52zM313 543q61 0 90 -39t29 -96q0 -56 -30 -94t-93 -38h-169v267h173z" />
    <glyph glyph-name="Sacute.sc" horiz-adv-x="498" 
d="M280 765h52l-75 -112h-42zM59 154q4 -65 56 -114.5t131 -49.5q83 0 134 42t62 98q22 144 -152 185l-82 18q-102 24 -102 103q0 49 41.5 81t97.5 32q57 0 95.5 -30.5t41.5 -82.5h43q-3 71 -53.5 113t-126.5 42q-73 0 -127.5 -44t-54.5 -111q0 -112 137 -143l80 -19
q137 -33 120 -136q-7 -42 -47.5 -73t-106.5 -31q-60 0 -100 36t-44 84h-43z" />
    <glyph glyph-name="Scircumflex.sc" horiz-adv-x="498" 
d="M59 154h43q4 -48 44 -84t100 -36q66 0 106.5 31t47.5 73q17 103 -120 136l-80 19q-137 31 -137 143q0 67 54.5 111t127.5 44q76 0 126.5 -42t53.5 -113h-43q-3 52 -41.5 82.5t-95.5 30.5q-56 0 -97.5 -32t-41.5 -81q0 -79 102 -103l82 -18q174 -41 152 -185
q-11 -56 -62 -98t-134 -42q-79 0 -131 49.5t-56 114.5zM177 653h-43l88 112h58l88 -112h-42l-75 83z" />
    <glyph glyph-name="Scedilla.sc" horiz-adv-x="500" 
d="M60 154h43q4 -48 44 -84t100 -36q66 0 106.5 31t47.5 73q17 103 -120 136l-80 19q-137 31 -137 143q0 67 54.5 111t127.5 44q76 0 126.5 -42t53.5 -113h-43q-3 52 -41.5 82.5t-95.5 30.5q-56 0 -97.5 -32t-41.5 -81q0 -79 102 -103l82 -18q174 -41 152 -185
q-10 -51 -53.5 -91t-113.5 -47l22 -51q19 -45 -9 -81t-78 -28q-28 6 -46.5 28t-18.5 55l35 -2q0 -25 19.5 -39.5t42.5 -5.5q18 7 24 26t-1 33l-26 63q-76 3 -126 52t-54 112z" />
    <glyph glyph-name="Utilde.sc" horiz-adv-x="593" 
d="M502 585v-390q0 -91 -59.5 -148t-145.5 -57t-146 57t-60 148v390h43v-390q0 -72 47.5 -117t115.5 -45t115 45t47 117v390h43zM258 704q-10 0 -19 -9.5t-10 -28.5h-35q2 42 22.5 59.5t45.5 17.5q19 0 42.5 -18.5t34.5 -18.5q10 0 19.5 9t10.5 28h35q-2 -40 -21 -57.5
t-43 -17.5q-19 0 -44 18t-38 18z" />
    <glyph glyph-name="Umacron.sc" horiz-adv-x="593" 
d="M502 585v-390q0 -91 -59.5 -148t-145.5 -57t-146 57t-60 148v390h43v-390q0 -72 47.5 -117t115.5 -45t115 45t47 117v390h43zM400 691h-200v39h200v-39z" />
    <glyph glyph-name="Ubreve.sc" horiz-adv-x="593" 
d="M397 757q0 -43 -27.5 -69t-73.5 -26q-49 0 -74 28t-25 67h35q2 -26 18 -42.5t46 -16.5t47 17t18 42h36zM502 585v-390q0 -91 -59.5 -148t-145.5 -57t-146 57t-60 148v390h43v-390q0 -72 47.5 -117t115.5 -45t115 45t47 117v390h43z" />
    <glyph glyph-name="Uring.sc" horiz-adv-x="593" 
d="M220 736q0 33 22 56t53 23q33 0 56 -23t23 -56q0 -32 -23 -54t-56 -22q-31 0 -53 22t-22 54zM253 737q0 -18 12.5 -30.5t30.5 -12.5t31 12.5t13 30.5t-13 30.5t-31 12.5t-30.5 -12t-12.5 -31zM502 585v-390q0 -91 -59.5 -148t-145.5 -57t-146 57t-60 148v390h43v-390
q0 -72 47.5 -117t115.5 -45t115 45t47 117v390h43z" />
    <glyph glyph-name="Uhungarumlaut.sc" horiz-adv-x="593" 
d="M502 585v-390q0 -91 -59.5 -148t-145.5 -57t-146 57t-60 148v390h43v-390q0 -72 47.5 -117t115.5 -45t115 45t47 117v390h43zM377 766h52l-75 -112h-41zM277 766h48l-68 -112h-43z" />
    <glyph glyph-name="Uogonek.sc" horiz-adv-x="593" 
d="M502 585v-390q0 -85 -52.5 -141t-131.5 -63l-26 -64q-7 -14 -1 -33t24 -26q23 -9 42.5 5.5t19.5 39.5l35 2q0 -33 -18.5 -55t-46.5 -28q-50 -8 -78 28t-9 81l21 50q-81 5 -135.5 61.5t-54.5 142.5v390h43v-390q0 -72 47.5 -117t115.5 -45t115 45t47 117v390h43z" />
    <glyph glyph-name="Wcircumflex.sc" horiz-adv-x="798" 
d="M419 500l126 -436l174 522h46l-199 -586h-44l-123 423l-124 -423h-43l-199 586h45l174 -521l127 435h40zM324 653h-43l89 112h58l87 -112h-42l-75 83z" />
    <glyph glyph-name="Ycircumflex.sc" horiz-adv-x="534" 
d="M510 586l-221 -310v-276h-44v277l-219 309h51l190 -266l192 266h51zM193 653h-43l88 112h58l88 -112h-42l-75 83z" />
    <glyph glyph-name="Tcaron.sc" horiz-adv-x="488" 
d="M222 0h43v543h193v43h-428v-43h192v-543zM359 765l-88 -112h-57l-89 112h43l74 -82l75 82h42z" />
    <glyph glyph-name="Tbar.sc" horiz-adv-x="489" 
d="M266 0h-43v303h-109v36h109v204h-192v43h428v-43h-193v-204h110v-36h-110v-303z" />
    <glyph glyph-name="Zacute.sc" horiz-adv-x="482" 
d="M99 43h335v-43h-389v36l335 507h-329v43h383v-38zM263 766h52l-75 -112h-41z" />
    <glyph glyph-name="Zdotaccent.sc" horiz-adv-x="482" 
d="M204 725q0 15 10.5 24.5t25.5 9.5t25 -9.5t10 -24.5q0 -14 -10.5 -23.5t-24.5 -9.5q-15 0 -25.5 9.5t-10.5 23.5zM99 43h335v-43h-389v36l335 507h-329v43h383v-38z" />
    <glyph glyph-name="Wgrave.sc" horiz-adv-x="798" 
d="M419 500l126 -436l174 522h46l-199 -586h-44l-123 423l-124 -423h-43l-199 586h45l174 -521l127 435h40zM401 653h-42l-75 112h52z" />
    <glyph glyph-name="Wacute.sc" horiz-adv-x="798" 
d="M468 765h53l-76 -112h-42zM545 64l-126 436h-40l-127 -435l-174 521h-45l199 -586h43l124 423l123 -423h44l199 586h-46z" />
    <glyph glyph-name="Wdieresis.sc" horiz-adv-x="798" 
d="M293 724q0 15 10 24.5t25 9.5t25.5 -9.5t10.5 -24.5q0 -14 -10.5 -23t-25.5 -9t-25 9t-10 23zM432 724q0 15 10.5 24.5t25.5 9.5q16 0 26 -9.5t10 -24.5q0 -14 -10 -23t-26 -9q-15 0 -25.5 9t-10.5 23zM545 64l-126 436h-40l-127 -435l-174 521h-45l199 -586h43l124 423
l123 -423h44l199 586h-46z" />
    <glyph glyph-name="Aringacute.sc" horiz-adv-x="557" 
d="M419 158l60 -158h46l-224 586h-45l-225 -586h45l61 158h282zM404 197h-252l126 330zM203 736q0 30 18 51.5t45 26.5l46 80h52l-57 -85q22 -8 36 -28.5t14 -44.5q0 -32 -23 -54t-56 -22q-31 0 -53 22t-22 54zM236 737q0 -18 12.5 -30.5t30.5 -12.5t31 12.5t13 30.5
t-13 30.5t-31 12.5t-30.5 -12t-12.5 -31z" />
    <glyph glyph-name="AEacute.sc" horiz-adv-x="836" 
d="M488 766h51l-75 -112h-41zM442 200h-239l223 343h16v-343zM24 0h51l102 159h265v-159h337v43h-294v223h249v42h-249v235h284v43h-367z" />
    <glyph glyph-name="Oslashacute.sc" horiz-adv-x="703" 
d="M389 766h52l-75 -112h-42zM157 65q83 -75 194 -75q124 0 209.5 88t85.5 213q0 115 -73 199l76 78l-24 25l-77 -77q-81 75 -197 75q-123 0 -208.5 -87.5t-85.5 -212.5q0 -116 74 -201l-73 -75l26 -25zM100 291q0 108 72.5 183t178.5 75q94 0 168 -64l-358 -365
q-61 72 -61 171zM351 34q-95 0 -164 61l356 365q61 -74 61 -169q0 -107 -73 -182t-180 -75z" />
    <glyph glyph-name="Ibreve.sc" horiz-adv-x="237" 
d="M218 757q0 -43 -27 -69t-73 -26q-49 0 -74 28t-25 67h34q2 -26 18.5 -42.5t46.5 -16.5t47 17t18 42h35zM97 586v-586h43v586h-43z" />
    <glyph glyph-name="Eng.sc" horiz-adv-x="602" 
d="M463 -25v25l-323 515v-515h-43v586h47l319 -513v513h42v-586q0 -94 -37 -146.5t-134 -52.5q-23 0 -46 5l5 39q20 -4 41 -4q67 -1 98 35.5t31 98.5z" />
    <glyph glyph-name="Ygrave.sc" horiz-adv-x="534" 
d="M255 647l-76 112h52l66 -112h-42zM510 586l-221 -310v-276h-44v277l-219 309h51l190 -266l192 266h51z" />
    <glyph glyph-name="Gcommaaccent.sc" horiz-adv-x="663" 
d="M576 238h-178v41h225q-2 -142 -74 -215.5t-198 -73.5q-124 0 -209 88t-85 213t85 212.5t209 87.5q102 0 181 -62l-29 -31q-67 51 -152 51q-106 0 -178.5 -75t-72.5 -183t72.5 -183t178.5 -75q98 0 157.5 53.5t67.5 151.5zM309 -197l-33 7q52 61 48 134h47
q-3 -94 -62 -141z" />
    <glyph glyph-name="Kcommaaccent.sc" horiz-adv-x="478" 
d="M235 -197l-33 7q52 61 48 134h47q-3 -94 -62 -141zM140 268v-268h-43v586h43v-292l234 292h51l-243 -302l287 -284h-58z" />
    <glyph glyph-name="Lcommaaccent.sc" horiz-adv-x="426" 
d="M395 0h-298v586h43v-544h255v-42zM221 -197l-33 7q52 61 48 134h47q-3 -94 -62 -141z" />
    <glyph glyph-name="Ncommaaccent.sc" horiz-adv-x="602" 
d="M463 71v515h42v-586h-46l-319 515v-515h-43v586h47zM259 -197l-33 7q52 61 48 134h47q-3 -94 -62 -141z" />
    <glyph glyph-name="Rcommaaccent.sc" horiz-adv-x="535" 
d="M309 233h-3l164 -233h-52l-165 235h-113v-235h-43v586h216q82 0 122 -51.5t40 -126.5t-40 -125t-126 -50zM313 543h-173v-267h169q63 0 93 38t30 94q0 57 -29 96t-90 39zM235 -197l-33 7q52 61 48 134h47q-3 -94 -62 -141z" />
    <glyph glyph-name="Tcommaaccent.sc" horiz-adv-x="487" 
d="M222 543h-192v43h427v-43h-192v-543h-43v543zM208 -197l-33 7q52 61 48 134h47q-3 -94 -62 -141z" />
    <glyph glyph-name="Scommaaccent.sc" horiz-adv-x="498" 
d="M59 154h43q4 -48 44 -85t100 -37q66 0 106 31.5t48 74.5q17 103 -120 136l-80 19q-137 31 -137 143q0 67 54.5 111t127.5 44q76 0 126.5 -42t53.5 -113h-43q-3 52 -41.5 82.5t-95.5 30.5q-56 0 -97.5 -32t-41.5 -81q0 -79 102 -103l82 -18q174 -41 152 -185
q-11 -56 -62 -98t-134 -42q-79 0 -131 49.5t-56 114.5zM208 -197l-33 7q52 61 48 134h47q-3 -94 -62 -141z" />
    <glyph glyph-name="Idotaccent.sc" horiz-adv-x="237" 
d="M83 725q0 15 10 24.5t25 9.5t25.5 -9.5t10.5 -24.5q0 -14 -10.5 -23.5t-25.5 -9.5q-14 0 -24.5 9.5t-10.5 23.5zM97 586v-586h43v586h-43z" />
    <glyph glyph-name="zero.numr" horiz-adv-x="359" 
d="M44 469q0 94 30.5 148t106.5 54q75 0 104.5 -54t29.5 -148t-29.5 -148t-104.5 -54q-76 0 -106.5 54t-30.5 148zM84 469q0 -162 97 -162q94 0 94 162t-94 162q-97 0 -97 -162z" />
    <glyph glyph-name="one.numr" horiz-adv-x="194" 
d="M135 665v-397h-40v343l-67 -24v39z" />
    <glyph glyph-name="two.numr" horiz-adv-x="320" 
d="M109 308h168v-40h-237v17l163 196q33 40 33 75q0 33 -23 53.5t-58 20.5q-31 0 -54.5 -17.5t-27.5 -46.5l-37 10q7 42 40.5 67.5t78.5 25.5q52 0 86.5 -31.5t34.5 -81.5t-44 -101z" />
    <glyph glyph-name="three.numr" horiz-adv-x="325" 
d="M226 557q2 30 -16 50t-52 23q-24 2 -45.5 -9t-33.5 -30l-31 22q16 27 47 43t66 14q52 -4 81 -35.5t27 -75.5q-3 -53 -53 -77q32 -10 51.5 -42t16.5 -67q-5 -50 -45 -82t-95 -28q-78 6 -113 74l33 20q23 -49 83 -54q38 -3 66 19t31 57q1 35 -24.5 58.5t-60.5 23.5h-41v38
h41q26 0 45 16.5t22 41.5z" />
    <glyph glyph-name="four.numr" horiz-adv-x="355" 
d="M326 389v-37h-60v-84h-39v84h-207l217 312h29v-275h60zM227 389v200l-137 -200h137z" />
    <glyph glyph-name="five.numr" horiz-adv-x="340" 
d="M279 664v-39h-161l-24 -130q44 22 81 22q53 0 91.5 -33.5t38.5 -90.5q0 -59 -39 -94.5t-104 -35.5q-39 0 -75 23.5t-55 59.5l33 24q13 -29 40 -48t57 -19q47 0 75 25.5t28 64.5t-27.5 61t-62.5 22q-49 0 -116 -32l-11 14l36 206h195z" />
    <glyph glyph-name="six.numr" horiz-adv-x="339" 
d="M46 396l-2 72.5t7 74t21.5 65.5t42.5 46.5t70 16.5q78 -4 107 -71l-35 -15q-23 47 -73 47q-55 1 -79 -48.5t-19 -120.5q9 29 35.5 43t58.5 13q52 -1 86.5 -40t32.5 -93q-2 -53 -39.5 -88.5t-89.5 -33.5t-86 37.5t-38 94.5zM86 396q0 -38 24.5 -64t60.5 -28q37 -1 62 23
t27 61q2 38 -21.5 64.5t-59.5 27.5q-37 2 -64.5 -22.5t-28.5 -61.5z" />
    <glyph glyph-name="seven.numr" horiz-adv-x="311" 
d="M299 664l-217 -396h-47l197 357h-195v39h262z" />
    <glyph glyph-name="eight.numr" horiz-adv-x="345" 
d="M71 573q0 41 29 69t72 28q44 0 73.5 -28t29.5 -69q0 -48 -38 -74q69 -35 69 -110q0 -53 -38.5 -89.5t-95.5 -36.5t-95 36.5t-38 89.5q0 36 18.5 65t49.5 45q-38 27 -36 74zM78 389q0 -36 27 -61t67 -25t67.5 25t27.5 61t-27.5 62.5t-66.5 26.5q-40 0 -67.5 -26.5
t-27.5 -62.5zM110 573q0 -26 18.5 -43.5t46.5 -16.5q25 0 42.5 18t17.5 42t-18 40.5t-45 16.5q-26 0 -44 -16.5t-18 -40.5z" />
    <glyph glyph-name="nine.numr" horiz-adv-x="338" 
d="M292 537l2 -72.5t-7 -74t-21.5 -65t-42.5 -46t-70 -16.5q-78 2 -108 71l35 15q22 -46 75 -48q54 -1 78 48.5t20 120.5q-10 -28 -36 -42.5t-58 -13.5q-53 1 -87.5 40.5t-32.5 92.5q2 54 39.5 89t90.5 33q51 -2 85 -37.5t38 -94.5zM252 538q0 38 -24.5 63.5t-60.5 27.5
q-36 1 -61 -23t-27 -61q-2 -38 21 -64t60 -27q36 -2 63.5 22.5t28.5 61.5z" />
    <glyph glyph-name="zero.dnom" horiz-adv-x="359" 
d="M44 197q0 94 30.5 148t106.5 54q75 0 104.5 -54t29.5 -148t-29.5 -148t-104.5 -54q-76 0 -106.5 54t-30.5 148zM84 197q0 -162 97 -162q94 0 94 162t-94 162q-97 0 -97 -162z" />
    <glyph glyph-name="one.dnom" horiz-adv-x="194" 
d="M135 397v-397h-40v342l-67 -23v39z" />
    <glyph glyph-name="two.dnom" horiz-adv-x="318" 
d="M108 40h168v-40h-237v16l163 197q33 38 33 74q0 33 -23 53.5t-58 20.5q-31 0 -54.5 -17t-27.5 -46l-37 9q7 43 40.5 68.5t78.5 25.5q52 0 86.5 -32t34.5 -82t-44 -101z" />
    <glyph glyph-name="three.dnom" horiz-adv-x="325" 
d="M226 289q2 29 -16 49t-52 23q-24 2 -46 -8.5t-33 -29.5l-31 22q16 27 46.5 42.5t66.5 13.5q52 -3 81 -35t27 -76q-3 -51 -53 -77q32 -9 51.5 -41.5t16.5 -66.5q-5 -50 -45 -82t-95 -28q-77 5 -113 73l33 20q24 -50 83 -53q38 -3 66 19t31 57q1 34 -24.5 58t-60.5 24h-41
v38h41q26 0 45 16.5t22 41.5z" />
    <glyph glyph-name="four.dnom" horiz-adv-x="354" 
d="M325 121v-37h-60v-84h-39v84h-207l217 312h29v-275h60zM226 121v200l-137 -200h137z" />
    <glyph glyph-name="five.dnom" horiz-adv-x="340" 
d="M279 396v-39h-161l-24 -130q45 21 81 21q54 0 92 -33t38 -91t-39 -93.5t-104 -35.5q-39 0 -75 23.5t-55 59.5l33 23q13 -29 40 -47.5t57 -18.5q47 0 75 25.5t28 63.5q0 39 -27.5 61.5t-62.5 22.5q-50 0 -116 -33l-11 14l36 207h195z" />
    <glyph glyph-name="six.dnom" horiz-adv-x="339" 
d="M46 128l-2 72.5t7 74t21.5 65t42.5 46t70 16.5q77 -2 107 -70l-35 -16q-22 46 -73 48q-55 1 -79 -49t-19 -120q9 29 35.5 43t58.5 13q52 -1 86.5 -40t32.5 -93q-2 -53 -39.5 -88.5t-89.5 -33.5t-86 37t-38 95zM86 127q0 -38 24.5 -64t60.5 -28q36 -1 61.5 23.5t27.5 61.5
q1 37 -22 63t-59 28q-37 2 -64.5 -22.5t-28.5 -61.5z" />
    <glyph glyph-name="seven.dnom" horiz-adv-x="312" 
d="M299 396l-217 -396h-47l197 356h-195v40h262z" />
    <glyph glyph-name="eight.dnom" horiz-adv-x="345" 
d="M71 305q0 40 29 68.5t72 28.5q44 0 73.5 -28.5t29.5 -68.5q0 -47 -38 -75q32 -15 50.5 -44.5t18.5 -64.5q0 -53 -38.5 -89.5t-95.5 -36.5t-95 36.5t-38 89.5q0 35 18.5 64.5t49.5 45.5q-38 27 -36 74zM78 121q0 -36 27 -61.5t67 -25.5t67.5 25.5t27.5 61.5t-27.5 62
t-66.5 26q-40 0 -67.5 -26.5t-27.5 -61.5zM110 305q0 -26 18.5 -43.5t46.5 -17.5q25 0 42.5 18.5t17.5 42.5t-18 40.5t-45 16.5q-26 0 -44 -17t-18 -40z" />
    <glyph glyph-name="nine.dnom" horiz-adv-x="339" 
d="M292 268l2 -72t-7 -73.5t-21.5 -65t-42.5 -46t-70 -16.5q-78 2 -108 71l35 14q23 -45 75 -47q54 -1 78 48.5t20 119.5q-10 -29 -36.5 -43t-57.5 -12q-53 1 -87.5 40t-32.5 92q2 54 39.5 89.5t90.5 33.5q52 -2 85.5 -37.5t37.5 -95.5zM252 270q0 38 -24.5 63.5t-60.5 27.5
q-36 1 -61 -23t-27 -61q-2 -38 21 -64t60 -27q36 -2 63.5 22.5t28.5 61.5z" />
    <glyph glyph-name="l.alt1" horiz-adv-x="253" 
d="M79 197v536h45v-536q0 -153 114 -153h26v-44h-26q-159 0 -159 197z" />
    <glyph glyph-name="a.alt1" horiz-adv-x="538" 
d="M212 33q51 0 111 26.5t91 75.5v53q-82 33 -177 33q-147 0 -147 -96q0 -41 30.5 -66.5t91.5 -25.5zM248 432q-81 0 -145 -59q-10 10 -30 32q62 72 183 72q99 0 151.5 -49t52.5 -143v-285h-45v80q-39 -47 -96.5 -69t-108.5 -22q-77 0 -121 36t-44 100q0 62 45.5 100.5
t146.5 38.5q74 0 178 -33v54q0 147 -167 147z" />
    <glyph glyph-name="y.alt1" horiz-adv-x="503" 
d="M27 -185q13 -4 35 -4q51 0 83.5 30t62.5 96l19 51l-200 479h49l175 -425l176 425h48l-227 -548q-36 -79 -77.5 -115.5t-108.5 -36.5q-17 0 -35 4v44z" />
    <glyph glyph-name="lslash.alt1" horiz-adv-x="267" 
d="M92 386v347h45v-319l96 61v-42l-96 -61v-175q0 -153 114 -153h26v-44h-26q-159 0 -159 197v147l-82 -52v42z" />
    <glyph glyph-name="lacute.alt1" horiz-adv-x="253" 
d="M157 923h55l-86 -130h-45zM79 197v536h45v-536q0 -153 114 -153h26v-44h-26q-159 0 -159 197z" />
    <glyph glyph-name="lcommaaccent.alt1" horiz-adv-x="253" 
d="M136 -223q61 71 58 156h51q-6 -109 -73 -161q-12 1 -36 5zM79 197v536h45v-536q0 -153 114 -153h26v-44h-26q-159 0 -159 197z" />
    <glyph glyph-name="lcaron.alt1" horiz-adv-x="253" 
d="M199 528q-9 3 -29 11q60 83 57 194h45q-3 -123 -73 -205zM79 733v-536q0 -197 159 -197h26v44h-26q-114 0 -114 153v536h-45z" />
    <glyph glyph-name="aacute.alt1" horiz-adv-x="538" 
d="M303 675h56l-87 -130h-44zM212 33q51 0 111 26.5t91 75.5v53q-82 33 -177 33q-147 0 -147 -96q0 -41 30.5 -66.5t91.5 -25.5zM248 432q-81 0 -145 -59q-10 10 -30 32q62 72 183 72q99 0 151.5 -49t52.5 -143v-285h-45v80q-39 -47 -96.5 -69t-108.5 -22q-77 0 -121 36
t-44 100q0 62 45.5 100.5t146.5 38.5q74 0 178 -33v54q0 147 -167 147z" />
    <glyph glyph-name="agrave.alt1" horiz-adv-x="538" 
d="M246 545l-86 130h55l76 -130h-45zM212 33q51 0 111 26.5t91 75.5v53q-82 33 -177 33q-147 0 -147 -96q0 -41 30.5 -66.5t91.5 -25.5zM248 432q-81 0 -145 -59q-10 10 -30 32q62 72 183 72q99 0 151.5 -49t52.5 -143v-285h-45v80q-39 -47 -96.5 -69t-108.5 -22
q-77 0 -121 36t-44 100q0 62 45.5 100.5t146.5 38.5q74 0 178 -33v54q0 147 -167 147z" />
    <glyph glyph-name="acircumflex.alt1" horiz-adv-x="538" 
d="M118 545l104 130h64l104 -130h-46l-90 99l-90 -99h-46zM212 33q51 0 111 26.5t91 75.5v53q-82 33 -177 33q-147 0 -147 -96q0 -41 30.5 -66.5t91.5 -25.5zM248 432q-81 0 -145 -59q-10 10 -30 32q62 72 183 72q99 0 151.5 -49t52.5 -143v-285h-45v80q-39 -47 -96.5 -69
t-108.5 -22q-77 0 -121 36t-44 100q0 62 45.5 100.5t146.5 38.5q74 0 178 -33v54q0 147 -167 147z" />
    <glyph glyph-name="adieresis.alt1" horiz-adv-x="538" 
d="M136 629q0 16 11.5 26.5t27.5 10.5q17 0 28.5 -10.5t11.5 -26.5t-11.5 -26t-28.5 -10q-16 0 -27.5 10.5t-11.5 25.5zM299 629q0 16 11.5 26.5t27.5 10.5q17 0 28.5 -10.5t11.5 -26.5t-11.5 -26t-28.5 -10q-16 0 -27.5 10.5t-11.5 25.5zM212 33q51 0 111 26.5t91 75.5v53
q-82 33 -177 33q-147 0 -147 -96q0 -41 30.5 -66.5t91.5 -25.5zM248 432q-81 0 -145 -59q-10 10 -30 32q62 72 183 72q99 0 151.5 -49t52.5 -143v-285h-45v80q-39 -47 -96.5 -69t-108.5 -22q-77 0 -121 36t-44 100q0 62 45.5 100.5t146.5 38.5q74 0 178 -33v54
q0 147 -167 147z" />
    <glyph glyph-name="atilde.alt1" horiz-adv-x="538" 
d="M223 616q-13 0 -24 -11.5t-12 -33.5h-39q2 41 23 63.5t45 22.5h9q19 0 49 -21t44 -21q13 0 24 10.5t12 32.5h39q-2 -41 -23 -63t-45 -22q-21 0 -54.5 21.5t-47.5 21.5zM212 33q51 0 111 26.5t91 75.5v53q-82 33 -177 33q-147 0 -147 -96q0 -41 30.5 -66.5t91.5 -25.5z
M248 432q-81 0 -145 -59q-10 10 -30 32q62 72 183 72q99 0 151.5 -49t52.5 -143v-285h-45v80q-39 -47 -96.5 -69t-108.5 -22q-77 0 -121 36t-44 100q0 62 45.5 100.5t146.5 38.5q74 0 178 -33v54q0 147 -167 147z" />
    <glyph glyph-name="aring.alt1" horiz-adv-x="538" 
d="M170 644q0 37 25.5 63.5t61.5 26.5q38 0 64 -26t26 -64q0 -37 -26 -62.5t-64 -25.5q-36 0 -61.5 25.5t-25.5 62.5zM207 644q0 -21 14.5 -35.5t36.5 -14.5t37 14.5t15 35.5q0 22 -15 37t-37 15t-36.5 -15t-14.5 -37zM212 33q51 0 111 26.5t91 75.5v53q-82 33 -177 33
q-147 0 -147 -96q0 -41 30.5 -66.5t91.5 -25.5zM248 432q-81 0 -145 -59q-10 10 -30 32q62 72 183 72q99 0 151.5 -49t52.5 -143v-285h-45v80q-39 -47 -96.5 -69t-108.5 -22q-77 0 -121 36t-44 100q0 62 45.5 100.5t146.5 38.5q74 0 178 -33v54q0 147 -167 147z" />
    <glyph glyph-name="amacron.alt1" horiz-adv-x="538" 
d="M143 604v42h232v-42h-232zM212 33q51 0 111 26.5t91 75.5v53q-82 33 -177 33q-147 0 -147 -96q0 -41 30.5 -66.5t91.5 -25.5zM248 432q-81 0 -145 -59q-10 10 -30 32q62 72 183 72q99 0 151.5 -49t52.5 -143v-285h-45v80q-39 -47 -96.5 -69t-108.5 -22q-77 0 -121 36
t-44 100q0 62 45.5 100.5t146.5 38.5q74 0 178 -33v54q0 147 -167 147z" />
    <glyph glyph-name="abreve.alt1" horiz-adv-x="538" 
d="M352 666h37q0 -50 -32 -80t-84 -30q-57 0 -86 32t-29 78h37q2 -30 22 -50.5t56 -20.5q35 0 56 20t23 51zM212 33q51 0 111 26.5t91 75.5v53q-82 33 -177 33q-147 0 -147 -96q0 -41 30.5 -66.5t91.5 -25.5zM248 432q-81 0 -145 -59q-10 10 -30 32q62 72 183 72
q99 0 151.5 -49t52.5 -143v-285h-45v80q-39 -47 -96.5 -69t-108.5 -22q-77 0 -121 36t-44 100q0 62 45.5 100.5t146.5 38.5q74 0 178 -33v54q0 147 -167 147z" />
    <glyph glyph-name="aogonek.alt1" horiz-adv-x="538" 
d="M248 432q-81 0 -145 -59q-10 10 -30 32q62 72 183 72q99 0 151.5 -49t52.5 -143v-285h-7l-27 -82q-6 -18 -6 -24q0 -33 34 -48q20 -8 40.5 0t29.5 28q6 13 6 29h40q0 -20 -8 -42q-16 -37 -51.5 -52t-71.5 0q-38 15 -52 51t2 74l26 66v80q-39 -47 -96.5 -69t-108.5 -22
q-77 0 -121 36t-44 100q0 62 45.5 100.5t146.5 38.5q74 0 178 -33v54q0 147 -167 147zM212 33q51 0 111 26.5t91 75.5v53q-82 33 -177 33q-147 0 -147 -96q0 -41 30.5 -66.5t91.5 -25.5z" />
    <glyph glyph-name="yacute.alt1" horiz-adv-x="503" 
d="M302 675h56l-87 -130h-44zM27 -185q13 -4 35 -4q51 0 83.5 30t62.5 96l19 51l-200 479h49l175 -425l176 425h48l-227 -548q-36 -79 -77.5 -115.5t-108.5 -36.5q-17 0 -35 4v44z" />
    <glyph glyph-name="ydieresis.alt1" horiz-adv-x="503" 
d="M141 629q0 16 11.5 26.5t27.5 10.5q17 0 28.5 -10.5t11.5 -26.5t-11.5 -26t-28.5 -10q-16 0 -27.5 10.5t-11.5 25.5zM304 629q0 16 11.5 26.5t27.5 10.5q17 0 28.5 -10.5t11.5 -26.5t-11.5 -26t-28.5 -10q-16 0 -27.5 10.5t-11.5 25.5zM27 -185q13 -4 35 -4q51 0 83.5 30
t62.5 96l19 51l-200 479h49l175 -425l176 425h48l-227 -548q-36 -79 -77.5 -115.5t-108.5 -36.5q-17 0 -35 4v44z" />
    <glyph glyph-name="ae.alt1" horiz-adv-x="923" 
d="M460 85v-85h-45v80q-39 -47 -96.5 -69t-108.5 -22q-77 0 -121 36t-44 100q0 62 45.5 100.5t146.5 38.5q74 0 178 -33v54q0 147 -167 147q-81 0 -145 -59q-10 10 -30 32q62 72 183 72q152 0 192 -113q30 53 83.5 83t118.5 30q101 0 165 -66.5t64 -175.5q0 -14 -1 -21h-417
q6 -80 59.5 -129.5t129.5 -49.5q52 0 95 23.5t68 65.5l43 -15q-30 -56 -84.5 -87.5t-121.5 -31.5q-59 0 -108.5 25t-81.5 70zM650 432q-76 0 -129 -48t-60 -128h372q-7 81 -57 128.5t-126 47.5zM212 33q51 0 111 26.5t91 75.5v53q-82 33 -177 33q-147 0 -147 -96
q0 -41 30.5 -66.5t91.5 -25.5z" />
    <glyph glyph-name="aeacute.alt1" horiz-adv-x="923" 
d="M526 675h56l-87 -130h-44zM460 85v-85h-45v80q-39 -47 -96.5 -69t-108.5 -22q-77 0 -121 36t-44 100q0 62 45.5 100.5t146.5 38.5q74 0 178 -33v54q0 147 -167 147q-81 0 -145 -59q-10 10 -30 32q62 72 183 72q152 0 192 -113q30 53 83.5 83t118.5 30q101 0 165 -66.5
t64 -175.5q0 -14 -1 -21h-417q6 -80 59.5 -129.5t129.5 -49.5q52 0 95 23.5t68 65.5l43 -15q-30 -56 -84.5 -87.5t-121.5 -31.5q-59 0 -108.5 25t-81.5 70zM650 432q-76 0 -129 -48t-60 -128h372q-7 81 -57 128.5t-126 47.5zM212 33q51 0 111 26.5t91 75.5v53
q-82 33 -177 33q-147 0 -147 -96q0 -41 30.5 -66.5t91.5 -25.5z" />
    <glyph glyph-name="ycircumflex.alt1" horiz-adv-x="503" 
d="M119 545l104 130h64l104 -130h-46l-90 99l-90 -99h-46zM27 -185q13 -4 35 -4q51 0 83.5 30t62.5 96l19 51l-200 479h49l175 -425l176 425h48l-227 -548q-36 -79 -77.5 -115.5t-108.5 -36.5q-17 0 -35 4v44z" />
    <glyph glyph-name="ldot.alt1" horiz-adv-x="261" 
d="M190 246q0 17 12 28t29 11q18 0 30 -11t12 -28q0 -16 -12.5 -27t-29.5 -11t-29 11t-12 27zM79 197v536h45v-536q0 -153 114 -153h26v-44h-26q-159 0 -159 197z" />
    <glyph glyph-name="t.alt1" horiz-adv-x="312" 
d="M116 467v138l45 16v-154h109v-41h-109v-258q0 -64 24 -94t90 -30h17v-44h-17q-87 0 -123 41t-36 127v258h-85v41h85z" />
    <glyph glyph-name="tcaron.alt1" horiz-adv-x="312" 
d="M116 605v-138h-85v-41h85v-258q0 -86 36 -127t123 -41h17v44h-17q-66 0 -90 30t-24 94v258h109v41h-109v154zM300 678q1 -104 -62 -163l-29 10q48 66 42 153h49z" />
    <glyph glyph-name="tbar.alt1" horiz-adv-x="315" 
d="M119 467v138l45 16v-154h109v-41h-109v-154h77v-38h-77v-66q0 -64 24 -94t90 -30h17v-44h-17q-87 0 -123 41t-36 127v66h-68v38h68v154h-85v41h85z" />
    <glyph glyph-name="tcommaaccent.alt1" horiz-adv-x="312" 
d="M161 -223q61 71 58 156h51q-6 -109 -73 -161q-12 1 -36 5zM116 467v138l45 16v-154h109v-41h-109v-258q0 -64 24 -94t90 -30h17v-44h-17q-87 0 -123 41t-36 127v258h-85v41h85z" />
    <glyph glyph-name="T.sc.alt1" horiz-adv-x="487" 
d="M222 543h-192v43h427v-43h-192v-543h-43v543z" />
    <glyph glyph-name="Tcaron.sc.alt1" horiz-adv-x="488" 
d="M222 0h43v543h193v43h-428v-43h192v-543zM359 765l-88 -112h-57l-89 112h43l74 -82l75 82h42z" />
    <glyph glyph-name="Tbar.sc.alt1" horiz-adv-x="489" 
d="M266 0h-43v303h-109v36h109v204h-192v43h428v-43h-193v-204h110v-36h-110v-303z" />
    <glyph glyph-name="Tcommaaccent.sc.alt1" horiz-adv-x="487" 
d="M222 543h-192v43h427v-43h-192v-543h-43v543zM208 -197l-33 7q52 61 48 134h47q-3 -94 -62 -141z" />
    <glyph glyph-name="aringacute.alt1" horiz-adv-x="538" 
d="M218 635q0 -22 14.5 -36.5t35.5 -14.5q22 0 37 14.5t15 36.5t-15 37t-37 15q-21 0 -35.5 -15t-14.5 -37zM310 829h55l-73 -109q29 -8 47.5 -32t18.5 -54q0 -37 -26 -62.5t-64 -25.5q-37 0 -62 25.5t-25 62.5q0 32 18.5 56t47.5 31zM212 33q51 0 111 26.5t91 75.5v53
q-82 33 -177 33q-147 0 -147 -96q0 -41 30.5 -66.5t91.5 -25.5zM248 432q-81 0 -145 -59q-10 10 -30 32q62 72 183 72q99 0 151.5 -49t52.5 -143v-285h-45v80q-39 -47 -96.5 -69t-108.5 -22q-77 0 -121 36t-44 100q0 62 45.5 100.5t146.5 38.5q74 0 178 -33v54
q0 147 -167 147z" />
    </font>
</defs>
</svg>
